<?xml version="1.0" encoding="UTF-8" standalone="no"?>
<svg
   width="64"
   height="64"
   version="1.1"
   viewBox="0 0 16.933 16.933"
   id="svg39"
   sodipodi:docname="user-identity.svg"
   inkscape:version="1.1 (c68e22c387, 2021-05-23)"
   xmlns:inkscape="http://www.inkscape.org/namespaces/inkscape"
   xmlns:sodipodi="http://sodipodi.sourceforge.net/DTD/sodipodi-0.dtd"
   xmlns="http://www.w3.org/2000/svg"
   xmlns:svg="http://www.w3.org/2000/svg"
   xmlns:rdf="http://www.w3.org/1999/02/22-rdf-syntax-ns#"
   xmlns:cc="http://creativecommons.org/ns#"
   xmlns:dc="http://purl.org/dc/elements/1.1/">
  <sodipodi:namedview
     id="namedview41"
     pagecolor="#ffffff"
     bordercolor="#666666"
     borderopacity="1.0"
     inkscape:pageshadow="2"
     inkscape:pageopacity="0.0"
     inkscape:pagecheckerboard="0"
     showgrid="false"
     inkscape:zoom="6.84375"
     inkscape:cx="32"
     inkscape:cy="32"
     inkscape:window-width="1366"
     inkscape:window-height="702"
     inkscape:window-x="0"
     inkscape:window-y="0"
     inkscape:window-maximized="1"
     inkscape:current-layer="svg39" />
  <defs
     id="defs7">
    <linearGradient
       id="linearGradient912"
       x1="9.0937"
       x2="9.0937"
       y1="14.916"
       y2="2.017"
       gradientTransform="matrix(1.2282068,0,0,1.2282,-1.9319135,-1.9319442)"
       gradientUnits="userSpaceOnUse">
      <stop
         stop-color="#3689e6"
         offset="0"
         id="stop2" />
      <stop
         stop-color="#3689e6"
         offset="1"
         id="stop4" />
    </linearGradient>
  </defs>
  <metadata
     id="metadata9">
    <rdf:RDF>
      <cc:Work
         rdf:about="">
        <dc:format>image/svg+xml</dc:format>
        <dc:type
           rdf:resource="http://purl.org/dc/dcmitype/StillImage" />
        <dc:title />
      </cc:Work>
    </rdf:RDF>
  </metadata>
  <g
     fill="#5e4aa6"
     stroke-width=".26458"
     id="g21">
    <circle
       cx="-330.35"
       cy="-328.38"
       r="0"
       id="circle11" />
    <circle
       cx="-312.11"
       cy="-326.25"
       r="0"
       id="circle13" />
    <circle
       cx="-306.02"
       cy="-333.07"
       r="0"
       id="circle15" />
    <circle
       cx="-308.84"
       cy="-326.01"
       r="0"
       id="circle17" />
    <circle
       cx="-328.8"
       cy="-330.45"
       r="0"
       id="circle19" />
  </g>
  <ellipse
     cx="8.4665442"
     cy="8.4664564"
     fill="url(#linearGradient912)"
     stroke-width="1.2"
     id="circle23"
     style="fill:url(#linearGradient912)"
     rx="7.9373436"
     ry="7.9373002" />
  <g
     transform="matrix(.71192 0 0 .70718 2.3684 2.8662)"
     fill="#fff"
     id="g37">
    <path
       d="m7.2242 8.556v0.39835s0.10755 0.85578-0.50008 1.1723c-0.60764 0.31647-2.6192 1.2658-2.7272 1.4416-0.10802 0.17582-0.26993 0.68298 0.18917 0.81192h8.7592c0.45911-0.12893 0.2972-0.6361 0.18917-0.81192s-2.1196-1.1251-2.7272-1.4416c-0.60764-0.31647-0.50008-1.1723-0.50008-1.1723v-0.39835h-1.3415z"
       id="path25" />
    <g
       transform="translate(.10535)"
       id="g35">
      <path
         d="m10.452 6.6018c-0.26458 1.8862-0.88842 2.8929-1.9843 2.8929-1.0959 1e-7 -1.7198-1.0067-1.9843-2.8929-0.2414-1.7209 0-3.1436 1.9843-3.1436s2.2257 1.4227 1.9843 3.1436z"
         id="path27" />
      <path
         d="m10.492 6.1701s0.6201-0.024804 0.45474 0.5953c-0.16536 0.6201-0.47955 1.2816-0.82681 1.356-0.34726 0.074413 0.27285-1.9265 0.37206-1.9513z"
         id="path29" />
      <path
         d="m6.4284 6.1117s-0.6201-0.024804-0.45474 0.5953c0.16536 0.6201 0.47955 1.2816 0.82681 1.356 0.34726 0.074413-0.27285-1.9265-0.37206-1.9513z"
         id="path31" />
      <path
         d="m10.452 6.6018c-0.26458 1.8862-0.88842 2.8929-1.9843 2.8929-1.0959 1e-7 -1.7198-1.0067-1.9843-2.8929-0.2414-1.7209 0-3.1436 1.9843-3.1436s2.2257 1.4227 1.9843 3.1436z"
         id="path33" />
    </g>
  </g>
</svg>
