<?xml version="1.0" encoding="UTF-8" standalone="no"?>
<!-- Created with Inkscape (http://www.inkscape.org/) -->

<svg
   version="1.1"
   width="100%"
   height="100%"
   viewBox="0 0 512 512"
   id="svg2"
   sodipodi:docname="distributor-logo-linux-mint.svg"
   inkscape:version="1.1 (c68e22c387, 2021-05-23)"
   xmlns:inkscape="http://www.inkscape.org/namespaces/inkscape"
   xmlns:sodipodi="http://sodipodi.sourceforge.net/DTD/sodipodi-0.dtd"
   xmlns:xlink="http://www.w3.org/1999/xlink"
   xmlns="http://www.w3.org/2000/svg"
   xmlns:svg="http://www.w3.org/2000/svg"
   xmlns:rdf="http://www.w3.org/1999/02/22-rdf-syntax-ns#"
   xmlns:cc="http://creativecommons.org/ns#"
   xmlns:dc="http://purl.org/dc/elements/1.1/">
  <sodipodi:namedview
     id="namedview51"
     pagecolor="#ffffff"
     bordercolor="#666666"
     borderopacity="1.0"
     inkscape:pageshadow="2"
     inkscape:pageopacity="0.0"
     inkscape:pagecheckerboard="0"
     showgrid="false"
     inkscape:zoom="0.42773438"
     inkscape:cx="-125.07762"
     inkscape:cy="219.76255"
     inkscape:window-width="1366"
     inkscape:window-height="708"
     inkscape:window-x="0"
     inkscape:window-y="0"
     inkscape:window-maximized="1"
     inkscape:current-layer="svg2" />
  <metadata
     id="metadata72">
    <rdf:RDF>
      <cc:Work
         rdf:about="">
        <dc:format>image/svg+xml</dc:format>
        <dc:type
           rdf:resource="http://purl.org/dc/dcmitype/StillImage" />
      </cc:Work>
    </rdf:RDF>
  </metadata>
  <defs
     id="defs70">
    <linearGradient
       x1="257"
       y1="256"
       x2="362"
       y2="256"
       id="linearGradient3153"
       xlink:href="#linearGradient4996-4"
       gradientUnits="userSpaceOnUse"
       gradientTransform="matrix(1.0380952,0,0,1.4619252,-337.28943,-118.25286)" />
    <linearGradient
       x1="257"
       y1="256"
       x2="362"
       y2="256"
       id="linearGradient3149"
       xlink:href="#linearGradient4996-4"
       gradientUnits="userSpaceOnUse"
       gradientTransform="matrix(1.0283468,0,0,1.4619252,209.19233,-118.25286)" />
    <linearGradient
       x1="257"
       y1="256"
       x2="362"
       y2="256"
       id="linearGradient3145"
       xlink:href="#linearGradient4996-4"
       gradientUnits="userSpaceOnUse"
       gradientTransform="matrix(1.0283468,0,0,1.4619252,101.21591,-118.25286)" />
    <linearGradient
       x1="257"
       y1="256"
       x2="362"
       y2="256"
       id="linearGradient3141"
       xlink:href="#linearGradient4996-4"
       gradientUnits="userSpaceOnUse"
       gradientTransform="matrix(1.0380952,0,0,1.4619252,-10.28943,-118.25286)" />
    <linearGradient
       x1="257"
       y1="256"
       x2="362"
       y2="256"
       id="linearGradient3137"
       xlink:href="#linearGradient4996-4"
       gradientUnits="userSpaceOnUse"
       gradientTransform="matrix(1.0380952,0,0,1.4619252,-119.28943,-118.25286)" />
    <linearGradient
       x1="257"
       y1="256"
       x2="362"
       y2="256"
       id="linearGradient3108"
       xlink:href="#linearGradient4996-4"
       gradientUnits="userSpaceOnUse"
       gradientTransform="matrix(1.0380952,0,0,1.4619252,-228.28943,-118.25286)" />
    <linearGradient
       id="linearGradient4996-4">
      <stop
         id="stop4998-8"
         style="stop-color:#000000;stop-opacity:1"
         offset="0" />
      <stop
         id="stop5000-8"
         style="stop-color:#ffffff;stop-opacity:1"
         offset="1" />
    </linearGradient>
    <linearGradient
       id="linearGradient900"
       x1="37.737"
       x2="37.737"
       y1="62.067001"
       y2="39.790001"
       gradientTransform="matrix(3.779602,0,0,3.779602,480.54632,-68.307707)"
       gradientUnits="userSpaceOnUse">
      <stop
         stop-color="#089"
         offset="0"
         id="stop2" />
      <stop
         stop-color="#6f6"
         offset="1"
         id="stop4" />
    </linearGradient>
    <linearGradient
       inkscape:collect="always"
       xlink:href="#linearGradient900"
       id="linearGradient968"
       x1="38.500011"
       y1="253"
       x2="473.49997"
       y2="253"
       gradientUnits="userSpaceOnUse"
       gradientTransform="matrix(1.1026161,0,0,1.1026161,-538.55977,-22.67189)" />
  </defs>
  <text
     x="691.91766"
     y="242.04544"
     id="text20"
     style="font-size:115.649px;line-height:125%;font-family:'Gentium Book Basic';letter-spacing:0;word-spacing:0;stroke-width:0.894917"
     transform="scale(0.97268743,1.0280795)"><tspan
       x="691.91766"
       y="242.04544"
       id="tspan22"
       style="stroke-width:0.894917" /></text>
  <text
     x="348.79782"
     y="658.81635"
     transform="scale(3.90322,0.25619873)"
     id="text24"
     style="font-size:42.0198px;font-family:Arial;text-anchor:middle;stroke-width:0.894913" />
  <text
     x="1212.1061"
     y="170.45203"
     id="text26"
     style="font-size:115.649px;line-height:125%;font-family:'Gentium Book Basic';letter-spacing:0;word-spacing:0;stroke-width:0.894917"
     transform="scale(0.97268743,1.0280795)"><tspan
       x="1212.1061"
       y="170.45203"
       id="tspan28"
       style="stroke-width:0.894917" /></text>
  <text
     x="478.42587"
     y="371.52246"
     transform="scale(3.90322,0.25619873)"
     id="text30"
     style="font-size:42.0198px;font-family:Arial;text-anchor:middle;stroke-width:0.894913" />
  <text
     x="253.13078"
     y="8.2384367"
     id="text32"
     style="font-size:115.649px;line-height:125%;font-family:'Gentium Book Basic';letter-spacing:0;word-spacing:0;stroke-width:0.894917"
     transform="scale(0.97268743,1.0280795)"><tspan
       x="253.13078"
       y="8.2384367"
       id="tspan34"
       style="stroke-width:0.894917" /></text>
  <text
     x="239.44843"
     y="-279.40121"
     transform="scale(3.90322,0.25619873)"
     id="text36"
     style="font-size:42.0198px;font-family:Arial;text-anchor:middle;stroke-width:0.894913" />
  <text
     x="1235.7946"
     y="-185.48338"
     id="text38"
     style="font-size:115.649px;line-height:125%;font-family:'Gentium Book Basic';letter-spacing:0;word-spacing:0;stroke-width:0.894917"
     transform="scale(0.97268743,1.0280795)"><tspan
       x="1235.7946"
       y="-185.48338"
       id="tspan40"
       style="stroke-width:0.894917" /></text>
  <text
     x="484.33237"
     y="-1056.7849"
     transform="scale(3.90322,0.25619873)"
     id="text42"
     style="font-size:42.0198px;font-family:Arial;text-anchor:middle;stroke-width:0.894913" />
  <text
     x="1755.9833"
     y="-257.08582"
     id="text44"
     style="font-size:115.649px;line-height:125%;font-family:'Gentium Book Basic';letter-spacing:0;word-spacing:0;stroke-width:0.894917"
     transform="scale(0.97268743,1.0280795)"><tspan
       x="1755.9833"
       y="-257.08582"
       id="tspan46"
       style="stroke-width:0.894917" /></text>
  <text
     x="613.96051"
     y="-1344.0878"
     transform="scale(3.90322,0.25619873)"
     id="text48"
     style="font-size:42.0198px;font-family:Arial;text-anchor:middle;stroke-width:0.894913" />
  <text
     x="1407.7531"
     y="-679.84479"
     id="text50"
     style="font-size:115.649px;line-height:125%;font-family:'Gentium Book Basic';letter-spacing:0;word-spacing:0;stroke-width:0.894917"
     transform="scale(0.97268743,1.0280795)"><tspan
       x="1407.7531"
       y="-679.84479"
       id="tspan52"
       style="stroke-width:0.894917" /></text>
  <text
     x="527.18073"
     y="-3040.5381"
     transform="scale(3.90322,0.25619873)"
     id="text54"
     style="font-size:42.0198px;font-family:Arial;text-anchor:middle;stroke-width:0.894913" />
  <text
     x="1927.9327"
     y="-751.43823"
     id="text56"
     style="font-size:115.649px;line-height:125%;font-family:'Gentium Book Basic';letter-spacing:0;word-spacing:0;stroke-width:0.894917"
     transform="scale(0.97268743,1.0280795)"><tspan
       x="1927.9327"
       y="-751.43823"
       id="tspan58"
       style="stroke-width:0.894917" /></text>
  <text
     x="656.80884"
     y="-3327.8323"
     transform="scale(3.90322,0.25619873)"
     id="text60"
     style="font-size:42.0198px;font-family:Arial;text-anchor:middle;stroke-width:0.894913" />
  <text
     x="287.72821"
     y="514.61938"
     id="text62"
     style="font-size:186.438px;line-height:125%;font-family:'Gentium Book Basic';letter-spacing:0;word-spacing:0;stroke-width:0.894917"
     transform="scale(0.97268743,1.0280795)"><tspan
       x="287.72821"
       y="514.61938"
       id="tspan64"
       style="stroke-width:0.894917" /></text>
  <rect
     width="479.638"
     height="479.638"
     rx="239.819"
     ry="239.819"
     x="-496.10901"
     y="16.471001"
     id="rect4981-4"
     style="fill:url(#linearGradient968);fill-opacity:1;stroke:none;stroke-width:1.10261"
     transform="rotate(-90)" />
  <g
     transform="matrix(0.87047473,0,0,0.92004607,31.357819,29.079715)"
     id="g3202">
    <path
       d="m 103.49975,111.0111 v 230.38346 c 0,24.44399 8.944,45.86087 26.3458,63.19112 14.8735,14.68154 32.7097,24.2548 52.8064,26.40322 h 56.8692 0.058 107.4068 c 25.226,0 47.2258,-9.4149 65.1111,-27.62247 h 0.1738 c 15.2098,-15.6275 24.0628,-34.3452 26.2294,-55.41872 v -25.64923 l -0.1163,-100.21729 c 0,-19.94677 -7.3968,-37.60497 -21.4127,-51.76236 -14.0284,-14.16861 -31.482,-21.47153 -51.1247,-21.47153 -19.2811,0 -36.1475,7.18241 -49.7891,20.30973 -13.6024,-13.1063 -30.3427,-20.30973 -49.6153,-20.30973 -19.6483,0 -37.1019,7.30573 -51.1247,21.47153 -14.0145,14.15459 -21.3553,31.81559 -21.3553,51.76236 v 100.85494 h 45.6689 V 222.08119 c 0,-7.64489 2.5492,-13.57719 8.0078,-19.09189 5.477,-5.53149 11.2676,-8.06671 18.8019,-8.06671 7.6882,0 13.4286,2.5212 18.9181,8.06671 5.4586,5.5147 7.9504,11.447 7.9504,19.09189 v 100.85494 h 45.6688 V 222.08119 c 0,-7.64489 2.5493,-13.57719 8.0079,-19.09189 5.488,-5.54411 11.1709,-8.06671 18.8592,-8.06671 7.53,0 13.3824,2.53381 18.8592,8.06671 5.4587,5.5147 7.8916,11.447 7.8916,19.09189 l 0.2326,117.80541 c 0,1.48134 -0.074,2.95285 -0.2326,4.41035 -0.014,0.0757 0.014,0.15556 0,0.23263 -0.063,0.55639 -0.1457,1.13238 -0.2326,1.68315 -0.192,1.18562 -0.4583,2.32499 -0.7541,3.48118 -5.2721,20.569 -26.6975,36.43755 -53.325,36.43755 l -98.7597,-0.34755 v 0.0575 l -48.8025,-0.23263 c -23.7278,0 -43.9871,-23.01172 -43.9871,-52.69151 V 111.0125 h -43.2319"
       inkscape:connector-curvature="0"
       id="path3200"
       style="opacity:0.2;fill:#ffffff;fill-opacity:1;fill-rule:evenodd" />
    <path
       d="M 88.49975,96.011103 V 326.39456 c 0,24.44399 8.944,45.86087 26.3458,63.19112 14.8735,14.68154 32.7097,24.2548 52.8064,26.40322 h 56.8692 0.058 107.4068 c 25.226,0 47.2258,-9.4149 65.1111,-27.62247 h 0.1738 c 15.2098,-15.6275 24.0628,-34.3452 26.2294,-55.41872 v -25.64923 l -0.1163,-100.21729 c 0,-19.94677 -7.3968,-37.60497 -21.4127,-51.76236 -14.0284,-14.16861 -31.482,-21.47153 -51.1247,-21.47153 -19.2811,0 -36.1475,7.18241 -49.7891,20.30973 -13.6024,-13.1063 -30.3427,-20.30973 -49.6153,-20.30973 -19.6483,0 -37.1019,7.30573 -51.1247,21.47153 -14.0145,14.15459 -21.3553,31.81559 -21.3553,51.76236 v 100.85494 h 45.6689 V 207.08119 c 0,-7.64489 2.5492,-13.57719 8.0078,-19.09189 5.477,-5.53149 11.2676,-8.06671 18.8019,-8.06671 7.6882,0 13.4286,2.5212 18.9181,8.06671 5.4586,5.5147 7.9504,11.447 7.9504,19.09189 v 100.85494 h 45.6688 V 207.08119 c 0,-7.64489 2.5493,-13.57719 8.0079,-19.09189 5.488,-5.54411 11.1709,-8.06671 18.8592,-8.06671 7.53,0 13.3824,2.53381 18.8592,8.06671 5.4587,5.5147 7.8916,11.447 7.8916,19.09189 l 0.2326,117.80541 c 0,1.48134 -0.074,2.95285 -0.2326,4.41035 -0.014,0.0757 0.014,0.15556 0,0.23263 -0.063,0.55639 -0.1457,1.13238 -0.2326,1.68315 -0.192,1.18562 -0.4583,2.32499 -0.7541,3.48118 -5.2721,20.569 -26.6975,36.43755 -53.325,36.43755 l -98.7597,-0.34755 v 0.0575 l -48.8025,-0.23263 c -23.7278,0 -43.9871,-23.01172 -43.9871,-52.69151 V 96.012504 h -43.2319"
       inkscape:connector-curvature="0"
       id="path66"
       style="fill:#ffffff;fill-opacity:1;fill-rule:evenodd" />
  </g>
</svg>
