<?xml version="1.0" encoding="UTF-8" standalone="no"?>
<!-- Created with Inkscape (http://www.inkscape.org/) -->

<svg
   version="1.1"
   width="100%"
   height="100%"
   viewBox="0 0 512 512"
   id="svg2"
   sodipodi:docname="gnome-boxes.svg"
   inkscape:version="1.1 (c68e22c387, 2021-05-23)"
   xmlns:inkscape="http://www.inkscape.org/namespaces/inkscape"
   xmlns:sodipodi="http://sodipodi.sourceforge.net/DTD/sodipodi-0.dtd"
   xmlns:xlink="http://www.w3.org/1999/xlink"
   xmlns="http://www.w3.org/2000/svg"
   xmlns:svg="http://www.w3.org/2000/svg"
   xmlns:rdf="http://www.w3.org/1999/02/22-rdf-syntax-ns#"
   xmlns:cc="http://creativecommons.org/ns#"
   xmlns:dc="http://purl.org/dc/elements/1.1/">
  <sodipodi:namedview
     id="namedview39"
     pagecolor="#ffffff"
     bordercolor="#666666"
     borderopacity="1.0"
     inkscape:pageshadow="2"
     inkscape:pageopacity="0.0"
     inkscape:pagecheckerboard="0"
     showgrid="false"
     inkscape:zoom="0.15122694"
     inkscape:cx="-195.07107"
     inkscape:cy="443.04276"
     inkscape:window-width="1366"
     inkscape:window-height="708"
     inkscape:window-x="0"
     inkscape:window-y="0"
     inkscape:window-maximized="1"
     inkscape:current-layer="svg2" />
  <metadata
     id="metadata65">
    <rdf:RDF>
      <cc:Work
         rdf:about="">
        <dc:format>image/svg+xml</dc:format>
        <dc:type
           rdf:resource="http://purl.org/dc/dcmitype/StillImage" />
      </cc:Work>
    </rdf:RDF>
  </metadata>
  <defs
     id="defs4">
    <filter
       color-interpolation-filters="sRGB"
       id="7"
       x="-0.018107638"
       y="-0.017892786"
       width="1.0362153"
       height="1.0357856">
      <feGaussianBlur
         id="feGaussianBlur7"
         stdDeviation="3.7725" />
    </filter>
    <linearGradient
       y1="19.563999"
       x2="0"
       y2="504.01999"
       id="8"
       gradientUnits="userSpaceOnUse">
      <stop
         id="stop10"
         style="stop-color:#f3f3f3;stop-opacity:1"
         offset="0" />
      <stop
         id="stop12"
         style="stop-color:#eeeeee;stop-opacity:1"
         offset="0.5" />
      <stop
         id="stop14"
         style="stop-color:#ebebeb;stop-opacity:1"
         offset="1" />
    </linearGradient>
    <linearGradient
       x1="257"
       x2="362"
       id="5"
       xlink:href="#0"
       gradientUnits="userSpaceOnUse"
       gradientTransform="matrix(1.02835,0,0,1.46193,-383.73694,-115.70205)" />
    <linearGradient
       x1="257"
       x2="362"
       id="6"
       xlink:href="#0"
       gradientUnits="userSpaceOnUse"
       gradientTransform="matrix(1.0381,0,0,1.46193,-467.2489,-124.14041)" />
    <linearGradient
       x1="257"
       x2="362"
       id="4"
       xlink:href="#0"
       gradientUnits="userSpaceOnUse"
       gradientTransform="matrix(1.02835,0,0,1.46193,-610.00374,-127.97146)" />
    <linearGradient
       x1="257"
       x2="362"
       id="3"
       xlink:href="#0"
       gradientUnits="userSpaceOnUse"
       gradientTransform="matrix(1.0381,0,0,1.46193,-427.0919,-112.11041)" />
    <linearGradient
       id="0">
      <stop
         id="stop21"
         style="stop-color:#000000;stop-opacity:1"
         offset="0" />
      <stop
         id="stop23"
         style="stop-color:#ffffff;stop-opacity:1"
         offset="1" />
    </linearGradient>
    <linearGradient
       x1="257"
       x2="362"
       id="2"
       xlink:href="#0"
       gradientUnits="userSpaceOnUse"
       gradientTransform="matrix(1.0381,0,0,1.46193,-467.2489,-112.11041)" />
    <linearGradient
       x1="257"
       x2="362"
       id="1"
       xlink:href="#0"
       gradientUnits="userSpaceOnUse"
       gradientTransform="matrix(1.0381,0,0,1.46193,-467.2529,-112.11041)" />
    <linearGradient
       inkscape:collect="always"
       xlink:href="#5-3"
       id="linearGradient984"
       x1="38.5"
       y1="256"
       x2="473.5"
       y2="256"
       gradientUnits="userSpaceOnUse"
       gradientTransform="matrix(1.102616,0,0,1.1026162,-538.55976,-25.979724)" />
    <linearGradient
       id="5-3"
       x1="400.45001"
       y1="543.89001"
       x2="400.62"
       y2="532.98999"
       gradientUnits="userSpaceOnUse"
       gradientTransform="matrix(1.61348,0,0,1.61348,157.13804,-430.674)">
      <stop
         stop-color="#41b99b"
         id="stop7" />
      <stop
         offset="1"
         stop-color="#59ffd5"
         id="stop9" />
    </linearGradient>
  </defs>
  <rect
     width="479.638"
     height="479.638"
     rx="239.819"
     x="-496.10901"
     y="16.471001"
     id="rect33"
     style="fill:url(#linearGradient984);fill-opacity:1;stroke-width:1.10261"
     transform="rotate(-90)"
     ry="239.819" />
  <path
     d="m 155.43149,122.61758 c -19.95634,0 -36.0223,15.57456 -36.0223,34.92051 V 343.7809 c 0,19.34596 16.06596,34.92051 36.0223,34.92051 h 192.11913 c 19.95636,0 36.02233,-15.57455 36.02233,-34.92051 V 157.53809 c 0,-19.34595 -16.06597,-34.92051 -36.02233,-34.92051 z m 8.48988,34.92051 h 175.1406 l -48.02981,46.56072 h -75.56284 -3.5178 l -48.0298,-46.56072 z m -8.48988,8.23018 48.02981,46.56072 v 3.4102 69.84107 3.4102 l -48.02981,46.56072 V 165.76757 Z m 192.11913,0 v 169.78362 l -48.0298,-46.56073 v -3.4102 -73.25162 l 48.0298,-46.56072 z m -132.0819,49.9707 h 72.04466 v 69.84106 h -72.04466 z m -3.51781,81.48121 h 3.51781 75.56282 l 48.02981,46.56072 H 163.92076 l 48.0298,-46.56072 z"
     fill="#999999"
     stroke-linecap="square"
     stroke-width="26.6748"
     id="path2"
     style="fill:#ececec" />
  <path
     d="m 137.41945,93.517169 a 48.028867,46.55982 0 0 0 -48.028823,46.559771 48.028867,46.55982 0 0 0 48.028823,46.55988 48.028867,46.55982 0 0 0 48.02889,-46.55988 48.028867,46.55982 0 0 0 -48.02889,-46.559771 z m 228.14053,0 a 48.028867,46.55982 0 0 0 -48.02888,46.559771 48.028867,46.55982 0 0 0 48.02888,46.55988 48.028867,46.55982 0 0 0 48.0289,-46.55988 48.028867,46.55982 0 0 0 -48.0289,-46.559771 z M 209.46503,186.63682 a 24.014435,23.279909 0 0 0 -24.01449,23.27988 24.014435,23.279909 0 0 0 24.01449,23.2799 24.014435,23.279909 0 0 0 24.01442,-23.2799 24.014435,23.279909 0 0 0 -24.01442,-23.27988 z m 84.05164,0 a 24.014435,23.279909 0 0 0 -24.01441,23.27988 24.014435,23.279909 0 0 0 24.01441,23.2799 24.014435,23.279909 0 0 0 24.01443,-23.2799 24.014435,23.279909 0 0 0 -24.01443,-23.27988 z m -84.05164,81.48074 a 24.014435,23.279909 0 0 0 -24.01449,23.27988 24.014435,23.279909 0 0 0 24.01449,23.27997 24.014435,23.279909 0 0 0 24.01442,-23.27997 24.014435,23.279909 0 0 0 -24.01442,-23.27988 z m 84.05164,0 a 24.014435,23.279909 0 0 0 -24.01441,23.27988 24.014435,23.279909 0 0 0 24.01441,23.27997 24.014435,23.279909 0 0 0 24.01443,-23.27997 24.014435,23.279909 0 0 0 -24.01443,-23.27988 z M 137.4217,314.67741 a 48.028867,46.55982 0 0 0 -48.02885,46.5598 48.028867,46.55982 0 0 0 48.02885,46.55985 48.028867,46.55982 0 0 0 48.02884,-46.55985 48.028867,46.55982 0 0 0 -48.02884,-46.5598 z m 228.14056,0 a 48.028867,46.55982 0 0 0 -48.02889,46.5598 48.028867,46.55982 0 0 0 48.02889,46.55985 48.028867,46.55982 0 0 0 48.02884,-46.55985 48.028867,46.55982 0 0 0 -48.02884,-46.5598 z"
     fill="#f9f9f9"
     stroke-linecap="square"
     stroke-width="12.6105"
     id="path4"
     style="fill:#ffffff" />
</svg>
