<?xml version="1.0" encoding="UTF-8" standalone="no"?>
<!-- Created with Inkscape (http://www.inkscape.org/) -->

<svg
   version="1.1"
   width="100%"
   height="100%"
   viewBox="0 0 512 512"
   id="svg2"
   sodipodi:docname="inkscape.svg"
   inkscape:version="1.1 (c68e22c387, 2021-05-23)"
   xmlns:inkscape="http://www.inkscape.org/namespaces/inkscape"
   xmlns:sodipodi="http://sodipodi.sourceforge.net/DTD/sodipodi-0.dtd"
   xmlns:xlink="http://www.w3.org/1999/xlink"
   xmlns="http://www.w3.org/2000/svg"
   xmlns:svg="http://www.w3.org/2000/svg"
   xmlns:rdf="http://www.w3.org/1999/02/22-rdf-syntax-ns#"
   xmlns:cc="http://creativecommons.org/ns#"
   xmlns:dc="http://purl.org/dc/elements/1.1/">
  <sodipodi:namedview
     id="namedview39"
     pagecolor="#ffffff"
     bordercolor="#666666"
     borderopacity="1.0"
     inkscape:pageshadow="2"
     inkscape:pageopacity="0.0"
     inkscape:pagecheckerboard="0"
     showgrid="false"
     inkscape:zoom="0.42773437"
     inkscape:cx="241.97261"
     inkscape:cy="198.72146"
     inkscape:window-width="1366"
     inkscape:window-height="706"
     inkscape:window-x="0"
     inkscape:window-y="0"
     inkscape:window-maximized="1"
     inkscape:current-layer="svg2" />
  <metadata
     id="metadata65">
    <rdf:RDF>
      <cc:Work
         rdf:about="">
        <dc:format>image/svg+xml</dc:format>
        <dc:type
           rdf:resource="http://purl.org/dc/dcmitype/StillImage" />
      </cc:Work>
    </rdf:RDF>
  </metadata>
  <defs
     id="defs4">
    <filter
       color-interpolation-filters="sRGB"
       id="7"
       x="-0.018107638"
       y="-0.017892786"
       width="1.0362153"
       height="1.0357856">
      <feGaussianBlur
         id="feGaussianBlur7"
         stdDeviation="3.7725" />
    </filter>
    <linearGradient
       y1="19.563999"
       x2="0"
       y2="504.01999"
       id="8"
       gradientUnits="userSpaceOnUse">
      <stop
         id="stop10"
         style="stop-color:#f3f3f3;stop-opacity:1"
         offset="0" />
      <stop
         id="stop12"
         style="stop-color:#eeeeee;stop-opacity:1"
         offset="0.5" />
      <stop
         id="stop14"
         style="stop-color:#ebebeb;stop-opacity:1"
         offset="1" />
    </linearGradient>
    <linearGradient
       x1="257"
       x2="362"
       id="5"
       xlink:href="#0"
       gradientUnits="userSpaceOnUse"
       gradientTransform="matrix(1.02835,0,0,1.46193,-383.73694,-115.70205)" />
    <linearGradient
       x1="257"
       x2="362"
       id="6"
       xlink:href="#0"
       gradientUnits="userSpaceOnUse"
       gradientTransform="matrix(1.0381,0,0,1.46193,-467.2489,-124.14041)" />
    <linearGradient
       x1="257"
       x2="362"
       id="4"
       xlink:href="#0"
       gradientUnits="userSpaceOnUse"
       gradientTransform="matrix(1.02835,0,0,1.46193,-610.00374,-127.97146)" />
    <linearGradient
       x1="257"
       x2="362"
       id="3"
       xlink:href="#0"
       gradientUnits="userSpaceOnUse"
       gradientTransform="matrix(1.0381,0,0,1.46193,-427.0919,-112.11041)" />
    <linearGradient
       id="0">
      <stop
         id="stop21"
         style="stop-color:#000000;stop-opacity:1"
         offset="0" />
      <stop
         id="stop23"
         style="stop-color:#ffffff;stop-opacity:1"
         offset="1" />
    </linearGradient>
    <linearGradient
       x1="257"
       x2="362"
       id="2"
       xlink:href="#0"
       gradientUnits="userSpaceOnUse"
       gradientTransform="matrix(1.0381,0,0,1.46193,-467.2489,-112.11041)" />
    <linearGradient
       x1="257"
       x2="362"
       id="1"
       xlink:href="#0"
       gradientUnits="userSpaceOnUse"
       gradientTransform="matrix(1.0381,0,0,1.46193,-467.2529,-112.11041)" />
    <linearGradient
       id="b"
       x1="101.53"
       x2="101.53"
       y1="55.112"
       y2="183.55"
       gradientTransform="matrix(1.8210952,0,0,1.9416199,73.970481,56.731384)"
       gradientUnits="userSpaceOnUse">
      <stop
         stop-color="#fff"
         offset="0"
         id="stop4" />
      <stop
         stop-color="#dbd6d3"
         offset="1"
         id="stop6" />
    </linearGradient>
    <linearGradient
       id="linearGradient855"
       x1="7.9373002"
       x2="7.9373002"
       y1="15.081"
       y2="1.852"
       gradientTransform="matrix(3.7796,0,0,3.7796,733.40492,321.8031)"
       gradientUnits="userSpaceOnUse">
      <stop
         stop-color="#333"
         offset="0"
         id="stop14-3" />
      <stop
         stop-color="#666"
         offset="1"
         id="stop16" />
    </linearGradient>
    <linearGradient
       inkscape:collect="always"
       xlink:href="#linearGradient855"
       id="linearGradient991"
       x1="38.5"
       y1="256"
       x2="473.5"
       y2="256"
       gradientUnits="userSpaceOnUse"
       gradientTransform="matrix(1.102616,0,0,1.1026162,-538.5598,-25.979724)" />
    <linearGradient
       inkscape:collect="always"
       xlink:href="#b"
       id="linearGradient1369"
       gradientUnits="userSpaceOnUse"
       gradientTransform="matrix(2.1170669,0,0,2.1912463,41.615522,29.102031)"
       x1="101.53"
       y1="55.112"
       x2="101.53"
       y2="183.55" />
  </defs>
  <rect
     width="479.638"
     height="479.638"
     rx="239.819"
     x="-496.10901"
     y="16.471001"
     id="rect33"
     style="fill:url(#linearGradient991);fill-opacity:1;stroke-width:1.10261"
     transform="rotate(-90)"
     ry="239.819" />
  <path
     d="m 270.07757,86.827298 c -10.44157,-0.0195 -20.82285,3.90791 -28.31588,11.84652 L 117.11692,230.70084 c -42.12169,53.9894 28.66745,47.72173 59.01374,63.27381 10.88559,11.51676 -41.71543,19.97286 -30.82984,31.49937 10.88555,11.51674 65.77242,22.17393 76.67498,33.69069 10.88555,11.51674 -22.26415,23.74966 -11.37953,35.26541 10.88558,11.51677 36.0398,0.59908 40.75393,27.18499 3.35928,18.99911 45.41434,8.16446 65.95815,-7.39556 10.88558,-11.52553 -20.80962,-10.39573 -9.92409,-21.91246 27.06876,-28.65238 52.26636,-10.45915 61.5287,-39.16906 4.575,-14.18616 -39.88197,-21.83149 -28.97755,-33.34825 31.32002,-18.93182 139.55729,-31.26715 88.19114,-84.43211 L 298.9194,98.676758 c -7.90193,-7.85218 -18.40309,-11.82508 -28.84561,-11.84654 z m 1.05859,12.53144 c 7.45528,0.039 14.89458,2.950242 20.24405,8.559502 l 49.35453,51.83709 c 4.6771,4.94664 4.6018,14.49937 1.98483,17.25563 l -24.47841,-20.26945 -4.82947,30.06123 -20.44295,-11.16161 -32.81504,21.3651 -10.84975,-45.12647 -17.59809,31.49936 h -26.86044 c -10.96946,0 -12.28254,-14.40375 -2.31555,-24.71946 17.40953,-19.44988 37.37268,-39.25392 48.22997,-50.74142 5.45653,-5.7726 12.92165,-8.600572 20.37696,-8.559502 z M 211.92445,301.08727 c 3.33147,2.14187 53.71142,12.74607 66.02411,14.85938 4.26874,0.93177 1.25239,5.48598 -4.63106,8.55951 -13.27044,3.64996 -77.63647,-23.41889 -61.39673,-23.41889 z m 195.96465,36.2928 c -10.13807,0.36098 -20.13473,5.69798 -22.89097,15.75015 0,6.55071 46.57566,10.88453 46.57566,-1.5065 -3.32214,-9.95082 -13.54665,-14.60474 -23.68469,-14.24277 z m -213.82761,28.34892 c -14.61463,-0.14047 -31.72632,10.95378 -19.11949,22.25493 11.04299,9.88349 28.09812,-2.50466 33.21191,-16.29753 -3.00928,-4.13857 -8.37318,-5.90256 -14.09242,-5.95751 z M 379.101,366.6188 c -14.23477,13.21637 1.58212,26.6171 15.61289,18.07809 3.12737,-3.28486 -0.0661,-14.79303 -15.61289,-18.07809 z"
     fill="url(#b)"
     stroke-width="33.779"
     id="path42"
     style="opacity:0.30884;fill:#ffffff" />
  <path
     d="m 249.28586,75.665683 c -10.44157,-0.01947 -20.82287,3.907905 -28.31588,11.846525 L 96.32521,219.53923 c -42.121703,53.9894 28.66744,47.72173 59.01374,63.27382 10.88558,11.51675 -41.71544,19.97285 -30.82984,31.49935 10.88555,11.51675 65.77241,22.17394 76.67497,33.6907 10.88554,11.51675 -22.26415,23.74966 -11.37953,35.26541 10.88558,11.51677 36.0398,0.59908 40.75393,27.18499 3.35929,18.99911 45.41434,8.16446 65.95814,-7.39556 10.88557,-11.52553 -20.80963,-10.39573 -9.92407,-21.91246 27.06874,-28.65238 52.26635,-10.45915 61.5287,-39.16905 4.57499,-14.18618 -39.88199,-21.8315 -28.97756,-33.34827 31.32002,-18.93181 139.5573,-31.26714 88.19114,-84.4321 L 278.12769,87.515138 c -7.90194,-7.85217 -18.4031,-11.825068 -28.84561,-11.846529 z m 1.05857,12.531435 c 7.45529,0.039 14.89459,2.95024 20.24405,8.55951 l 49.35455,51.837092 c 4.67709,4.94664 4.6018,14.49937 1.98483,17.25564 l -24.47841,-20.26945 -4.82948,30.06122 -20.44296,-11.16161 -32.81503,21.3651 -10.84975,-45.12647 -17.59809,31.49936 h -26.86042 c -10.96948,0 -12.28257,-14.40375 -2.31557,-24.71947 17.40951,-19.44987 37.37268,-39.25391 48.22997,-50.741412 5.45653,-5.77261 12.92165,-8.60057 20.37696,-8.55951 z M 191.13274,289.92567 c 3.33146,2.14186 53.71141,12.74606 66.0241,14.85937 4.26875,0.93176 1.2524,5.48597 -4.63106,8.5595 -13.27044,3.64997 -77.63647,-23.41887 -61.39674,-23.41887 z m 195.96464,36.29279 c -10.13807,0.36098 -20.13473,5.69798 -22.89096,15.75014 0,6.55073 46.57565,10.88454 46.57565,-1.50649 -3.32214,-9.95082 -13.54664,-14.60473 -23.68469,-14.24277 z m -213.82761,28.34892 c -14.61463,-0.14048 -31.72632,10.95378 -19.11948,22.25493 11.04298,9.88349 28.09811,-2.50464 33.21189,-16.29753 -3.00927,-4.13857 -8.37316,-5.90256 -14.09241,-5.9575 z m 185.0395,0.88981 c -14.23476,13.21637 1.58214,26.6171 15.6129,18.07809 3.12737,-3.28486 -0.066,-14.79303 -15.6129,-18.07809 z"
     fill="url(#b)"
     stroke-width="33.779"
     id="path42-7"
     style="fill:url(#linearGradient1369)" />
</svg>
