<?xml version="1.0" encoding="UTF-8" standalone="no"?>
<!-- Created with Inkscape (http://www.inkscape.org/) -->

<svg
   version="1.1"
   width="100%"
   height="100%"
   viewBox="0 0 512 512"
   id="svg2"
   sodipodi:docname="libreoffice-base.svg"
   inkscape:version="1.1 (c68e22c387, 2021-05-23)"
   xmlns:inkscape="http://www.inkscape.org/namespaces/inkscape"
   xmlns:sodipodi="http://sodipodi.sourceforge.net/DTD/sodipodi-0.dtd"
   xmlns:xlink="http://www.w3.org/1999/xlink"
   xmlns="http://www.w3.org/2000/svg"
   xmlns:svg="http://www.w3.org/2000/svg"
   xmlns:rdf="http://www.w3.org/1999/02/22-rdf-syntax-ns#"
   xmlns:cc="http://creativecommons.org/ns#"
   xmlns:dc="http://purl.org/dc/elements/1.1/">
  <sodipodi:namedview
     id="namedview39"
     pagecolor="#ffffff"
     bordercolor="#666666"
     borderopacity="1.0"
     inkscape:pageshadow="2"
     inkscape:pageopacity="0.0"
     inkscape:pagecheckerboard="0"
     showgrid="false"
     inkscape:zoom="0.60490775"
     inkscape:cx="367.82468"
     inkscape:cy="302.52547"
     inkscape:window-width="1366"
     inkscape:window-height="706"
     inkscape:window-x="0"
     inkscape:window-y="0"
     inkscape:window-maximized="1"
     inkscape:current-layer="svg2" />
  <metadata
     id="metadata65">
    <rdf:RDF>
      <cc:Work
         rdf:about="">
        <dc:format>image/svg+xml</dc:format>
        <dc:type
           rdf:resource="http://purl.org/dc/dcmitype/StillImage" />
      </cc:Work>
    </rdf:RDF>
  </metadata>
  <defs
     id="defs4">
    <filter
       color-interpolation-filters="sRGB"
       id="7"
       x="-0.018107638"
       y="-0.017892786"
       width="1.0362153"
       height="1.0357856">
      <feGaussianBlur
         id="feGaussianBlur7"
         stdDeviation="3.7725" />
    </filter>
    <linearGradient
       y1="19.563999"
       x2="0"
       y2="504.01999"
       id="8"
       gradientUnits="userSpaceOnUse">
      <stop
         id="stop10"
         style="stop-color:#f3f3f3;stop-opacity:1"
         offset="0" />
      <stop
         id="stop12"
         style="stop-color:#eeeeee;stop-opacity:1"
         offset="0.5" />
      <stop
         id="stop14"
         style="stop-color:#ebebeb;stop-opacity:1"
         offset="1" />
    </linearGradient>
    <linearGradient
       x1="257"
       x2="362"
       id="5"
       xlink:href="#0"
       gradientUnits="userSpaceOnUse"
       gradientTransform="matrix(1.02835,0,0,1.46193,-383.73694,-115.70205)" />
    <linearGradient
       x1="257"
       x2="362"
       id="6"
       xlink:href="#0"
       gradientUnits="userSpaceOnUse"
       gradientTransform="matrix(1.0381,0,0,1.46193,-467.2489,-124.14041)" />
    <linearGradient
       x1="257"
       x2="362"
       id="4"
       xlink:href="#0"
       gradientUnits="userSpaceOnUse"
       gradientTransform="matrix(1.02835,0,0,1.46193,-610.00374,-127.97146)" />
    <linearGradient
       x1="257"
       x2="362"
       id="3"
       xlink:href="#0"
       gradientUnits="userSpaceOnUse"
       gradientTransform="matrix(1.0381,0,0,1.46193,-427.0919,-112.11041)" />
    <linearGradient
       id="0">
      <stop
         id="stop21"
         style="stop-color:#000000;stop-opacity:1"
         offset="0" />
      <stop
         id="stop23"
         style="stop-color:#ffffff;stop-opacity:1"
         offset="1" />
    </linearGradient>
    <linearGradient
       x1="257"
       x2="362"
       id="2"
       xlink:href="#0"
       gradientUnits="userSpaceOnUse"
       gradientTransform="matrix(1.0381,0,0,1.46193,-467.2489,-112.11041)" />
    <linearGradient
       x1="257"
       x2="362"
       id="1"
       xlink:href="#0"
       gradientUnits="userSpaceOnUse"
       gradientTransform="matrix(1.0381,0,0,1.46193,-467.2529,-112.11041)" />
    <filter
       id="h"
       x="-0.025999999"
       y="-0.022285713"
       width="1.052"
       height="1.0445714"
       color-interpolation-filters="sRGB">
      <feGaussianBlur
         stdDeviation="4.16"
         id="feGaussianBlur5" />
    </filter>
    <filter
       id="i"
       x="-0.025999999"
       y="-0.022285713"
       width="1.052"
       height="1.0445714"
       color-interpolation-filters="sRGB">
      <feGaussianBlur
         stdDeviation="4.16"
         id="feGaussianBlur2" />
    </filter>
    <filter
       id="d"
       x="-0.065999795"
       y="-0.055000001"
       width="1.1319996"
       height="1.11"
       color-interpolation-filters="sRGB">
      <feGaussianBlur
         stdDeviation="8.8"
         id="feGaussianBlur8" />
    </filter>
    <filter
       color-interpolation-filters="sRGB"
       id="7-3"
       x="-0.018107638"
       y="-0.017892786"
       width="1.0362153"
       height="1.0357856">
      <feGaussianBlur
         id="feGaussianBlur7-6"
         stdDeviation="3.7725" />
    </filter>
    <linearGradient
       y1="19.563999"
       x2="0"
       y2="504.01999"
       id="8-7"
       gradientUnits="userSpaceOnUse"
       gradientTransform="translate(-641.64185,53.50442)">
      <stop
         id="stop10-5"
         style="stop-color:#f3f3f3;stop-opacity:1"
         offset="0" />
      <stop
         id="stop12-3"
         style="stop-color:#eeeeee;stop-opacity:1"
         offset="0.5" />
      <stop
         id="stop14-5"
         style="stop-color:#ebebeb;stop-opacity:1"
         offset="1" />
    </linearGradient>
    <linearGradient
       id="0-6"
       x1="77.400002"
       y1="9.8319998"
       x2="76.709999"
       y2="-35.09"
       gradientUnits="userSpaceOnUse">
      <stop
         stop-color="#ff4269"
         id="stop2" />
      <stop
         offset="1"
         stop-color="#ff7b97"
         id="stop4" />
    </linearGradient>
    <linearGradient
       inkscape:collect="always"
       xlink:href="#0-6"
       id="linearGradient1065"
       x1="38.5"
       y1="256"
       x2="473.5"
       y2="256"
       gradientUnits="userSpaceOnUse"
       gradientTransform="matrix(1.1026161,0,0,1.102616,-538.55977,-25.979723)" />
    <linearGradient
       inkscape:collect="always"
       xlink:href="#0-6"
       id="linearGradient1067"
       x1="166.79774"
       y1="238.82249"
       x2="336.32648"
       y2="238.82249"
       gradientUnits="userSpaceOnUse"
       gradientTransform="matrix(-1.0277589,0,0,-0.96159327,505.10806,457.26588)" />
    <linearGradient
       inkscape:collect="always"
       xlink:href="#0-6"
       id="linearGradient1069"
       x1="166.79774"
       y1="292.60617"
       x2="336.32648"
       y2="292.60617"
       gradientUnits="userSpaceOnUse"
       gradientTransform="matrix(-1.0277589,0,0,-0.96159327,505.10806,560.70195)" />
    <linearGradient
       inkscape:collect="always"
       xlink:href="#0-6"
       id="linearGradient1071"
       x1="166.79774"
       y1="347.74783"
       x2="336.32648"
       y2="347.74783"
       gradientUnits="userSpaceOnUse"
       gradientTransform="matrix(-1.0277589,0,0,-0.96159327,505.10806,666.74965)" />
  </defs>
  <rect
     width="479.638"
     height="479.638"
     rx="239.819"
     x="-496.10901"
     y="16.471001"
     id="rect33"
     style="fill:url(#linearGradient1065);fill-opacity:1;stroke-width:1.10261"
     transform="rotate(-90)"
     ry="239.819" />
  <g
     transform="matrix(0.81900845,0,0,0.76990625,329.67618,2557.3683)"
     id="g35"
     style="fill:#ffffff">
    <path
       d="m -236.69983,-3172.1797 c -2.216,0 -4.00001,1.7841 -4.00001,4 v 375.9997 c 0,2.2159 1.78401,3.9999 4.00001,3.9999 H 75.300783 c 2.216003,0 3.983386,-1.7841 3.999989,-3.9999 v -267.0298 l -112.970193,-112.9699 z m 236.97046151,0 79.03113549,79.0309 v -75.0309 c 0,-2.2159 -1.783986,-4 -3.999978,-4 z"
       fill="#f5f5f5"
       id="path23-3"
       style="opacity:0.34078;fill:#ffffff;stroke-width:1.00001" />
    <path
       d="m -256.41756,-3192.6761 c -2.216,0 -4,1.784 -4,4 v 376 c 0,2.216 1.784,4 4,4 H 55.582436 c 2.216,0 3.9834,-1.7841 4,-4 v -267.03 l -112.97,-112.97 z m 236.969996,0 79.031,79.031 v -75.031 c 0,-2.216 -1.784,-4 -4,-4 z"
       fill="#f5f5f5"
       id="path23"
       style="fill:#ffffff" />
    <g
       transform="translate(0,16)"
       fill="#cccccc"
       id="g33"
       style="fill:#ffffff" />
  </g>
  <path
     style="fill:url(#linearGradient1067);fill-opacity:1;stroke-width:0.870796"
     d="m 332.16255,212.79682 c 1.27892,1.27428 1.51768,3.59078 1.51768,14.72604 0,10.10698 -0.30605,13.59128 -1.30161,14.81898 -1.27216,1.56879 -3.21437,1.60513 -85.81575,1.60513 -82.60137,0 -84.54357,-0.0365 -85.81572,-1.60513 -0.99697,-1.22941 -1.30161,-4.7316 -1.30161,-14.96266 0,-11.89044 0.18418,-13.50786 1.67699,-14.72607 1.53474,-1.25242 8.79563,-1.3685 85.59968,-1.3685 80.13832,0 83.99113,0.0681 85.44034,1.51221 z m -161.52366,14.81896 -0.26942,5.99499 h 76.15321 76.15324 v -5.65043 c 0,-3.10775 -0.27749,-5.90067 -0.61665,-6.20649 -0.33916,-0.30582 -34.48686,-0.46087 -75.8838,-0.34453 l -75.26715,0.21149 z"
     id="path4446" />
  <path
     style="fill:url(#linearGradient1069);fill-opacity:1;stroke-width:0.870796"
     d="m 332.16256,264.3081 c 1.28402,1.27938 1.51767,3.62726 1.51767,15.25067 0,13.25956 -0.071,13.78336 -2.0381,15.02571 -1.80821,1.14204 -11.40469,1.28724 -85.07926,1.28724 -73.67457,0 -83.27103,-0.1452 -85.07924,-1.28724 -1.9685,-1.24326 -2.03809,-1.76135 -2.03809,-15.1694 0,-12.39865 0.1792,-14.02838 1.67699,-15.25065 1.53474,-1.25242 8.79563,-1.36851 85.59968,-1.36851 80.13833,0 83.99113,0.0682 85.44035,1.51218 z m -161.71272,15.02572 v 5.78826 h 76.11303 76.11306 v -5.78826 -5.78827 h -76.11306 -76.11303 z"
     id="path4485" />
  <path
     style="fill:url(#linearGradient1071);fill-opacity:1;stroke-width:0.870796"
     d="m 331.64215,317.10702 c 1.96848,1.24326 2.03809,1.76135 2.03809,15.16938 0,12.39867 -0.17921,14.0284 -1.677,15.25067 -1.53477,1.25242 -8.79562,1.3685 -85.5997,1.3685 -80.13831,0 -83.9911,-0.0681 -85.44034,-1.51217 -1.284,-1.27938 -1.51765,-3.62726 -1.51765,-15.25066 0,-13.25958 0.071,-13.78338 2.03808,-15.02572 1.80821,-1.14205 11.40469,-1.28723 85.07925,-1.28723 73.67456,0 83.27105,0.14518 85.07927,1.28723 z m -161.19231,15.25065 v 5.78826 h 76.11304 76.11306 v -5.78826 -5.78826 h -76.11306 -76.11304 z"
     id="path4524" />
</svg>
