<?xml version="1.0" encoding="UTF-8" standalone="no"?>
<!-- Created with Inkscape (http://www.inkscape.org/) -->

<svg
   version="1.1"
   width="100%"
   height="100%"
   viewBox="0 0 512 512"
   id="svg2"
   sodipodi:docname="mega (copy).svg"
   inkscape:version="1.1 (c68e22c387, 2021-05-23)"
   xmlns:inkscape="http://www.inkscape.org/namespaces/inkscape"
   xmlns:sodipodi="http://sodipodi.sourceforge.net/DTD/sodipodi-0.dtd"
   xmlns:xlink="http://www.w3.org/1999/xlink"
   xmlns="http://www.w3.org/2000/svg"
   xmlns:svg="http://www.w3.org/2000/svg"
   xmlns:rdf="http://www.w3.org/1999/02/22-rdf-syntax-ns#"
   xmlns:cc="http://creativecommons.org/ns#"
   xmlns:dc="http://purl.org/dc/elements/1.1/">
  <sodipodi:namedview
     id="namedview39"
     pagecolor="#ffffff"
     bordercolor="#666666"
     borderopacity="1.0"
     inkscape:pageshadow="2"
     inkscape:pageopacity="0.0"
     inkscape:pagecheckerboard="0"
     showgrid="false"
     inkscape:zoom="0.30245388"
     inkscape:cx="-166.96761"
     inkscape:cy="142.17044"
     inkscape:window-width="1366"
     inkscape:window-height="706"
     inkscape:window-x="0"
     inkscape:window-y="0"
     inkscape:window-maximized="1"
     inkscape:current-layer="svg2" />
  <metadata
     id="metadata65">
    <rdf:RDF>
      <cc:Work
         rdf:about="">
        <dc:format>image/svg+xml</dc:format>
        <dc:type
           rdf:resource="http://purl.org/dc/dcmitype/StillImage" />
      </cc:Work>
    </rdf:RDF>
  </metadata>
  <defs
     id="defs4">
    <filter
       color-interpolation-filters="sRGB"
       id="7"
       x="-0.018107638"
       y="-0.017892786"
       width="1.0362153"
       height="1.0357856">
      <feGaussianBlur
         id="feGaussianBlur7"
         stdDeviation="3.7725" />
    </filter>
    <linearGradient
       y1="19.563999"
       x2="0"
       y2="504.01999"
       id="8"
       gradientUnits="userSpaceOnUse">
      <stop
         id="stop10"
         style="stop-color:#f3f3f3;stop-opacity:1"
         offset="0" />
      <stop
         id="stop12"
         style="stop-color:#eeeeee;stop-opacity:1"
         offset="0.5" />
      <stop
         id="stop14"
         style="stop-color:#ebebeb;stop-opacity:1"
         offset="1" />
    </linearGradient>
    <linearGradient
       x1="257"
       x2="362"
       id="5"
       xlink:href="#0"
       gradientUnits="userSpaceOnUse"
       gradientTransform="matrix(1.02835,0,0,1.46193,-383.73694,-115.70205)" />
    <linearGradient
       x1="257"
       x2="362"
       id="6"
       xlink:href="#0"
       gradientUnits="userSpaceOnUse"
       gradientTransform="matrix(1.0381,0,0,1.46193,-467.2489,-124.14041)" />
    <linearGradient
       x1="257"
       x2="362"
       id="4"
       xlink:href="#0"
       gradientUnits="userSpaceOnUse"
       gradientTransform="matrix(1.02835,0,0,1.46193,-610.00374,-127.97146)" />
    <linearGradient
       x1="257"
       x2="362"
       id="3"
       xlink:href="#0"
       gradientUnits="userSpaceOnUse"
       gradientTransform="matrix(1.0381,0,0,1.46193,-427.0919,-112.11041)" />
    <linearGradient
       id="0">
      <stop
         id="stop21"
         style="stop-color:#000000;stop-opacity:1"
         offset="0" />
      <stop
         id="stop23"
         style="stop-color:#ffffff;stop-opacity:1"
         offset="1" />
    </linearGradient>
    <linearGradient
       x1="257"
       x2="362"
       id="2"
       xlink:href="#0"
       gradientUnits="userSpaceOnUse"
       gradientTransform="matrix(1.0381,0,0,1.46193,-467.2489,-112.11041)" />
    <linearGradient
       x1="257"
       x2="362"
       id="1"
       xlink:href="#0"
       gradientUnits="userSpaceOnUse"
       gradientTransform="matrix(1.0381,0,0,1.46193,-467.2529,-112.11041)" />
    <linearGradient
       id="f"
       x1="86"
       x2="63"
       y1="19.458"
       y2="39"
       gradientTransform="matrix(9.9216009,0,0,9.0103275,-1163.4657,-121.67081)"
       gradientUnits="userSpaceOnUse">
      <stop
         stop-color="#007abb"
         offset="0"
         id="stop7" />
      <stop
         stop-color="#006caf"
         offset="1"
         id="stop9" />
    </linearGradient>
    <linearGradient
       id="d"
       x1="87"
       x2="63"
       y1="46"
       y2="24"
       gradientTransform="matrix(1.146,0,0,1.146,-57.378,-5.1691)"
       gradientUnits="userSpaceOnUse">
      <stop
         stop-color="#0080ce"
         offset="0"
         id="stop13" />
      <stop
         stop-color="#008fd5"
         offset="1"
         id="stop15" />
    </linearGradient>
    <linearGradient
       id="c"
       x1="86"
       x2="83"
       y1="44"
       y2="44"
       gradientTransform="matrix(1.146,0,0,1.146,-57.378,-5.1691)"
       gradientUnits="userSpaceOnUse"
       xlink:href="#a" />
    <linearGradient
       id="a">
      <stop
         offset="0"
         id="stop2" />
      <stop
         stop-opacity="0"
         offset="1"
         id="stop4" />
    </linearGradient>
    <linearGradient
       id="e"
       x1="86"
       x2="83"
       y1="20"
       y2="20"
       gradientTransform="matrix(1.146,0,0,1.146,-57.378,-5.1691)"
       gradientUnits="userSpaceOnUse"
       xlink:href="#a" />
    <linearGradient
       gradientUnits="userSpaceOnUse"
       y2="533.06"
       x2="0"
       y1="541.15997"
       id="1-9"
       gradientTransform="matrix(1.49857,0,0,1.49857,100.4386,-473.61451)">
      <stop
         stop-color="#0976da"
         id="stop52" />
      <stop
         offset="1"
         stop-color="#5de5f0"
         id="stop54" />
    </linearGradient>
    <linearGradient
       id="c-3"
       x1="24.535"
       x2="24.535"
       y1="7.0931001"
       y2="44.483002"
       gradientTransform="matrix(1.4364,0,0,1.4364,1113.3157,-663.27108)"
       gradientUnits="userSpaceOnUse">
      <stop
         stop-color="#76dd38"
         offset="0"
         id="stop4-3" />
      <stop
         stop-color="#42c440"
         offset=".48433"
         id="stop6" />
      <stop
         stop-color="#14ab4b"
         offset="1"
         id="stop8" />
    </linearGradient>
    <linearGradient
       gradientUnits="userSpaceOnUse"
       y2="533.06"
       x2="0"
       y1="541.15997"
       id="1-9-6"
       gradientTransform="matrix(1.49857,0,0,1.49857,100.4386,-473.61451)">
      <stop
         stop-color="#0976da"
         id="stop52-7" />
      <stop
         offset="1"
         stop-color="#5de5f0"
         id="stop54-5" />
    </linearGradient>
    <linearGradient
       id="b"
       x1="45.627998"
       x2="45.627998"
       y1="57.955002"
       y2="12.461"
       gradientTransform="matrix(0,9.2616006,-9.3005032,0,555.70424,-44.163321)"
       gradientUnits="userSpaceOnUse">
      <stop
         offset="0"
         id="stop2-3" />
      <stop
         stop-opacity="0"
         offset="1"
         id="stop4-6" />
    </linearGradient>
    <linearGradient
       id="linearGradient909"
       x1="31.525"
       x2="31.525"
       y1="6.5419002"
       y2="59.044998"
       gradientUnits="userSpaceOnUse"
       gradientTransform="translate(596.19496,277.16805)">
      <stop
         stop-color="#ff413f"
         offset="0"
         id="stop2-7" />
      <stop
         stop-color="#e62f2e"
         offset="1"
         id="stop4-5" />
    </linearGradient>
    <linearGradient
       id="a-3"
       x2="0"
       y1="47"
       y2="1"
       gradientTransform="matrix(10.443729,0,0,10.414672,6.6150031,5.9765937)"
       gradientUnits="userSpaceOnUse"
       x1="0"
       spreadMethod="pad">
      <stop
         stop-color="#ed4964"
         offset="0"
         id="stop2-6" />
      <stop
         stop-color="#ef5b74"
         offset="1"
         id="stop4-7" />
    </linearGradient>
    <linearGradient
       id="linearGradient917"
       x2="0"
       y1="47"
       y2="1"
       gradientTransform="matrix(0.86958953,0,0,0.86959112,-535.18366,-488.43375)"
       gradientUnits="userSpaceOnUse"
       xlink:href="#a-5" />
    <linearGradient
       id="a-5"
       x2="0"
       y1="47"
       y2="1"
       gradientTransform="matrix(0.26458,0,0,0.26458,0,284.3)"
       gradientUnits="userSpaceOnUse">
      <stop
         stop-color="#fb5164"
         offset="0"
         id="stop2-35" />
      <stop
         stop-color="#ee4e8a"
         offset="1"
         id="stop4-62" />
    </linearGradient>
    <linearGradient
       inkscape:collect="always"
       xlink:href="#a-5"
       id="linearGradient1042"
       x1="21.77268"
       y1="255.73325"
       x2="492.17068"
       y2="255.73325"
       gradientUnits="userSpaceOnUse" />
    <linearGradient
       inkscape:collect="always"
       xlink:href="#a-5"
       id="linearGradient1050"
       x1="216.60283"
       y1="254.68639"
       x2="329.41241"
       y2="254.68639"
       gradientUnits="userSpaceOnUse"
       gradientTransform="translate(9.7895487e-6)" />
    <linearGradient
       inkscape:collect="always"
       xlink:href="#g"
       id="linearGradient1118"
       x1="-495.31476"
       y1="257.35901"
       x2="-16.471008"
       y2="257.35901"
       gradientUnits="userSpaceOnUse"
       gradientTransform="translate(513.2519,-1.4661279)" />
    <linearGradient
       id="g"
       x1="8.4667997"
       x2="8.4667997"
       y1="4.9200001"
       y2="12.028"
       gradientTransform="matrix(2.9095716,0,0,2.9093195,565.46958,98.622988)"
       gradientUnits="userSpaceOnUse">
      <stop
         stop-color="#ffcfcf"
         offset="0"
         id="stop17" />
      <stop
         stop-color="#faf8f6"
         offset=".5"
         id="stop19" />
      <stop
         stop-color="#ffecec"
         offset="1"
         id="stop21-9" />
    </linearGradient>
    <linearGradient
       inkscape:collect="always"
       xlink:href="#g"
       id="linearGradient1240"
       x1="134.56293"
       y1="251.76654"
       x2="380.71695"
       y2="251.76654"
       gradientUnits="userSpaceOnUse"
       gradientTransform="rotate(90,257.63994,251.76654)" />
  </defs>
  <rect
     width="478.84375"
     height="480.22144"
     rx="239.42188"
     x="17.937134"
     y="15.782166"
     id="rect33"
     style="fill:url(#linearGradient1118);fill-opacity:1;stroke-width:1.10236"
     ry="240.11072" />
  <path
     d="m 257.26776,16.210897 c -23.68369,0 -46.49901,3.463897 -68.09065,9.840712 -15.51291,32.868117 -14.92076,89.511541 -7.34202,116.081611 7.42095,25.94024 17.88121,50.85705 28.61783,75.45897 A 202.17994,201.61749 0 0 1 158.03297,197.87128 C 129.57308,181.45692 89.152866,134.29999 78.297849,95.960424 A 239.48179,238.81556 0 0 0 21.772681,208.14506 c 19.341729,26.29445 63.946093,51.64426 96.787479,59.8318 26.48624,6.61296 53.28831,9.4471 79.93254,11.73019 -12.31554,12.67487 -25.65736,23.97207 -40.97285,32.9862 -28.53892,16.45374 -89.840199,27.79035 -128.563066,17.91017 a 240.3502,239.68155 0 0 0 66.551213,102.34394 c 36.670313,-2.91301 84.392933,-31.21485 103.063613,-51.17198 18.74958,-19.95703 34.89404,-42.27592 50.68317,-64.67341 4.73671,17.59525 7.81558,35.22991 7.97349,53.14005 0,33.06497 -19.73646,92.26702 -46.1832,120.52964 a 240.98177,240.31136 0 0 0 117.70804,-6.29811 c 12.9865,-29.6403 12.86809,-82.1113 3.94724,-115.09749 -7.18402,-26.84562 -17.76272,-51.99857 -28.65724,-76.75791 18.55217,4.32995 36.31497,10.50991 52.97249,19.87834 28.57841,16.41436 69.11703,63.76814 79.85363,102.18639 A 239.60021,238.93365 0 0 0 492.1707,305.52923 c -20.99957,-30.03405 -69.11704,-56.87966 -95.72169,-63.09901 -26.48633,-6.14057 -53.68302,-8.97473 -80.84041,-11.3759 a 197.36427,196.81519 0 0 1 40.89394,-32.90749 c 28.53882,-16.41438 89.9191,-27.75098 128.60246,-17.8708 A 240.31071,239.64218 0 0 0 415.19861,75.412857 c -32.48614,3.857575 -76.37996,29.522293 -99.78734,53.612503 -19.14432,19.7602 -35.13086,41.64612 -50.60417,63.76808 a 208.49558,207.91559 0 0 1 -7.57883,-51.56558 c 0,-33.06496 19.73645,-92.266917 46.14379,-120.529647 a 240.98177,240.31136 0 0 0 -46.18329,-4.487316 z"
     fill="url(#a)"
     id="path11"
     style="fill:url(#linearGradient1042);stroke-width:36.5484;fill-opacity:1.0" />
  <path
     d="m 254.72297,374.80929 a 123.617,123.07702 0 0 1 0,-246.0855 123.617,123.07702 0 1 1 0,246.0855 z"
     fill="#ffffff"
     id="path13"
     style="fill:url(#linearGradient1240);fill-opacity:1;stroke-width:34.3584" />
  <path
     d="m 326.06933,259.50418 -102.16416,66.25049 c -4.01116,2.54802 -7.30234,0.34476 -7.30234,-6.09481 V 189.84481 c 0,-7.33439 3.22263,-8.60843 7.30234,-6.06033 l 102.16416,66.2504 c 4.55974,2.9613 4.35397,6.61134 0,9.4693 z"
     fill="#ee526c"
     id="path15"
     style="fill:url(#linearGradient1050);fill-opacity:1;stroke-width:34.3584" />
</svg>
