<?xml version="1.0" encoding="UTF-8" standalone="no"?>
<!-- Created with Inkscape (http://www.inkscape.org/) -->

<svg
   version="1.1"
   width="100%"
   height="100%"
   viewBox="0 0 512 512"
   id="svg2"
   sodipodi:docname="skype.svg"
   inkscape:version="1.1 (c68e22c387, 2021-05-23)"
   xmlns:inkscape="http://www.inkscape.org/namespaces/inkscape"
   xmlns:sodipodi="http://sodipodi.sourceforge.net/DTD/sodipodi-0.dtd"
   xmlns:xlink="http://www.w3.org/1999/xlink"
   xmlns="http://www.w3.org/2000/svg"
   xmlns:svg="http://www.w3.org/2000/svg"
   xmlns:rdf="http://www.w3.org/1999/02/22-rdf-syntax-ns#"
   xmlns:cc="http://creativecommons.org/ns#"
   xmlns:dc="http://purl.org/dc/elements/1.1/">
  <sodipodi:namedview
     id="namedview34"
     pagecolor="#ffffff"
     bordercolor="#666666"
     borderopacity="1.0"
     inkscape:pageshadow="2"
     inkscape:pageopacity="0.0"
     inkscape:pagecheckerboard="0"
     showgrid="false"
     inkscape:zoom="0.30245388"
     inkscape:cx="180.19276"
     inkscape:cy="459.5742"
     inkscape:window-width="1366"
     inkscape:window-height="706"
     inkscape:window-x="0"
     inkscape:window-y="0"
     inkscape:window-maximized="1"
     inkscape:current-layer="svg2" />
  <metadata
     id="metadata57">
    <rdf:RDF>
      <cc:Work
         rdf:about="">
        <dc:format>image/svg+xml</dc:format>
        <dc:type
           rdf:resource="http://purl.org/dc/dcmitype/StillImage" />
      </cc:Work>
    </rdf:RDF>
  </metadata>
  <defs
     id="defs4">
    <filter
       color-interpolation-filters="sRGB"
       id="7"
       x="-0.018107638"
       y="-0.017892786"
       width="1.0362153"
       height="1.0357856">
      <feGaussianBlur
         id="feGaussianBlur7"
         stdDeviation="3.7725" />
    </filter>
    <linearGradient
       y1="19.563999"
       x2="0"
       y2="504.01999"
       id="8"
       gradientUnits="userSpaceOnUse">
      <stop
         id="stop10"
         style="stop-color:#f3f3f3;stop-opacity:1"
         offset="0" />
      <stop
         id="stop12"
         style="stop-color:#eeeeee;stop-opacity:1"
         offset="0.5" />
      <stop
         id="stop14"
         style="stop-color:#ebebeb;stop-opacity:1"
         offset="1" />
    </linearGradient>
    <linearGradient
       x1="257"
       x2="362"
       id="5"
       xlink:href="#0"
       gradientUnits="userSpaceOnUse"
       gradientTransform="matrix(1.02835,0,0,1.46193,-414.66498,-70.536575)" />
    <linearGradient
       x1="257"
       x2="362"
       id="6"
       xlink:href="#0"
       gradientUnits="userSpaceOnUse"
       gradientTransform="matrix(1.0381,0,0,1.46193,-369.79,-124.28)" />
    <linearGradient
       x1="257"
       x2="362"
       id="4"
       xlink:href="#0"
       gradientUnits="userSpaceOnUse"
       gradientTransform="matrix(1.02835,0,0,1.46193,-414.67498,-58.496575)" />
    <linearGradient
       x1="257"
       x2="362"
       id="3"
       xlink:href="#0"
       gradientUnits="userSpaceOnUse"
       gradientTransform="matrix(1.0381,0,0,1.46193,-381.6543,-62.743151)" />
    <linearGradient
       id="0">
      <stop
         id="stop21"
         style="stop-color:#000000;stop-opacity:1"
         offset="0" />
      <stop
         id="stop23"
         style="stop-color:#ffffff;stop-opacity:1"
         offset="1" />
    </linearGradient>
    <linearGradient
       x1="257"
       x2="362"
       id="2"
       xlink:href="#0"
       gradientUnits="userSpaceOnUse"
       gradientTransform="matrix(1.0381,0,0,1.46193,-448.55484,-71.076484)" />
    <linearGradient
       x1="257"
       x2="362"
       id="1"
       xlink:href="#0"
       gradientUnits="userSpaceOnUse"
       gradientTransform="matrix(1.0381,0,0,1.46193,-468.10279,-118.62443)" />
    <linearGradient
       id="0-3"
       x1="54.189999"
       y1="22.898001"
       x2="53.629002"
       y2="-28.23"
       gradientUnits="userSpaceOnUse">
      <stop
         stop-color="#0a80fd"
         id="stop2" />
      <stop
         offset="1"
         stop-color="#56c5fa"
         id="stop4" />
    </linearGradient>
    <linearGradient
       inkscape:collect="always"
       xlink:href="#0-3"
       id="linearGradient871"
       x1="38.5"
       y1="256"
       x2="473.5"
       y2="256"
       gradientUnits="userSpaceOnUse"
       gradientTransform="matrix(1.1026161,0,0,1.1026162,-538.55979,-25.979715)" />
  </defs>
  <rect
     width="479.638"
     height="479.638"
     rx="239.819"
     x="-496.10901"
     y="16.471001"
     id="rect33"
     style="fill:url(#linearGradient871);fill-opacity:1;stroke-width:1.10261"
     transform="rotate(-90)"
     ry="239.819" />
  <path
     d="m 426.44618,272.42007 c 0,-82.85969 -71.42051,-150.06419 -159.55403,-150.06419 -9.27245,0 -18.3979,0.76572 -27.27459,2.18023 -14.27051,-8.4338 -31.11923,-13.35796 -49.21181,-13.35796 -51.11159,0 -92.52099,38.96777 -92.52099,87.03938 0,16.05932 4.63622,31.09762 12.69873,44.01953 -2.12587,9.72066 -3.22275,19.83485 -3.22275,30.16173 0,82.88097 71.42051,150.06421 159.55402,150.06421 10.00747,0 19.74355,-0.85083 29.21952,-2.50995 13.02668,6.58327 27.91913,10.3269 43.72757,10.3269 51.11155,0 92.52097,-38.94652 92.52097,-87.0181 0,-13.87907 -3.47152,-26.98178 -9.61171,-38.63808 2.41988,-10.39069 3.69768,-21.14299 3.69768,-32.22498 m -77.71897,71.7139 c -7.35011,9.82703 -18.28485,17.59079 -32.39705,23.12114 -13.99916,5.46654 -30.76871,8.24238 -49.84509,8.24238 -22.92105,0 -42.1218,-3.77554 -57.10473,-11.26281 -10.70855,-5.44527 -19.56262,-12.81553 -26.25686,-21.94062 -6.76212,-9.17828 -10.19971,-18.30338 -10.19971,-27.10941 0,-5.48784 2.22764,-10.26308 6.64903,-14.14496 4.35352,-3.88189 9.96224,-5.83877 16.65649,-5.83877 5.473,0 10.1997,1.54211 14.06698,4.59443 3.64115,2.9247 6.80735,7.27456 9.34031,12.85809 2.82695,6.10467 5.8914,11.24153 9.14806,15.27232 3.13227,3.90315 7.6441,7.18946 13.38853,9.74194 5.78962,2.57374 13.58075,3.88188 23.16981,3.88188 13.18497,0 24.00661,-2.65883 32.15957,-7.87013 7.94942,-5.0943 11.79411,-11.22024 11.79411,-18.73942 0,-5.9026 -2.01281,-10.55022 -6.16279,-14.20877 -4.35354,-3.83934 -10.07533,-6.79597 -17.02966,-8.84859 -7.24832,-2.11641 -17.09748,-4.42427 -29.26475,-6.83848 -16.56603,-3.30758 -30.63302,-7.27456 -41.80518,-11.74139 -11.44359,-4.59446 -20.6708,-10.94373 -27.41028,-18.85638 -6.84124,-8.08284 -10.31276,-18.17576 -10.31276,-30.07668 0,-11.33722 3.64113,-21.55774 10.82161,-30.36378 7.13528,-8.74222 17.56111,-15.55947 30.98357,-20.2071 13.2302,-4.61572 28.98207,-6.93421 46.80324,-6.93421 14.24793,0 26.74313,1.55274 37.21421,4.61572 10.53895,3.05232 19.37037,7.232 26.34734,12.33696 7.02218,5.16875 12.25773,10.63531 15.52571,16.41028 3.29058,5.77497 4.96415,11.52867 4.96415,17.09092 0,5.38148 -2.18243,10.24182 -6.53593,14.49595 -4.37616,4.25411 -9.89439,6.43435 -16.38513,6.43435 -5.89138,0 -10.53891,-1.37195 -13.71643,-4.03078 -3.00792,-2.48865 -6.09496,-6.35993 -9.54386,-11.92218 -3.98035,-7.10438 -8.80883,-12.70921 -14.31575,-16.65489 -5.37123,-3.86061 -14.33838,-5.77498 -26.63005,-5.77498 -11.44353,0 -20.73862,2.1377 -27.6251,6.42375 -6.67165,4.09457 -9.917,8.78475 -9.917,14.37891 0,3.42458 1.04034,6.27485 3.20013,8.72095 2.27286,2.61629 5.45037,4.88161 9.49859,6.79595 4.19524,1.99945 8.52615,3.57349 12.85706,4.66892 4.42138,1.18051 11.86195,2.88218 22.06164,5.10494 12.92489,2.61628 24.77554,5.53035 35.24663,8.67843 10.64073,3.20122 19.81139,7.12565 27.29719,11.7201 7.66674,4.69016 13.71646,10.6353 18.00213,17.86731 4.3083,7.21074 6.49073,16.10186 6.49073,26.41811 -0.0117,12.35824 -3.76554,23.64231 -11.19479,33.4906"
     inkscape:connector-curvature="0"
     id="path39"
     style="opacity:0.2;fill:#ffffff;stroke-width:10.9665" />
  <path
     d="m 411.25599,258.13336 c 0,-82.8597 -71.42049,-150.0642 -159.55402,-150.0642 -9.27247,0 -18.39791,0.76574 -27.27459,2.18023 -14.27052,-8.43381 -31.11925,-13.357952 -49.21184,-13.357952 -51.11155,0 -92.52099,38.967782 -92.52099,87.039382 0,16.0593 4.63624,31.09763 12.69878,44.01952 -2.12591,9.72066 -3.22277,19.83487 -3.22277,30.16172 0,82.88098 71.42051,150.06423 159.55403,150.06423 10.00745,0 19.74353,-0.85085 29.21952,-2.50995 13.02665,6.58325 27.91912,10.32689 43.72752,10.32689 51.11158,0 92.52099,-38.9465 92.52099,-87.0181 0,-13.87907 -3.47153,-26.98177 -9.61168,-38.63807 2.41988,-10.3907 3.69768,-21.14299 3.69768,-32.225 m -77.71898,71.71392 c -7.35013,9.82701 -18.28483,17.59079 -32.39707,23.12113 -13.99912,5.46655 -30.7687,8.24238 -49.84506,8.24238 -22.92104,0 -42.12181,-3.77555 -57.10475,-11.26279 -10.70854,-5.44529 -19.56261,-12.81554 -26.25686,-21.94064 -6.76211,-9.17829 -10.19971,-18.30338 -10.19971,-27.1094 0,-5.48783 2.22767,-10.26308 6.64903,-14.14496 4.35355,-3.88189 9.96224,-5.83877 16.65651,-5.83877 5.473,0 10.19968,1.5421 14.06697,4.59442 3.64114,2.92471 6.80734,7.27456 9.34028,12.85809 2.82698,6.10469 5.89142,11.24151 9.14808,15.27231 3.13229,3.90317 7.64413,7.18946 13.38853,9.74194 5.78962,2.57375 13.58075,3.8819 23.1698,3.8819 13.18498,0 24.00661,-2.65882 32.15958,-7.87014 7.94945,-5.09431 11.79411,-11.22025 11.79411,-18.7394 0,-5.90261 -2.01279,-10.55023 -6.16279,-14.20877 -4.35353,-3.83935 -10.07532,-6.79597 -17.02966,-8.84859 -7.24834,-2.11644 -17.09749,-4.42429 -29.26474,-6.8385 -16.56603,-3.30758 -30.63302,-7.27455 -41.80521,-11.74138 -11.44354,-4.59444 -20.67076,-10.94375 -27.41026,-18.85642 -6.84127,-8.08282 -10.31276,-18.17572 -10.31276,-30.07664 0,-11.33722 3.64112,-21.55776 10.82162,-30.36378 7.13527,-8.74222 17.56113,-15.55948 30.98357,-20.20711 13.23019,-4.61572 28.98205,-6.93422 46.80325,-6.93422 14.24792,0 26.74311,1.55276 37.21419,4.61575 10.53895,3.0523 19.37038,7.23199 26.34735,12.33693 7.02218,5.16876 12.25772,10.63532 15.52569,16.41028 3.29061,5.77498 4.96417,11.52869 4.96417,17.09094 0,5.38146 -2.18243,10.24181 -6.53597,14.49594 -4.37613,4.2541 -9.89437,6.43436 -16.38507,6.43436 -5.89141,0 -10.53896,-1.37195 -13.71647,-4.03079 -3.0079,-2.48868 -6.09495,-6.35991 -9.54384,-11.92218 -3.98036,-7.10438 -8.80882,-12.7092 -14.31575,-16.65491 -5.37125,-3.86059 -14.33839,-5.77495 -26.63003,-5.77495 -11.44357,0 -20.73863,2.13771 -27.62512,6.42372 -6.67164,4.0946 -9.917,8.78477 -9.917,14.37896 0,3.42456 1.04033,6.27482 3.20011,8.72092 2.27288,2.6163 5.45039,4.88162 9.49862,6.79596 4.19524,1.99946 8.52612,3.57348 12.85705,4.66891 4.42136,1.18053 11.86193,2.88217 22.06164,5.10494 12.92491,2.6163 24.77553,5.53038 35.24662,8.67843 10.6407,3.20122 19.81139,7.12565 27.29722,11.72011 7.66672,4.69016 13.71643,10.6353 18.00211,17.86731 4.30831,7.21073 6.49071,16.10185 6.49071,26.4181 -0.0117,12.35824 -3.76549,23.6423 -11.19478,33.49061"
     inkscape:connector-curvature="0"
     id="path41"
     style="fill:#ffffff;stroke-width:10.9665" />
</svg>
