<?xml version="1.0" encoding="UTF-8" standalone="no"?>
<!-- Created with Inkscape (http://www.inkscape.org/) -->

<svg
   version="1.1"
   width="100%"
   height="100%"
   viewBox="0 0 512 512"
   id="svg2"
   sodipodi:docname="vmware-netcfg.svg"
   inkscape:version="1.1 (c68e22c387, 2021-05-23)"
   xmlns:inkscape="http://www.inkscape.org/namespaces/inkscape"
   xmlns:sodipodi="http://sodipodi.sourceforge.net/DTD/sodipodi-0.dtd"
   xmlns:xlink="http://www.w3.org/1999/xlink"
   xmlns="http://www.w3.org/2000/svg"
   xmlns:svg="http://www.w3.org/2000/svg"
   xmlns:rdf="http://www.w3.org/1999/02/22-rdf-syntax-ns#"
   xmlns:cc="http://creativecommons.org/ns#"
   xmlns:dc="http://purl.org/dc/elements/1.1/">
  <sodipodi:namedview
     id="namedview34"
     pagecolor="#ffffff"
     bordercolor="#666666"
     borderopacity="1.0"
     inkscape:pageshadow="2"
     inkscape:pageopacity="0.0"
     inkscape:pagecheckerboard="0"
     showgrid="false"
     inkscape:zoom="0.42773438"
     inkscape:cx="-31.561643"
     inkscape:cy="184.69406"
     inkscape:window-width="1366"
     inkscape:window-height="706"
     inkscape:window-x="0"
     inkscape:window-y="0"
     inkscape:window-maximized="1"
     inkscape:current-layer="svg2" />
  <metadata
     id="metadata57">
    <rdf:RDF>
      <cc:Work
         rdf:about="">
        <dc:format>image/svg+xml</dc:format>
        <dc:type
           rdf:resource="http://purl.org/dc/dcmitype/StillImage" />
      </cc:Work>
    </rdf:RDF>
  </metadata>
  <defs
     id="defs4">
    <filter
       color-interpolation-filters="sRGB"
       id="7"
       x="-0.018107638"
       y="-0.017892786"
       width="1.0362153"
       height="1.0357856">
      <feGaussianBlur
         id="feGaussianBlur7"
         stdDeviation="3.7725" />
    </filter>
    <linearGradient
       y1="19.563999"
       x2="0"
       y2="504.01999"
       id="8"
       gradientUnits="userSpaceOnUse">
      <stop
         id="stop10"
         style="stop-color:#f3f3f3;stop-opacity:1"
         offset="0" />
      <stop
         id="stop12"
         style="stop-color:#eeeeee;stop-opacity:1"
         offset="0.5" />
      <stop
         id="stop14"
         style="stop-color:#ebebeb;stop-opacity:1"
         offset="1" />
    </linearGradient>
    <linearGradient
       x1="257"
       x2="362"
       id="5"
       xlink:href="#0"
       gradientUnits="userSpaceOnUse"
       gradientTransform="matrix(1.02835,0,0,1.46193,209.19,-118.25)" />
    <linearGradient
       x1="257"
       x2="362"
       id="6"
       xlink:href="#0"
       gradientUnits="userSpaceOnUse"
       gradientTransform="matrix(1.0381,0,0,1.46193,-337.29,-118.25)" />
    <linearGradient
       x1="257"
       x2="362"
       id="4"
       xlink:href="#0"
       gradientUnits="userSpaceOnUse"
       gradientTransform="matrix(1.02835,0,0,1.46193,101.22,-118.25)" />
    <linearGradient
       x1="257"
       x2="362"
       id="3"
       xlink:href="#0"
       gradientUnits="userSpaceOnUse"
       gradientTransform="matrix(1.0381,0,0,1.46193,-10.289,-118.25)" />
    <linearGradient
       id="0">
      <stop
         id="stop21"
         style="stop-color:#000000;stop-opacity:1"
         offset="0" />
      <stop
         id="stop23"
         style="stop-color:#ffffff;stop-opacity:1"
         offset="1" />
    </linearGradient>
    <linearGradient
       x1="257"
       x2="362"
       id="2"
       xlink:href="#0"
       gradientUnits="userSpaceOnUse"
       gradientTransform="matrix(1.0381,0,0,1.46193,-119.29,-118.25)" />
    <linearGradient
       x1="257"
       x2="362"
       id="1"
       xlink:href="#0"
       gradientUnits="userSpaceOnUse"
       gradientTransform="matrix(1.0381,0,0,1.46193,-228.29,-118.25)" />
    <linearGradient
       id="h"
       x1="499.95001"
       x2="499.95001"
       y1="2.0078001"
       y2="1026"
       gradientTransform="matrix(0.25597642,0,0,0.23274261,236.24664,260.73723)"
       gradientUnits="userSpaceOnUse"
       spreadMethod="pad">
      <stop
         stop-color="#fff"
         offset="0"
         id="stop2" />
      <stop
         stop-color="#d7d7d7"
         offset="1"
         id="stop4" />
    </linearGradient>
    <radialGradient
       id="i-7"
       cx="512.01001"
       cy="512.01001"
       r="470.16"
       gradientTransform="matrix(0.25087789,0,0,0.22810687,208.78183,218.72686)"
       gradientUnits="userSpaceOnUse"
       xlink:href="#linearGradient862-3">
      <stop
         stop-opacity="0"
         offset="0"
         id="stop28" />
      <stop
         stop-opacity=".52593"
         offset="1"
         id="stop30" />
    </radialGradient>
    <linearGradient
       id="f"
       x1="2331.3"
       x2="2331.3"
       y1="435.51001"
       y2="45.726002"
       gradientTransform="matrix(0.71410215,0,0,0.64926407,-1303.0879,216.17994)"
       gradientUnits="userSpaceOnUse">
      <stop
         stop-color="#807c76"
         offset=".057692"
         id="stop7" />
      <stop
         stop-color="#d4d7d0"
         offset=".38462"
         id="stop9" />
      <stop
         stop-color="#bdbfba"
         offset=".55769"
         id="stop11" />
      <stop
         stop-color="#acb3ac"
         offset=".63462"
         id="stop13" />
      <stop
         stop-color="#dadfda"
         offset=".75"
         id="stop15" />
      <stop
         stop-color="#c2c7c1"
         offset=".86274"
         id="stop17" />
      <stop
         stop-color="#7f7a75"
         offset=".94118"
         id="stop19" />
    </linearGradient>
    <linearGradient
       id="linearGradient862-3"
       x1="7.9373002"
       x2="7.9373002"
       y1="15.081"
       y2="1.852"
       gradientTransform="matrix(3.7796,0,0,3.7796,-121.27081,242.45241)"
       gradientUnits="userSpaceOnUse">
      <stop
         stop-color="#1560ff"
         offset="0"
         id="stop41" />
      <stop
         stop-color="#15afff"
         offset="1"
         id="stop43" />
    </linearGradient>
    <linearGradient
       inkscape:collect="always"
       xlink:href="#linearGradient862-3"
       id="linearGradient1448"
       x1="38.5"
       y1="256"
       x2="473.5"
       y2="256"
       gradientUnits="userSpaceOnUse"
       gradientTransform="matrix(1.0414193,0,0,1.0414551,-509.58311,-22.915967)" />
    <linearGradient
       id="linearGradient3549"
       x1="28.551001"
       x2="28.551001"
       y1="1052.4"
       y2="1004.4"
       gradientTransform="matrix(1.1667,0,0,1.1667,601.84707,-822.8682)"
       gradientUnits="userSpaceOnUse">
      <stop
         stop-color="#bfe1f9"
         offset="0"
         id="stop36" />
      <stop
         stop-color="#f6fbfe"
         offset="1"
         id="stop38" />
    </linearGradient>
    <linearGradient
       inkscape:collect="always"
       xlink:href="#linearGradient3549"
       id="linearGradient1470"
       x1="38.514999"
       y1="255.99734"
       x2="473.51999"
       y2="255.99734"
       gradientUnits="userSpaceOnUse"
       gradientTransform="translate(-20.924916)" />
    <linearGradient
       inkscape:collect="always"
       xlink:href="#8"
       id="linearGradient1622"
       x1="236.24899"
       y1="379.89938"
       x2="498.3652"
       y2="379.89938"
       gradientUnits="userSpaceOnUse"
       gradientTransform="matrix(1.0414551,0,0,1.0414193,-22.915967,-23.623619)" />
    <linearGradient
       gradientUnits="userSpaceOnUse"
       y2="533.06"
       x2="0"
       y1="541.15997"
       id="1-6"
       gradientTransform="matrix(1.49857,0,0,1.49857,52.511651,-415.16702)">
      <stop
         stop-color="#0976da"
         id="stop52" />
      <stop
         offset="1"
         stop-color="#5de5f0"
         id="stop54" />
    </linearGradient>
  </defs>
  <rect
     width="453.01746"
     height="453.03305"
     rx="226.50873"
     x="-469.48846"
     y="17.180052"
     id="rect33"
     style="fill:url(#linearGradient1448);fill-opacity:1;stroke-width:1.04144"
     transform="rotate(-90)"
     ry="226.51653" />
  <g
     id="g37"
     style="fill:#ffffff"
     transform="matrix(1.0414551,0,0,1.0414194,44.659839,36.349173)">
    <path
       d="m 239.77077,-13.818565 c -17.00304,-3.333423 -36.71236,-6.075045 -51.27837,-4.659736 -1.3252,-0.885684 -23.94453,0.05559 -33.00377,2.395343 9.272,11.8120002 15.10889,88.728007 29.09389,88.532007 6.81,9.134 -13.591,2.71 1.125,9.75 8.463,6.323 -9.76544,9.032951 0.71556,14.706951 -12.08,5.913 1.966,30.927 10.938,37.19 14.767,11.793 6.523,-24.963 23,-26.875 8.953,-9.697 24.645,-15.933 35.813,-25.688 -10.914,-0.841 -17.274,-7.289 -6.938,-11.281 19.02,18.493 4.78,-8.748 -5.75,-13.06 10.189,-3.075 47.54773,-45.141182 46.13573,-53.1181818 C 264.31666,-8.4524381 250.27325,-10.824732 239.77077,-13.818565 M 77.241084,48.973 c -7.936,11.805 1.148,21.274 7.75,6.875 4.673,-6.01 -3.468,-6.655 -7.75,-6.875 m 19.813,2.656 c -15.333,6.742 -3.786,22.472 -3.406,25.969 16.149996,5.301 25.109996,-3.453 31.219996,11.531 14.559,7.96 1.284,21.458 -5.063,26.09 10.614,-5.949 29.2,23.529 24.13,7.188 -6.247,-4.327 16.818,6.939 4.875,-7.125 -10.991,-16.8 0.866,-7.515 5.5,-3.594 15.761,-13.408 -17.823,-15.05 -9.438,-28.844 -7.348,-5.646 -16.988,-22.75 -30,-19.406 -8.711,10.687 -1.22,-23.282 -14,-6.281 -0.662,9.503 -0.244,21.558 -3.968996,5.094 -2.495,-2.882 4.295996,-9.581 0.156,-10.625 m 22.749996,63.59 c -0.342,0.192 -0.675,0.419 -1,0.688 0.304,-0.2 0.647,-0.43 1,-0.688 M 65.809084,51.746 c -10.292,3.255 -9.749,16.461 2.906,17.875 4.335,-4.687 1.732,-16.987 -2.906,-17.875 m -21.438,4.844 c -3.778,0.662 -4.092766,10.22353 -11.038766,-6.97347 l -7.169223,5.349236 c -3.531,4.31 -7.194726,10.167575 -9.495726,15.327575 6.447,1.309 21.574715,7.864659 9.609715,9.296659 -17.3109996,6.559 16.644,14.277 22.22,6.5 21.377,4.96 0.783,-16.23 -1.094,-27.719 -1.133,-1.153 -1.979,-1.693 -2.625,-1.781 -0.141,-0.019 -0.284,-0.021 -0.406,0 m 31.469,10.844 c -12.891,11.493 16.369,20.97 -3.719,29.531 -3.01,-10.673 -8.164,5.338 -19.656,-3.281 -14.156,5.592 -34.562161,-6.231373 -44.729161,-12.225373 -2.04061,3.842046 -2.3213444,3.67084 -14.0577312,25.589833 -11.2437158,20.99887 -24.9169818,70.63548 -19.5378968,116.08491 l 1.746526,6.6211 c 0.170182,9.29384 60.634263,36.15553 61.328263,28.12553 -7.536,-7.487 -15.283,-29.944 -2.531,-9.938 11.422,19.02 26.835,31.35 49.34,35.875 12.306,3.971 22.396996,17.628 33.219996,14.625 6.119,15.304 -18.139996,30.01 0.813,44.28 9.893,14.451 17.80246,43.15205 8.81146,63.44105 11.43633,3.1246 17.06233,6.18714 45.99342,8.82896 10.371,-12.896 19.94812,-39.30901 37.44912,-44.42501 2.091,-15.654 29.09,-39.624 1.188,-45.719 -7.583,-3.546 -27.12,-4.813 -25.625,-6.563 3.02,-15.533 -25.22,-19.958 -37.25,-26.313 -15.794,-10.635 -39.498,17.669 -45.06,-6.719 -3.32,-7.673 -15.484996,-7.785 -9.905996,-19.625 -10.05,9.487 -29.711,6.602 -24.563,-11.719 7.819,-15.43 37.851996,-16.184 42.968996,2.375 -7.104,-20.469 13.745,-36.406 25.313,-50.969 2.355,-6.96 16.316,-12.938 11.5,-3.688 8.205,-0.281 20.638,-14.327 6.06,-7.844 -0.206,-12.81 -12.739,-9.163 -16.813,-7.344 7.551,-11.369 46.3,-5.135 30.06,-23.719 -12.583,-4.837 -11.523,-33.07 -24.25,-17.344 1.071,-9.688 -25.901,-28.653 -25.313,-12.406 3.293,14.538 0.601,31.28 -6.406,40.813 -1.462,-21.302 -39.766996,-16.612 -34.843996,-39.31 7.133,-10.819 15.487,-25.752 16.281,-24.406 12.783996,-4.63 23.069996,-18.11 8.249996,-26.969 -0.792,7.717 -11.144996,23.632 -9.687996,4.375 -9.585,10.781 -7.398,-17.13 -16.375,-20.03 m 295.914636,9.557152 c -22.453,5.211 -21.34264,23.466848 -32.44964,40.321848 -16.373,7 -15.729,37.07 2.563,27.469 4.896,8.112 -3.448,20.888 10.813,10.281 11.502,-14.44 2.051,-37.801 21.625,-46.906 1.426,7.08 -18.07,33.533 4.688,29.19 20.574,0.736 -14.944,1.938 -4.938,14.406 -10.397,-5.852 -4.992,15.988 -18.563,10.906 -11.757,6.067 -19.506,-2.83 -16.813,-12.563 -9.249,5.119 2.93,19.57 -13.12,20.438 -3.596,12.12 -33.19,10.288 -16.375,22.625 7.467,18.36 -27.831,1.155 -17.813,23.19 8.572,21.786 26.524,-7.209 33.813,-12.813 13.622,-10.02 33.643,15.922 23.375,18.5 12.928,-2.316 9.877,-14.582 -1.188,-19.406 -6.14,-15.11 19.418,7.426 18,15 9.02,16.03 5.317,-16.426 14.5,-2.063 -1.072,15.15 4.80405,10.30203 23.53105,30.57203 4.72627,-20.57285 6.14978,-46.47627 4.61318,-62.89463 -0.36977,-10.34661 -5.1089,-57.76968 -36.26159,-106.253248 M 178.12508,79.595 c -8.212,6.492 15.613,7.714 0,0 m -109.659996,3.5 c -9.185,9.115 14.628,8.379 0,0 m 53.219996,9.03 c -6.956,10.81 10.277,3.991 0,0 m 152.31,12.781 c -8.143,8.894 -18.887,-2.332 -19.06,5.313 1.476,2.31 7.362,18.791 20.313,6.625 6.951,-2.78 4.235,-9.792 -1.25,-11.938 m -173.37,5.313 c -15.445996,12.797 26.24,13.977 3.281,1.469 l -3.281,-1.469 m 203.56,35.563 c -10.717,6.931 5.511,21.398 -0.031,28.22 -6.968,11.518 25.896,-0.811 8.344,-10 -1.203,-7.594 -9.616,-16.795 -8.313,-18.219 m -7.313,13.75 c -15.494,4.156 -3.55,25.614 1.938,5.406 0.308,-1.172 0.76,-5.445 -1.938,-5.406 m -124.06,15.531 c -14.414,9.324 -2.251,18.633 8.313,14.438 -2.169,-5.626 -8.215,-9.172 -8.313,-14.438 m 235.312,15.813 c -0.976,9.127 -33.67,18.301 -18.063,3.656 4.932,-2.809 17.926,9.714 11.188,-1.969 2.389,-0.144 4.625,-1 6.875,-1.688 m -71.56,19.75 c -9.04,5.523 6.248,9.758 0,0 m -226.91,51.47 c -1.523,4.822 28.553,9.725 7.781,2 l -3.063,-1.031 -4.719,-0.969 m 23.344,6.875 c -9.13,8.794 18.812,2.627 0,0"
       inkscape:connector-curvature="0"
       id="path41"
       style="opacity:0.47;fill:url(#linearGradient1470);fill-opacity:1"
       sodipodi:nodetypes="cccccccccccccccccccccccccccccccccccccccccccccccsccccccccccccccccccccccccccccccccccccccccccccccccccccccccccccccccccccccccccccccccccccc" />
  </g>
  <path
     id="path"
     d="m 486.17688,324.50271 q -2.48699,-5.48206 -5.61014,-10.74059 c -1.17124,-1.98504 -2.41466,-3.95681 -3.73037,-5.88942 -5.65345,-8.33461 -12.55039,-16.20944 -20.69107,-23.61046 -26.64779,-24.22824 -58.83404,-36.34926 -96.52769,-36.34926 -37.69624,0 -69.86599,12.12076 -96.51163,36.34926 -26.64813,24.22932 -39.97921,53.47999 -39.97921,87.74876 0,34.26875 13.33108,63.53693 39.97921,87.76333 26.64781,24.22827 58.82074,36.33467 96.51163,36.33467 37.69365,0 69.88204,-12.10781 96.52769,-36.33467 14.67596,-13.35659 25.31772,-28.23649 31.91011,-44.63231 5.36421,-13.36951 8.05359,-27.73768 8.05359,-43.13102 0,-11.80536 -1.57607,-23.0189 -4.74249,-33.64099 -0.36168,-1.19628 -0.73703,-2.39253 -1.12776,-3.57576 -1.18566,-3.49689 -2.54477,-6.92797 -4.06294,-10.29348 z"
     fill="url(#h)"
     stroke-width="10.8172"
     style="fill:url(#linearGradient1622);fill-opacity:1" />
  <ellipse
     cx="359.61771"
     cy="372.01096"
     color="#000000"
     fill="url(#i-7)"
     stroke-width="22.6296"
     id="circle86"
     style="fill:#22241c;fill-opacity:1"
     rx="122.84151"
     ry="111.68795" />
  <path
     class="shp86"
     d="m 418.25656,289.1438 -4.60596,11.18682 c -0.30035,0.73375 0.006,1.70754 0.68588,2.18146 l 5.42014,3.77224 c 0.66369,0.46074 1.79956,0.48711 2.49937,0.0311 l 10.68292,-6.93402 c 0.69952,-0.45453 1.7638,-0.37694 2.37075,0.18146 l 4.47753,4.07099 c 0.62104,0.56462 0.69952,1.51925 0.19969,2.15552 l -7.62646,9.7066 c -0.49992,0.63602 -0.47857,1.65566 0.0428,2.27242 l 4.15608,4.92802 c 0.50671,0.60422 1.59959,0.89597 2.39937,0.62358 l 12.28978,-4.18778 c 0.807,-0.27221 1.80671,0.0546 2.23511,0.73372 l 3.16346,4.97986 c 0.4427,0.69495 0.24309,1.62965 -0.4214,2.1296 l -10.14013,7.58988 c -0.66457,0.50027 -0.93552,1.4868 -0.60741,2.20098 l 2.60647,5.73295 c 0.32176,0.70116 1.2854,1.24006 2.14233,1.16869 l 13.07528,-1.15574 c 0.85693,-0.0776 1.73524,0.47392 1.95661,1.23361 l 1.63538,5.55777 c 0.22861,0.77249 -0.22864,1.62968 -1.01406,1.95433 l -11.96112,4.94744 c -0.78568,0.32496 -1.32825,1.21414 -1.21399,1.98672 l 0.89264,6.14865 c 0.10631,0.7531 0.89257,1.49977 1.74239,1.62965 l 12.95376,1.96074 c 0.84966,0.12951 1.53536,0.86999 1.53536,1.64909 v 5.75249 c 0,0.79854 -0.68588,1.52576 -1.53536,1.64909 l -12.93958,1.96084 c -0.84964,0.1295 -1.62815,0.85695 -1.73524,1.62961 l -0.88549,6.15515 c -0.10754,0.75315 0.43592,1.6621 1.21393,1.98674 l 11.93975,4.94094 c 0.77802,0.32498 1.23534,1.2011 1.01395,1.95422 l -1.63524,5.55777 c -0.22862,0.77249 -1.09978,1.31159 -1.9567,1.2336 l -13.06078,-1.14915 c -0.85693,-0.0783 -1.8138,0.4483 -2.14232,1.16862 l -2.62073,5.73297 c -0.32171,0.70114 -0.0594,1.70761 0.60653,2.20105 l 10.14013,7.58979 c 0.66454,0.5003 0.85691,1.44787 0.42142,2.1296 l -3.16344,4.97988 c -0.44273,0.69493 -1.43538,1.00635 -2.24232,0.73372 l -12.3039,-4.18782 c -0.80703,-0.27308 -1.87814,0.003 -2.39946,0.62357 l -4.14882,4.92805 c -0.50674,0.60423 -0.53571,1.63615 -0.0343,2.27243 l 7.62657,9.71294 c 0.49989,0.63603 0.41372,1.6037 -0.19971,2.15551 l -4.47752,4.07101 c -0.62104,0.56465 -1.67098,0.63599 -2.37087,0.18144 l -10.67585,-6.93402 c -0.69954,-0.45452 -1.82095,-0.43509 -2.49944,0.0387 l -5.42004,3.77874 c -0.66455,0.46071 -0.98544,1.45437 -0.68584,2.18153 l 4.60594,11.1739 c 0.30033,0.73373 -0.0596,1.64267 -0.80698,2.03218 l -5.47717,2.87622 c -0.76433,0.40255 -1.79238,0.22102 -2.34215,-0.38314 l -8.34784,-9.21946 c -0.55025,-0.60419 -1.63535,-0.85053 -2.42077,-0.55219 l -6.30551,2.36978 c -0.77117,0.29243 -1.36398,1.16871 -1.28541,1.94777 l 1.27109,11.88815 c 0.0852,0.77907 -0.52123,1.57769 -1.35683,1.77896 l -6.11275,1.48687 c -0.84968,0.20793 -1.79239,-0.20796 -2.14942,-0.92201 l -5.44159,-10.87508 c -0.35657,-0.71435 -1.3353,-1.20762 -2.18512,-1.10379 l -6.76256,0.81164 c -0.82833,0.0974 -1.64958,0.8115 -1.7924,1.58418 l -2.15665,11.7776 c -0.14247,0.77249 -0.95689,1.39593 -1.81376,1.39593 h -6.32694 c -0.87833,0 -1.67805,-0.62358 -1.81379,-1.39593 l -2.15659,-11.7647 c -0.14247,-0.77255 -0.94262,-1.48034 -1.79241,-1.57772 l -6.76978,-0.80505 c -0.82836,-0.0975 -1.82815,0.39633 -2.18516,1.10369 l -5.43431,10.85569 c -0.35745,0.70736 -1.32109,1.12317 -2.14952,0.92188 l -6.11278,-1.48675 c -0.84963,-0.20796 -1.44238,-0.99996 -1.35679,-1.77906 l 1.26402,-11.87491 c 0.0852,-0.77908 -0.49306,-1.64913 -1.28544,-1.94783 l -6.30547,-2.38273 c -0.77119,-0.29244 -1.87805,-0.0543 -2.42079,0.55147 l -8.34782,9.21941 c -0.55021,0.60343 -1.59241,0.7791 -2.3422,0.38316 l -5.47713,-2.87621 c -0.76434,-0.40255 -1.10687,-1.30505 -0.80699,-2.03871 l 4.60592,-11.18683 c 0.30032,-0.73369 -0.006,-1.70757 -0.68591,-2.18153 l -5.42007,-3.77214 c -0.66455,-0.46073 -1.79956,-0.4871 -2.49942,-0.031 l -10.68286,6.93409 c -0.6995,0.45454 -1.76382,0.37694 -2.37084,-0.18146 l -4.47751,-4.07099 c -0.62105,-0.56466 -0.69955,-1.5193 -0.19968,-2.15558 l 7.62646,-9.70656 c 0.49988,-0.63598 0.47854,-1.65561 -0.0429,-2.27244 l -4.1561,-4.92797 c -0.50672,-0.60418 -1.59956,-0.896 -2.39945,-0.62361 l -12.28978,4.18778 c -0.80703,0.2731 -1.80661,-0.0543 -2.23518,-0.73372 l -3.16343,-4.97983 c -0.44273,-0.69497 -0.24308,-1.62968 0.42147,-2.12955 l 10.14015,-7.58988 c 0.66449,-0.50024 0.93543,-1.48677 0.6065,-2.20095 l -2.60652,-5.73216 c -0.32172,-0.70117 -1.28536,-1.24015 -2.14233,-1.16868 l -13.07523,1.15566 c -0.85692,0.0779 -1.73527,-0.47392 -1.95672,-1.23364 l -1.63528,-5.55776 c -0.2286,-0.77249 0.22864,-1.62962 1.01407,-1.95421 l 11.96111,-4.94751 c 0.78569,-0.32498 1.32821,-1.21409 1.2139,-1.98674 l -0.89256,-6.14856 c -0.10754,-0.7531 -0.89268,-1.49979 -1.7424,-1.62965 l -12.95381,-1.96083 c -0.84966,-0.12951 -1.53526,-0.86999 -1.53526,-1.64908 v -5.75249 c 0,-0.7986 0.68586,-1.52572 1.53526,-1.64912 l 12.93957,-1.96075 c 0.84966,-0.12952 1.62818,-0.85706 1.73532,-1.62965 l 0.88552,-6.15513 c 0.10631,-0.75313 -0.43595,-1.66216 -1.21402,-1.98674 l -11.93969,-4.94092 c -0.77804,-0.32501 -1.23546,-1.20115 -1.01406,-1.95433 l 1.63531,-5.55779 c 0.22864,-0.77249 1.09971,-1.31146 1.95662,-1.23359 l 13.06089,1.14919 c 0.8569,0.0783 1.81381,-0.44826 2.14234,-1.16866 l 2.6207,-5.73299 c 0.32171,-0.70114 0.0597,-1.70749 -0.60653,-2.20097 l -10.14014,-7.58985 c -0.66455,-0.50024 -0.85691,-1.44784 -0.42141,-2.12952 l 3.16347,-4.97986 c 0.4427,-0.69495 1.43527,-1.00635 2.2423,-0.73372 l 12.30394,4.18771 c 0.80696,0.27306 1.878,-0.003 2.39937,-0.62359 l 4.14887,-4.92798 c 0.50676,-0.60421 0.53574,-1.63614 0.0343,-2.27246 l -7.62649,-9.71291 c -0.49994,-0.636 -0.41463,-1.60367 0.19967,-2.15558 l 4.4775,-4.07097 c 0.62106,-0.56469 1.67101,-0.63599 2.37079,-0.18148 l 10.67593,6.93403 c 0.69951,0.4545 1.82098,0.4351 2.49936,-0.0387 l 5.42016,-3.77874 c 0.66455,-0.46069 0.98544,-1.45434 0.68588,-2.18156 l -4.60599,-11.17395 c -0.30035,-0.7337 0.0595,-1.64259 0.80698,-2.03215 l 5.47718,-2.87624 c 0.76436,-0.40252 1.79235,-0.22099 2.34226,0.38316 l 8.34785,9.21946 c 0.55017,0.60419 1.63525,0.85056 2.42077,0.55145 l 6.30546,-2.36973 c 0.77118,-0.29243 1.36388,-1.16869 1.28539,-1.9478 l -1.27101,-11.8881 c -0.0852,-0.77909 0.52121,-1.57766 1.35679,-1.77903 l 6.11278,-1.48676 c 0.84966,-0.20794 1.79239,0.20795 2.14951,0.92198 l 5.44144,10.87507 c 0.35746,0.71434 1.33545,1.20762 2.18519,1.1037 l 6.76261,-0.81151 c 0.82831,-0.0978 1.64952,-0.81166 1.79241,-1.58425 l 2.15653,-11.77765 c 0.14249,-0.7725 0.95691,-1.39588 1.81384,-1.39588 h 6.32688 c 0.87834,0 1.67819,0.62362 1.81385,1.39588 l 2.15661,11.76471 c 0.14247,0.77251 0.94259,1.48034 1.79238,1.57777 l 6.76984,0.80509 c 0.82829,0.0974 1.82801,-0.39635 2.18516,-1.1038 l 5.43432,-10.85559 c 0.35742,-0.70734 1.32107,-1.12326 2.14939,-0.92198 l 6.11275,1.48684 c 0.84967,0.20795 1.44256,0.99984 1.35684,1.77897 l -1.26392,11.87501 c -0.0852,0.7791 0.49308,1.64912 1.28532,1.94779 l 6.30552,2.38278 c 0.77117,0.29242 1.87809,0.0543 2.42082,-0.55147 l 8.34774,-9.21945 c 0.55022,-0.6034 1.59245,-0.77909 2.34231,-0.38316 l 5.47712,2.87624 c 0.76435,0.40256 1.10685,1.30497 0.80701,2.03867 z m -20.96592,23.83457 c -17.75242,-9.3233 -37.9398,-11.34903 -56.35579,-7.10295 -3.54913,0.81811 -1.46385,0.36998 -1.46385,0.36998 -4.94167,1.53229 -6.91255,6.16146 -4.42029,10.29085 0,0 -1.43535,-2.38286 0.11438,0.18148 7.38378,12.25165 22.16582,36.76778 22.16582,36.76778 3.3419,5.54468 11.68973,9.93364 18.65214,9.80395 0,0 32.74778,-0.61658 49.12974,-0.92842 3.04214,-0.0619 0,0 0,0 5.04142,-0.0974 8.31942,-3.95391 7.21965,-8.27164 -5.11289,-16.73802 -17.17405,-31.73567 -35.03332,-41.11129 z m -1.23542,119.57438 c 17.93098,-9.03765 30.23465,-23.72408 35.71858,-40.26692 1.05676,-3.18794 0.40692,-1.33094 0.40692,-1.33094 1.09966,-4.64236 -2.24938,-8.55739 -7.4266,-8.74569 0,0 2.98486,0.10999 -0.22866,-0.003 -15.35304,-0.55224 -46.07326,-1.66208 -46.07326,-1.66208 -6.94822,-0.25286 -15.38899,3.99286 -18.85209,9.48563 0,0 -16.28159,25.83967 -24.42947,38.76795 -1.51385,2.40233 0,0 0,0 -2.50648,3.98002 -0.5502,8.51844 4.08473,9.8884 0,0 -2.92793,-0.73992 0,0 18.41668,4.63581 38.76946,2.96063 56.8,-6.12906 z m -89.39795,-10.94001 c 3.62065,2.96723 8.92616,2.23347 11.4615,-1.73355 0,0 -1.52821,2.38927 0,0 8.24077,-12.87481 24.70806,-38.61712 24.70806,-38.61712 3.49901,-5.47337 3.32772,-14.23843 -0.38561,-19.58842 0,0 -16.41722,-23.63966 -24.62233,-35.44893 -1.72095,-2.47376 -0.12108,-0.17521 -0.12108,-0.17521 -2.7636,-3.98003 -8.16929,-4.66181 -12.03983,-1.47383 0,0 1.44256,-1.44143 -1.06403,0.98686 -13.01099,12.58912 -20.85167,29.61866 -20.49461,48.26052 0.3574,18.74423 8.94057,35.60461 22.5656,47.78595 z"
     fill="url(#f)"
     stroke-width="26.7139"
     id="path90"
     style="fill:url(#f)" />
</svg>
