<?xml version="1.0" encoding="UTF-8" standalone="no"?>
<!-- Created with Inkscape (http://www.inkscape.org/) -->

<svg
   version="1.1"
   width="100%"
   height="100%"
   viewBox="0 0 512 512"
   id="svg2"
   sodipodi:docname="web-browser.svg"
   inkscape:version="1.1 (c68e22c387, 2021-05-23)"
   xmlns:inkscape="http://www.inkscape.org/namespaces/inkscape"
   xmlns:sodipodi="http://sodipodi.sourceforge.net/DTD/sodipodi-0.dtd"
   xmlns:xlink="http://www.w3.org/1999/xlink"
   xmlns="http://www.w3.org/2000/svg"
   xmlns:svg="http://www.w3.org/2000/svg"
   xmlns:rdf="http://www.w3.org/1999/02/22-rdf-syntax-ns#"
   xmlns:cc="http://creativecommons.org/ns#"
   xmlns:dc="http://purl.org/dc/elements/1.1/">
  <sodipodi:namedview
     id="namedview39"
     pagecolor="#ffffff"
     bordercolor="#666666"
     borderopacity="1.0"
     inkscape:pageshadow="2"
     inkscape:pageopacity="0.0"
     inkscape:pagecheckerboard="0"
     showgrid="false"
     inkscape:zoom="0.60490776"
     inkscape:cx="123.15927"
     inkscape:cy="186.80534"
     inkscape:window-width="1366"
     inkscape:window-height="706"
     inkscape:window-x="0"
     inkscape:window-y="0"
     inkscape:window-maximized="1"
     inkscape:current-layer="svg2" />
  <metadata
     id="metadata65">
    <rdf:RDF>
      <cc:Work
         rdf:about="">
        <dc:format>image/svg+xml</dc:format>
        <dc:type
           rdf:resource="http://purl.org/dc/dcmitype/StillImage" />
      </cc:Work>
    </rdf:RDF>
  </metadata>
  <defs
     id="defs4">
    <inkscape:perspective
       sodipodi:type="inkscape:persp3d"
       inkscape:vp_x="0 : 256 : 1"
       inkscape:vp_y="0 : 1000 : 0"
       inkscape:vp_z="512 : 256 : 1"
       inkscape:persp3d-origin="256 : 170.66667 : 1"
       id="perspective2202" />
    <filter
       color-interpolation-filters="sRGB"
       id="7"
       x="-0.018107638"
       y="-0.017892786"
       width="1.0362153"
       height="1.0357856">
      <feGaussianBlur
         id="feGaussianBlur7"
         stdDeviation="3.7725" />
    </filter>
    <linearGradient
       y1="19.563999"
       x2="0"
       y2="504.01999"
       id="8"
       gradientUnits="userSpaceOnUse">
      <stop
         id="stop10"
         style="stop-color:#f3f3f3;stop-opacity:1"
         offset="0" />
      <stop
         id="stop12"
         style="stop-color:#eeeeee;stop-opacity:1"
         offset="0.5" />
      <stop
         id="stop14"
         style="stop-color:#ebebeb;stop-opacity:1"
         offset="1" />
    </linearGradient>
    <linearGradient
       x1="257"
       x2="362"
       id="5"
       xlink:href="#0"
       gradientUnits="userSpaceOnUse"
       gradientTransform="matrix(1.02835,0,0,1.46193,-383.73694,-115.70205)" />
    <linearGradient
       x1="257"
       x2="362"
       id="6"
       xlink:href="#0"
       gradientUnits="userSpaceOnUse"
       gradientTransform="matrix(1.0381,0,0,1.46193,-467.2489,-124.14041)" />
    <linearGradient
       x1="257"
       x2="362"
       id="4"
       xlink:href="#0"
       gradientUnits="userSpaceOnUse"
       gradientTransform="matrix(1.02835,0,0,1.46193,-610.00374,-127.97146)" />
    <linearGradient
       x1="257"
       x2="362"
       id="3"
       xlink:href="#0"
       gradientUnits="userSpaceOnUse"
       gradientTransform="matrix(1.0381,0,0,1.46193,-427.0919,-112.11041)" />
    <linearGradient
       id="0">
      <stop
         id="stop21"
         style="stop-color:#000000;stop-opacity:1"
         offset="0" />
      <stop
         id="stop23"
         style="stop-color:#ffffff;stop-opacity:1"
         offset="1" />
    </linearGradient>
    <linearGradient
       x1="257"
       x2="362"
       id="2"
       xlink:href="#0"
       gradientUnits="userSpaceOnUse"
       gradientTransform="matrix(1.0381,0,0,1.46193,-467.2489,-112.11041)" />
    <linearGradient
       x1="257"
       x2="362"
       id="1"
       xlink:href="#0"
       gradientUnits="userSpaceOnUse"
       gradientTransform="matrix(1.0381,0,0,1.46193,-467.2529,-112.11041)" />
    <linearGradient
       id="linearGradient1975"
       x1="44.636002"
       x2="45.200001"
       y1="-10.874"
       y2="-10.319"
       gradientUnits="userSpaceOnUse"
       gradientTransform="matrix(28.645157,0,0,25.425207,-1071.7679,546.37041)">
      <stop
         stop-color="#fefffe"
         offset="0"
         id="stop297" />
      <stop
         stop-color="#fff"
         offset=".78351"
         id="stop299" />
      <stop
         stop-color="#c1e4f9"
         offset="1"
         id="stop301" />
    </linearGradient>
    <linearGradient
       id="linearGradient1989"
       x1="3.5601001"
       x2="16.388"
       y1="13.475"
       y2="0.64687002"
       gradientTransform="matrix(11.034062,0,0,9.793743,156.85691,167.22827)"
       gradientUnits="userSpaceOnUse">
      <stop
         stop-color="#0096f0"
         offset="0"
         id="stop304" />
      <stop
         stop-color="#00b9ff"
         offset="1"
         id="stop306" />
    </linearGradient>
    <linearGradient
       id="linearGradient1967"
       x1="45.905998"
       x2="47.124001"
       y1="-12.504"
       y2="-11.243"
       gradientUnits="userSpaceOnUse"
       gradientTransform="matrix(28.645157,0,0,25.425207,-1071.7679,546.37041)">
      <stop
         stop-color="#ff4632"
         offset="0"
         id="stop290" />
      <stop
         stop-color="#ff6e41"
         offset=".51344"
         id="stop292" />
      <stop
         stop-color="#ff2800"
         offset="1"
         id="stop294" />
    </linearGradient>
    <linearGradient
       id="linearGradient1005-3-3"
       x1="5.2535"
       x2="9.3823996"
       y1="15.383"
       y2="2.9421"
       gradientTransform="matrix(0.91665,0,0,0.91665,0.70008,0.86469)"
       gradientUnits="userSpaceOnUse">
      <stop
         stop-color="#0098f0"
         offset="0"
         id="stop312" />
      <stop
         stop-color="#0087e6"
         offset=".36953"
         id="stop314" />
      <stop
         stop-color="#00b9ff"
         offset="1"
         id="stop316" />
    </linearGradient>
    <linearGradient
       id="linearGradient1989-3"
       x1="3.5601001"
       x2="16.388"
       y1="13.475"
       y2="0.64687002"
       gradientTransform="matrix(0.36355,0,0,0.36355,5.4027,5.544)"
       gradientUnits="userSpaceOnUse">
      <stop
         stop-color="#0096f0"
         offset="0"
         id="stop304-6" />
      <stop
         stop-color="#00b9ff"
         offset="1"
         id="stop306-7" />
    </linearGradient>
    <filter
       id="filter2043"
       x="-0.036000384"
       y="-0.035996539"
       width="1.0720008"
       height="1.0719931"
       color-interpolation-filters="sRGB">
      <feGaussianBlur
         stdDeviation="0.12641235"
         id="feGaussianBlur309" />
    </filter>
    <linearGradient
       id="linearGradient1967-5"
       x1="45.905998"
       x2="47.124001"
       y1="-12.504"
       y2="-11.243"
       gradientUnits="userSpaceOnUse"
       gradientTransform="translate(23.76475)">
      <stop
         stop-color="#ff4632"
         offset="0"
         id="stop290-3" />
      <stop
         stop-color="#ff6e41"
         offset=".51344"
         id="stop292-5" />
      <stop
         stop-color="#ff2800"
         offset="1"
         id="stop294-6" />
    </linearGradient>
    <linearGradient
       id="linearGradient1975-2"
       x1="44.636002"
       x2="45.200001"
       y1="-10.874"
       y2="-10.319"
       gradientUnits="userSpaceOnUse"
       gradientTransform="translate(-20.969434,1.4910012)">
      <stop
         stop-color="#fefffe"
         offset="0"
         id="stop297-9" />
      <stop
         stop-color="#fff"
         offset=".78351"
         id="stop299-1" />
      <stop
         stop-color="#c1e4f9"
         offset="1"
         id="stop301-2" />
    </linearGradient>
    <linearGradient
       inkscape:collect="always"
       xlink:href="#linearGradient1989-3"
       id="linearGradient1072"
       x1="42.042"
       y1="256.76999"
       x2="471.38998"
       y2="256.76999"
       gradientUnits="userSpaceOnUse"
       gradientTransform="matrix(1.1171311,0,0,1.0999812,-543.07542,-538.73214)" />
    <linearGradient
       id="linearGradient1967-5-6"
       x1="45.905998"
       x2="47.124001"
       y1="-12.504"
       y2="-11.243"
       gradientUnits="userSpaceOnUse"
       gradientTransform="matrix(3.8914458,0,0,3.8914458,-206.74649,39.232779)">
      <stop
         stop-color="#ff4632"
         offset="0"
         id="stop290-3-1" />
      <stop
         stop-color="#ff6e41"
         offset=".51344"
         id="stop292-5-8" />
      <stop
         stop-color="#ff2800"
         offset="1"
         id="stop294-6-7" />
    </linearGradient>
    <linearGradient
       id="linearGradient1967-5-2"
       x1="45.905998"
       x2="47.124001"
       y1="-12.504"
       y2="-11.243"
       gradientUnits="userSpaceOnUse"
       gradientTransform="matrix(3.8914458,0,0,3.8914458,-94.209353,50.417865)">
      <stop
         stop-color="#ff4632"
         offset="0"
         id="stop290-3-0" />
      <stop
         stop-color="#ff6e41"
         offset=".51344"
         id="stop292-5-2" />
      <stop
         stop-color="#ff2800"
         offset="1"
         id="stop294-6-3" />
    </linearGradient>
    <linearGradient
       id="linearGradient1975-2-7"
       x1="44.636002"
       x2="45.200001"
       y1="-10.874"
       y2="-10.319"
       gradientUnits="userSpaceOnUse"
       gradientTransform="matrix(3.8914458,0,0,3.8914458,-94.209353,50.417865)">
      <stop
         stop-color="#fefffe"
         offset="0"
         id="stop297-9-5" />
      <stop
         stop-color="#fff"
         offset=".78351"
         id="stop299-1-9" />
      <stop
         stop-color="#c1e4f9"
         offset="1"
         id="stop301-2-2" />
    </linearGradient>
    <linearGradient
       id="1-4"
       gradientUnits="userSpaceOnUse"
       x1="62.599998"
       y1="11.846"
       x2="62.150002"
       y2="-35.476002"
       gradientTransform="matrix(0.99999,0,0,0.99999,-250.67029,163.77835)">
      <stop
         stop-color="#197dec"
         id="stop7" />
      <stop
         offset="1"
         stop-color="#3fcffb"
         id="stop9" />
    </linearGradient>
    <linearGradient
       id="0-8"
       x1="64.459999"
       y1="13.252"
       x2="60.549999"
       y2="-36.791"
       gradientUnits="userSpaceOnUse"
       gradientTransform="matrix(3.257806,1.5270754,-1.5716297,2.8915782,28.696058,188.73786)">
      <stop
         stop-color="#0164c2"
         id="stop2" />
      <stop
         offset="1"
         stop-color="#00a9f3"
         id="stop4" />
    </linearGradient>
    <linearGradient
       id="1-45"
       gradientUnits="userSpaceOnUse"
       x1="62.599998"
       y1="11.846"
       x2="62.150002"
       y2="-35.476002"
       gradientTransform="matrix(3.6492828,0,0,3.239047,22.691069,288.35241)">
      <stop
         stop-color="#197dec"
         id="stop7-0" />
      <stop
         offset="1"
         stop-color="#3fcffb"
         id="stop9-3" />
    </linearGradient>
    <linearGradient
       id="0-6"
       x1="64.459999"
       y1="13.252"
       x2="60.549999"
       y2="-36.791"
       gradientUnits="userSpaceOnUse"
       gradientTransform="matrix(6.3310048,0,0,6.133241,-726.39158,195.68164)">
      <stop
         stop-color="#0164c2"
         id="stop2-1" />
      <stop
         offset="1"
         stop-color="#00a9f3"
         id="stop4-0" />
    </linearGradient>
    <linearGradient
       id="1-6"
       gradientUnits="userSpaceOnUse"
       x1="62.599998"
       y1="11.846"
       x2="62.150002"
       y2="-35.476002"
       gradientTransform="matrix(6.3310048,0,0,6.133241,-726.39158,195.68164)">
      <stop
         stop-color="#197dec"
         id="stop7-3" />
      <stop
         offset="1"
         stop-color="#3fcffb"
         id="stop9-2" />
    </linearGradient>
  </defs>
  <rect
     width="479.638"
     height="479.638"
     rx="239.819"
     x="-496.10901"
     y="-496.10901"
     id="rect33"
     style="fill:url(#linearGradient1072);fill-opacity:1;stroke-width:1.10261"
     transform="scale(-1)"
     ry="239.819" />
  <path
     d="m 390.18341,256.57726 c 0,15.35368 -2.913,30.07464 -8.25464,43.7171 -3.71298,9.48272 -8.59817,18.44793 -14.50302,26.74044 -2.47341,3.4865 -5.13296,6.85379 -7.95581,10.08952 -9.03744,10.3559 -19.77722,19.37382 -31.83438,26.69292 -4.44008,2.69749 -9.05468,5.1651 -13.83247,7.37597 -18.55307,8.61457 -39.49852,13.46066 -61.66315,13.46066 -22.16588,0 -43.10942,-4.84579 -61.66321,-13.46096 -4.77811,-2.21145 -9.39822,-4.67877 -13.83822,-7.37604 -12.21004,-7.41808 -23.07852,-16.57748 -32.18932,-27.10494 -2.82834,-3.26195 -5.4824,-6.65988 -7.9558,-10.178 -5.74716,-8.15497 -10.50813,-16.95373 -14.14784,-26.25278 -5.34094,-13.63916 -8.24875,-28.35474 -8.24875,-43.70206 0,-70.73473 61.80264,-128.07807 138.0422,-128.07807 38.26894,0 72.8979,14.44919 97.90448,37.78438 7.20611,6.72223 13.6128,14.18791 19.0657,22.25886 5.15579,7.60117 9.46573,15.74526 12.81834,24.31291 5.34226,13.64426 8.25495,28.36524 8.25495,43.7171 z"
     stroke-width="0.519422"
     id="path1241"
     style="fill:#ffffff;stroke:#ffffff" />
  <path
     d="m 338.24286,250.08249 c 0,9.31903 -1.84805,18.25401 -5.23707,26.53536 -2.35584,5.75552 -5.45492,11.19699 -9.20148,16.23028 -1.56908,2.11638 -3.2566,4.15996 -5.04762,6.12383 -5.73389,6.28548 -12.54766,11.759 -20.19727,16.20154 -2.81694,1.63706 -5.74487,3.1349 -8.776,4.47676 -11.77099,5.2286 -25.05919,8.17009 -39.12226,8.17009 -14.06307,0 -27.35105,-2.94124 -39.12226,-8.17009 -3.0315,-1.34239 -5.96275,-2.83996 -8.77991,-4.47676 -7.74676,-4.50238 -14.64216,-10.0621 -20.42251,-16.45151 -1.79433,-1.97975 -3.47825,-4.04248 -5.0477,-6.17766 -3.64629,-4.94988 -6.66684,-10.29026 -8.97592,-15.93459 -3.38868,-8.27841 -5.23342,-17.21006 -5.23342,-26.52568 0,-42.93298 39.21029,-77.73837 87.58355,-77.73837 24.28038,0 46.25168,8.77006 62.11608,22.93356 4.5721,4.08025 8.63665,8.61143 12.09635,13.51028 3.27088,4.61364 6.00552,9.55671 8.13249,14.75701 3.38962,8.28142 5.2374,17.2166 5.2374,26.53537 z"
     fill="url(#linearGradient1989)"
     stroke-width="0.322313"
     id="path1253"
     style="fill:url(#linearGradient1989)" />
  <ellipse
     cx="250.66177"
     cy="250.08304"
     fill="url(#1)"
     id="circle14"
     style="fill:url(#1-45);stroke-width:3.43803"
     rx="87.582779"
     ry="77.737122" />
  <path
     class="shp40"
     d="M 231.55818,237.32704 272.5838,273.74103 372.77596,148.3973 Z M 131.37177,362.67078 272.58945,273.74103 231.56393,237.32704 Z"
     fill="url(#linearGradient1967)"
     id="path1261"
     style="fill:url(#linearGradient1967);stroke-width:26.9872" />
  <path
     d="m 282.33843,178.49733 c -10.17533,-3.91702 -20.58563,-5.90501 -30.84984,-6.31159 -0.88164,0.28335 -1.90712,0.36507 -2.55384,0.0583 -0.0879,-0.0413 -0.15733,-0.13175 -0.23595,-0.19766 -5.12168,-0.0533 -10.18122,0.35075 -15.14148,1.10606 0.191,0.94217 -0.0215,1.82947 -1.25687,1.82363 -0.20858,1.5e-4 -2.53442,-0.66189 -3.31066,-0.97858 -14.45924,2.95697 -27.78713,9.28521 -38.57769,18.5262 0.0973,0.0239 0.19593,0.0156 0.2934,0.0467 0.8815,0.32615 2.04541,1.03508 2.82108,1.51832 0.7168,0.44113 1.13854,1.14684 1.79164,1.44937 1.8506,0.86708 2.88832,-0.2825 4.77145,-0.42298 1.5198,0.82136 2.78053,0.78816 4.17241,1.49141 0.95016,0.4781 1.25225,1.69721 1.99828,2.04691 0.62415,0.31075 1.45737,-0.0716 2.04783,0.25602 0.57414,0.32002 1.10842,1.90919 0.91565,2.60982 -0.23526,0.87662 -1.37003,1.30979 -1.50137,2.31857 0.58727,1.25856 2.27582,2.11537 3.44185,3.15898 1.19478,-0.31797 0.9493,-1.85172 1.25038,-2.85713 0.17117,-0.42769 0.42087,-0.77506 0.52146,-1.19235 0.20579,-0.69449 0.15233,-1.42345 0.39242,-1.99303 1.13118,-2.62273 4.0498,-2.93089 6.47574,-3.20516 1.05073,-0.12066 2.06754,-0.65267 2.95125,-0.69921 1.24891,-0.0641 2.07657,0.12797 3.13248,0.0278 1.90512,-0.18094 3.52353,-0.29307 5.13559,-0.7094 1.08272,-0.96919 1.26975,-2.75732 1.83214,-3.91238 0.70028,-0.0926 0.99473,0.53891 1.61212,0.72673 1.02164,0.1886 1.61794,-0.96867 2.36074,-1.23728 0.42937,-0.15069 1.36764,-0.0192 1.87025,-0.13927 1.22746,-0.29539 1.96886,-1.1706 2.91528,-1.13697 0.33968,0.007 1.00721,0.29795 1.52243,0.36531 0.67408,0.0911 1.82697,-0.21761 2.95685,-0.13789 0.73807,0.0484 2.23885,0.58144 2.5861,0.45395 0.42602,-0.15951 0.45716,-1.05925 0.74565,-1.43199 1.40793,-1.88343 5.11529,-0.9729 7.49374,-0.87394 1.67138,0.0686 3.5565,-0.25587 5.0338,0.63617 -0.74479,0.86635 -2.08191,-0.058 -2.35424,1.24031 -0.37931,1.79598 3.05605,0.61975 3.8242,0.62791 1.46515,0.0119 3.75352,0.55484 5.64047,0.65562 1.65867,0.0846 4.57195,0.36524 3.85011,-1.63851 -1.11537,-0.49743 -2.21157,0.54166 -3.36938,0.5359 -0.72698,-0.16662 -0.33314,-0.72577 -0.8953,-1.00016 -0.52982,-0.27364 -1.06847,0.1232 -1.60198,-0.18131 -0.53024,-0.303 -0.98246,-1.40385 -0.81282,-2.03185 0.4451,-1.62365 2.40669,-1.60759 3.6203,-2.47916 0.13384,-1.56996 -2.5055,-1.29418 -3.57133,-2.34164 0.489,-0.77943 1.69701,-0.97875 2.85231,-0.72021 0.94919,0.20908 2.91553,1.04372 3.25685,1.67175 0.20271,0.34901 -0.33811,0.81755 -0.004,1.39863 0.34288,0.62516 1.00744,0.83144 1.73276,0.99364 0.70621,-0.95335 -1.18734,-1.37289 -0.69096,-1.99286 1.75171,-0.27465 3.72747,1.26466 5.53712,1.69567 1.04199,0.24896 2.34337,0.028 3.40412,-0.0733 1.01221,-0.10241 2.40918,-0.41638 2.98794,0.60962 -0.0902,0.84296 -1.20161,0.7066 -1.8373,0.89846 -2.12754,0.64273 -4.38181,1.45097 -6.24853,2.43365 0.46755,0.9448 1.98248,1.14335 3.19531,1.76989 0.47278,0.25077 1.04301,0.62315 1.53258,0.91068 0.5744,0.33457 1.24092,0.55983 1.67563,0.85808 0.78595,0.52443 0.65641,1.43967 1.51533,1.76973 1.41364,0.54288 2.02459,-0.81432 1.59896,-1.97169 0.63149,-0.77072 1.2267,-1.06859 1.15042,-1.80824 -0.14126,-1.37966 -2.94387,-1.20212 -2.4493,-2.66109 0.32635,-0.94641 1.24459,-0.54501 1.91846,-1.08538 0.60666,-1.8382 2.46205,-1.27327 2.96476,-2.9352 0.20734,-0.69739 -0.41747,-0.94673 -0.66808,-1.77172 -0.12605,-0.40741 -0.008,-1.04519 -0.19374,-1.426 -2.32647,-1.11968 -4.69964,-2.19861 -7.18127,-3.12308 m -47.89653,-1.51971 0.007,0.003 c 0.45501,0.2459 0.8344,0.93175 1.39957,1.19305 0.54514,0.22292 1.12559,0.1176 1.42804,0.32832 0.77643,0.53447 0.63195,1.83821 -0.42798,2.09607 -0.70948,-0.18379 -0.82306,-0.62165 -1.36819,-0.73926 -1.49435,-0.32673 -3.10369,1.9122 -4.11541,1.42709 -0.95498,-0.45408 -0.55167,-2.80563 0.72987,-3.05757 0.31016,-0.53311 -0.17458,-0.82201 0.0983,-1.36166 0.44438,-0.22347 1.45109,-0.26318 2.24925,0.11096 m -4.77569,-1.50204 c 0.28323,0.11824 0.47308,0.26524 0.53363,0.41704 -0.56592,0.92841 -1.40001,0.5302 -2.44896,0.66256 -1.81394,0.2237 -3.18914,1.09931 -4.3928,2.60687 -0.34881,0.43881 -2.36649,1.18016 -3.00821,0.78138 -1.50224,-0.93638 1.76978,-2.83497 2.3156,-3.08709 0.60984,-0.29467 1.3394,-0.47875 2.05694,-0.81366 0.69508,-0.32364 1.30066,-0.88881 1.87781,-0.99562 0.63202,-0.11737 2.21628,0.0664 3.06755,0.42564 m 10.7795,8.00986 c 0.50638,0.23412 0.95971,0.46804 1.0901,0.73953 -0.86749,1.08461 -3.66809,-0.36604 -4.54975,-1.21835 0.27128,-0.43156 1.12798,-0.24769 1.83285,-0.048 0.47968,0.1704 1.10927,0.31316 1.6268,0.52673 m -7.66786,-0.33247 c 0.33696,0.15472 0.67785,0.33227 1.00476,0.55803 -1.2607,0.34152 -2.46196,0.34805 -4.29654,0.1811 -0.8793,-0.0821 -2.35619,-0.32799 -2.14775,-1.16275 0.25566,-1.01942 1.46683,-0.29204 2.2217,-0.10153 0.9512,0.23542 2.1464,0.14983 3.21785,0.52505 M 332.97088,228.082 c -0.23436,0.21306 -0.43779,0.43699 -0.53399,0.69668 -0.12856,0.46947 0.22915,1.10519 0.0889,1.75425 -0.0723,0.34345 -0.60942,0.94067 -0.56499,1.2953 0.11993,1.05038 1.69296,0.93145 2.60482,1.3371 -0.49239,-1.70387 -0.97993,-3.40913 -1.59147,-5.08178 m 2.51273,8.35816 c -0.42424,0.57759 -1.27124,1.21827 -1.89429,1.59745 -1.43508,0.87294 -2.68178,0.45911 -4.25749,0.61305 -1.31255,0.12855 -2.17431,0.85666 -3.21914,1.56057 -1.1313,0.75775 -1.82429,1.21301 -2.18908,2.80169 -1.63738,1.27522 -3.47022,1.73677 -5.72036,1.77778 -0.66282,0.009 -1.47463,-0.20503 -2.13706,-0.0693 -0.52711,0.10483 -1.07356,0.72675 -1.91848,1.08539 -1.03928,0.43805 -1.92843,0.44941 -2.55114,0.85052 -0.4786,0.30899 -0.9527,1.11358 -1.52463,1.55663 -0.77799,0.60407 -1.88211,0.61989 -2.80466,1.18158 -0.42281,0.25897 -0.92007,0.9257 -1.41892,1.28691 -1.11758,0.80771 -2.56925,1.13954 -2.85625,2.11889 -0.27297,0.94599 0.80359,1.54494 0.53986,2.36107 -0.18217,0.44796 -0.64242,0.58779 -0.83199,1.07946 -0.296,0.71028 0.0254,1.4124 -0.14843,1.98039 -0.44336,1.42491 -1.35893,1.71053 -2.05429,2.5311 -0.33181,0.39233 -0.49789,0.91678 -0.77815,1.21355 -0.5519,0.58668 -1.89395,0.79208 -2.26787,1.59284 -0.2578,0.57215 0.20943,1.29188 -0.0881,2.11754 -0.23062,0.55947 -0.81009,1.03165 -0.92266,1.58482 -0.21748,1.0845 1.28103,3.02051 1.8111,4.13613 0.7138,1.49203 1.89012,2.88516 1.9168,4.17482 0.0188,1.09365 -0.51687,2.30474 -0.009,3.31908 0.37718,0.75006 1.23553,1.45718 1.77414,2.29383 0.50053,0.77884 1.09258,1.51716 1.63108,2.34643 0.87507,1.3608 2.00365,3.8346 4.07204,4.47397 1.07725,0.33443 2.48018,-0.013 3.74882,0.2551 1.30596,0.27472 2.9341,0.78394 4.11556,1.37042 0.90604,0.44642 1.65872,1.32537 2.65512,1.65818 1.06122,0.3414 2.54527,0.11547 3.92277,0.10813 1.10592,-0.004 2.44537,0.036 3.85194,0.23088 2.1154,-3.27529 3.99494,-6.74093 5.59034,-10.39051 6.4235,-14.69136 7.44808,-30.20452 3.96931,-44.80263 M 191.72057,209.2829 c -1.75048,-0.57743 -2.90741,-0.93833 -4.05352,-0.92042 -2.63328,0.0464 -3.37598,2.90208 -5.88732,2.67914 -0.86953,-0.0774 -1.93324,-0.47444 -2.8449,-0.66234 -0.78673,-0.16195 -1.83594,-0.14943 -2.58613,-0.45389 -0.21155,-0.0846 -0.44511,-0.33927 -0.67746,-0.51347 -0.74948,1.18344 -1.47102,2.3981 -2.15671,3.62959 1.9669,1.17959 1.9643,4.11001 3.47945,5.66199 0.41417,0.42634 1.08128,0.69552 1.68403,1.08326 0.48839,0.31233 0.80599,0.66809 1.25137,1.02197 0.94954,0.74988 2.30226,1.22433 3.02607,1.90828 1.08972,1.026 1.0913,3.60283 1.96434,4.62887 -0.19395,0.62019 -0.73818,1.3411 -0.69985,1.87429 0.25262,0.85134 1.0715,0.99934 1.76579,1.76018 0.83247,0.91269 0.58163,2.34434 1.40722,3.12683 0.28718,0.26885 1.15877,0.5831 1.63818,0.94204 1.20895,0.89687 1.03647,2.47775 2.34517,2.61955 0.8568,0.0932 1.10577,-0.63549 1.51664,-1.24113 0.72461,-0.29527 1.61962,-0.85897 2.41813,-0.56814 1.30846,0.43556 0.88069,1.71898 0.86206,3.00919 -0.0112,0.72765 0.43811,1.54053 0.33152,2.27065 -0.18069,1.26505 -1.83551,4.62556 -2.40369,5.2046 -0.69057,0.714 -2.12049,0.57709 -3.312,1.20504 -0.55972,0.29276 -1.01647,0.86235 -1.42886,1.06453 -0.74472,0.35481 -1.56035,0.20831 -2.16104,0.56898 -0.33959,0.20362 -0.81311,0.73636 -1.18995,1.03862 -1.13182,0.93165 -2.32519,1.44265 -2.41646,3.04706 -0.0333,0.6629 0.81162,1.43991 0.51505,2.1209 -0.34628,0.80278 -2.57481,0.78133 -3.10688,1.6023 -0.39304,0.61036 -0.20078,2.04653 -0.33967,2.98647 -0.11014,0.70667 1.07824,1.63384 1.3171,2.22474 0.40705,1.0035 0.53658,2.25429 0.80223,3.42014 0.52748,2.29358 0.59699,4.8732 1.11212,7.09937 0.27704,1.16752 0.86468,2.35003 0.89996,3.46594 0.0202,0.56458 -0.25733,1.12027 -0.23481,1.6279 0.0891,1.76883 2.67006,4.57144 4.03215,5.95366 0.63908,0.64427 1.45794,1.10066 2.02413,1.73615 0.85752,0.96434 2.3859,3.25909 2.56595,4.32672 0.15734,0.95903 -0.35483,2.94677 -0.65117,4.25912 -0.38509,1.73888 -1.24557,2.85573 -1.90965,4.64163 -0.34857,0.97224 -0.42383,2.05084 -0.82768,3.00444 -0.17012,0.31938 -0.44968,0.50397 -0.61427,0.83684 -0.0295,0.055 -0.0353,0.12496 -0.0619,0.18141 8.35706,7.99189 18.58173,14.64596 30.47164,19.22149 2.15056,0.82664 4.31882,1.54548 6.48784,2.21026 0.15191,-0.10659 0.30378,-0.22046 0.47381,-0.30765 0.733,-0.37841 1.37942,-0.71036 1.91847,-1.08539 1.04109,-1.56197 0.49403,-3.1427 1.58453,-4.44206 1.21564,-1.46197 4.21958,-1.48347 6.34179,-1.53725 0.72893,-0.0175 1.54604,-0.18961 2.11419,-0.15189 1.41304,0.0927 2.87279,0.89669 4.17228,0.96518 2.21054,0.11459 3.22245,-1.65695 4.86099,-2.85902 0.77529,-0.56908 1.6937,-1.08556 2.01581,-1.58041 0.25424,-0.46136 0.20748,-0.99846 0.54037,-1.52818 0.33627,-0.52084 1.10501,-0.78458 1.54762,-1.32817 0.57419,-0.71047 1.18061,-1.84125 1.56933,-2.72939 0.31848,-0.72877 0.21395,-1.51426 0.46863,-2.18587 0.90769,-2.43719 2.12611,-2.27971 3.68824,-3.19836 0.77871,-0.45498 1.28574,-1.1171 1.8368,-1.44658 2.63202,-1.57089 5.98464,-1.5269 7.23586,-4.94963 0.41558,-1.13312 0.72745,-3.93313 -0.0306,-4.63678 -0.43482,-0.40337 -1.71807,-0.67471 -2.35891,-1.22545 -2.08579,-1.75056 -2.3404,-4.99747 -4.79667,-6.14157 -0.51356,-0.26601 -1.12204,-0.19941 -1.72574,-0.4425 -0.97712,-0.44349 -2.23851,-1.58987 -3.29473,-2.1285 -0.67467,-0.33809 -1.72743,-0.44691 -2.06922,-0.79579 -0.52244,-0.52788 -0.12549,-1.61172 -0.51035,-2.12958 -0.30563,-0.41537 -1.07349,-0.8152 -1.61265,-1.27474 -0.86533,-0.73943 -1.49421,-1.4551 -2.6359,-1.97936 -0.35972,-0.15044 -0.88212,-0.15952 -1.27847,-0.37796 -0.60851,-0.34701 -0.81965,-1.22958 -1.27787,-1.78541 -0.57361,-0.69704 -1.18075,-1.1594 -1.237,-1.86064 1.54467,-1.72137 -0.0889,-2.99509 -0.0433,-4.31255 0.0145,-0.62088 0.39792,-1.22849 0.41842,-1.77764 0.028,-0.7887 -0.55834,-1.47719 -1.13989,-2.37024 -1.047,-1.601 -1.95287,-3.07057 -3.98578,-4.1287 -0.89339,-0.46967 -1.98004,-0.47097 -3.08733,-0.96823 -1.17094,-0.53068 -2.27156,-2.04805 -2.77156,-3.30923 -0.48335,-1.23158 -0.55667,-2.1948 -1.13387,-2.91526 -0.54116,-0.68905 -1.50398,-1.04603 -1.8143,-1.6559 -0.1416,-0.26593 0.0332,-0.56499 -0.0121,-1.08326 -0.0708,-0.8097 -0.51531,-1.4135 0.28815,-2.04192 -0.65762,-0.69286 -1.15186,0.37442 -1.99217,-0.1102 -0.36027,-1.32268 -0.82788,-2.06434 -2.78589,-2.47054 -0.8938,-0.18313 -1.77284,0.57677 -2.75497,0.22525 -0.82206,-0.24746 -1.07848,-1.34004 -2.07325,-1.87891 -0.75331,-0.404 -1.78427,-0.46264 -2.30981,-0.77429 -0.81301,-0.4972 -0.79897,-1.25256 -1.3998,-2.03491 -0.4407,-0.57302 -1.32837,-1.60228 -1.66494,-1.72013 -1.06603,-0.34004 -2.63815,1.28139 -3.7731,0.0528 -0.35119,-1.05356 1.65674,-0.76179 1.15355,-1.81402 -0.3828,-0.79986 -1.26097,-0.19197 -1.89623,-0.0761 -0.72713,0.13445 -1.42023,0.27398 -2.14517,0.23895 -1.62453,-0.0722 -2.40344,-0.66217 -3.73609,-0.57932 -1.2325,0.079 -1.62459,0.85304 -2.61584,1.57122 -0.81384,0.58727 -2.38734,1.29374 -3.12176,1.06558 -0.89362,-0.27374 -1.22207,-1.73022 -1.87507,-2.33382 -1.96562,-1.82121 -3.86327,-0.54101 -5.84089,-1.27209 -1.85012,-0.64228 -3.27902,-4.32351 -2.52141,-5.81517 0.41879,-0.92848 1.62593,-2.11149 2.25211,-3.21844 0.51177,-0.874 1.45816,-1.15605 1.83316,-1.98891 0.50161,-1.11096 -0.80095,-2.61774 -1.55657,-3.06265 -1.79197,-1.05765 -4.90984,-1.08232 -6.77723,-2.72322 -0.14975,-0.78498 0.9566,-0.86501 1.45628,-1.37822 0.28636,-0.29391 0.40984,-0.78392 0.71342,-1.10965 0.50003,-0.49128 1.38801,-0.68099 1.96706,-1.18234 0.43861,-0.38582 0.79369,-1.04664 1.28068,-1.54403 0.5603,-0.56458 1.25023,-0.80355 1.51328,-1.24991 0.3498,-0.59071 0.39673,-1.40684 0.0297,-2.02517 m 19.09549,30.09645 c 0.67622,0.32774 0.19884,1.64973 -0.56218,1.47806 -0.81955,-0.19186 -0.69495,-1.52673 0.1908,-1.54689 0.15187,-0.009 0.27544,0.0348 0.37146,0.0761 l 0.003,-0.006"
     fill="url(#0)"
     id="path16"
     style="fill:url(#0-8);stroke-width:3.43803" />
  <path
     d="m 231.55818,237.35246 -100.18641,125.3361 141.21768,-88.92465 -41.02552,-36.414 z"
     fill="url(#linearGradient1975)"
     id="path1263"
     style="fill:url(#linearGradient1975);stroke-width:26.9872" />
  <path
     d="m 251.63725,74.723163 -39.79526,61.065017 h 80.81344 z"
     id="path1243-0"
     style="fill:#ffffff;stroke-width:31.3666" />
  <path
     d="M 449.28368,255.0778 383.5281,218.12125 v 75.04877 z"
     id="path1243-0-3"
     style="fill:#ffffff;stroke-width:31.3666" />
  <path
     d="m 251.0598,437.52447 39.79527,-61.06503 h -80.81345 z"
     id="path1243-0-3-1"
     style="fill:#ffffff;stroke-width:31.3666" />
  <path
     d="m 54.111347,258.10552 65.755573,36.95657 v -75.04877 z"
     id="path1243-0-3-1-9"
     style="fill:#ffffff;stroke-width:31.3666" />
</svg>
