<?xml version="1.0" encoding="UTF-8" standalone="no"?>
<!-- Created with Inkscape (http://www.inkscape.org/) -->

<svg
   version="1.1"
   width="100%"
   height="100%"
   viewBox="0 0 512 512"
   id="svg2"
   sodipodi:docname="adobe-air.svg"
   inkscape:version="1.1 (c68e22c387, 2021-05-23)"
   xmlns:inkscape="http://www.inkscape.org/namespaces/inkscape"
   xmlns:sodipodi="http://sodipodi.sourceforge.net/DTD/sodipodi-0.dtd"
   xmlns:xlink="http://www.w3.org/1999/xlink"
   xmlns="http://www.w3.org/2000/svg"
   xmlns:svg="http://www.w3.org/2000/svg"
   xmlns:rdf="http://www.w3.org/1999/02/22-rdf-syntax-ns#"
   xmlns:cc="http://creativecommons.org/ns#"
   xmlns:dc="http://purl.org/dc/elements/1.1/">
  <sodipodi:namedview
     id="namedview58"
     pagecolor="#ffffff"
     bordercolor="#666666"
     borderopacity="1.0"
     inkscape:pageshadow="2"
     inkscape:pageopacity="0.0"
     inkscape:pagecheckerboard="0"
     showgrid="false"
     inkscape:zoom="0.42773437"
     inkscape:cx="259.50685"
     inkscape:cy="257.16895"
     inkscape:window-width="1366"
     inkscape:window-height="699"
     inkscape:window-x="0"
     inkscape:window-y="0"
     inkscape:window-maximized="1"
     inkscape:current-layer="svg2" />
  <metadata
     id="metadata105">
    <rdf:RDF>
      <cc:Work
         rdf:about="">
        <dc:format>image/svg+xml</dc:format>
        <dc:type
           rdf:resource="http://purl.org/dc/dcmitype/StillImage" />
      </cc:Work>
    </rdf:RDF>
  </metadata>
  <defs
     id="defs4">
    <filter
       color-interpolation-filters="sRGB"
       id="7"
       x="-0.018107638"
       y="-0.017892786"
       width="1.0362153"
       height="1.0357856">
      <feGaussianBlur
         id="feGaussianBlur7"
         stdDeviation="3.7725" />
    </filter>
    <linearGradient
       y1="19.563999"
       x2="0"
       y2="504.01999"
       id="8"
       gradientUnits="userSpaceOnUse">
      <stop
         id="stop10"
         style="stop-color:#f3f3f3;stop-opacity:1"
         offset="0" />
      <stop
         id="stop12"
         style="stop-color:#eeeeee;stop-opacity:1"
         offset="0.5" />
      <stop
         id="stop14"
         style="stop-color:#ebebeb;stop-opacity:1"
         offset="1" />
    </linearGradient>
    <linearGradient
       x1="257"
       x2="362"
       id="5"
       xlink:href="#0"
       gradientUnits="userSpaceOnUse"
       gradientTransform="matrix(1.02835,0,0,1.46193,-467.47406,-76.859909)" />
    <linearGradient
       x1="257"
       x2="362"
       id="6"
       xlink:href="#0"
       gradientUnits="userSpaceOnUse"
       gradientTransform="matrix(1.0381,0,0,1.46193,-488.21694,-118.25)" />
    <linearGradient
       x1="257"
       x2="362"
       id="4"
       xlink:href="#0"
       gradientUnits="userSpaceOnUse"
       gradientTransform="matrix(1.02835,0,0,1.46193,-481.70694,-42.058219)" />
    <linearGradient
       x1="257"
       x2="362"
       id="3"
       xlink:href="#0"
       gradientUnits="userSpaceOnUse"
       gradientTransform="matrix(1.0381,0,0,1.46193,-521.93284,-37.108447)" />
    <linearGradient
       id="0">
      <stop
         id="stop21"
         style="stop-color:#000000;stop-opacity:1"
         offset="0" />
      <stop
         id="stop23"
         style="stop-color:#ffffff;stop-opacity:1"
         offset="1" />
    </linearGradient>
    <linearGradient
       x1="257"
       x2="362"
       id="2"
       xlink:href="#0"
       gradientUnits="userSpaceOnUse"
       gradientTransform="matrix(1.0381,0,0,1.46193,-469.98406,-64.829909)" />
    <linearGradient
       x1="257"
       x2="362"
       id="1"
       xlink:href="#0"
       gradientUnits="userSpaceOnUse"
       gradientTransform="matrix(1.0381,0,0,1.46193,-513.6142,-106.01256)" />
    <linearGradient
       id="0-3"
       gradientUnits="userSpaceOnUse"
       y1="47.369999"
       x2="0"
       y2="-1.429">
      <stop
         stop-color="#c52828"
         id="stop2" />
      <stop
         offset="1"
         stop-color="#ff5454"
         id="stop4" />
    </linearGradient>
    <linearGradient
       inkscape:collect="always"
       xlink:href="#0-3"
       id="linearGradient1104"
       x1="-473.5"
       y1="256"
       x2="-38.5"
       y2="256"
       gradientUnits="userSpaceOnUse"
       gradientTransform="matrix(1.0023954,0,0,0.98700685,-0.15670934,4.0422387)" />
  </defs>
  <rect
     width="436.04199"
     height="429.34799"
     rx="63.351395"
     x="-474.79099"
     y="42.042"
     id="rect33"
     style="fill:url(#linearGradient1104);fill-opacity:1;stroke-width:0.994672"
     transform="rotate(-90)" />
  <text
     x="59.316868"
     y="206.84288"
     id="text39"
     style="font-size:142.184px;line-height:125%;font-family:'Gentium Book Basic';letter-spacing:0;word-spacing:0;stroke-width:1.10025"
     transform="scale(0.99852289,1.0014793)"><tspan
       x="59.316868"
       y="206.84288"
       id="tspan41"
       style="stroke-width:1.10025" /></text>
  <text
     x="231.62395"
     y="445.86026"
     transform="scale(4.0068932,0.24956992)"
     id="text43"
     style="font-size:51.6607px;font-family:Arial;text-anchor:middle;stroke-width:1.10024" />
  <text
     x="698.85687"
     y="118.8232"
     id="text45"
     style="font-size:142.184px;line-height:125%;font-family:'Gentium Book Basic';letter-spacing:0;word-spacing:0;stroke-width:1.10025"
     transform="scale(0.99852289,1.0014793)"><tspan
       x="698.85687"
       y="118.8232"
       id="tspan47"
       style="stroke-width:1.10025" /></text>
  <text
     x="390.98276"
     y="92.650108"
     transform="scale(4.0068932,0.24956992)"
     id="text49"
     style="font-size:51.6607px;font-family:Arial;text-anchor:middle;stroke-width:1.10024" />
  <text
     x="-480.14474"
     y="-80.607391"
     id="text51"
     style="font-size:142.184px;line-height:125%;font-family:'Gentium Book Basic';letter-spacing:0;word-spacing:0;stroke-width:1.10025"
     transform="scale(0.99852289,1.0014793)"><tspan
       x="-480.14474"
       y="-80.607391"
       id="tspan53"
       style="stroke-width:1.10025" /></text>
  <text
     x="97.185577"
     y="-707.6098"
     transform="scale(4.0068932,0.24956992)"
     id="text55"
     style="font-size:51.6607px;font-family:Arial;text-anchor:middle;stroke-width:1.10024" />
  <text
     x="727.98041"
     y="-318.77762"
     id="text57"
     style="font-size:142.184px;line-height:125%;font-family:'Gentium Book Basic';letter-spacing:0;word-spacing:0;stroke-width:1.10025"
     transform="scale(0.99852289,1.0014793)"><tspan
       x="727.98041"
       y="-318.77762"
       id="tspan59"
       style="stroke-width:1.10025" /></text>
  <text
     x="398.24432"
     y="-1663.3557"
     transform="scale(4.0068932,0.24956992)"
     id="text61"
     style="font-size:51.6607px;font-family:Arial;text-anchor:middle;stroke-width:1.10024" />
  <text
     x="1367.5205"
     y="-406.80835"
     id="text63"
     style="font-size:142.184px;line-height:125%;font-family:'Gentium Book Basic';letter-spacing:0;word-spacing:0;stroke-width:1.10025"
     transform="scale(0.99852289,1.0014793)"><tspan
       x="1367.5205"
       y="-406.80835"
       id="tspan65"
       style="stroke-width:1.10025" /></text>
  <text
     x="557.61414"
     y="-2016.5769"
     transform="scale(4.0068932,0.24956992)"
     id="text67"
     style="font-size:51.6607px;font-family:Arial;text-anchor:middle;stroke-width:1.10024" />
  <text
     x="939.3927"
     y="-926.56458"
     id="text69"
     style="font-size:142.184px;line-height:125%;font-family:'Gentium Book Basic';letter-spacing:0;word-spacing:0;stroke-width:1.10025"
     transform="scale(0.99852289,1.0014793)"><tspan
       x="939.3927"
       y="-926.56458"
       id="tspan71"
       style="stroke-width:1.10025" /></text>
  <text
     x="450.92389"
     y="-4102.2476"
     transform="scale(4.0068932,0.24956992)"
     id="text73"
     style="font-size:51.6607px;font-family:Arial;text-anchor:middle;stroke-width:1.10024" />
  <text
     x="1578.9218"
     y="-1014.5843"
     id="text75"
     style="font-size:142.184px;line-height:125%;font-family:'Gentium Book Basic';letter-spacing:0;word-spacing:0;stroke-width:1.10025"
     transform="scale(0.99852289,1.0014793)"><tspan
       x="1578.9218"
       y="-1014.5843"
       id="tspan77"
       style="stroke-width:1.10025" /></text>
  <text
     x="610.2937"
     y="-4455.458"
     transform="scale(4.0068932,0.24956992)"
     id="text79"
     style="font-size:51.6607px;font-family:Arial;text-anchor:middle;stroke-width:1.10024" />
  <text
     x="-437.60925"
     y="541.95587"
     id="text81"
     style="font-size:229.215px;line-height:125%;font-family:'Gentium Book Basic';letter-spacing:0;word-spacing:0;stroke-width:1.10025"
     transform="scale(0.99852289,1.0014793)"><tspan
       x="-437.60925"
       y="541.95587"
       id="tspan83"
       style="stroke-width:1.10025" /></text>
  <g
     transform="matrix(0.71205115,0,0,0.77634707,73.259696,57.055973)"
     id="g39"
     style="fill:#ffffff">
    <path
       d="m 161.57,387.35 c -31.419,-2.156 -41.36,-6.391 -51.71,-22.03 -9.621,-14.539 -12.687,-47.41 -10.853,-116.37 1.819,-68.42 6.174,-80.07 33.931,-90.79 11.26,-4.346 24.19,-4.795 138.03,-4.795 113.84,0 126.77,0.449 138.03,4.795 14.599,5.635 22.15,12.964 28.15,27.344 5.506,13.177 8.431,103.7 4.614,142.74 -3.168,32.398 -10.333,45.4 -29.751,53.991 -11.837,5.236 -18.366,5.582 -117.98,6.251 -58,0.39 -117.61,-0.125 -132.47,-1.145 m 127.64,-83.958 c 24.14,-16.841 43.896,-31.454 43.896,-32.472 0,-1.018 -17.93,-14.465 -39.844,-29.881 -21.914,-15.416 -45.618,-32.14 -52.675,-37.17 l -12.831,-9.139 v 76.21 76.21 l 8.779,-6.569 c 4.829,-3.613 28.532,-20.348 52.675,-37.19"
       inkscape:connector-curvature="0"
       id="path41"
       style="opacity:0.2;fill:#ffffff" />
    <path
       d="m 146.57,372.35 c -31.419,-2.156 -41.36,-6.391 -51.71,-22.03 -9.621,-14.539 -12.687,-47.41 -10.853,-116.37 1.819,-68.42 6.174,-80.07 33.931,-90.79 11.26,-4.346 24.19,-4.795 138.03,-4.795 113.84,0 126.77,0.449 138.03,4.795 14.599,5.635 22.15,12.964 28.15,27.344 5.506,13.177 8.431,103.7 4.614,142.74 -3.168,32.398 -10.333,45.4 -29.751,53.991 -11.837,5.236 -18.366,5.582 -117.98,6.251 -58,0.39 -117.61,-0.125 -132.47,-1.145 m 127.64,-83.958 c 24.14,-16.841 43.896,-31.454 43.896,-32.472 0,-1.018 -17.93,-14.465 -39.844,-29.881 -21.914,-15.416 -45.618,-32.14 -52.675,-37.17 l -12.831,-9.139 v 76.21 76.21 l 8.779,-6.569 c 4.829,-3.613 28.532,-20.348 52.675,-37.19"
       inkscape:connector-curvature="0"
       id="path43"
       style="fill:#ffffff" />
  </g>
  <path
     style="opacity:0.284981;fill:#f5f5f5;stroke-width:0.434561"
     d="m 225.09403,255.72036 c 0,-46.56427 0.10512,-58.2882 0.52021,-58.01702 0.69181,0.45196 40.83497,31.32243 50.87752,39.12529 7.32914,5.69459 19.22836,15.3547 21.99719,17.85788 0.97834,0.88447 1.08715,1.166 0.6156,1.5927 -0.45195,0.40894 -1.47552,-0.19732 -4.85041,-2.87286 -10.18839,-8.07709 -58.45394,-45.09917 -58.79564,-45.09917 -0.2219,0 -0.37626,20.08756 -0.37626,48.96578 v 48.96579 l -4.44473,3.5564 c -2.4446,1.95601 -4.69193,3.71967 -4.9941,3.91924 -0.45395,0.29985 -0.54938,-9.7755 -0.54938,-57.99403 z"
     id="path1771" />
  <path
     style="opacity:0.284981;fill:#f5f5f5;stroke-width:0.434561"
     d="m 200.95581,358.02183 c -28.21141,-0.75056 -37.69602,-3.21882 -45.05609,-11.72539 -1.51566,-1.75177 -2.97571,-3.63312 -3.24453,-4.1808 -0.43581,-0.88782 -0.4046,-0.95749 0.28794,-0.64275 7.38931,3.35824 15.50189,4.5298 36.56785,5.2807 17.44943,0.62203 132.88018,0.23972 145.22323,-0.48096 13.86512,-0.80957 18.97987,-2.05831 25.61701,-6.25434 3.59908,-2.27533 8.63729,-7.76711 10.51898,-11.46595 3.74543,-7.36231 5.91509,-18.42067 6.94416,-35.39293 1.79354,-29.58056 0.007,-87.8883 -3.10493,-101.29391 -0.33215,-1.43117 -1.07671,-3.61943 -1.65459,-4.86279 -1.28485,-2.76447 -1.29267,-2.91713 -0.1143,-2.23231 1.87712,1.09094 6.24191,6.12445 8.04324,9.27554 4.33251,7.57891 5.32926,13.14269 6.86324,38.31026 0.71332,11.70325 0.99335,58.3419 0.41642,69.35372 -1.00476,19.17804 -3.25033,31.26346 -7.15948,38.53171 -3.97045,7.38219 -12.73051,13.79972 -21.52887,15.77177 -5.07528,1.13758 -14.03071,1.59624 -39.70344,2.03346 -28.64507,0.48787 -100.20404,0.47279 -118.91584,-0.0251 z"
     id="path1810" />
  <ellipse
     cx="387.86923"
     cy="384.39542"
     fill="#33a5ff"
     stroke-width="7.13222"
     id="circle6"
     rx="99.637436"
     ry="100.06364" />
  <path
     d="m 338.05177,391.52717 49.81742,57.17848 49.81735,-57.17848 h -28.46743 v -71.4744 h -42.70254 v 71.4744 z"
     fill="#ffffff"
     stroke-width="7.13222"
     id="path8" />
</svg>
