<?xml version="1.0" encoding="UTF-8" standalone="no"?>
<!-- Created with Inkscape (http://www.inkscape.org/) -->

<svg
   version="1.1"
   width="100%"
   height="100%"
   viewBox="0 0 512 512"
   id="svg2"
   sodipodi:docname="accessories-image-viewer.svg"
   inkscape:version="1.1 (c68e22c387, 2021-05-23)"
   xmlns:inkscape="http://www.inkscape.org/namespaces/inkscape"
   xmlns:sodipodi="http://sodipodi.sourceforge.net/DTD/sodipodi-0.dtd"
   xmlns:xlink="http://www.w3.org/1999/xlink"
   xmlns="http://www.w3.org/2000/svg"
   xmlns:svg="http://www.w3.org/2000/svg"
   xmlns:rdf="http://www.w3.org/1999/02/22-rdf-syntax-ns#"
   xmlns:cc="http://creativecommons.org/ns#"
   xmlns:dc="http://purl.org/dc/elements/1.1/">
  <sodipodi:namedview
     id="namedview35"
     pagecolor="#ffffff"
     bordercolor="#666666"
     borderopacity="1.0"
     inkscape:pageshadow="2"
     inkscape:pageopacity="0.0"
     inkscape:pagecheckerboard="0"
     showgrid="false"
     inkscape:zoom="0.42773437"
     inkscape:cx="-8.1826485"
     inkscape:cy="385.75343"
     inkscape:window-width="1366"
     inkscape:window-height="706"
     inkscape:window-x="0"
     inkscape:window-y="0"
     inkscape:window-maximized="1"
     inkscape:current-layer="svg2" />
  <metadata
     id="metadata59">
    <rdf:RDF>
      <cc:Work
         rdf:about="">
        <dc:format>image/svg+xml</dc:format>
        <dc:type
           rdf:resource="http://purl.org/dc/dcmitype/StillImage" />
      </cc:Work>
    </rdf:RDF>
  </metadata>
  <defs
     id="defs4">
    <filter
       color-interpolation-filters="sRGB"
       id="7"
       x="-0.018107638"
       y="-0.017892786"
       width="1.0362153"
       height="1.0357856">
      <feGaussianBlur
         id="feGaussianBlur7"
         stdDeviation="3.7725" />
    </filter>
    <linearGradient
       y1="19.563999"
       x2="0"
       y2="504.01999"
       id="8"
       gradientUnits="userSpaceOnUse">
      <stop
         id="stop10"
         style="stop-color:#f3f3f3;stop-opacity:1"
         offset="0" />
      <stop
         id="stop12"
         style="stop-color:#eeeeee;stop-opacity:1"
         offset="0.5" />
      <stop
         id="stop14"
         style="stop-color:#ebebeb;stop-opacity:1"
         offset="1" />
    </linearGradient>
    <linearGradient
       x1="257"
       x2="362"
       id="5"
       xlink:href="#0"
       gradientUnits="userSpaceOnUse"
       gradientTransform="matrix(1.02835,0,0,1.46193,-556.69324,-120.38612)" />
    <linearGradient
       x1="257"
       x2="362"
       id="6"
       xlink:href="#0"
       gradientUnits="userSpaceOnUse"
       gradientTransform="matrix(1.0381,0,0,1.46193,-559.20324,-120.39612)" />
    <linearGradient
       x1="257"
       x2="362"
       id="4"
       xlink:href="#0"
       gradientUnits="userSpaceOnUse"
       gradientTransform="matrix(1.02835,0,0,1.46193,-594.74258,-87.16977)" />
    <linearGradient
       x1="257"
       x2="362"
       id="3"
       xlink:href="#0"
       gradientUnits="userSpaceOnUse"
       gradientTransform="matrix(1.0381,0,0,1.46193,-559.20224,-108.35612)" />
    <linearGradient
       id="0">
      <stop
         id="stop21"
         style="stop-color:#000000;stop-opacity:1"
         offset="0" />
      <stop
         id="stop23"
         style="stop-color:#ffffff;stop-opacity:1"
         offset="1" />
    </linearGradient>
    <linearGradient
       x1="257"
       x2="362"
       id="2"
       xlink:href="#0"
       gradientUnits="userSpaceOnUse"
       gradientTransform="matrix(1.0381,0,0,1.46193,-598.27858,-99.199772)" />
    <linearGradient
       x1="257"
       x2="362"
       id="1"
       xlink:href="#0"
       gradientUnits="userSpaceOnUse"
       gradientTransform="matrix(1.0381,0,0,1.46193,-598.27858,-111.22977)" />
    <linearGradient
       id="0-3"
       y1="543.79999"
       x2="0"
       y2="503.79999"
       gradientUnits="userSpaceOnUse"
       gradientTransform="matrix(1.125,0,0,1,-51.07,0)"
       x1="0"
       spreadMethod="pad">
      <stop
         stop-color="#31d145"
         id="stop4" />
      <stop
         offset="1"
         stop-color="#4bf082"
         id="stop6" />
    </linearGradient>
    <linearGradient
       xlink:href="#1-7"
       id="3-6"
       y1="525.79999"
       x2="0"
       y2="503.79999"
       gradientUnits="userSpaceOnUse"
       gradientTransform="matrix(1.01896,0,0,1.16964,-8.472,-91.37)" />
    <linearGradient
       id="1-7">
      <stop
         stop-color="#1c6b2a"
         id="stop9" />
      <stop
         offset="1"
         stop-color="#468e5e"
         id="stop11" />
    </linearGradient>
    <linearGradient
       gradientUnits="userSpaceOnUse"
       y2="503.79999"
       x2="0"
       y1="543.79999"
       id="2-5"
       xlink:href="#1-7"
       gradientTransform="matrix(0.67024,0,0,0.41636,135.45,294.04)" />
    <linearGradient
       inkscape:collect="always"
       xlink:href="#0-3"
       id="linearGradient942"
       x1="38.5"
       y1="256"
       x2="473.5"
       y2="256"
       gradientUnits="userSpaceOnUse"
       gradientTransform="matrix(1.102616,0,0,1.1026162,-538.55976,-25.979725)" />
  </defs>
  <rect
     width="479.638"
     height="479.638"
     rx="239.819"
     x="-496.10901"
     y="16.471001"
     id="rect33"
     style="fill:url(#linearGradient942);fill-opacity:1;stroke-width:1.10261"
     transform="rotate(-90)"
     ry="239.819" />
  <g
     transform="matrix(1.0942171,0,0,1.0795308,-26.068905,-44.49664)"
     id="g39">
    <path
       d="m 206.12,157.06 c -24.812,0 -45.32,19.965 -45.32,44.806 0,24.843 20.483,45.32 45.32,45.32 24.843,0 45.33,-20.483 45.33,-45.32 0,-24.843 -20.517,-44.806 -45.33,-44.806 m 121.39,88.57 c -21.479,-0.317 -37.859,11.167 -52.1,25.01 -14.241,13.842 -26.394,30.23 -40.639,41.16 -4.836,3.586 -9.32,5.825 -13.03,6.776 -3.705,0.948 -6.35,0.679 -8.854,-1.564 -15.378,-20.498 -29.99,-31.3 -43.24,-34.385 -13.335,-3.1 -25.435,2.097 -35.427,11.462 -19.984,18.726 -32.912,55.14 -38.55,88.05 l -0.519,2.605 h 335 l -1.564,-3.123 c -14.987,-30.494 -25.405,-63.891 -39.594,-90.14 -7.097,-13.12 -15.09,-24.689 -25.01,-32.819 -9.917,-8.13 -21.924,-12.857 -36.468,-13.03"
       inkscape:connector-curvature="0"
       id="path41"
       style="opacity:0.2" />
    <path
       d="m 191.12,142.06 c -24.812,0 -45.32,19.965 -45.32,44.806 0,24.843 20.483,45.32 45.32,45.32 24.843,0 45.33,-20.483 45.33,-45.32 0,-24.843 -20.517,-44.806 -45.33,-44.806 m 121.39,88.57 c -21.479,-0.317 -37.859,11.167 -52.1,25.01 -14.241,13.842 -26.394,30.23 -40.639,41.16 -4.836,3.586 -9.32,5.825 -13.03,6.776 -3.705,0.948 -6.35,0.679 -8.854,-1.564 -15.378,-20.498 -29.99,-31.3 -43.24,-34.385 -13.335,-3.1 -25.435,2.097 -35.427,11.462 -19.984,18.726 -32.912,55.14 -38.55,88.05 l -0.519,2.605 h 335 l -1.564,-3.123 c -14.987,-30.494 -25.405,-63.891 -39.594,-90.14 -7.097,-13.12 -15.09,-24.689 -25.01,-32.819 -9.917,-8.13 -21.924,-12.857 -36.468,-13.03"
       inkscape:connector-curvature="0"
       id="path43"
       style="fill:#dcdbdb" />
  </g>
  <path
     style="opacity:0.284981;fill:#ffff00"
     id="path1596"
     sodipodi:type="arc"
     sodipodi:cx="182.9935"
     sodipodi:cy="157.62479"
     sodipodi:rx="64.378159"
     sodipodi:ry="63.030727"
     sodipodi:start="1.5347657"
     sodipodi:end="1.5295961"
     sodipodi:arc-type="slice"
     d="m 185.31258,220.6146 a 64.378159,63.030727 0 0 1 -66.6524,-60.63786 64.378159,63.030727 0 0 1 61.84795,-65.335693 64.378159,63.030727 0 0 1 66.81227,60.468983 64.378159,63.030727 0 0 1 -61.67526,65.492 l -2.65164,-62.97724 z" />
  <path
     style="opacity:0.284981;fill:#ffffff;stroke-width:2.33651"
     d="m 63.755411,351.05631 c 0,-8.06689 11.066232,-43.14561 18.677855,-59.20672 14.115274,-29.78422 33.553854,-47.16214 52.914564,-47.3051 11.31417,-0.0836 27.09347,9.10139 42.4591,24.71489 14.86909,15.109 20.11462,17.20554 30.18528,12.06455 2.82598,-1.44262 19.42874,-16.39381 36.89504,-33.22479 19.23067,-18.5312 35.97687,-32.59308 42.45559,-35.65017 26.60227,-12.55282 51.39519,-8.09374 72.64579,13.06554 15.6116,15.54455 24.86524,32.32567 48.24387,87.4887 l 17.19288,40.56742 H 244.59039 c -128.26751,0 -180.834979,-0.73092 -180.834979,-2.51432 z"
     id="path2846" />
  <path
     style="opacity:0.284981;fill:#ffffff;stroke-width:2.33651"
     d="m 98.716569,351.83649 -34.433477,-0.70775 2.230196,-9.80283 c 14.241569,-62.59862 48.227262,-103.91057 77.465682,-94.16493 9.94382,3.31441 26.24537,14.8961 38.46,27.32448 15.74819,16.02372 18.23487,15.04662 61.12329,-24.01784 20.21611,-18.41362 41.29215,-35.64547 46.83563,-38.29302 13.72117,-6.55315 35.55425,-6.51631 49.7869,0.084 13.68131,6.34465 30.98561,25.16689 41.62775,45.27942 8.02457,15.1655 41.85418,91.6491 41.85418,94.62588 0,1.36216 -255.26285,1.10492 -324.950151,-0.32746 z"
     id="path2885" />
  <path
     style="opacity:0.284981;fill:#ffffff;stroke-width:2.33651"
     d="M 174.90448,351.94227 C 49.353191,351.08971 62.139152,354.70122 72.227097,322.93996 83.540648,287.31998 102.13396,259.54719 121.19,249.80414 c 11.31038,-5.78279 24.81605,-2.79907 41.81543,9.23794 8.16173,5.77924 17.94861,13.74705 21.74861,17.70627 7.31379,7.62023 14.62111,9.03545 23.21749,4.49654 2.81462,-1.48612 17.30025,-13.64459 32.19031,-27.01885 40.00638,-35.93369 51.64602,-43.9048 66.8472,-45.77856 32.59049,-4.01727 57.67807,15.42949 80.09986,62.08984 14.79514,30.78903 34.20547,75.3323 34.20547,78.49549 0,1.34935 -22.88664,2.21702 -58.48072,2.21702 -32.1644,0 -63.12736,0.32202 -68.8066,0.71564 -5.67919,0.39357 -59.28436,0.38314 -119.12257,-0.0232 z"
     id="path2924" />
  <path
     style="opacity:0.284981;fill:#ffff00;stroke-width:1.16826"
     d="m 171.0827,203.90199 c -9.43614,-2.62092 -15.38889,-6.05941 -22.30826,-12.88596 -20.86243,-20.58238 -18.87934,-53.02412 4.34852,-71.13827 24.16732,-18.84678 59.88953,-10.76585 73.62621,16.65539 15.34579,30.63332 -6.27466,66.58491 -41.25906,68.60768 -5.12939,0.29657 -10.56086,-0.17045 -14.40741,-1.23884 z"
     id="path114" />
  <path
     style="opacity:0.284981;fill:#ffff00;stroke-width:1.16826"
     d="m 167.6461,202.28239 c -32.37252,-11.85138 -42.97128,-50.87964 -20.56475,-75.72647 23.10994,-25.62681 64.61909,-19.61978 79.73187,11.53848 4.26783,8.79898 5.24226,23.63892 2.15877,32.87604 -4.5328,13.57883 -13.17542,23.17011 -26.37154,29.26622 -10.07622,4.65485 -25.3808,5.55056 -34.95435,2.04573 z"
     id="path153" />
  <path
     style="opacity:0.284981;fill:#ffff00;stroke-width:1.16826"
     d="m 174.00058,203.25569 c -13.59211,-2.25461 -26.46852,-12.38819 -33.45016,-26.32493 -4.10526,-8.195 -4.38079,-9.41992 -4.34749,-19.32991 0.0464,-13.82028 2.96732,-21.43443 11.85653,-30.90695 19.01559,-20.26344 51.05062,-20.55286 69.50855,-0.62799 7.04603,7.60599 10.39405,14.33941 11.97038,24.07433 5.10005,31.49657 -23.12621,58.4917 -55.53781,53.11545 z"
     id="path192" />
  <path
     style="opacity:0.284981;fill:#ffff00;stroke-width:1.16826"
     d="m 169.42841,201.68229 c -11.66286,-4.11016 -21.83468,-13.05021 -28.63316,-25.1658 -3.32606,-5.9274 -3.52728,-7.02066 -3.5064,-19.05256 0.0183,-10.63518 0.45132,-13.68927 2.5951,-18.30927 4.05003,-8.7282 14.24065,-18.42728 24.16399,-22.99849 7.73746,-3.56426 9.45859,-3.91178 19.08983,-3.85416 8.10493,0.0486 12.18003,0.67988 17.38932,2.6942 9.49709,3.67236 19.72506,13.26669 24.63829,23.11188 3.53815,7.08975 3.84045,8.57905 3.80604,18.75043 -0.0295,8.71366 -0.60216,12.44735 -2.70963,17.66509 -4.87938,12.08069 -17.45191,23.11278 -30.69359,26.93292 -7.65841,2.20937 -20.20371,2.31773 -26.13979,0.22576 z"
     id="path231" />
  <path
     style="opacity:0.284981;fill:#ffff00;stroke-width:1.16826"
     d="m 174.0824,202.1073 c -11.96302,-1.98974 -26.73014,-13.89128 -33.4366,-26.94821 -2.83005,-5.50988 -3.00045,-6.76992 -2.61511,-19.3371 0.36959,-12.05357 0.73485,-13.98465 3.5336,-18.68122 4.58602,-7.69579 15.17563,-16.99916 23.97177,-21.06013 7.26996,-3.35635 8.35479,-3.53208 19.16217,-3.10382 9.49437,0.37621 12.57623,0.99471 17.99878,3.61211 8.29161,4.00226 18.98598,14.96003 22.96137,23.52693 2.74784,5.9215 2.98186,7.5845 2.57878,18.32699 -0.3744,9.97822 -0.94389,12.82396 -3.66406,18.30917 -3.82171,7.70648 -13.36589,16.99504 -21.7904,21.20674 -4.76948,2.38445 -19.53078,5.7708 -22.5854,5.18128 -0.32346,-0.0624 -3.07516,-0.52716 -6.1149,-1.03274 z"
     id="path270" />
  <path
     style="opacity:0.284981;fill:#ffff00;stroke-width:1.16826"
     d="m 169.26199,200.46544 c -10.65368,-3.74922 -22.50362,-14.648 -28.08263,-25.82847 -3.61094,-7.23639 -3.63775,-7.42516 -2.80293,-19.7205 0.58489,-8.61454 1.53313,-13.749 3.09808,-16.77537 3.23708,-6.26006 14.18914,-16.36413 22.63828,-20.88545 7.00677,-3.74952 7.69155,-3.87992 19.39915,-3.6941 10.36758,0.16454 13.02599,0.62219 18.24367,3.1407 7.51841,3.62904 18.20212,13.97947 22.70716,21.99878 3.16139,5.62752 3.35891,6.76156 3.19313,18.33389 -0.13792,9.62629 -0.70466,13.5128 -2.58067,17.69691 -2.90486,6.47875 -12.99471,17.27321 -19.85114,21.23742 -10.07908,5.82745 -26.38598,7.86622 -35.9621,4.49619 z"
     id="path309" />
  <path
     style="opacity:0.284981;fill:#ffff00;stroke-width:1.16826"
     d="m 172.55213,201.11137 c -13.61125,-3.51916 -29.90377,-19.37005 -33.51703,-32.60848 -1.94641,-7.13143 0.40508,-25.78942 4.01653,-31.86918 3.86494,-6.50648 14.2757,-15.65516 22.46863,-19.74477 6.05749,-3.02369 7.09581,-3.17187 19.06899,-2.72148 10.20263,0.38376 13.64331,0.98175 17.71024,3.07811 6.88928,3.55118 18.34334,15.10413 21.96442,22.15406 2.60178,5.06543 2.97408,7.24591 2.92899,17.15543 -0.06,13.16186 -1.42364,17.72566 -7.73906,25.89853 -5.82856,7.54276 -13.25552,13.23648 -20.9899,16.09146 -6.9491,2.56508 -20.66315,3.92332 -25.91181,2.56632 z"
     id="path348" />
  <path
     style="opacity:0.284981;fill:#ffff00;stroke-width:1.16826"
     d="m 173.99015,200.90159 c -10.87562,-1.74189 -25.07488,-13.07039 -31.90844,-25.45738 -2.94918,-5.34591 -3.33657,-7.20466 -3.22789,-15.48756 0.24664,-18.79722 3.81746,-26.51421 16.86345,-36.44403 10.9283,-8.31793 16.01947,-9.94044 29.22328,-9.31316 14.43128,0.68558 19.36368,2.93624 29.79374,13.59493 10.33518,10.56169 12.4514,15.30944 12.48441,28.00844 0.0377,14.5165 -2.11998,20.4248 -10.80368,29.58308 -3.96267,4.17926 -9.36621,8.83251 -12.00781,10.34051 -8.13129,4.64191 -20.55212,6.75519 -30.41706,5.17517 z"
     id="path387" />
  <path
     style="opacity:0.284981;fill:#ffff00;stroke-width:1.16826"
     d="m 165.29297,197.54539 c -8.47431,-4.22536 -19.84191,-15.54593 -23.88538,-23.78651 -2.39244,-4.87577 -2.61916,-6.70837 -2.13509,-17.25719 0.39477,-8.60223 1.21536,-13.29785 3.02659,-17.31895 2.95058,-6.55053 11.53137,-14.96644 20.99545,-20.59202 6.70314,-3.98444 7.06978,-4.05993 19.35189,-3.98515 11.14423,0.0679 13.23662,0.42248 19.04982,3.22844 7.31691,3.53177 19.0186,15.04871 22.67132,22.3134 3.35692,6.67637 3.24292,26.7533 -0.19387,34.14223 -3.84583,8.26837 -13.64316,17.96982 -22.48352,22.26351 -6.6265,3.21843 -9.25274,3.81433 -18.43277,4.18245 -10.08028,0.40421 -11.1291,0.21796 -17.96444,-3.19021 z"
     id="path426" />
  <path
     style="opacity:0.284981;fill:#ffff00;stroke-width:1.16826"
     d="m 169.21811,199.25966 c -10.48625,-3.97256 -23.23817,-16.18843 -28.01112,-26.83365 -2.16517,-4.829 -2.40169,-6.94511 -1.79558,-16.06383 1.02799,-15.46528 2.34299,-18.54319 11.92353,-27.90813 11.76742,-11.50257 16.10404,-13.34731 31.34355,-13.33317 15.32375,0.0142 21.58531,2.53346 31.7371,12.7691 8.30589,8.37446 11.07406,13.47707 12.07942,22.26625 1.29445,11.31651 -0.98305,22.58978 -6.03047,29.84977 -5.23786,7.53393 -15.2856,15.59935 -22.60554,18.14571 -7.60142,2.64427 -23.01188,3.2404 -28.64089,1.10795 z"
     id="path465" />
  <path
     style="opacity:0.284981;fill:#ffff00;stroke-width:0.0258153"
     d="m 185.44291,220.31626 -0.12111,-0.0368 -0.0152,-0.21141 c -0.0141,-0.19486 -0.51075,-13.71287 -0.50964,-13.87188 4.8e-4,-0.0664 0.007,-0.0702 0.11751,-0.0702 0.11618,0 0.1169,6e-4 0.1169,0.0889 0,0.13721 0.56673,13.63569 0.5838,13.90472 0.0166,0.26487 0.0242,0.25645 -0.17212,0.19682 z"
     id="path986" />
</svg>
