<?xml version="1.0" encoding="UTF-8" standalone="no"?>
<!-- Created with Inkscape (http://www.inkscape.org/) -->

<svg
   version="1.1"
   width="100%"
   height="100%"
   viewBox="0 0 512 512"
   id="svg2"
   sodipodi:docname="wps-office-wppmain (copy).svg"
   inkscape:version="1.1 (c68e22c387, 2021-05-23)"
   xmlns:inkscape="http://www.inkscape.org/namespaces/inkscape"
   xmlns:sodipodi="http://sodipodi.sourceforge.net/DTD/sodipodi-0.dtd"
   xmlns:xlink="http://www.w3.org/1999/xlink"
   xmlns="http://www.w3.org/2000/svg"
   xmlns:svg="http://www.w3.org/2000/svg"
   xmlns:rdf="http://www.w3.org/1999/02/22-rdf-syntax-ns#"
   xmlns:cc="http://creativecommons.org/ns#"
   xmlns:dc="http://purl.org/dc/elements/1.1/">
  <sodipodi:namedview
     id="namedview39"
     pagecolor="#ffffff"
     bordercolor="#666666"
     borderopacity="1.0"
     inkscape:pageshadow="2"
     inkscape:pageopacity="0.0"
     inkscape:pagecheckerboard="0"
     showgrid="true"
     inkscape:zoom="0.15122693"
     inkscape:cx="-790.20316"
     inkscape:cy="-112.41384"
     inkscape:window-width="1366"
     inkscape:window-height="706"
     inkscape:window-x="0"
     inkscape:window-y="0"
     inkscape:window-maximized="1"
     inkscape:current-layer="svg2" />
  <metadata
     id="metadata65">
    <rdf:RDF>
      <cc:Work
         rdf:about="">
        <dc:format>image/svg+xml</dc:format>
        <dc:type
           rdf:resource="http://purl.org/dc/dcmitype/StillImage" />
      </cc:Work>
    </rdf:RDF>
  </metadata>
  <defs
     id="defs4">
    <filter
       color-interpolation-filters="sRGB"
       id="7"
       x="-0.018107638"
       y="-0.017892786"
       width="1.0362153"
       height="1.0357856">
      <feGaussianBlur
         id="feGaussianBlur7"
         stdDeviation="3.7725" />
    </filter>
    <linearGradient
       y1="19.563999"
       x2="0"
       y2="504.01999"
       id="8"
       gradientUnits="userSpaceOnUse">
      <stop
         id="stop10"
         style="stop-color:#f3f3f3;stop-opacity:1"
         offset="0" />
      <stop
         id="stop12"
         style="stop-color:#eeeeee;stop-opacity:1"
         offset="0.5" />
      <stop
         id="stop14"
         style="stop-color:#ebebeb;stop-opacity:1"
         offset="1" />
    </linearGradient>
    <linearGradient
       x1="257"
       x2="362"
       id="5"
       xlink:href="#0"
       gradientUnits="userSpaceOnUse"
       gradientTransform="matrix(1.02835,0,0,1.46193,-383.73694,-115.70205)" />
    <linearGradient
       x1="257"
       x2="362"
       id="6"
       xlink:href="#0"
       gradientUnits="userSpaceOnUse"
       gradientTransform="matrix(1.0381,0,0,1.46193,-467.2489,-124.14041)" />
    <linearGradient
       x1="257"
       x2="362"
       id="4"
       xlink:href="#0"
       gradientUnits="userSpaceOnUse"
       gradientTransform="matrix(1.02835,0,0,1.46193,-610.00374,-127.97146)" />
    <linearGradient
       x1="257"
       x2="362"
       id="3"
       xlink:href="#0"
       gradientUnits="userSpaceOnUse"
       gradientTransform="matrix(1.0381,0,0,1.46193,-427.0919,-112.11041)" />
    <linearGradient
       id="0">
      <stop
         id="stop21"
         style="stop-color:#000000;stop-opacity:1"
         offset="0" />
      <stop
         id="stop23"
         style="stop-color:#ffffff;stop-opacity:1"
         offset="1" />
    </linearGradient>
    <linearGradient
       x1="257"
       x2="362"
       id="2"
       xlink:href="#0"
       gradientUnits="userSpaceOnUse"
       gradientTransform="matrix(1.0381,0,0,1.46193,-467.2489,-112.11041)" />
    <linearGradient
       x1="257"
       x2="362"
       id="1"
       xlink:href="#0"
       gradientUnits="userSpaceOnUse"
       gradientTransform="matrix(1.0381,0,0,1.46193,-467.2529,-112.11041)" />
    <filter
       id="b"
       x="-0.14998583"
       y="-0.037500887"
       width="1.2999717"
       height="1.0750018"
       color-interpolation-filters="sRGB">
      <feGaussianBlur
         stdDeviation="0.1323"
         id="feGaussianBlur10" />
    </filter>
    <linearGradient
       id="a"
       x1="400.57001"
       x2="400.57001"
       y1="545.79999"
       y2="517.79999"
       gradientTransform="matrix(1.4286,0,0,1.4286,-163.67,-235.91)"
       gradientUnits="userSpaceOnUse">
      <stop
         stop-color="#e02d2d"
         offset="0"
         id="stop5" />
      <stop
         stop-color="#f75151"
         offset="1"
         id="stop7" />
    </linearGradient>
    <linearGradient
       id="linearGradient909"
       x1="31.525"
       x2="31.525"
       y1="6.5419002"
       y2="59.044998"
       gradientUnits="userSpaceOnUse"
       gradientTransform="translate(596.19496,277.16805)">
      <stop
         stop-color="#ff413f"
         offset="0"
         id="stop2" />
      <stop
         stop-color="#e62f2e"
         offset="1"
         id="stop4" />
    </linearGradient>
    <linearGradient
       inkscape:collect="always"
       xlink:href="#0-6"
       id="linearGradient1032"
       x1="-496.10901"
       y1="256.29001"
       x2="-16.471008"
       y2="256.29001"
       gradientUnits="userSpaceOnUse"
       gradientTransform="translate(2.9101562e-6)" />
    <linearGradient
       id="0-6"
       gradientUnits="userSpaceOnUse"
       y1="61.831001"
       x2="0"
       y2="-0.20299999">
      <stop
         stop-color="#673508"
         id="stop6" />
      <stop
         stop-color="#ce873f"
         offset="1"
         id="stop8" />
    </linearGradient>
  </defs>
  <rect
     width="479.638"
     height="479.638"
     rx="239.819"
     x="-496.10901"
     y="16.471008"
     id="rect33"
     style="fill:url(#linearGradient1032);fill-opacity:1;stroke-width:1.10261"
     ry="239.819"
     transform="rotate(-90)" />
  <circle
     cx="260.41745"
     cy="364.78592"
     id="circle29"
     style="fill:#ffffff;stroke-width:10.2237"
     r="0" />
  <g
     transform="matrix(13.15654,0,0,12.913768,-43.498005,-50.338175)"
     id="g4" />
  <path
     d="m 127.54036,207.93722 v 142.05256 c 0,28.61732 23.47196,51.65618 52.62727,51.65618 h 131.5654 c 29.15531,0 52.62727,-23.03886 52.62727,-51.65618 h 13.15654 c 29.15531,0 52.62728,-23.03884 52.62728,-51.65618 v -12.91376 c 0,-28.61732 -23.47197,-51.65618 -52.62728,-51.65618 H 364.3603 v -25.82753 z m 236.81546,51.65618 h 13.15654 c 14.57766,0 26.31308,11.51887 26.31308,25.82754 v 12.91376 c 0,14.30868 -11.73542,25.82754 -26.31308,25.82754 h -13.15654 z"
     fill="#ffffff"
     id="path6"
     style="stroke-width:11.1037" />
  <path
     d="m 180.171,91.714413 c -26.31308,0 -46.04845,20.662687 -46.04845,33.576447 0,23.8133 32.89192,30.9935 32.89192,43.90726 0,15.49674 -13.15655,19.47461 -26.31308,25.82754 26.31308,0 46.04844,-11.62228 46.04844,-25.82754 0,-25.82753 -32.89191,-30.06391 -32.89191,-45.19873 0,-19.37121 30.01044,-32.284977 26.31308,-32.284977 z m 78.94035,0 c -26.31307,0 -46.04845,20.662687 -46.04845,33.576447 0,23.8133 32.89192,30.9935 32.89192,43.90726 0,15.49674 -13.15654,19.47461 -26.31308,25.82754 26.31308,0 46.04844,-11.62228 46.04844,-25.82754 0,-25.82753 -32.8919,-30.06391 -32.8919,-45.19873 0,-19.37121 30.01043,-32.284977 26.31307,-32.284977 z m 72.36153,0 c -26.31307,0 -46.04845,20.662687 -46.04845,33.576447 0,23.8133 32.89192,30.9935 32.89192,43.90726 0,15.49674 -13.15654,19.47461 -26.3131,25.82754 26.3131,0 46.04846,-11.62228 46.04846,-25.82754 0,-25.82753 -32.8919,-30.06391 -32.8919,-45.19873 0,-19.37121 30.01044,-32.284977 26.31307,-32.284977 z"
     fill="#ffffff"
     id="path8"
     style="stroke-width:11.1037" />
</svg>
