<?xml version="1.0" encoding="UTF-8" standalone="no"?>
<!-- Created with Inkscape (http://www.inkscape.org/) -->

<svg
   version="1.1"
   width="100%"
   height="100%"
   viewBox="0 0 512 512"
   id="svg2"
   sodipodi:docname="distributor-logo-fedora.svg"
   inkscape:version="1.1 (c68e22c387, 2021-05-23)"
   xmlns:inkscape="http://www.inkscape.org/namespaces/inkscape"
   xmlns:sodipodi="http://sodipodi.sourceforge.net/DTD/sodipodi-0.dtd"
   xmlns:xlink="http://www.w3.org/1999/xlink"
   xmlns="http://www.w3.org/2000/svg"
   xmlns:svg="http://www.w3.org/2000/svg"
   xmlns:rdf="http://www.w3.org/1999/02/22-rdf-syntax-ns#"
   xmlns:cc="http://creativecommons.org/ns#"
   xmlns:dc="http://purl.org/dc/elements/1.1/">
  <sodipodi:namedview
     id="namedview53"
     pagecolor="#ffffff"
     bordercolor="#666666"
     borderopacity="1.0"
     inkscape:pageshadow="2"
     inkscape:pageopacity="0.0"
     inkscape:pagecheckerboard="0"
     showgrid="false"
     inkscape:zoom="0.85546875"
     inkscape:cx="257.75342"
     inkscape:cy="259.50685"
     inkscape:window-width="1366"
     inkscape:window-height="708"
     inkscape:window-x="0"
     inkscape:window-y="0"
     inkscape:window-maximized="1"
     inkscape:current-layer="svg2" />
  <metadata
     id="metadata75">
    <rdf:RDF>
      <cc:Work
         rdf:about="">
        <dc:format>image/svg+xml</dc:format>
        <dc:type
           rdf:resource="http://purl.org/dc/dcmitype/StillImage" />
      </cc:Work>
    </rdf:RDF>
  </metadata>
  <defs
     id="defs73">
    <linearGradient
       x1="257"
       y1="256"
       x2="362"
       y2="256"
       id="linearGradient3153"
       xlink:href="#linearGradient4996-3"
       gradientUnits="userSpaceOnUse"
       gradientTransform="matrix(1.0380952,0,0,1.4619252,-337.28943,-118.25286)" />
    <linearGradient
       x1="257"
       y1="256"
       x2="362"
       y2="256"
       id="linearGradient3149"
       xlink:href="#linearGradient4996-3"
       gradientUnits="userSpaceOnUse"
       gradientTransform="matrix(1.0283468,0,0,1.4619252,209.19233,-118.25286)" />
    <linearGradient
       x1="257"
       y1="256"
       x2="362"
       y2="256"
       id="linearGradient3145"
       xlink:href="#linearGradient4996-3"
       gradientUnits="userSpaceOnUse"
       gradientTransform="matrix(1.0283468,0,0,1.4619252,101.21591,-118.25286)" />
    <linearGradient
       x1="257"
       y1="256"
       x2="362"
       y2="256"
       id="linearGradient3141"
       xlink:href="#linearGradient4996-3"
       gradientUnits="userSpaceOnUse"
       gradientTransform="matrix(1.0380952,0,0,1.4619252,-10.28943,-118.25286)" />
    <linearGradient
       x1="257"
       y1="256"
       x2="362"
       y2="256"
       id="linearGradient3137"
       xlink:href="#linearGradient4996-3"
       gradientUnits="userSpaceOnUse"
       gradientTransform="matrix(1.0380952,0,0,1.4619252,-119.28943,-118.25286)" />
    <linearGradient
       x1="257"
       y1="256"
       x2="362"
       y2="256"
       id="linearGradient3108"
       xlink:href="#linearGradient4996-3"
       gradientUnits="userSpaceOnUse"
       gradientTransform="matrix(1.0380952,0,0,1.4619252,-228.28943,-118.25286)" />
    <linearGradient
       id="linearGradient4996-3">
      <stop
         id="stop4998-1"
         style="stop-color:#000000;stop-opacity:1"
         offset="0" />
      <stop
         id="stop5000-2"
         style="stop-color:#ffffff;stop-opacity:1"
         offset="1" />
    </linearGradient>
    <radialGradient
       id="radialGradient5521-1"
       cx="10.255"
       cy="9.9089003"
       r="12.672"
       fx="9.7251997"
       gradientTransform="matrix(0,2.5253,-4.9716,0,632.40099,221.1157)"
       gradientUnits="userSpaceOnUse">
      <stop
         stop-color="#6e95e3"
         offset="0"
         id="stop2" />
      <stop
         stop-color="#223459"
         offset="1"
         id="stop4" />
    </radialGradient>
    <linearGradient
       inkscape:collect="always"
       xlink:href="#radialGradient5521-1"
       id="linearGradient1024"
       x1="38.500011"
       y1="253"
       x2="473.49997"
       y2="253"
       gradientUnits="userSpaceOnUse"
       gradientTransform="matrix(1.1026161,0,0,1.1026161,-25.979759,-535.25186)" />
  </defs>
  <text
     x="672.91937"
     y="223.66437"
     id="text19"
     style="font-size:112.593px;line-height:125%;font-family:'Gentium Book Basic';letter-spacing:0;word-spacing:0;stroke-width:0.871253"
     transform="scale(0.97968431,1.020737)"><tspan
       x="672.91937"
       y="223.66437"
       id="tspan21"
       style="stroke-width:0.871253" /></text>
  <text
     x="339.39987"
     y="593.31885"
     transform="scale(3.9312974,0.25436895)"
     id="text23"
     style="font-size:40.9088px;font-family:Arial;text-anchor:middle;stroke-width:0.87125" />
  <text
     x="1179.353"
     y="153.96408"
     id="text25"
     style="font-size:112.593px;line-height:125%;font-family:'Gentium Book Basic';letter-spacing:0;word-spacing:0;stroke-width:0.871253"
     transform="scale(0.97968431,1.020737)"><tspan
       x="1179.353"
       y="153.96408"
       id="tspan27"
       style="stroke-width:0.871253" /></text>
  <text
     x="465.60028"
     y="313.62173"
     transform="scale(3.9312974,0.25436895)"
     id="text29"
     style="font-size:40.9088px;font-family:Arial;text-anchor:middle;stroke-width:0.87125" />
  <text
     x="245.73494"
     y="-3.9602385"
     id="text31"
     style="font-size:112.593px;line-height:125%;font-family:'Gentium Book Basic';letter-spacing:0;word-spacing:0;stroke-width:0.871253"
     transform="scale(0.97968431,1.020737)"><tspan
       x="245.73494"
       y="-3.9602385"
       id="tspan33"
       style="stroke-width:0.871253" /></text>
  <text
     x="232.94185"
     y="-320.09015"
     transform="scale(3.9312974,0.25436895)"
     id="text35"
     style="font-size:40.9088px;font-family:Arial;text-anchor:middle;stroke-width:0.87125" />
  <text
     x="1202.4152"
     y="-192.55965"
     id="text37"
     style="font-size:112.593px;line-height:125%;font-family:'Gentium Book Basic';letter-spacing:0;word-spacing:0;stroke-width:0.871253"
     transform="scale(0.97968431,1.020737)"><tspan
       x="1202.4152"
       y="-192.55965"
       id="tspan39"
       style="stroke-width:0.871253" /></text>
  <text
     x="471.35049"
     y="-1076.9183"
     transform="scale(3.9312974,0.25436895)"
     id="text41"
     style="font-size:40.9088px;font-family:Arial;text-anchor:middle;stroke-width:0.87125" />
  <text
     x="1708.8486"
     y="-262.26865"
     id="text43"
     style="font-size:112.593px;line-height:125%;font-family:'Gentium Book Basic';letter-spacing:0;word-spacing:0;stroke-width:0.871253"
     transform="scale(0.97968431,1.020737)"><tspan
       x="1708.8486"
       y="-262.26865"
       id="tspan45"
       style="stroke-width:0.871253" /></text>
  <text
     x="597.55096"
     y="-1356.6241"
     transform="scale(3.9312974,0.25436895)"
     id="text47"
     style="font-size:40.9088px;font-family:Arial;text-anchor:middle;stroke-width:0.87125" />
  <text
     x="1369.8267"
     y="-673.849"
     id="text49"
     style="font-size:112.593px;line-height:125%;font-family:'Gentium Book Basic';letter-spacing:0;word-spacing:0;stroke-width:0.871253"
     transform="scale(0.97968431,1.020737)"><tspan
       x="1369.8267"
       y="-673.849"
       id="tspan51"
       style="stroke-width:0.871253" /></text>
  <text
     x="513.06592"
     y="-3008.2168"
     transform="scale(3.9312974,0.25436895)"
     id="text53"
     style="font-size:40.9088px;font-family:Arial;text-anchor:middle;stroke-width:0.87125" />
  <text
     x="1876.2515"
     y="-743.54926"
     id="text55"
     style="font-size:112.593px;line-height:125%;font-family:'Gentium Book Basic';letter-spacing:0;word-spacing:0;stroke-width:0.871253"
     transform="scale(0.97968431,1.020737)"><tspan
       x="1876.2515"
       y="-743.54926"
       id="tspan57"
       style="stroke-width:0.871253" /></text>
  <text
     x="639.26636"
     y="-3287.9143"
     transform="scale(3.9312974,0.25436895)"
     id="text59"
     style="font-size:40.9088px;font-family:Arial;text-anchor:middle;stroke-width:0.87125" />
  <text
     x="279.41757"
     y="489.03085"
     id="text61"
     style="font-size:181.51px;line-height:125%;font-family:'Gentium Book Basic';letter-spacing:0;word-spacing:0;stroke-width:0.871253"
     transform="scale(0.97968431,1.020737)"><tspan
       x="279.41757"
       y="489.03085"
       id="tspan63"
       style="stroke-width:0.871253" /></text>
  <rect
     width="479.638"
     height="479.638"
     rx="239.819"
     ry="239.819"
     x="16.471001"
     y="-496.10901"
     id="rect4981-0"
     style="fill:url(#linearGradient1024);fill-opacity:1;stroke:none;stroke-width:1.10261"
     transform="rotate(90)" />
  <g
     transform="matrix(0.85355365,0,0,0.88932095,-762.49539,22.581221)"
     id="g3329">
    <path
       d="m 1119.5275,226.26108 c -52.1175,0 -94.852,42.7693 -94.852,94.88685 0,52.11759 42.7333,94.85207 94.852,94.85207 52.1176,0 94.8521,-42.73332 94.8521,-94.85207 v -72.68275 -22.19249 h -22.1577 -72.6828 m 0,44.39659 h 50.4903 v 50.49027 c 0,28.11205 -22.3782,50.49027 -50.4903,50.49027 -28.112,0 -50.4902,-22.37822 -50.4902,-50.49027 0,-28.11206 22.3782,-50.49027 50.4902,-50.49027"
       inkscape:connector-curvature="0"
       id="0"
       style="color:#000000;fill:#ffffff;fill-opacity:0.314" />
    <use
       transform="rotate(180,1192.0362,248.53482)"
       id="use65"
       style="fill:#ffffff;stroke:none"
       x="0"
       y="0"
       width="1"
       height="1"
       xlink:href="#0" />
    <path
       d="m 1279.5101,96 c -52.4055,0 -94.8869,42.47798 -94.8869,94.88689 v 50.45541 h -39.7538 c -12.3928,0 -22.3853,9.7545 -22.3795,22.12288 0,12.29408 9.9008,22.05323 22.1577,22.05323 h 32.8988 c 3.9069,0 7.0732,3.17333 7.0732,7.07327 v 43.52608 c -0.049,27.63151 -22.4594,50.01438 -50.0956,50.01438 -9.3551,0 -11.6766,-1.23381 -18.0639,-1.23381 -13.4246,0 -22.3793,8.99191 -22.3793,21.36375 0,10.23503 8.7458,19.02729 19.4776,21.83619 7.3599,1.92442 13.0137,2.82977 20.9622,2.82977 52.4054,0 94.9216,-42.47799 94.9216,-94.88687 v -50.45545 h 39.7191 c 12.3927,0 22.421,-9.75449 22.4164,-22.12286 0,-12.29409 -9.9007,-22.05323 -22.1576,-22.05323 h -32.9347 c -3.907,0 -7.0733,-3.17334 -7.0733,-7.07326 v -43.52609 c 0.049,-27.63153 22.4594,-50.01438 50.0956,-50.01438 9.3551,0 11.6765,1.23381 18.0638,1.23381 13.4246,0 22.4165,-8.99192 22.4165,-21.36375 0,-10.23504 -8.7819,-19.06327 -19.5149,-21.872156 -7.3599,-1.924444 -13.0136,-2.792643 -20.9619,-2.792643"
       inkscape:connector-curvature="0"
       id="path3327"
       style="opacity:0.2;fill:#000000;fill-opacity:1" />
    <path
       d="m 1264.5101,81 c -52.4055,0 -94.8869,42.47798 -94.8869,94.88689 v 50.45541 h -39.7538 c -12.3928,0 -22.3853,9.7545 -22.3795,22.12288 0,12.29408 9.9008,22.05323 22.1577,22.05323 h 32.8988 c 3.9069,0 7.0732,3.17333 7.0732,7.07327 v 43.52608 c -0.049,27.63151 -22.4594,50.01438 -50.0956,50.01438 -9.3551,0 -11.6766,-1.23381 -18.0639,-1.23381 -13.4246,0 -22.3793,8.99191 -22.3793,21.36375 0,10.23503 8.7458,19.02729 19.4776,21.83619 7.3599,1.92442 13.0137,2.82977 20.9622,2.82977 52.4054,0 94.9216,-42.47799 94.9216,-94.88687 v -50.45545 h 39.7191 c 12.3927,0 22.421,-9.75449 22.4164,-22.12286 0,-12.29409 -9.9007,-22.05323 -22.1576,-22.05323 h -32.9347 c -3.907,0 -7.0733,-3.17334 -7.0733,-7.07326 v -43.52609 c 0.049,-27.63153 22.4594,-50.01438 50.0956,-50.01438 9.3551,0 11.6765,1.23381 18.0638,1.23381 13.4246,0 22.4165,-8.99192 22.4165,-21.36375 0,-10.235039 -8.7819,-19.063273 -19.5149,-21.872156 -7.3599,-1.924444 -13.0136,-2.792643 -20.9619,-2.792643"
       inkscape:connector-curvature="0"
       id="path69"
       style="fill:#ffffff;fill-opacity:1" />
  </g>
</svg>
