<?xml version="1.0" encoding="UTF-8" standalone="no"?>
<!-- Created with Inkscape (http://www.inkscape.org/) -->

<svg
   version="1.1"
   width="100%"
   height="100%"
   viewBox="0 0 512 512"
   id="svg2"
   sodipodi:docname="electron.svg"
   inkscape:version="1.1 (c68e22c387, 2021-05-23)"
   xmlns:inkscape="http://www.inkscape.org/namespaces/inkscape"
   xmlns:sodipodi="http://sodipodi.sourceforge.net/DTD/sodipodi-0.dtd"
   xmlns:xlink="http://www.w3.org/1999/xlink"
   xmlns="http://www.w3.org/2000/svg"
   xmlns:svg="http://www.w3.org/2000/svg"
   xmlns:rdf="http://www.w3.org/1999/02/22-rdf-syntax-ns#"
   xmlns:cc="http://creativecommons.org/ns#"
   xmlns:dc="http://purl.org/dc/elements/1.1/">
  <sodipodi:namedview
     id="namedview39"
     pagecolor="#ffffff"
     bordercolor="#666666"
     borderopacity="1.0"
     inkscape:pageshadow="2"
     inkscape:pageopacity="0.0"
     inkscape:pagecheckerboard="0"
     showgrid="false"
     inkscape:zoom="0.30245388"
     inkscape:cx="-368.65125"
     inkscape:cy="271.11572"
     inkscape:window-width="1366"
     inkscape:window-height="708"
     inkscape:window-x="0"
     inkscape:window-y="0"
     inkscape:window-maximized="1"
     inkscape:current-layer="svg2" />
  <metadata
     id="metadata65">
    <rdf:RDF>
      <cc:Work
         rdf:about="">
        <dc:format>image/svg+xml</dc:format>
        <dc:type
           rdf:resource="http://purl.org/dc/dcmitype/StillImage" />
      </cc:Work>
    </rdf:RDF>
  </metadata>
  <defs
     id="defs4">
    <filter
       color-interpolation-filters="sRGB"
       id="7"
       x="-0.018107638"
       y="-0.017892786"
       width="1.0362153"
       height="1.0357856">
      <feGaussianBlur
         id="feGaussianBlur7"
         stdDeviation="3.7725" />
    </filter>
    <linearGradient
       y1="19.563999"
       x2="0"
       y2="504.01999"
       id="8"
       gradientUnits="userSpaceOnUse">
      <stop
         id="stop10"
         style="stop-color:#f3f3f3;stop-opacity:1"
         offset="0" />
      <stop
         id="stop12"
         style="stop-color:#eeeeee;stop-opacity:1"
         offset="0.5" />
      <stop
         id="stop14"
         style="stop-color:#ebebeb;stop-opacity:1"
         offset="1" />
    </linearGradient>
    <linearGradient
       x1="257"
       x2="362"
       id="5"
       xlink:href="#0"
       gradientUnits="userSpaceOnUse"
       gradientTransform="matrix(1.02835,0,0,1.46193,-383.73694,-115.70205)" />
    <linearGradient
       x1="257"
       x2="362"
       id="6"
       xlink:href="#0"
       gradientUnits="userSpaceOnUse"
       gradientTransform="matrix(1.0381,0,0,1.46193,-467.2489,-124.14041)" />
    <linearGradient
       x1="257"
       x2="362"
       id="4"
       xlink:href="#0"
       gradientUnits="userSpaceOnUse"
       gradientTransform="matrix(1.02835,0,0,1.46193,-610.00374,-127.97146)" />
    <linearGradient
       x1="257"
       x2="362"
       id="3"
       xlink:href="#0"
       gradientUnits="userSpaceOnUse"
       gradientTransform="matrix(1.0381,0,0,1.46193,-427.0919,-112.11041)" />
    <linearGradient
       id="0">
      <stop
         id="stop21"
         style="stop-color:#000000;stop-opacity:1"
         offset="0" />
      <stop
         id="stop23"
         style="stop-color:#ffffff;stop-opacity:1"
         offset="1" />
    </linearGradient>
    <linearGradient
       x1="257"
       x2="362"
       id="2"
       xlink:href="#0"
       gradientUnits="userSpaceOnUse"
       gradientTransform="matrix(1.0381,0,0,1.46193,-467.2489,-112.11041)" />
    <linearGradient
       x1="257"
       x2="362"
       id="1"
       xlink:href="#0"
       gradientUnits="userSpaceOnUse"
       gradientTransform="matrix(1.0381,0,0,1.46193,-467.2529,-112.11041)" />
    <linearGradient
       id="e"
       x1="24.586"
       x2="24.586"
       y1="12.173"
       y2="35.945999"
       gradientTransform="matrix(13.01874,0,0,13.16114,-57.563953,-55.161667)"
       gradientUnits="userSpaceOnUse">
      <stop
         stop-color="#fff"
         offset="0"
         id="stop2" />
      <stop
         stop-color="#e8e8e8"
         offset="1"
         id="stop4" />
    </linearGradient>
    <linearGradient
       id="linearGradient903"
       x1="-210.92"
       x2="-210.92"
       y1="-6.5022001"
       y2="213.83"
       gradientTransform="matrix(0.24,0,0,0.24,671.52267,217.32712)"
       gradientUnits="userSpaceOnUse">
      <stop
         stop-color="#66effd"
         offset="0"
         id="stop7" />
      <stop
         stop-color="#2ba5c7"
         offset="1"
         id="stop9" />
    </linearGradient>
    <linearGradient
       inkscape:collect="always"
       xlink:href="#linearGradient903"
       id="linearGradient871"
       x1="42.042"
       y1="256.76999"
       x2="471.38998"
       y2="256.76999"
       gradientUnits="userSpaceOnUse"
       gradientTransform="matrix(1.1171311,0,0,1.0999812,-30.495421,-26.15214)" />
  </defs>
  <rect
     width="479.638"
     height="479.638"
     rx="239.819"
     x="16.471001"
     y="16.471001"
     id="rect33"
     style="fill:url(#linearGradient871);fill-opacity:1;stroke-width:1.10261"
     ry="239.819" />
  <path
     d="m 194.14653,106.62669 c -3.85843,-0.10978 -7.49851,0.25027 -9.91366,1.07252 -11.84687,4.10624 -19.27878,12.9388 -23.39276,27.69241 -3.55406,12.85866 -3.44944,36.00859 0.2609,56.1581 0.65094,3.50084 1.30471,6.67789 1.46091,7.19118 0.19503,0.72378 -1.06314,1.18938 -6.66119,2.47909 -27.36518,6.31727 -47.35634,15.71596 -59.35906,27.95618 -5.38967,5.44865 -8.37331,10.23185 -10.10509,16.24617 -1.22379,4.17206 -1.22379,12.44278 0,16.56217 3.35877,11.3184 12.81214,21.95713 27.75788,31.36707 10.3758,6.47525 13.47643,7.19336 16.83532,3.79783 1.57524,-1.59247 1.93054,-2.36414 1.93054,-4.2725 0,-3.69827 -1.11826,-5.18794 -6.00029,-8.01749 -30.6065,-17.42546 -36.00545,-34.89594 -15.56549,-50.42644 10.37581,-7.87031 24.87452,-14.08836 44.40173,-18.91891 8.5532,-2.1058 10.48713,-2.38017 10.48713,-1.24834 0,1.53983 6.29359,21.90763 9.54855,30.69913 l 3.35665,9.1957 -4.41755,8.63288 c -17.69195,34.54754 -29.05174,69.76845 -30.41862,95.52179 -1.1196,19.84704 2.45183,34.03892 11.0962,42.83042 9.4515,9.56838 22.78192,11.61997 39.91464,6.06592 6.45719,-2.10578 19.27611,-8.69131 26.74897,-13.8372 5.38969,-3.6456 6.55389,-4.72019 7.26993,-6.62855 0.71595,-1.90837 0.71595,-2.53572 0,-4.53628 -1.0675,-2.98754 -3.30179,-4.62413 -6.34812,-4.62413 -1.9788,0 -3.34488,0.61305 -8.4351,4.11424 -11.54767,7.92297 -22.3794,12.86048 -31.37497,14.39984 -12.45865,2.15846 -20.4471,-3.40154 -24.10517,-16.56216 -1.57525,-5.71185 -1.47061,-23.99611 0.26091,-33.45917 2.64275,-15.05609 7.26538,-30.68652 13.87894,-47.13796 3.91862,-9.76552 11.38472,-26.12062 12.40074,-27.19998 0.50758,-0.56623 1.17293,0.36369 2.85229,4.27251 8.5532,19.42574 21.62608,43.11849 34.3839,62.29396 30.46314,45.72102 63.81408,75.48933 89.50162,79.75362 l -0.27783,0.054 c 11.28677,1.84256 20.80684,-0.99041 28.1755,-8.4395 6.00163,-6.17252 9.96977,-14.85445 12.20932,-26.93623 1.36695,-7.55442 1.36695,-28.70155 0,-39.03242 -4.16601,-30.79635 -15.25473,-66.10818 -31.8799,-101.27417 -2.59074,-5.5013 -4.05023,-6.83946 -7.40901,-6.83946 -3.76235,-0.0539 -6.81765,2.87753 -6.81765,6.5758 0,1.28982 1.27383,4.77374 3.40881,9.35413 20.49161,44.15553 31.48631,86.88153 30.36699,117.7841 -0.69013,18.41209 -5.25186,29.47663 -13.84423,33.74005 -4.51745,2.25054 -10.21553,2.21056 -17.74002,-0.26376 -34.53885,-11.81892 -81.33241,-70.94504 -111.48745,-140.86562 l -2.99147,-6.98017 4.36547,-7.56037 c 4.93404,-8.58102 17.40789,-27.75182 23.14878,-35.6215 l 3.86102,-5.23952 h 10.15674 c 61.79896,0 122.99238,14.12977 155.43237,35.77993 6.61347,4.42214 14.57886,12.5058 16.97424,17.23102 1.73143,3.29029 1.89572,4.158 1.89572,8.52739 0,4.27736 -0.16384,5.29297 -1.58273,7.91206 -3.97062,7.71232 -14.43994,15.73847 -27.91459,21.45033 -6.2489,2.67164 -7.93075,4.42473 -7.93075,8.07024 0,3.07963 1.99724,5.65452 4.99154,6.5758 1.93982,0.56624 2.58952,0.46721 6.05248,-0.91425 21.76677,-8.69941 36.65996,-22.22901 39.70627,-35.90329 0.85931,-3.69825 0.80677,-10.64862 -0.0534,-14.24139 -1.62735,-7.05425 -7.42201,-16.08683 -14.08732,-22.15339 C 379.43052,211.90943 316.42765,194.5344 241.6723,192.73217 l -5.33936,-0.15846 6.24373,-7.10322 c 3.35878,-3.9615 9.36513,-10.53973 13.47913,-14.75183 21.25918,-21.84731 40.9921,-36.13011 58.22902,-42.09224 5.49387,-1.9478 6.61141,-2.16259 12.31347,-2.16259 5.29861,0 6.56131,0.15213 8.85259,1.33628 3.1115,1.48715 6.61684,5.13195 8.40038,8.58013 3.50197,7.04112 4.6708,19.40143 2.99146,32.56257 -0.56011,4.52735 -1.0261,9.76643 -1.0261,11.56957 0,3.04019 0.11221,3.4886 1.84355,4.97584 1.41907,1.3424 2.37329,1.70546 4.20891,1.70546 2.95523,0 5.7019,-1.60419 6.52202,-3.76264 2.43447,-6.36991 3.69707,-28.9374 2.12183,-38.45267 -2.44748,-14.60868 -8.63708,-24.47954 -18.50496,-29.25698 -17.44529,-8.52836 -42.76416,-0.19895 -72.31636,23.75396 -15.45328,12.54269 -35.7944,33.82468 -49.82828,52.02612 l -1.374,1.6527 -8.29602,0.45731 c -6.96493,0.4078 -18.30461,1.53721 -31.48006,3.12969 l -2.85228,0.35198 -1.21746,-7.03291 c -2.38238,-14.02986 -2.59146,-16.13187 -2.59146,-29.55586 0,-11.77932 0.15048,-14.05325 1.26963,-18.77759 2.74695,-11.92424 8.20136,-19.33032 15.37494,-20.87058 9.86825,-2.10578 22.12119,2.89113 39.30645,15.78887 5.49387,4.17205 12.15944,0.62025 11.33931,-5.96041 -0.35173,-2.86907 -2.93902,-5.3434 -11.68748,-11.25269 -7.3295,-4.98798 -15.56193,-9.11197 -22.27968,-11.11225 -3.30669,-1.00022 -7.37688,-1.57772 -11.23512,-1.68789 z m 8.93947,101.22015 c 2.51016,-0.16293 4.1741,-0.19444 4.1741,0 0,0.26286 -2.33189,3.91171 -5.23502,8.22851 -2.90312,4.26414 -7.01319,10.52981 -9.14784,14.08386 v 0.0179 c -2.08299,3.44818 -4.13572,6.57228 -4.53936,7.03292 -0.56012,0.60585 -1.37446,-1.03982 -3.86103,-9.05525 -3.55406,-11.05554 -5.08193,-17.01587 -4.62627,-17.52989 0.56634,-0.58244 15.7053,-2.28817 23.23604,-2.77797 z m 58.29849,39.64818 c -10.7792,0 -19.51387,8.88276 -19.51387,19.78041 0,10.89763 8.73451,19.74531 19.51387,19.74531 10.77938,0 19.53168,-8.84768 19.53168,-19.74531 0,-10.89765 -8.75196,-19.78041 -19.53168,-19.78041 z"
     fill="url(#e)"
     stroke-width="208.622"
     id="path30"
     style="fill:url(#e)" />
</svg>
