<?xml version="1.0" encoding="UTF-8" standalone="no"?>
<!-- Created with Inkscape (http://www.inkscape.org/) -->

<svg
   version="1.1"
   width="100%"
   height="100%"
   viewBox="0 0 512 512"
   id="svg2"
   sodipodi:docname="github.svg"
   inkscape:version="1.1 (c68e22c387, 2021-05-23)"
   xmlns:inkscape="http://www.inkscape.org/namespaces/inkscape"
   xmlns:sodipodi="http://sodipodi.sourceforge.net/DTD/sodipodi-0.dtd"
   xmlns:xlink="http://www.w3.org/1999/xlink"
   xmlns="http://www.w3.org/2000/svg"
   xmlns:svg="http://www.w3.org/2000/svg"
   xmlns:rdf="http://www.w3.org/1999/02/22-rdf-syntax-ns#"
   xmlns:cc="http://creativecommons.org/ns#"
   xmlns:dc="http://purl.org/dc/elements/1.1/">
  <sodipodi:namedview
     id="namedview35"
     pagecolor="#ffffff"
     bordercolor="#666666"
     borderopacity="1.0"
     inkscape:pageshadow="2"
     inkscape:pageopacity="0.0"
     inkscape:pagecheckerboard="0"
     showgrid="false"
     inkscape:zoom="0.45117188"
     inkscape:cx="224.9697"
     inkscape:cy="281.48918"
     inkscape:window-width="1366"
     inkscape:window-height="708"
     inkscape:window-x="0"
     inkscape:window-y="0"
     inkscape:window-maximized="1"
     inkscape:current-layer="svg2" />
  <metadata
     id="metadata59">
    <rdf:RDF>
      <cc:Work
         rdf:about="">
        <dc:format>image/svg+xml</dc:format>
        <dc:type
           rdf:resource="http://purl.org/dc/dcmitype/StillImage" />
      </cc:Work>
    </rdf:RDF>
  </metadata>
  <defs
     id="defs4">
    <filter
       color-interpolation-filters="sRGB"
       id="7"
       x="-0.018107638"
       y="-0.017892786"
       width="1.0362153"
       height="1.0357856">
      <feGaussianBlur
         id="feGaussianBlur7"
         stdDeviation="3.7725" />
    </filter>
    <linearGradient
       y1="19.563999"
       x2="0"
       y2="504.01999"
       id="8"
       gradientUnits="userSpaceOnUse">
      <stop
         id="stop10"
         style="stop-color:#f3f3f3;stop-opacity:1"
         offset="0" />
      <stop
         id="stop12"
         style="stop-color:#eeeeee;stop-opacity:1"
         offset="0.5" />
      <stop
         id="stop14"
         style="stop-color:#ebebeb;stop-opacity:1"
         offset="1" />
    </linearGradient>
    <linearGradient
       x1="257"
       x2="362"
       id="5"
       xlink:href="#0"
       gradientUnits="userSpaceOnUse"
       gradientTransform="matrix(1.02835,0,0,1.46193,209.19,-118.25)" />
    <linearGradient
       x1="257"
       x2="362"
       id="6"
       xlink:href="#0"
       gradientUnits="userSpaceOnUse"
       gradientTransform="matrix(1.0381,0,0,1.46193,-337.29,-118.25)" />
    <linearGradient
       x1="257"
       x2="362"
       id="4"
       xlink:href="#0"
       gradientUnits="userSpaceOnUse"
       gradientTransform="matrix(1.02835,0,0,1.46193,101.22,-118.25)" />
    <linearGradient
       x1="257"
       x2="362"
       id="3"
       xlink:href="#0"
       gradientUnits="userSpaceOnUse"
       gradientTransform="matrix(1.0381,0,0,1.46193,-10.289,-118.25)" />
    <linearGradient
       id="0">
      <stop
         id="stop21"
         style="stop-color:#000000;stop-opacity:1"
         offset="0" />
      <stop
         id="stop23"
         style="stop-color:#ffffff;stop-opacity:1"
         offset="1" />
    </linearGradient>
    <linearGradient
       x1="257"
       x2="362"
       id="2"
       xlink:href="#0"
       gradientUnits="userSpaceOnUse"
       gradientTransform="matrix(1.0381,0,0,1.46193,-119.29,-118.25)" />
    <linearGradient
       x1="257"
       x2="362"
       id="1"
       xlink:href="#0"
       gradientUnits="userSpaceOnUse"
       gradientTransform="matrix(1.0381,0,0,1.46193,-228.29,-118.25)" />
    <linearGradient
       id="8-3"
       y1="541.15997"
       x2="0"
       y2="533.06"
       gradientUnits="userSpaceOnUse"
       gradientTransform="matrix(1.61348,0,0,1.61348,-14.420073,-587.94609)">
      <stop
         stop-color="#0976da"
         id="stop2" />
      <stop
         offset="1"
         stop-color="#5de5f0"
         id="stop4" />
    </linearGradient>
    <linearGradient
       inkscape:collect="always"
       xlink:href="#8-3"
       id="linearGradient1388"
       x1="38.5"
       y1="256"
       x2="473.5"
       y2="256"
       gradientUnits="userSpaceOnUse"
       gradientTransform="matrix(1.1026162,0,0,1.1026161,-25.979715,-25.979723)" />
  </defs>
  <rect
     width="479.638"
     height="479.638"
     rx="239.819"
     x="16.471001"
     y="16.471001"
     id="rect33"
     style="fill:url(#linearGradient1388);fill-opacity:1;stroke-width:1.10261"
     ry="239.819" />
  <g
     transform="matrix(1.3240546,0,0,1.3240544,-62.586576,-59.19052)"
     id="g39">
    <path
       d="m 309.02621,139.98568 c 3.38611,7.70709 5.5795,20.50756 2.30691,29.87763 13.38504,11.45466 17.98408,39.29915 11.52443,62.05416 19.07805,1.45882 41.79957,-0.70213 56.4714,5.16586 -13.71237,-1.76663 -32.43976,-5.23288 -50.12683,-4.02577 -3.35111,0.22911 -8.31792,-0.1278 -8.07456,4.59776 20.47604,1.61311 40.81989,3.36493 57.62991,8.62664 -16.67317,-2.72982 -36.90895,-6.88651 -57.62991,-7.46629 -8.56051,16.92521 -25.77485,25.24481 -49.55302,26.99664 2.55572,5.57186 7.44944,7.6954 8.64605,16.66103 1.78285,13.39506 -2.78975,33.01035 1.72221,41.94091 2.16462,4.27825 5.69301,4.39125 8.07145,8.04919 -5.82286,6.90677 -20.26222,-0.7746 -21.90279,-8.04919 -2.81618,-12.45837 4.28881,-31.77363 -3.45297,-40.21792 0.54737,13.58676 -3.2065,32.67292 0.57614,44.80866 1.49051,4.77466 5.79409,6.6161 4.61071,10.91773 -27.06554,2.75554 -15.75571,-35.10661 -20.17747,-57.4564 -4.08355,0.2899 -2.28903,6.12905 -2.3038,8.61885 -0.11585,21.82767 4.45676,51.75986 -19.01429,48.83755 -0.68578,-4.58607 3.14896,-6.14619 4.60992,-10.33483 4.28026,-12.28147 -0.80162,-30.57899 1.16084,-45.40091 -8.95705,6.76727 0.9408,30.39975 -4.60992,42.51757 -3.19795,6.97301 -13.504,10.00753 -21.32121,6.89508 1.01856,-5.19235 6.36713,-4.35384 8.63827,-9.1924 3.17229,-6.7439 0.0233,-16.45841 1.15462,-26.42776 -16.58065,3.31584 -29.44164,-0.48159 -35.73645,-10.91773 -2.81619,-4.68348 -3.51363,-10.20858 -6.91684,-14.36137 -3.38611,-4.15357 -8.79843,-4.71465 -10.3667,-10.33794 20.53358,-4.95467 21.32121,21.18086 39.76247,21.82766 5.65491,0.20573 8.59939,-1.63571 13.82822,-2.86853 1.46408,-6.59038 4.59904,-11.50375 9.22063,-14.94661 -22.947,-3.1483 -41.89831,-10.30911 -50.70997,-27.57097 -20.86091,1.02943 -39.94907,3.82004 -57.62991,8.0375 16.04804,-5.84227 35.84375,-7.93619 57.05455,-8.62664 -1.25026,-7.53019 -12.2102,-5.46276 -19.0143,-5.16897 -12.64406,0.56264 -28.56226,2.13757 -38.61329,4.02888 14.5692,-5.20637 35.01181,-4.55723 54.75309,-4.59775 -6.03746,-18.97005 -3.94437,-49.10251 9.22063,-60.32416 -3.73055,-9.42151 -2.57282,-24.83803 2.3038,-32.17652 14.69905,0.66161 23.61333,7.08367 32.85029,13.21817 11.45212,-3.26363 23.49671,-4.88765 39.1871,-4.02343 6.59883,0.36549 13.46357,3.33844 18.43271,2.86854 4.87661,-0.45822 10.25084,-5.94358 14.98595,-8.03751 6.1673,-2.72982 11.38525,-3.77094 18.44126,-4.02577"
       inkscape:connector-curvature="0"
       id="path41"
       style="opacity:0.2;fill:#ffffff;stroke-width:0.778401" />
    <path
       d="m 297.36339,128.29646 c 3.3861,7.70709 5.57949,20.50756 2.3069,29.87764 13.38504,11.45465 17.98408,39.29915 11.52443,62.05415 19.07805,1.45882 41.79957,-0.70213 56.47141,5.16586 -13.71238,-1.76663 -32.43977,-5.23287 -50.12683,-4.02577 -3.35112,0.22911 -8.31793,-0.1278 -8.07457,4.59776 20.47604,1.61311 40.8199,3.36494 57.62992,8.62664 -16.67318,-2.72982 -36.90896,-6.8865 -57.62992,-7.46629 -8.56051,16.92521 -25.77484,25.24481 -49.55301,26.99664 2.55571,5.57186 7.44943,7.6954 8.64604,16.66103 1.78286,13.39506 -2.78975,33.01035 1.72221,41.94091 2.16462,4.27825 5.69301,4.39125 8.07145,8.04919 -5.82286,6.90677 -20.26221,-0.7746 -21.90278,-8.04919 -2.81619,-12.45837 4.28881,-31.77363 -3.45298,-40.21792 0.5466,13.58677 -3.2065,32.67292 0.57614,44.80867 1.49051,4.77465 5.7941,6.61609 4.61071,10.91772 -27.06553,2.75554 -15.7557,-35.10661 -20.17747,-57.45639 -4.08354,0.28989 -2.28902,6.12904 -2.3038,8.61884 -0.11585,21.82767 4.45676,51.75986 -19.01429,48.83755 -0.68577,-4.58607 3.14896,-6.14619 4.60993,-10.33482 4.28025,-12.28147 -0.80163,-30.57899 1.16084,-45.40092 -8.95705,6.76728 0.9408,30.39976 -4.60993,42.51758 -3.19795,6.973 -13.504,10.00753 -21.3212,6.89508 1.01855,-5.19235 6.36712,-4.35385 8.63826,-9.1924 3.17229,-6.7439 0.0233,-16.45842 1.15462,-26.42777 -16.58065,3.31585 -29.44163,-0.48159 -35.73645,-10.91772 -2.81618,-4.68348 -3.51362,-10.20859 -6.91683,-14.36138 -3.38611,-4.15356 -8.79844,-4.71465 -10.3667,-10.33794 20.53357,-4.95467 21.3212,21.18086 39.76246,21.82767 5.65492,0.20573 8.59939,-1.63572 13.82823,-2.86854 1.46407,-6.59038 4.59904,-11.50375 9.22063,-14.94661 -22.947,-3.1483 -41.89832,-10.30911 -50.70997,-27.57097 -20.86091,1.02943 -39.94908,3.82004 -57.62992,8.03751 16.04805,-5.84227 35.84376,-7.9362 57.05455,-8.62664 -1.25025,-7.5302 -12.2102,-5.46277 -19.01429,-5.16898 -12.64407,0.56264 -28.56227,2.13757 -38.61329,4.02889 14.5692,-5.20638 35.01181,-4.55724 54.75308,-4.59776 -6.03745,-18.97004 -3.94437,-49.10251 9.22063,-60.32415 -3.73055,-9.42151 -2.57282,-24.83803 2.3038,-32.17652 14.69905,0.66161 23.61334,7.08366 32.85029,13.21816 11.45212,-3.26363 23.49671,-4.88765 39.1871,-4.02342 6.59883,0.36548 13.46357,3.33844 18.43271,2.86853 4.87662,-0.45822 10.25085,-5.94358 14.98595,-8.03751 6.16731,-2.72982 11.38526,-3.77094 18.44127,-4.02576"
       inkscape:connector-curvature="0"
       id="path43"
       style="fill:#ffffff;stroke-width:0.778401" />
  </g>
</svg>
