<?xml version="1.0" encoding="UTF-8" standalone="no"?>
<!-- Created with Inkscape (http://www.inkscape.org/) -->

<svg
   version="1.1"
   width="100%"
   height="100%"
   viewBox="0 0 512 512"
   id="svg2"
   sodipodi:docname="waterfox.svg"
   inkscape:version="1.1 (c68e22c387, 2021-05-23)"
   xmlns:inkscape="http://www.inkscape.org/namespaces/inkscape"
   xmlns:sodipodi="http://sodipodi.sourceforge.net/DTD/sodipodi-0.dtd"
   xmlns:xlink="http://www.w3.org/1999/xlink"
   xmlns="http://www.w3.org/2000/svg"
   xmlns:svg="http://www.w3.org/2000/svg"
   xmlns:rdf="http://www.w3.org/1999/02/22-rdf-syntax-ns#"
   xmlns:cc="http://creativecommons.org/ns#"
   xmlns:dc="http://purl.org/dc/elements/1.1/">
  <sodipodi:namedview
     id="namedview39"
     pagecolor="#ffffff"
     bordercolor="#666666"
     borderopacity="1.0"
     inkscape:pageshadow="2"
     inkscape:pageopacity="0.0"
     inkscape:pagecheckerboard="0"
     showgrid="false"
     inkscape:zoom="0.21386718"
     inkscape:cx="-346.00914"
     inkscape:cy="565.77171"
     inkscape:window-width="1366"
     inkscape:window-height="699"
     inkscape:window-x="0"
     inkscape:window-y="0"
     inkscape:window-maximized="1"
     inkscape:current-layer="svg2"
     inkscape:lockguides="false" />
  <metadata
     id="metadata65">
    <rdf:RDF>
      <cc:Work
         rdf:about="">
        <dc:format>image/svg+xml</dc:format>
        <dc:type
           rdf:resource="http://purl.org/dc/dcmitype/StillImage" />
      </cc:Work>
    </rdf:RDF>
  </metadata>
  <defs
     id="defs4">
    <filter
       color-interpolation-filters="sRGB"
       id="7"
       x="-0.018107638"
       y="-0.017892786"
       width="1.0362153"
       height="1.0357856">
      <feGaussianBlur
         id="feGaussianBlur7"
         stdDeviation="3.7725" />
    </filter>
    <linearGradient
       y1="19.563999"
       x2="0"
       y2="504.01999"
       id="8"
       gradientUnits="userSpaceOnUse">
      <stop
         id="stop10"
         style="stop-color:#f3f3f3;stop-opacity:1"
         offset="0" />
      <stop
         id="stop12"
         style="stop-color:#eeeeee;stop-opacity:1"
         offset="0.5" />
      <stop
         id="stop14"
         style="stop-color:#ebebeb;stop-opacity:1"
         offset="1" />
    </linearGradient>
    <linearGradient
       x1="257"
       x2="362"
       id="5"
       xlink:href="#0"
       gradientUnits="userSpaceOnUse"
       gradientTransform="matrix(1.02835,0,0,1.46193,-383.73694,-115.70205)" />
    <linearGradient
       x1="257"
       x2="362"
       id="6"
       xlink:href="#0"
       gradientUnits="userSpaceOnUse"
       gradientTransform="matrix(1.0381,0,0,1.46193,-467.2489,-124.14041)" />
    <linearGradient
       x1="257"
       x2="362"
       id="4"
       xlink:href="#0"
       gradientUnits="userSpaceOnUse"
       gradientTransform="matrix(1.02835,0,0,1.46193,-610.00374,-127.97146)" />
    <linearGradient
       x1="257"
       x2="362"
       id="3"
       xlink:href="#0"
       gradientUnits="userSpaceOnUse"
       gradientTransform="matrix(1.0381,0,0,1.46193,-427.0919,-112.11041)" />
    <linearGradient
       id="0">
      <stop
         id="stop21"
         style="stop-color:#000000;stop-opacity:1"
         offset="0" />
      <stop
         id="stop23"
         style="stop-color:#ffffff;stop-opacity:1"
         offset="1" />
    </linearGradient>
    <linearGradient
       x1="257"
       x2="362"
       id="2"
       xlink:href="#0"
       gradientUnits="userSpaceOnUse"
       gradientTransform="matrix(1.0381,0,0,1.46193,-467.2489,-112.11041)" />
    <linearGradient
       x1="257"
       x2="362"
       id="1"
       xlink:href="#0"
       gradientUnits="userSpaceOnUse"
       gradientTransform="matrix(1.0381,0,0,1.46193,-467.2529,-112.11041)" />
    <linearGradient
       id="SVGID_3_"
       gradientUnits="userSpaceOnUse"
       x1="212.132"
       x2="284.116"
       y1="189.196"
       y2="261.17999">
      <stop
         offset="0"
         stop-color="#ebeff0"
         id="stop12-3" />
      <stop
         offset="1"
         stop-color="#e3e5e4"
         id="stop14-6" />
    </linearGradient>
    <linearGradient
       gradientTransform="matrix(0.69204,0,0,0.67579,117.88,177.07)"
       gradientUnits="userSpaceOnUse"
       y2="516.46002"
       x2="409.48999"
       y1="542.79999"
       x1="409.57001"
       id="0-7">
      <stop
         stop-color="#e54141"
         id="stop2" />
      <stop
         offset="1"
         stop-color="#ffbd00"
         id="stop4" />
    </linearGradient>
    <linearGradient
       inkscape:collect="always"
       xlink:href="#1-9-6-36"
       id="linearGradient920"
       x1="38.5"
       y1="256"
       x2="473.5"
       y2="256"
       gradientUnits="userSpaceOnUse"
       gradientTransform="matrix(1.102616,0,0,1.1026162,-538.55974,-25.979713)" />
    <linearGradient
       id="0-3"
       gradientUnits="userSpaceOnUse"
       y1="545.14001"
       x2="0"
       y2="518.14001">
      <stop
         stop-color="#a150c9"
         id="stop8" />
      <stop
         offset="1"
         stop-color="#e39aff"
         id="stop10-5" />
    </linearGradient>
    <linearGradient
       gradientUnits="userSpaceOnUse"
       gradientTransform="translate(484.92854,-250.94928)"
       y2="62"
       y1="2"
       x2="32"
       x1="32"
       id="a-3-5">
      <stop
         id="stop870"
         offset="0"
         stop-color="#f5faff" />
      <stop
         id="stop872"
         offset="1"
         stop-color="#cfdef0" />
    </linearGradient>
    <linearGradient
       gradientUnits="userSpaceOnUse"
       y2="533.06"
       x2="0"
       y1="541.15997"
       id="1-9-6-36"
       gradientTransform="matrix(1.49857,0,0,1.49857,100.4386,-473.61451)">
      <stop
         stop-color="#0976da"
         id="stop52-7-7" />
      <stop
         offset="1"
         stop-color="#5de5f0"
         id="stop54-5-5" />
    </linearGradient>
    <linearGradient
       id="linearGradient-1"
       x1="93.544998"
       x2="18.601999"
       y1="104.29"
       y2="21.722"
       gradientTransform="scale(1.0497,0.95269)"
       gradientUnits="userSpaceOnUse">
      <stop
         stop-color="#130036"
         offset="0"
         id="stop9" />
      <stop
         stop-color="#18023B"
         offset=".2297"
         id="stop11" />
      <stop
         stop-color="#26094A"
         offset=".5122"
         id="stop13" />
      <stop
         stop-color="#3D1563"
         offset=".8211"
         id="stop15" />
      <stop
         stop-color="#4E1D75"
         offset="1"
         id="stop17" />
    </linearGradient>
    <linearGradient
       id="linearGradient-2"
       x1="6.1662998"
       x2="34.738998"
       y1="38.339001"
       y2="38.339001"
       gradientTransform="scale(0.81742,1.2234)"
       gradientUnits="userSpaceOnUse">
      <stop
         stop-color="#3156A8"
         offset="0"
         id="stop20" />
      <stop
         stop-color="#3351A4"
         offset=".2474"
         id="stop22" />
      <stop
         stop-color="#3B4397"
         offset=".5365"
         id="stop24" />
      <stop
         stop-color="#472C82"
         offset=".8453"
         id="stop26" />
      <stop
         stop-color="#4E1D75"
         offset="1"
         id="stop28" />
    </linearGradient>
    <radialGradient
       id="radialGradient-3"
       cx="38.772999"
       cy="42.032001"
       r="55.952"
       gradientTransform="scale(0.74974,1.3338)"
       gradientUnits="userSpaceOnUse">
      <stop
         stop-color="#14CDDA"
         offset=".1654"
         id="stop31" />
      <stop
         stop-color="#2061BD"
         offset=".5478"
         id="stop33" />
      <stop
         stop-color="#2658AC"
         offset=".6546"
         id="stop35" />
      <stop
         stop-color="#373F81"
         offset=".864"
         id="stop37" />
      <stop
         stop-color="#432D62"
         offset="1"
         id="stop39" />
    </radialGradient>
    <linearGradient
       id="linearGradient1008"
       x1="0.19829001"
       x2="58.432999"
       y1="29.618"
       y2="29.618"
       gradientTransform="scale(1.242,0.80516)"
       gradientUnits="userSpaceOnUse"
       xlink:href="#linearGradient-4" />
    <linearGradient
       id="linearGradient-4"
       x1="1.1634e-05"
       y1="0.49998999"
       y2="0.49998999">
      <stop
         stop-color="#2061BD"
         offset="0"
         id="stop43" />
      <stop
         stop-color="#2B51AC"
         offset=".1846"
         id="stop45" />
      <stop
         stop-color="#442C84"
         offset=".6826"
         id="stop47" />
      <stop
         stop-color="#4E1D75"
         offset=".9409"
         id="stop49" />
    </linearGradient>
    <linearGradient
       id="linearGradient1138"
       x1="1.1634e-05"
       y1="0.49998999"
       y2="0.49998999">
      <stop
         stop-color="#2061BD"
         offset="0"
         id="stop1130" />
      <stop
         stop-color="#2B51AC"
         offset=".1846"
         id="stop1132" />
      <stop
         stop-color="#442C84"
         offset=".6826"
         id="stop1134" />
      <stop
         stop-color="#4E1D75"
         offset=".9409"
         id="stop1136" />
    </linearGradient>
    <linearGradient
       id="linearGradient-5"
       x1="27.301001"
       x2="69.007004"
       y1="13.621"
       y2="65.202003"
       gradientTransform="scale(1.1928,0.83838)"
       gradientUnits="userSpaceOnUse">
      <stop
         stop-color="#48A8E0"
         offset=".0202"
         id="stop52" />
      <stop
         stop-color="#2061BD"
         offset=".3883"
         id="stop54" />
      <stop
         stop-color="#2B51AC"
         offset=".4968"
         id="stop56" />
      <stop
         stop-color="#442C84"
         offset=".7892"
         id="stop58" />
      <stop
         stop-color="#4E1D75"
         offset=".9409"
         id="stop60" />
    </linearGradient>
    <linearGradient
       id="linearGradient-6"
       x1="12.234"
       x2="135.44"
       y1="131.42"
       y2="16.993999"
       gradientTransform="scale(0.79148,1.2635)"
       gradientUnits="userSpaceOnUse">
      <stop
         stop-color="#3156A8"
         offset=".3787"
         id="stop63" />
      <stop
         stop-color="#4E1D75"
         offset="1"
         id="stop65" />
    </linearGradient>
    <linearGradient
       id="linearGradient-7"
       x1="55.195999"
       x2="117.71"
       y1="118.27"
       y2="13.812"
       gradientTransform="scale(0.86253,1.1594)"
       gradientUnits="userSpaceOnUse">
      <stop
         stop-color="#29ABE2"
         offset="0"
         id="stop68" />
      <stop
         stop-color="#385AA6"
         offset=".7733"
         id="stop70" />
      <stop
         stop-color="#414293"
         offset=".8575"
         id="stop72" />
      <stop
         stop-color="#4E1D75"
         offset="1"
         id="stop74" />
    </linearGradient>
    <linearGradient
       id="linearGradient-8"
       x1="26.261"
       x2="29.51"
       y1="40.964001"
       y2="42.493"
       gradientTransform="scale(0.9045,1.1056)"
       gradientUnits="userSpaceOnUse">
      <stop
         stop-color="#B0DCD6"
         offset="0"
         id="stop77" />
      <stop
         stop-color="#53ACE0"
         offset="1"
         id="stop79" />
    </linearGradient>
    <linearGradient
       id="linearGradient1016"
       x1="4.6623001"
       x2="0.73539001"
       y1="4.2711"
       y2="2.4033"
       gradientTransform="scale(1.5005,0.66645)"
       gradientUnits="userSpaceOnUse"
       xlink:href="#linearGradient-9" />
    <linearGradient
       id="linearGradient-9"
       x1="0.90678"
       x2="0.10458"
       y1="0.71357"
       y2="0.33201">
      <stop
         stop-color="#3092B9"
         offset="0"
         id="stop83" />
      <stop
         stop-color="#258DB6"
         offset=".2199"
         id="stop85" />
      <stop
         stop-color="#1685B1"
         offset=".6564"
         id="stop87" />
      <stop
         stop-color="#1082AF"
         offset="1"
         id="stop89" />
    </linearGradient>
    <linearGradient
       id="linearGradient-10"
       x1="40.854"
       x2="45.837002"
       y1="18.208"
       y2="37.132"
       gradientTransform="scale(0.97306,1.0277)"
       gradientUnits="userSpaceOnUse">
      <stop
         stop-color="#1398D1"
         stop-opacity="0"
         offset=".0074"
         id="stop92" />
      <stop
         stop-color="#1187C2"
         stop-opacity=".6197"
         offset=".2482"
         id="stop94" />
      <stop
         stop-color="#3F6499"
         stop-opacity=".71"
         offset=".6422"
         id="stop96" />
      <stop
         stop-color="#2F4282"
         stop-opacity=".5"
         offset="1"
         id="stop98" />
    </linearGradient>
    <linearGradient
       id="linearGradient-11"
       x1="37.583"
       x2="34.780998"
       y1="34.328999"
       y2="32.799"
       gradientTransform="scale(0.95318,1.0491)"
       gradientUnits="userSpaceOnUse">
      <stop
         stop-color="#F9C21B"
         offset="0"
         id="stop101" />
      <stop
         stop-color="#F3BA1B"
         offset=".1479"
         id="stop103" />
      <stop
         stop-color="#E3A41B"
         offset=".3787"
         id="stop105" />
      <stop
         stop-color="#C9801C"
         offset=".6634"
         id="stop107" />
      <stop
         stop-color="#A44E1C"
         offset=".9884"
         id="stop109" />
      <stop
         stop-color="#A34C1C"
         offset="1"
         id="stop111" />
    </linearGradient>
    <linearGradient
       id="linearGradient-12"
       x1="130.82001"
       x2="107.49"
       y1="49.676998"
       y2="18.142"
       gradientTransform="scale(0.7757,1.2892)"
       gradientUnits="userSpaceOnUse">
      <stop
         stop-color="#409EC3"
         offset="0"
         id="stop114" />
      <stop
         stop-color="#2061BD"
         offset=".62"
         id="stop116" />
    </linearGradient>
    <linearGradient
       id="linearGradient-13"
       x1="81.893997"
       x2="69.683998"
       y1="53.868"
       y2="11.475"
       gradientTransform="scale(1.0622,0.94149)"
       gradientUnits="userSpaceOnUse">
      <stop
         stop-color="#14B2DA"
         offset="0"
         id="stop119" />
      <stop
         stop-color="#297CCC"
         offset=".4028"
         id="stop121" />
      <stop
         stop-color="#256FC5"
         offset=".5077"
         id="stop123" />
      <stop
         stop-color="#2164BF"
         offset=".6492"
         id="stop125" />
      <stop
         stop-color="#2061BD"
         offset=".8162"
         id="stop127" />
      <stop
         stop-color="#2061BD"
         offset=".9835"
         id="stop129" />
    </linearGradient>
    <linearGradient
       gradientUnits="userSpaceOnUse"
       y2="49.062"
       y1="19.232"
       x2="32.389999"
       x1="32.389999"
       id="linearGradient997"
       gradientTransform="matrix(9.1032592,0,0,8.6988118,-547.33891,-373.12666)">
      <stop
         id="stop12-36"
         offset="0"
         stop-color="#f5fdff" />
      <stop
         id="stop14-7"
         offset="1"
         stop-color="#c9e5ff" />
    </linearGradient>
    <linearGradient
       id="l"
       x1="-112.45"
       x2="-112.42"
       y1="271.04001"
       y2="265.14001"
       gradientUnits="userSpaceOnUse">
      <stop
         stop-color="#0094eb"
         offset="0"
         id="stop2-3" />
      <stop
         stop-color="#06cfeb"
         offset="1"
         id="stop4-6" />
    </linearGradient>
    <linearGradient
       id="f"
       x1="11.713"
       x2="14.149"
       y1="291.60001"
       y2="286.73001"
       gradientUnits="userSpaceOnUse">
      <stop
         stop-color="#3a7aec"
         offset="0"
         id="stop32" />
      <stop
         stop-color="#7892f2"
         offset="1"
         id="stop34" />
    </linearGradient>
    <linearGradient
       id="h"
       x1="11.571"
       x2="11.096"
       y1="293.42999"
       y2="289.54999"
       gradientUnits="userSpaceOnUse">
      <stop
         stop-color="#0bc3fc"
         offset="0"
         id="stop22-7" />
      <stop
         stop-color="#0dd4fe"
         offset="1"
         id="stop24-5" />
    </linearGradient>
    <linearGradient
       id="g"
       x1="11.607"
       x2="11.217"
       y1="294.76001"
       y2="291.42001"
       gradientUnits="userSpaceOnUse">
      <stop
         stop-color="#09a7f8"
         offset="0"
         id="stop27" />
      <stop
         stop-color="#0fbffb"
         offset="1"
         id="stop29" />
    </linearGradient>
    <linearGradient
       id="i"
       x1="8.9981003"
       x2="10.294"
       y1="289.45001"
       y2="291.56"
       gradientUnits="userSpaceOnUse">
      <stop
         stop-color="#059af2"
         offset="0"
         id="stop17-3" />
      <stop
         stop-color="#0598f3"
         stop-opacity="0"
         offset="1"
         id="stop19" />
    </linearGradient>
    <linearGradient
       id="k"
       x1="7.0401001"
       x2="5.7666998"
       y1="286.23999"
       y2="293.70999"
       gradientUnits="userSpaceOnUse">
      <stop
         stop-color="#29f2ff"
         offset="0"
         id="stop7" />
      <stop
         stop-color="#16d5fb"
         offset="1"
         id="stop9-5" />
    </linearGradient>
    <linearGradient
       id="j"
       x1="32.799"
       x2="27.072001"
       y1="42.111"
       y2="39.571999"
       gradientUnits="userSpaceOnUse">
      <stop
         stop-color="#19dafc"
         offset="0"
         id="stop12-6" />
      <stop
         stop-color="#17c2f9"
         offset="1"
         id="stop14-2" />
    </linearGradient>
    <linearGradient
       id="e"
       x1="5.2502999"
       x2="5.5640998"
       y1="287.29999"
       y2="285.59"
       gradientUnits="userSpaceOnUse">
      <stop
         stop-color="#08e3ff"
         offset="0"
         id="stop37-9" />
      <stop
         stop-color="#5cfbfc"
         offset="1"
         id="stop39-1" />
    </linearGradient>
    <radialGradient
       id="a"
       cx="8.6604996"
       cy="283.81"
       r="1.5041"
       gradientTransform="matrix(1.9106,0.078065,-0.047151,1.154,5.4527,-44.482)"
       gradientUnits="userSpaceOnUse">
      <stop
         stop-color="#8df5fe"
         offset="0"
         id="stop57" />
      <stop
         stop-color="#46eaff"
         offset="1"
         id="stop59" />
    </radialGradient>
    <linearGradient
       id="d"
       x1="10.855"
       x2="11.759"
       y1="283.67999"
       y2="282.57001"
       gradientUnits="userSpaceOnUse">
      <stop
         stop-color="#6ee8fe"
         offset="0"
         id="stop42" />
      <stop
         stop-color="#a3f0fe"
         offset="1"
         id="stop44" />
    </linearGradient>
    <linearGradient
       id="c"
       x1="30.379"
       x2="45.719002"
       y1="24.664"
       y2="24.664"
       gradientUnits="userSpaceOnUse">
      <stop
         stop-color="#b6fdfe"
         offset="0"
         id="stop47-2" />
      <stop
         stop-color="#cafefe"
         offset="1"
         id="stop49-7" />
    </linearGradient>
    <linearGradient
       id="b"
       x1="38.877998"
       x2="41.801998"
       y1="24.172001"
       y2="27.079"
       gradientUnits="userSpaceOnUse">
      <stop
         stop-color="#abe7f8"
         offset="0"
         id="stop52-0" />
      <stop
         stop-color="#bef6fd"
         offset="1"
         id="stop54-9" />
    </linearGradient>
    <filter
       id="n"
       x="-0.055979603"
       y="-0.066748221"
       width="1.1119592"
       height="1.1334964"
       color-interpolation-filters="sRGB">
      <feGaussianBlur
         stdDeviation="0.32643586"
         id="feGaussianBlur62" />
    </filter>
  </defs>
  <rect
     width="479.638"
     height="479.638"
     rx="239.819"
     x="-496.10901"
     y="16.471008"
     id="rect33"
     style="fill:url(#linearGradient920);fill-opacity:1;stroke-width:1.10261"
     transform="rotate(-90)" />
  <g
     transform="matrix(23.815985,0,0,25.186363,51.802681,-7025.6083)"
     filter="url(#n)"
     opacity="0.15"
     id="g112">
    <path
       transform="matrix(0.92176,-0.38775,0.4003,0.91639,0,0)"
       d="m -112.36,264.53 c 0.73666,0 1.5053,0.66631 1.5029,1.403 l -0.0216,6.6115 c -0.002,0.73668 -0.7176,1.1739 -1.4543,1.1739 -0.7367,0 -1.4573,-0.62167 -1.4582,-1.3583 l -0.008,-6.3663 c -9.2e-4,-0.73665 0.70255,-1.4638 1.4392,-1.4638 z"
       style="paint-order:normal"
       id="path88" />
    <path
       d="m 14.627,285.98 c -0.67903,-0.28564 -1.6543,0.0269 -1.9469,0.70293 l -2.6267,6.0671 c -0.29305,0.67586 0.17974,1.4485 0.85876,1.7341 0.67903,0.28564 1.604,-0.0991 1.8997,-0.7738 l 2.5558,-5.8308 c 0.29573,-0.6747 -0.06162,-1.6138 -0.74064,-1.8995 z"
       style="paint-order:normal"
       id="path90" />
    <path
       d="m 9.4787,286.92 c 0.74869,0.97276 1.3095,2.1081 1.7264,2.8238 0.41692,0.71564 0.48742,0.86607 0.80484,1.4515 0.31743,0.58542 1.0304,1.0651 1.7583,0.33374 -0.06556,0.16646 -0.63891,1.5792 -0.92787,2.1644 -0.19233,0.38953 -0.31829,0.52394 -0.65837,0.71608 -0.64137,0.36238 -1.6181,0.13869 -1.9925,-0.49576 l -3.2294,-5.4734 c 1.153,-0.69533 1.3235,-0.83713 2.5186,-1.5204 z"
       style="paint-order:normal"
       id="path92" />
    <path
       d="m 7.5214,287.46 c 0.83279,0.98115 2.8291,4.5533 3.1749,5.0159 0.34575,0.46256 0.98119,0.95821 1.6226,0.59583 0.34008,-0.19214 0.50591,-0.37395 0.78858,-0.70383 0.22693,-0.26483 0.48073,-0.57508 0.67748,-0.83303 0.0015,-0.002 0.0031,-0.003 0.0047,-0.004 -0.06556,0.16646 -0.65672,1.5764 -0.94568,2.1616 -0.19233,0.38953 -0.31828,0.52358 -0.65836,0.71572 -0.64137,0.36238 -1.6183,0.13887 -1.9926,-0.49558 l -3.2293,-5.4737 c 0.23046,-0.38236 0.31257,-0.51306 0.55777,-0.97893 z"
       style="paint-order:normal"
       id="path94" />
    <path
       d="m 9.4787,286.92 c 0.74869,0.97276 1.3095,2.1081 1.7264,2.8238 0.41692,0.71564 0.48742,0.86607 0.80484,1.4515 0.31743,0.58542 1.0304,1.0651 1.7583,0.33374 -0.06556,0.16646 -0.63891,1.5792 -0.92787,2.1644 -0.19233,0.38953 -0.31829,0.52394 -0.65837,0.71608 -0.64137,0.36238 -1.6181,0.13869 -1.9925,-0.49576 l -3.2294,-5.4734 c 1.153,-0.69533 1.3235,-0.83713 2.5186,-1.5204 z"
       style="paint-order:normal"
       id="path96" />
    <path
       d="m 9.7114,285.37 c -0.80203,0.16087 -1.789,0.92972 -2.2383,1.5136 -0.74869,0.97276 -1.3095,2.1081 -1.7264,2.8238 -0.41692,0.71564 -0.48742,0.86607 -0.80484,1.4515 -0.31743,0.58542 -1.0481,1.0681 -1.776,0.33669 0.065564,0.16646 0.65662,1.5762 0.94559,2.1614 0.19233,0.38953 0.31829,0.52394 0.65837,0.71608 0.64137,0.36238 1.6181,0.13869 1.9925,-0.49576 l 3.2294,-5.4734 c 0.18717,-0.31723 0.54304,-0.83477 1.0511,-1.347 0.54335,-0.54774 1.1977,-0.85163 0.97604,-1.2056 -0.47647,-0.76079 -1.4745,-0.65242 -2.2765,-0.49156 z"
       style="paint-order:normal"
       id="path98" />
    <path
       transform="matrix(0.26458,0,0,0.26458,0,280.07)"
       d="m 44.643,21.932 c -0.18143,-0.01305 -0.37094,-0.013 -0.57031,0.002 -2.7191,0.20398 -6.1896,3.0272 -7.5328,4.6097 -3.1476,3.7083 -11.577,18.472 -12.883,20.22 -1.3068,1.7483 -3.7084,3.6216 -6.1325,2.252 -1.2853,-0.7262 -1.9121,-1.4134 -2.9805,-2.6602 -0.85767,-1.0009 -1.8169,-2.1735 -2.5605,-3.1484 -0.0058,-0.0058 -0.01175,-0.0098 -0.01758,-0.01563 0.2478,0.62914 2.4821,5.958 3.5742,8.1699 0.72693,1.4722 1.203,1.9789 2.4883,2.7051 2.4241,1.3696 6.1164,0.52488 7.5312,-1.873 l 12.205,-20.688 c 0.70742,-1.199 1.9834,-3.1816 3.9038,-5.1174 1.8616,-1.8766 4.1184,-2.9594 3.9117,-4.1575 -0.32136,-0.12555 -0.54599,-0.27117 -0.93649,-0.29926 z"
       style="paint-order:normal"
       id="path100" />
    <path
       d="m 5.801,287.44 c -0.45626,-0.16508 -0.8287,-0.49434 -0.87998,-1.1136 -0.051274,-0.61926 0.31706,-1.0637 0.74271,-1.0421 0.42565,0.0216 0.57116,0.37722 0.47182,0.70906 -0.099344,0.33185 -0.19943,0.45763 -0.26153,0.68705 -0.0621,0.22942 -0.0636,0.46943 -0.07302,0.75954 z"
       id="path102" />
    <path
       d="m 6.9991,286.19 c -0.38464,-0.65771 -0.28243,-1.4041 -0.058465,-1.9544 0.22396,-0.55032 0.76373,-1.1601 1.3614,-1.3196 0.59767,-0.1595 1.1417,-0.0736 1.3865,0.53454 0.2448,0.60812 -0.28531,1.361 -0.91874,1.5368 -0.63343,0.1758 -1.219,0.51572 -1.7707,1.2027 z"
       id="path104" />
    <circle
       cx="11.342"
       cy="283.14001"
       r="0.67653"
       style="paint-order:normal"
       id="circle106" />
    <path
       transform="matrix(0.26458,0,0,0.26458,0,280.07)"
       d="m 40.379,19.467 c -1.2434,-0.0014 -2.5176,0.18998 -3.6543,0.41797 -1.4267,0.28617 -3.0086,1.1241 -4.4648,2.1523 -1.0042,1.2503 -1.745,2.7416 -1.8555,4.459 -0.29625,3.4556 2.1038,4.2135 4.1875,2.4375 0.31882,-0.27175 0.4981,-0.50086 0.6875,-0.71289 0.89753,-0.83277 6.3117,-2.9258 9.7676,-4.6992 0.58502,-0.59856 0.87259,-1.1468 0.51562,-1.7168 -1.1255,-1.7971 -3.1113,-2.3355 -5.1836,-2.3379 z"
       style="paint-order:normal"
       id="path108" />
    <path
       transform="matrix(0.26458,0,0,0.26458,0,280.07)"
       d="m 44.643,21.932 c -0.18143,-0.01305 -0.37094,-0.01305 -0.57031,0.002 -2.7191,0.20398 -6.19,3.0269 -7.5332,4.6094 -0.35325,0.41618 -0.77928,0.98777 -1.248,1.6484 0.96322,1.4549 2.679,1.6774 4.3945,0.5625 0.59158,-0.75002 1.2594,-1.5401 2.0508,-2.3379 1.8616,-1.8766 4.1735,-3.0421 3.9668,-4.2402 -0.32136,-0.12555 -0.67,-0.21605 -1.0605,-0.24414 z"
       style="paint-order:normal"
       id="path110" />
  </g>
  <g
     transform="matrix(23.815985,0,0,25.186363,51.802681,-7025.6083)"
     id="g138">
    <path
       transform="matrix(0.92176,-0.38775,0.4003,0.91639,0,0)"
       d="m -112.36,264.53 c 0.73666,0 1.5053,0.66631 1.5029,1.403 l -0.0216,6.6115 c -0.002,0.73668 -0.7176,1.1739 -1.4543,1.1739 -0.7367,0 -1.4573,-0.62167 -1.4582,-1.3583 l -0.008,-6.3663 c -9.2e-4,-0.73665 0.70255,-1.4638 1.4392,-1.4638 z"
       fill="url(#l)"
       style="fill:#cccccc;paint-order:normal"
       id="path114" />
    <path
       d="m 14.627,285.98 c -0.67903,-0.28564 -1.6543,0.0269 -1.9469,0.70293 l -2.6267,6.0671 c -0.29305,0.67586 0.17974,1.4485 0.85876,1.7341 0.67903,0.28564 1.604,-0.0991 1.8997,-0.7738 l 2.5558,-5.8308 c 0.29573,-0.6747 -0.06162,-1.6138 -0.74064,-1.8995 z"
       fill="url(#f)"
       style="fill:#cccccc;paint-order:normal"
       id="path116" />
    <path
       d="m 9.4787,286.92 c 0.74869,0.97276 1.3095,2.1081 1.7264,2.8238 0.41692,0.71564 0.48742,0.86607 0.80484,1.4515 0.31743,0.58542 1.0304,1.0651 1.7583,0.33374 -0.06556,0.16646 -0.63891,1.5792 -0.92787,2.1644 -0.19233,0.38953 -0.31829,0.52394 -0.65837,0.71608 -0.64137,0.36238 -1.6181,0.13869 -1.9925,-0.49576 l -3.2294,-5.4734 c 1.153,-0.69533 1.3235,-0.83713 2.5186,-1.5204 z"
       fill="url(#h)"
       style="fill:url(#h);paint-order:normal"
       id="path118" />
    <path
       d="m 7.5214,287.46 c 0.83279,0.98115 2.8291,4.5533 3.1749,5.0159 0.34575,0.46256 0.98119,0.95821 1.6226,0.59583 0.34008,-0.19214 0.50591,-0.37395 0.78858,-0.70383 0.22693,-0.26483 0.48073,-0.57508 0.67748,-0.83303 0.0015,-0.002 0.0031,-0.003 0.0047,-0.004 -0.06556,0.16646 -0.65672,1.5764 -0.94568,2.1616 -0.19233,0.38953 -0.31828,0.52358 -0.65836,0.71572 -0.64137,0.36238 -1.6183,0.13887 -1.9926,-0.49558 l -3.2293,-5.4737 c 0.23046,-0.38236 0.31257,-0.51306 0.55777,-0.97893 z"
       fill="url(#g)"
       style="fill:url(#g);paint-order:normal"
       id="path120" />
    <path
       d="m 9.4787,286.92 c 0.74869,0.97276 1.3095,2.1081 1.7264,2.8238 0.41692,0.71564 0.48742,0.86607 0.80484,1.4515 0.31743,0.58542 1.0304,1.0651 1.7583,0.33374 -0.06556,0.16646 -0.63891,1.5792 -0.92787,2.1644 -0.19233,0.38953 -0.31829,0.52394 -0.65837,0.71608 -0.64137,0.36238 -1.6181,0.13869 -1.9925,-0.49576 l -3.2294,-5.4734 c 1.153,-0.69533 1.3235,-0.83713 2.5186,-1.5204 z"
       fill="url(#i)"
       style="fill:#e6e6e6;paint-order:normal"
       id="path122" />
    <path
       d="m 9.7114,285.37 c -0.80203,0.16087 -1.789,0.92972 -2.2383,1.5136 -0.74869,0.97276 -1.3095,2.1081 -1.7264,2.8238 -0.41692,0.71564 -0.48742,0.86607 -0.80484,1.4515 -0.31743,0.58542 -1.0481,1.0681 -1.776,0.33669 0.065564,0.16646 0.65662,1.5762 0.94559,2.1614 0.19233,0.38953 0.31829,0.52394 0.65837,0.71608 0.64137,0.36238 1.6181,0.13869 1.9925,-0.49576 l 3.2294,-5.4734 c 0.18717,-0.31723 0.54304,-0.83477 1.0511,-1.347 0.54335,-0.54774 1.1977,-0.85163 0.97604,-1.2056 -0.47647,-0.76079 -1.4745,-0.65242 -2.2765,-0.49156 z"
       fill="url(#k)"
       style="fill:#cccccc;paint-order:normal"
       id="path124" />
    <path
       transform="matrix(0.26458,0,0,0.26458,0,280.07)"
       d="m 44.643,21.932 c -0.18143,-0.01305 -0.37094,-0.013 -0.57031,0.002 -2.7191,0.20398 -6.1896,3.0272 -7.5328,4.6097 -3.1476,3.7083 -11.577,18.472 -12.883,20.22 -1.3068,1.7483 -3.7084,3.6216 -6.1325,2.252 -1.2853,-0.7262 -1.9121,-1.4134 -2.9805,-2.6602 -0.85767,-1.0009 -1.8169,-2.1735 -2.5605,-3.1484 -0.0058,-0.0058 -0.01175,-0.0098 -0.01758,-0.01563 0.2478,0.62914 2.4821,5.958 3.5742,8.1699 0.72693,1.4722 1.203,1.9789 2.4883,2.7051 2.4241,1.3696 6.1164,0.52488 7.5312,-1.873 l 12.205,-20.688 c 0.70742,-1.199 1.9834,-3.1816 3.9038,-5.1174 1.8616,-1.8766 4.1184,-2.9594 3.9117,-4.1575 -0.32136,-0.12555 -0.54599,-0.27117 -0.93649,-0.29926 z"
       fill="url(#j)"
       style="fill:#e6e6e6;paint-order:normal"
       id="path126" />
    <path
       d="m 5.801,287.44 c -0.45626,-0.16508 -0.8287,-0.49434 -0.87998,-1.1136 -0.051274,-0.61926 0.31706,-1.0637 0.74271,-1.0421 0.42565,0.0216 0.57116,0.37722 0.47182,0.70906 -0.099344,0.33185 -0.19943,0.45763 -0.26153,0.68705 -0.0621,0.22942 -0.0636,0.46943 -0.07302,0.75954 z"
       fill="url(#e)"
       id="path128"
       style="fill:#e6e6e6" />
    <path
       d="m 6.9991,286.19 c -0.38464,-0.65771 -0.28243,-1.4041 -0.058465,-1.9544 0.22396,-0.55032 0.76373,-1.1601 1.3614,-1.3196 0.59767,-0.1595 1.1417,-0.0736 1.3865,0.53454 0.2448,0.60812 -0.28531,1.361 -0.91874,1.5368 -0.63343,0.1758 -1.219,0.51572 -1.7707,1.2027 z"
       fill="url(#a)"
       id="path130"
       style="fill:#e6e6e6" />
    <circle
       cx="11.342"
       cy="283.14001"
       r="0.67653"
       fill="url(#d)"
       style="fill:#e6e6e6;paint-order:normal"
       id="circle132" />
    <path
       transform="matrix(0.26458,0,0,0.26458,0,280.07)"
       d="m 40.379,19.467 c -1.2434,-0.0014 -2.5176,0.18998 -3.6543,0.41797 -1.4267,0.28617 -3.0086,1.1241 -4.4648,2.1523 -1.0042,1.2503 -1.745,2.7416 -1.8555,4.459 -0.29625,3.4556 2.1038,4.2135 4.1875,2.4375 0.31882,-0.27175 0.4981,-0.50086 0.6875,-0.71289 0.89753,-0.83277 6.3117,-2.9258 9.7676,-4.6992 0.58502,-0.59856 0.87259,-1.1468 0.51562,-1.7168 -1.1255,-1.7971 -3.1113,-2.3355 -5.1836,-2.3379 z"
       fill="url(#c)"
       style="fill:#cccccc;paint-order:normal"
       id="path134" />
    <path
       transform="matrix(0.26458,0,0,0.26458,0,280.07)"
       d="m 44.643,21.932 c -0.18143,-0.01305 -0.37094,-0.01305 -0.57031,0.002 -2.7191,0.20398 -6.19,3.0269 -7.5332,4.6094 -0.35325,0.41618 -0.77928,0.98777 -1.248,1.6484 0.96322,1.4549 2.679,1.6774 4.3945,0.5625 0.59158,-0.75002 1.2594,-1.5401 2.0508,-2.3379 1.8616,-1.8766 4.1735,-3.0421 3.9668,-4.2402 -0.32136,-0.12555 -0.67,-0.21605 -1.0605,-0.24414 z"
       fill="url(#b)"
       style="fill:#e6e6e6;paint-order:normal"
       id="path136" />
  </g>
</svg>
