<?xml version="1.0" encoding="UTF-8" standalone="no"?>
<!-- Created with Inkscape (http://www.inkscape.org/) -->

<svg
   version="1.1"
   width="100%"
   height="100%"
   viewBox="0 0 512 512"
   id="svg2"
   sodipodi:docname="cheese.svg"
   inkscape:version="1.1 (c68e22c387, 2021-05-23)"
   xmlns:inkscape="http://www.inkscape.org/namespaces/inkscape"
   xmlns:sodipodi="http://sodipodi.sourceforge.net/DTD/sodipodi-0.dtd"
   xmlns:xlink="http://www.w3.org/1999/xlink"
   xmlns="http://www.w3.org/2000/svg"
   xmlns:svg="http://www.w3.org/2000/svg"
   xmlns:rdf="http://www.w3.org/1999/02/22-rdf-syntax-ns#"
   xmlns:cc="http://creativecommons.org/ns#"
   xmlns:dc="http://purl.org/dc/elements/1.1/">
  <sodipodi:namedview
     id="namedview66"
     pagecolor="#ffffff"
     bordercolor="#666666"
     borderopacity="1.0"
     inkscape:pageshadow="2"
     inkscape:pageopacity="0.0"
     inkscape:pagecheckerboard="0"
     showgrid="false"
     inkscape:zoom="0.42773438"
     inkscape:cx="28.054794"
     inkscape:cy="434.84931"
     inkscape:window-width="1366"
     inkscape:window-height="699"
     inkscape:window-x="0"
     inkscape:window-y="0"
     inkscape:window-maximized="1"
     inkscape:current-layer="svg2" />
  <metadata
     id="metadata120">
    <rdf:RDF>
      <cc:Work
         rdf:about="">
        <dc:format>image/svg+xml</dc:format>
        <dc:type
           rdf:resource="http://purl.org/dc/dcmitype/StillImage" />
      </cc:Work>
    </rdf:RDF>
  </metadata>
  <defs
     id="defs4">
    <path
       d="m 946.44068,213.15254 a 16.271187,16.271187 0 1 1 -32.54237,0 16.271187,16.271187 0 1 1 32.54237,0"
       inkscape:connector-curvature="0"
       id="0" />
    <filter
       color-interpolation-filters="sRGB"
       id="1"
       x="-0.018107638"
       y="-0.017892786"
       width="1.0362153"
       height="1.0357856">
      <feGaussianBlur
         id="feGaussianBlur8"
         stdDeviation="3.7725" />
    </filter>
    <linearGradient
       x1="257"
       x2="362"
       id="6"
       xlink:href="#9"
       gradientUnits="userSpaceOnUse"
       gradientTransform="matrix(1.02835,0,0,1.46193,-512.02126,-90.47744)" />
    <linearGradient
       x1="257"
       x2="362"
       id="7"
       xlink:href="#9"
       gradientUnits="userSpaceOnUse"
       gradientTransform="matrix(1.0381,0,0,1.46193,-514.53026,-102.50744)" />
    <linearGradient
       x1="257"
       x2="362"
       id="8"
       xlink:href="#9"
       gradientUnits="userSpaceOnUse"
       gradientTransform="matrix(1.0381,0,0,1.46193,-585.69639,-76.884703)" />
    <linearGradient
       x1="257"
       x2="362"
       id="5"
       xlink:href="#9"
       gradientUnits="userSpaceOnUse"
       gradientTransform="matrix(1.02835,0,0,1.46193,-595.95352,-31.537671)" />
    <linearGradient
       id="9">
      <stop
         id="stop15"
         style="stop-color:#000000;stop-opacity:1"
         offset="0" />
      <stop
         id="stop17"
         style="stop-color:#ffffff;stop-opacity:1"
         offset="1" />
    </linearGradient>
    <linearGradient
       x1="257"
       x2="362"
       id="2"
       xlink:href="#9"
       gradientUnits="userSpaceOnUse"
       gradientTransform="matrix(1.0381,0,0,1.46193,-554.69126,-102.50744)" />
    <linearGradient
       x1="257"
       x2="362"
       id="4"
       xlink:href="#9"
       gradientUnits="userSpaceOnUse"
       gradientTransform="matrix(1.0381,0,0,1.46193,-554.68726,-90.487443)" />
    <linearGradient
       y1="19.563999"
       x2="0"
       y2="504.01999"
       id="3"
       gradientUnits="userSpaceOnUse">
      <stop
         id="stop22"
         style="stop-color:#f3f3f3;stop-opacity:1"
         offset="0" />
      <stop
         id="stop24"
         style="stop-color:#eeeeee;stop-opacity:1"
         offset="0.5" />
      <stop
         id="stop26"
         style="stop-color:#ebebeb;stop-opacity:1"
         offset="1" />
    </linearGradient>
    <linearGradient
       id="6-3"
       x1="403.66"
       y1="545.75"
       x2="402.64999"
       y2="517.44"
       gradientUnits="userSpaceOnUse">
      <stop
         stop-color="#dce2ff"
         id="stop17-6" />
      <stop
         offset="1"
         stop-color="#f8feff"
         id="stop19" />
    </linearGradient>
    <linearGradient
       id="1-7"
       x1="400.45001"
       y1="543.89001"
       x2="400.62"
       y2="532.98999"
       gradientUnits="userSpaceOnUse">
      <stop
         stop-color="#41b99b"
         id="stop42" />
      <stop
         offset="1"
         stop-color="#59ffd5"
         id="stop44" />
    </linearGradient>
    <linearGradient
       id="5-5"
       x1="400.62"
       y1="530.78003"
       x2="400.45001"
       y2="519.87"
       gradientUnits="userSpaceOnUse">
      <stop
         stop-color="#eb4646"
         id="stop7" />
      <stop
         offset="1"
         stop-color="#ff8651"
         id="stop9" />
    </linearGradient>
    <linearGradient
       id="4-3"
       x1="406.48999"
       y1="534.78998"
       x2="406.62"
       y2="528.59003"
       gradientUnits="userSpaceOnUse">
      <stop
         stop-color="#ffbc00"
         id="stop22-5" />
      <stop
         offset="1"
         stop-color="#ffec00"
         id="stop24-6" />
    </linearGradient>
    <linearGradient
       id="3-2"
       x1="394.51999"
       y1="535.15002"
       x2="394.26999"
       y2="528.96997"
       gradientUnits="userSpaceOnUse">
      <stop
         stop-color="#947ecb"
         id="stop27" />
      <stop
         offset="1"
         stop-color="#cab5ff"
         id="stop29" />
    </linearGradient>
    <linearGradient
       id="2-9"
       y1="530.78003"
       x2="0"
       y2="523.38"
       gradientUnits="userSpaceOnUse">
      <stop
         stop-color="#ec87c0"
         id="stop37" />
      <stop
         offset="1"
         stop-color="#ffc1e4"
         id="stop39" />
    </linearGradient>
    <linearGradient
       id="8-1"
       y1="541.15997"
       x2="0"
       y2="533.06"
       gradientUnits="userSpaceOnUse">
      <stop
         stop-color="#0976da"
         id="stop2" />
      <stop
         offset="1"
         stop-color="#5de5f0"
         id="stop4" />
    </linearGradient>
    <linearGradient
       id="0-2"
       x1="405.29999"
       y1="530.90997"
       x2="405.25"
       y2="523.03998"
       gradientUnits="userSpaceOnUse">
      <stop
         stop-color="#fc6e51"
         id="stop32" />
      <stop
         offset="1"
         stop-color="#ff937d"
         id="stop34" />
    </linearGradient>
    <linearGradient
       id="7-7"
       x1="405.14999"
       y1="540.40997"
       x2="404.17001"
       y2="532.98999"
       gradientUnits="userSpaceOnUse">
      <stop
         stop-color="#4fd127"
         id="stop12" />
      <stop
         offset="1"
         stop-color="#c6f61a"
         id="stop14" />
    </linearGradient>
    <linearGradient
       inkscape:collect="always"
       xlink:href="#3-2"
       id="linearGradient988"
       x1="38.5"
       y1="256"
       x2="473.5"
       y2="256"
       gradientUnits="userSpaceOnUse"
       gradientTransform="matrix(1.1026161,0,0,1.0986041,-538.5598,-25.461255)" />
    <linearGradient
       inkscape:collect="always"
       xlink:href="#6-3"
       id="linearGradient996"
       x1="38.5"
       y1="279.86499"
       x2="473.5"
       y2="279.86499"
       gradientUnits="userSpaceOnUse"
       gradientTransform="matrix(1.0345172,0,0,0.93953305,-15.538221,15.417695)" />
  </defs>
  <rect
     width="479.638"
     height="477.89276"
     rx="239.819"
     x="-496.10901"
     y="16.834999"
     id="rect34"
     style="fill:url(#linearGradient988);fill-opacity:1;stroke-width:1.10061"
     transform="rotate(-90)"
     ry="238.94638" />
  <path
     d="M 31.974793,170.77184 C 3.232451,237.38253 16.815432,349.2693 53.323593,381.07726 l 404.314637,0.80062 C 502.96961,334.95025 505.9545,228.32461 478.5305,168.8211 l -388.03721,1.92237"
     inkscape:connector-curvature="0"
     id="path36"
     style="opacity:1;fill:url(#linearGradient996);fill-opacity:1;stroke-width:0.985883"
     sodipodi:nodetypes="ccccc" />
  <text
     x="1191.8171"
     y="-205.55188"
     id="text42"
     style="font-size:120.574px;line-height:125%;font-family:'Gentium Book Basic';letter-spacing:0;word-spacing:0;stroke-width:0.933013"
     transform="scale(0.99305911,1.0069894)"><tspan
       x="1191.8171"
       y="-205.55188"
       id="tspan44"
       style="stroke-width:0.933013" /></text>
  <text
     x="480.88065"
     y="-1150.5934"
     transform="scale(3.9849684,0.25094302)"
     id="text46"
     style="font-size:43.8084px;font-family:Arial;text-anchor:middle;stroke-width:0.933008" />
  <text
     x="1734.1492"
     y="-280.19281"
     id="text48"
     style="font-size:120.574px;line-height:125%;font-family:'Gentium Book Basic';letter-spacing:0;word-spacing:0;stroke-width:0.933013"
     transform="scale(0.99305911,1.0069894)"><tspan
       x="1734.1492"
       y="-280.19281"
       id="tspan50"
       style="stroke-width:0.933013" /></text>
  <text
     x="616.02673"
     y="-1450.1161"
     transform="scale(3.9849684,0.25094302)"
     id="text52"
     style="font-size:43.8084px;font-family:Arial;text-anchor:middle;stroke-width:0.933008" />
  <text
     x="734.35181"
     y="-449.31067"
     id="text54"
     style="font-size:120.574px;line-height:125%;font-family:'Gentium Book Basic';letter-spacing:0;word-spacing:0;stroke-width:0.933013"
     transform="scale(0.99305911,1.0069894)"><tspan
       x="734.35181"
       y="-449.31067"
       id="tspan56"
       style="stroke-width:0.933013" /></text>
  <text
     x="366.8764"
     y="-2128.7483"
     transform="scale(3.9849684,0.25094302)"
     id="text58"
     style="font-size:43.8084px;font-family:Arial;text-anchor:middle;stroke-width:0.933008" />
  <text
     x="1758.8458"
     y="-651.27979"
     id="text60"
     style="font-size:120.574px;line-height:125%;font-family:'Gentium Book Basic';letter-spacing:0;word-spacing:0;stroke-width:0.933013"
     transform="scale(0.99305911,1.0069894)"><tspan
       x="1758.8458"
       y="-651.27979"
       id="tspan62"
       style="stroke-width:0.933013" /></text>
  <text
     x="622.18463"
     y="-2939.2148"
     transform="scale(3.9849684,0.25094302)"
     id="text64"
     style="font-size:43.8084px;font-family:Arial;text-anchor:middle;stroke-width:0.933008" />
  <text
     x="2301.1775"
     y="-725.92999"
     id="text66"
     style="font-size:120.574px;line-height:125%;font-family:'Gentium Book Basic';letter-spacing:0;word-spacing:0;stroke-width:0.933013"
     transform="scale(0.99305911,1.0069894)"><tspan
       x="2301.1775"
       y="-725.92999"
       id="tspan68"
       style="stroke-width:0.933013" /></text>
  <text
     x="757.33057"
     y="-3238.7471"
     transform="scale(3.9849684,0.25094302)"
     id="text70"
     style="font-size:43.8084px;font-family:Arial;text-anchor:middle;stroke-width:0.933008" />
  <text
     x="1938.1238"
     y="-1166.6848"
     id="text72"
     style="font-size:120.574px;line-height:125%;font-family:'Gentium Book Basic';letter-spacing:0;word-spacing:0;stroke-width:0.933013"
     transform="scale(0.99305911,1.0069894)"><tspan
       x="1938.1238"
       y="-1166.6848"
       id="tspan74"
       style="stroke-width:0.933013" /></text>
  <text
     x="666.85687"
     y="-5007.4009"
     transform="scale(3.9849684,0.25094302)"
     id="text76"
     style="font-size:43.8084px;font-family:Arial;text-anchor:middle;stroke-width:0.933008" />
  <text
     x="2480.4463"
     y="-1241.3259"
     id="text78"
     style="font-size:120.574px;line-height:125%;font-family:'Gentium Book Basic';letter-spacing:0;word-spacing:0;stroke-width:0.933013"
     transform="scale(0.99305911,1.0069894)"><tspan
       x="2480.4463"
       y="-1241.3259"
       id="tspan80"
       style="stroke-width:0.933013" /></text>
  <text
     x="802.00299"
     y="-5306.9253"
     transform="scale(3.9849684,0.25094302)"
     id="text82"
     style="font-size:43.8084px;font-family:Arial;text-anchor:middle;stroke-width:0.933008" />
  <text
     x="770.42224"
     y="78.62767"
     id="text84"
     style="font-size:194.375px;line-height:125%;font-family:'Gentium Book Basic';letter-spacing:0;word-spacing:0;stroke-width:0.933013"
     transform="scale(0.99305911,1.0069894)"><tspan
       x="770.42224"
       y="78.62767"
       id="tspan86"
       style="stroke-width:0.933013" /></text>
  <path
     d="m 403.66081,99.308608 c -14.90799,0 -26.99001,12.242102 -26.99001,27.359192 0,15.11708 12.08202,27.36861 26.99001,27.36861 14.90795,0 26.98997,-12.25153 26.98997,-27.36861 0,-15.11709 -12.08202,-27.359192 -26.98997,-27.359192"
     inkscape:connector-curvature="0"
     id="path88"
     style="opacity:0.2;stroke-width:0.933013" />
  <path
     d="m 390.85606,86.324248 c -14.90794,0 -26.99,12.24211 -26.99,27.359212 0,15.11707 12.08206,27.3686 26.99,27.3686 14.90798,0 26.99,-12.25153 26.99,-27.3686 0,-15.117102 -12.08202,-27.359212 -26.99,-27.359212"
     inkscape:connector-curvature="0"
     id="path90"
     style="fill:#dcdbdb;stroke-width:0.933013" />
  <g
     transform="matrix(0.8720742,0,0,0.88430725,15.842489,39.468799)"
     id="g92">
    <use
       transform="matrix(9.21139,0,0,9.21139,-8297.94,-1688.88)"
       id="use94"
       style="opacity:0.2"
       x="0"
       y="0"
       width="512"
       height="512"
       xlink:href="#0" />
    <use
       transform="matrix(9.21139,0,0,9.21139,-8311.37,-1702.3)"
       id="use96"
       style="fill:#dcdbdb"
       x="0"
       y="0"
       width="512"
       height="512"
       xlink:href="#0" />
    <use
       transform="matrix(7.34298,0,0,7.34298,-6560,-1290.63)"
       id="use98"
       style="opacity:0.2"
       x="0"
       y="0"
       width="512"
       height="512"
       xlink:href="#0" />
    <use
       transform="matrix(7.34298,0,0,7.34298,-6573.43,-1304.05)"
       id="use100"
       style="fill:#60636c"
       x="0"
       y="0"
       width="512"
       height="512"
       xlink:href="#0" />
    <use
       transform="matrix(4.97632,0,0,4.97632,-4358.61,-786.16)"
       id="use102"
       style="opacity:0.2"
       x="0"
       y="0"
       width="512"
       height="512"
       xlink:href="#0" />
    <use
       transform="matrix(4.97632,0,0,4.97632,-4372.03,-799.58)"
       id="use104"
       style="fill:#dcdbdb"
       x="0"
       y="0"
       width="512"
       height="512"
       xlink:href="#0" />
  </g>
  <path
     style="opacity:0.284981;fill:#ffffff;stroke-width:1.09065"
     d="m 222.88626,339.32846 c -11.65757,-3.09362 -23.63578,-10.04758 -31.8878,-18.51254 -8.74009,-8.96561 -13.61006,-16.74684 -17.69151,-28.26748 -2.49825,-7.05177 -2.85723,-9.76574 -2.88136,-21.7837 -0.03,-14.99071 1.06753,-20.07538 6.94549,-32.17357 12.19705,-25.10426 38.39426,-40.52491 66.08389,-38.8994 18.08167,1.06146 32.6934,7.67719 45.45264,20.57959 13.24378,13.39232 19.42564,27.74165 20.33963,47.2123 0.65677,13.99028 -0.97592,21.65988 -7.47058,35.09365 -8.41593,17.40782 -26.87454,32.35339 -45.43862,36.79081 -8.64575,2.06661 -25.59055,2.04652 -33.45178,-0.0397 z"
     id="path221" />
  <path
     style="opacity:0.284981;fill:#ffffff;stroke-width:1.09065"
     d="m 230.46777,339.83092 c -14.86448,-1.4021 -27.8195,-8.06916 -40.10232,-20.638 -8.64396,-8.84521 -16.03605,-21.74427 -18.31207,-31.95418 -1.41338,-6.3403 -1.42437,-26.53446 -0.0179,-32.948 4.90365,-22.36093 22.57671,-42.29886 44.56162,-50.27239 10.33018,-3.74658 29.31978,-4.69778 39.95516,-2.0014 20.81213,5.27649 40.36521,22.5804 47.56511,42.09376 3.34457,9.06458 4.39921,15.87222 4.4113,28.47481 0.018,18.69243 -5.98074,32.74209 -20.10104,47.07914 -16.34197,16.59281 -33.29828,22.49249 -57.95984,20.16626 z"
     id="path260" />
  <path
     style="opacity:0.284981;fill:#ffffff;stroke-width:1.09065"
     d="m 223.18492,338.2956 c -11.08273,-2.4419 -21.31541,-8.61368 -31.79333,-19.17593 -16.17043,-16.30051 -21.77963,-32.09371 -19.90456,-56.0428 1.34917,-17.23191 7.92391,-30.5738 21.4393,-43.50609 8.9884,-8.6006 19.29706,-14.54943 29.4184,-16.97641 8.77589,-2.10436 29.21518,-1.84227 36.82451,0.47218 10.611,3.22749 19.87439,9.13466 29.36949,18.72874 14.64448,14.79712 19.34913,26.87703 19.28552,49.51858 -0.0351,12.50703 -0.38676,15.26022 -2.83551,22.20261 -7.33657,20.79953 -28.9625,40.45137 -49.33163,44.8283 -9.04592,1.94381 -23.52638,1.92188 -32.47219,-0.0493 z"
     id="path299" />
  <path
     style="opacity:0.284981;fill:#ffffff;stroke-width:1.09065"
     d="m 220.31843,400.82898 c -13.76177,-2.1701 -25.95049,-6.22288 -39.35318,-13.08501 -30.55316,-15.64312 -53.4082,-42.33768 -64.38189,-75.19773 -10.88589,-32.59717 -8.48691,-70.36462 6.38616,-100.53878 13.03041,-26.43574 37.6499,-50.35851 63.92483,-62.11588 48.69474,-21.78964 103.85478,-12.03613 142.46574,25.19099 52.95107,51.05329 53.99619,136.02382 2.31756,188.42737 -29.30433,29.71537 -70.98929,43.68499 -111.35922,37.31904 z m 51.84771,-14.62934 c 40.35243,-8.4897 71.26707,-38.81654 81.4508,-79.90219 2.81334,-11.35023 2.53156,-38.68366 -0.51516,-49.97098 -3.29326,-12.20066 -8.19701,-23.21929 -14.81096,-33.27995 -8.10338,-12.32621 -31.91895,-35.81206 -43.7942,-43.18786 -34.19993,-21.24182 -78.78237,-20.59662 -112.1008,1.62232 -10.11682,6.74655 -24.02433,20.85341 -30.34678,30.78174 -21.82485,34.27219 -22.40742,78.90247 -1.48215,113.54464 7.64568,12.65753 30.46658,36.25546 43.51769,44.99943 22.74792,15.24061 51.68793,20.9458 78.08156,15.39285 z"
     id="path338" />
  <path
     style="opacity:0.284981;fill:#ffffff;stroke-width:1.09065"
     d="m 216.33512,399.75973 c -32.45836,-5.96179 -65.64788,-27.98149 -83.51927,-55.41111 -14.39593,-22.09539 -20.81252,-41.4904 -22.19485,-67.08684 -2.12287,-39.30888 11.79449,-74.55305 40.21033,-101.82833 39.24817,-37.67282 94.6384,-47.09635 143.17418,-24.3582 24.73407,11.58746 48.12333,34.28463 60.80849,59.00916 29.59595,57.68512 12.2052,129.80435 -40.3808,167.45887 -15.22397,10.90123 -34.62652,19.16234 -52.37856,22.30147 -11.26269,1.99159 -34.65035,1.94812 -45.71952,-0.0852 z M 271.279,386.556 c 39.79225,-8.3346 70.66451,-37.46933 81.85575,-77.24879 1.99183,-7.08011 2.34633,-11.16087 2.34633,-27.01067 0,-21.68895 -1.60049,-29.36437 -9.61853,-46.1272 -6.24861,-13.06353 -12.72367,-21.44209 -28.88475,-37.37611 -18.77223,-18.50845 -30.74845,-25.91708 -50.76913,-31.40632 -7.80149,-2.13901 -11.84868,-2.52396 -26.53476,-2.52396 -14.58794,0 -18.78548,0.39424 -26.5353,2.49227 -33.77336,9.14297 -62.10852,36.10515 -72.57031,69.05386 -4.4193,13.91836 -5.74743,23.90443 -5.15237,38.74027 0.79077,19.71492 6.07079,36.77037 16.50273,53.30688 4.69006,7.43457 27.35212,31.35812 36.49984,38.53158 11.74797,9.21253 26.55749,15.92226 43.24566,19.59319 9.55154,2.1011 29.52436,2.08848 39.61484,-0.0252 z"
     id="path377" />
  <path
     style="opacity:0.284981;fill:#ffffff;stroke-width:1.09065"
     d="m 223.96934,400.28607 c -26.87008,-2.5281 -57.83533,-18.58201 -78.55451,-40.72654 -30.17119,-32.24676 -41.71975,-79.63234 -30.20586,-123.93932 7.50208,-28.86894 27.5041,-56.58695 53.52359,-74.17084 27.09321,-18.30953 58.23558,-25.62442 88.81208,-20.86066 28.98777,4.51623 51.82282,16.1014 72.58089,36.82335 19.46694,19.43309 32.20622,43.68526 36.92176,70.28908 2.10272,11.86313 1.84501,35.78856 -0.50869,47.22548 -5.70927,27.74221 -18.58706,51.45283 -38.23254,70.39389 -10.80639,10.41895 -19.23735,16.25712 -33.2544,23.02763 -22.94041,11.08066 -43.49814,14.53323 -71.08232,11.93793 z m 54.15369,-15.02489 c 23.64164,-7.26229 43.21497,-20.61395 57.22935,-39.03833 6.07111,-7.9815 13.50818,-22.6772 17.0667,-33.72396 2.83383,-8.79703 3.00758,-10.47509 3.01353,-29.10409 0.008,-23.12908 -1.21581,-29.65712 -8.46439,-45.17368 -6.63408,-14.20111 -9.98397,-18.78298 -25.45793,-34.82032 -20.46475,-21.20986 -32.24471,-29.1421 -52.67885,-35.47222 -8.89082,-2.75422 -11.17538,-2.99872 -28.61598,-3.06248 -24.31115,-0.0889 -33.90541,2.36745 -53.83212,13.78214 -11.71308,6.70965 -29.69449,24.77076 -36.49226,36.65402 -11.1881,19.55809 -15.3123,36.50843 -14.42977,59.30641 0.81929,21.16585 6.43307,39.198 17.18427,55.19827 5.00878,7.45414 30.61178,33.69279 38.28999,39.24056 11.66287,8.4268 28.3875,15.64142 41.87589,18.06425 9.82022,1.76393 37.18288,0.64641 45.31157,-1.85057 z"
     id="path416" />
  <path
     style="opacity:0.284981;fill:#ffffff;stroke-width:1.09065"
     d="m 216.5106,399.12101 c -8.19386,-1.37979 -23.52127,-6.74793 -32.84407,-11.50301 -38.78123,-19.7803 -63.46039,-53.35238 -70.85453,-96.38629 -2.55652,-14.87901 -1.55883,-39.33665 2.20133,-53.96411 10.47589,-40.75217 43.13347,-76.28061 83.14174,-90.45055 15.28375,-5.41311 24.77019,-7.04549 40.97731,-7.05113 29.02526,-0.009 54.87747,8.64362 77.51438,25.94699 8.43075,6.44436 22.60166,21.37238 28.99212,30.5411 10.35362,14.85486 18.53094,35.09298 21.32491,52.77728 2.16335,13.69289 0.83449,41.852 -2.55457,54.13234 -10.29317,37.29742 -33.43542,66.49503 -65.70776,82.90085 -22.09102,11.23007 -35.33826,14.36016 -59.95948,14.16737 -9.01848,-0.0706 -19.02261,-0.57048 -22.23138,-1.11084 z m 55.114,-12.39751 c 18.05403,-3.28752 37.60575,-13.75166 52.32071,-28.00217 13.49513,-13.06916 21.956,-26.65103 28.601,-45.91186 2.81401,-8.15663 2.94809,-9.50201 2.93085,-29.41467 -0.0211,-24.16545 -1.00237,-29.36136 -8.56255,-45.33007 -6.71602,-14.18568 -9.9498,-18.63058 -24.86521,-34.17785 -20.49123,-21.3592 -34.06521,-30.49497 -54.21556,-36.48899 -7.69364,-2.28858 -10.84928,-2.57498 -28.15993,-2.55574 -22.47101,0.0251 -29.78149,1.54761 -45.25674,9.42623 -11.89988,6.05836 -16.97466,9.71592 -27.14089,19.56126 -14.1475,13.70091 -22.96716,28.27395 -28.42364,46.96524 -3.82501,13.10273 -4.77566,34.88952 -2.14023,49.04941 2.31772,12.4529 6.99473,25.42458 12.64296,35.06533 5.24582,8.95387 31.70845,37.0557 41.5802,44.15584 11.00299,7.91375 26.05124,14.70225 38.99066,17.58929 8.51561,1.90001 31.43429,1.93781 41.69837,0.069 z"
     id="path455" />
  <path
     style="opacity:0.284981;fill:#ffffff;stroke-width:1.09065"
     d="m 227.7601,338.81258 c -13.90578,-1.84979 -25.18388,-8.45862 -38.16416,-22.36376 -8.98885,-9.6293 -14.38412,-18.97829 -16.54046,-28.66154 -1.79243,-8.04903 -1.49174,-28.42977 0.5332,-36.14094 5.21358,-19.85379 22.36313,-38.7538 42.64121,-46.99358 5.46064,-2.21886 7.96882,-2.48469 23.44402,-2.48469 15.4752,0 17.98338,0.26583 23.44403,2.48469 9.03684,3.67204 17.90695,9.89985 25.83584,18.13966 9.08794,9.44429 14.5898,18.73407 16.72007,28.23151 2.2792,10.16147 2.26095,31.65376 -0.0338,39.58486 -6.73598,23.28255 -31.53295,45.17601 -54.60558,48.21171 -9.25891,1.21822 -14.06945,1.2166 -23.27453,-0.008 z"
     id="path494" />
  <path
     style="opacity:0.284981;fill:#ffffff;stroke-width:1.09065"
     d="m 379.03129,137.21178 c -18.96497,-9.58322 -19.05426,-37.414682 -0.15122,-47.127952 13.63262,-7.00507 30.59802,-0.69542 36.47408,13.565152 2.03385,4.93602 1.97154,15.00363 -0.12437,20.09019 -5.85971,14.22101 -22.47756,20.40595 -36.19849,13.47261 z"
     id="path533" />
  <path
     style="opacity:0.284981;fill:#ffffff;stroke-width:1.09065"
     d="m 384.90254,138.86656 c -9.62941,-2.34421 -16.88566,-9.9735 -19.12155,-20.10467 -2.4138,-10.93733 3.30666,-22.970202 13.50693,-28.411562 5.78863,-3.08796 16.82402,-3.26858 22.30556,-0.36509 4.66698,2.47203 10.53476,7.97101 12.44291,11.660892 2.34585,4.53617 3.06614,12.61539 1.65605,18.57569 -3.09145,13.06747 -17.60312,21.85495 -30.7899,18.64474 z"
     id="path572" />
  <path
     style="opacity:0.284981;fill:#ffffff;stroke-width:1.09065"
     d="m 380.47355,136.88618 c -16.27116,-7.65542 -19.65575,-29.21933 -6.60364,-42.073192 7.86069,-7.74131 22.21677,-8.62021 31.41323,-1.92316 7.55402,5.50097 10.3903,11.016182 10.3903,20.204132 0,8.40951 -1.82569,13.28365 -6.90479,18.43399 -7.16236,7.26284 -19.34398,9.56965 -28.2951,5.35823 z"
     id="path611" />
  <path
     style="opacity:0.284981;fill:#ffffff;stroke-width:1.09065"
     d="m 382.70231,137.39952 c -11.25852,-4.23977 -17.99722,-15.18333 -16.44063,-26.69931 2.86596,-21.202782 26.80576,-29.516552 41.9854,-14.580632 12.11482,11.920312 9.15218,31.942012 -5.87695,39.716862 -5.66126,2.92868 -14.23265,3.60989 -19.66782,1.56308 z"
     id="path650" />
  <path
     style="opacity:0.284981;fill:#ffffff;stroke-width:1.09065"
     d="m 380.10199,136.01538 c -8.67355,-4.3336 -13.46398,-12.31902 -13.5036,-22.50995 -0.0789,-20.295352 22.01907,-31.667632 38.37253,-19.747652 11.14897,8.126442 13.6733,22.420342 5.99266,33.933122 -4.7309,7.09128 -10.86399,10.19089 -20.10043,10.15855 -4.39723,-0.0152 -8.53141,-0.72001 -10.76116,-1.83407 z"
     id="path689" />
</svg>
