<?xml version="1.0" encoding="UTF-8" standalone="no"?>
<!-- Created with Inkscape (http://www.inkscape.org/) -->

<svg
   version="1.1"
   width="100%"
   height="100%"
   viewBox="0 0 512 512"
   id="svg2"
   sodipodi:docname="fluid.svg"
   inkscape:version="1.1 (c68e22c387, 2021-05-23)"
   xmlns:inkscape="http://www.inkscape.org/namespaces/inkscape"
   xmlns:sodipodi="http://sodipodi.sourceforge.net/DTD/sodipodi-0.dtd"
   xmlns:xlink="http://www.w3.org/1999/xlink"
   xmlns="http://www.w3.org/2000/svg"
   xmlns:svg="http://www.w3.org/2000/svg"
   xmlns:rdf="http://www.w3.org/1999/02/22-rdf-syntax-ns#"
   xmlns:cc="http://creativecommons.org/ns#"
   xmlns:dc="http://purl.org/dc/elements/1.1/">
  <sodipodi:namedview
     id="namedview39"
     pagecolor="#ffffff"
     bordercolor="#666666"
     borderopacity="1.0"
     inkscape:pageshadow="2"
     inkscape:pageopacity="0.0"
     inkscape:pagecheckerboard="0"
     showgrid="false"
     inkscape:zoom="0.42773438"
     inkscape:cx="-115.72603"
     inkscape:cy="335.48858"
     inkscape:window-width="1366"
     inkscape:window-height="708"
     inkscape:window-x="0"
     inkscape:window-y="0"
     inkscape:window-maximized="1"
     inkscape:current-layer="svg2" />
  <metadata
     id="metadata65">
    <rdf:RDF>
      <cc:Work
         rdf:about="">
        <dc:format>image/svg+xml</dc:format>
        <dc:type
           rdf:resource="http://purl.org/dc/dcmitype/StillImage" />
      </cc:Work>
    </rdf:RDF>
  </metadata>
  <defs
     id="defs4">
    <filter
       color-interpolation-filters="sRGB"
       id="7"
       x="-0.018107638"
       y="-0.017892786"
       width="1.0362153"
       height="1.0357856">
      <feGaussianBlur
         id="feGaussianBlur7"
         stdDeviation="3.7725" />
    </filter>
    <linearGradient
       y1="19.563999"
       x2="0"
       y2="504.01999"
       id="8"
       gradientUnits="userSpaceOnUse">
      <stop
         id="stop10"
         style="stop-color:#f3f3f3;stop-opacity:1"
         offset="0" />
      <stop
         id="stop12"
         style="stop-color:#eeeeee;stop-opacity:1"
         offset="0.5" />
      <stop
         id="stop14"
         style="stop-color:#ebebeb;stop-opacity:1"
         offset="1" />
    </linearGradient>
    <linearGradient
       x1="257"
       x2="362"
       id="5"
       xlink:href="#0"
       gradientUnits="userSpaceOnUse"
       gradientTransform="matrix(1.02835,0,0,1.46193,-383.73694,-115.70205)" />
    <linearGradient
       x1="257"
       x2="362"
       id="6"
       xlink:href="#0"
       gradientUnits="userSpaceOnUse"
       gradientTransform="matrix(1.0381,0,0,1.46193,-467.2489,-124.14041)" />
    <linearGradient
       x1="257"
       x2="362"
       id="4"
       xlink:href="#0"
       gradientUnits="userSpaceOnUse"
       gradientTransform="matrix(1.02835,0,0,1.46193,-610.00374,-127.97146)" />
    <linearGradient
       x1="257"
       x2="362"
       id="3"
       xlink:href="#0"
       gradientUnits="userSpaceOnUse"
       gradientTransform="matrix(1.0381,0,0,1.46193,-427.0919,-112.11041)" />
    <linearGradient
       id="0">
      <stop
         id="stop21"
         style="stop-color:#000000;stop-opacity:1"
         offset="0" />
      <stop
         id="stop23"
         style="stop-color:#ffffff;stop-opacity:1"
         offset="1" />
    </linearGradient>
    <linearGradient
       x1="257"
       x2="362"
       id="2"
       xlink:href="#0"
       gradientUnits="userSpaceOnUse"
       gradientTransform="matrix(1.0381,0,0,1.46193,-467.2489,-112.11041)" />
    <linearGradient
       x1="257"
       x2="362"
       id="1"
       xlink:href="#0"
       gradientUnits="userSpaceOnUse"
       gradientTransform="matrix(1.0381,0,0,1.46193,-467.2529,-112.11041)" />
    <linearGradient
       id="SVGID_3_"
       gradientUnits="userSpaceOnUse"
       x1="212.132"
       x2="284.116"
       y1="189.196"
       y2="261.17999">
      <stop
         offset="0"
         stop-color="#ebeff0"
         id="stop12-3" />
      <stop
         offset="1"
         stop-color="#e3e5e4"
         id="stop14-6" />
    </linearGradient>
    <linearGradient
       gradientTransform="matrix(0.69204,0,0,0.67579,117.88,177.07)"
       gradientUnits="userSpaceOnUse"
       y2="516.46002"
       x2="409.48999"
       y1="542.79999"
       x1="409.57001"
       id="0-7">
      <stop
         stop-color="#e54141"
         id="stop2" />
      <stop
         offset="1"
         stop-color="#ffbd00"
         id="stop4" />
    </linearGradient>
    <linearGradient
       inkscape:collect="always"
       xlink:href="#a-3-5"
       id="linearGradient920"
       x1="38.5"
       y1="256"
       x2="473.5"
       y2="256"
       gradientUnits="userSpaceOnUse"
       gradientTransform="matrix(1.102616,0,0,1.1026162,-538.55977,-25.979729)" />
    <linearGradient
       id="0-3"
       gradientUnits="userSpaceOnUse"
       y1="545.14001"
       x2="0"
       y2="518.14001">
      <stop
         stop-color="#a150c9"
         id="stop8" />
      <stop
         offset="1"
         stop-color="#e39aff"
         id="stop10-5" />
    </linearGradient>
    <linearGradient
       gradientUnits="userSpaceOnUse"
       gradientTransform="translate(484.92854,-250.94928)"
       y2="62"
       y1="2"
       x2="32"
       x1="32"
       id="a-3-5">
      <stop
         id="stop870"
         offset="0"
         stop-color="#f5faff" />
      <stop
         id="stop872"
         offset="1"
         stop-color="#cfdef0" />
    </linearGradient>
    <linearGradient
       gradientUnits="userSpaceOnUse"
       y2="533.06"
       x2="0"
       y1="541.15997"
       id="1-9-6-36"
       gradientTransform="matrix(1.49857,0,0,1.49857,100.4386,-473.61451)">
      <stop
         stop-color="#0976da"
         id="stop52-7-7" />
      <stop
         offset="1"
         stop-color="#5de5f0"
         id="stop54-5-5" />
    </linearGradient>
  </defs>
  <rect
     width="479.638"
     height="479.638"
     rx="239.819"
     x="-496.10901"
     y="16.471001"
     id="rect33"
     style="fill:url(#linearGradient920);fill-opacity:1;stroke-width:1.10261"
     transform="rotate(-90)" />
  <path
     d="m 202.814,126.24461 c 13.71892,12.82173 13.6368,23.02233 13.6368,38.46593 v 31.92081 c -47.99571,14.95576 -82.31039,55.21091 -82.31039,102.7103 0,40.74299 25.42904,76.29362 63.00171,94.97822 h 121.22305 c 37.57267,-18.68754 63.00172,-54.2345 63.00172,-94.97822 0,-47.39302 -34.44102,-87.61297 -82.39725,-102.7103 v -31.92081 c 0,-15.35776 -0.0821,-25.60532 13.63681,-38.46593 H 202.76977"
     fill="#aad9ff"
     id="path4"
     style="stroke-width:7.61093" />
  <path
     d="m 147.05076,250.6399 c -8.24999,14.57282 -12.87403,31.02143 -12.87403,48.44572 0,40.70485 25.51195,76.39633 63.08384,95.09561 h 121.01774 c 37.57268,-18.68754 63.08384,-54.38783 63.08384,-95.09561 0,-17.41475 -4.62443,-33.86336 -12.87403,-48.44572"
     fill="#46cde5"
     id="path6"
     style="stroke-width:7.61093" />
  <path
     d="m 288.66979,370.24483 c 0,2.65047 -2.29677,4.78427 -5.14969,4.78427 -2.85291,0 -5.14969,-2.17209 -5.14969,-4.78427 0,-2.65047 2.29678,-4.78427 5.14969,-4.78427 2.85292,0 5.14969,2.1338 5.14969,4.78427"
     fill="#f9f9f9"
     opacity="0.5"
     id="path8"
     style="stroke-width:7.61093" />
  <path
     d="m 273.22475,348.71389 c 0,3.9614 -3.4606,7.17644 -7.72458,7.17644 -4.26397,0 -7.72457,-3.21504 -7.72457,-7.17644 0,-3.9614 3.4606,-7.17644 7.72457,-7.17644 4.26398,0 7.72458,3.21504 7.72458,7.17644"
     fill="#f9f9f9"
     opacity="0.5"
     id="path10"
     style="stroke-width:7.61093" />
  <path
     d="m 288.66979,317.6169 c 0,5.27233 -4.62443,9.56825 -10.29906,9.56825 -5.67464,0 -10.29907,-4.29628 -10.29907,-9.56825 0,-5.31054 4.62443,-9.56825 10.29907,-9.56825 5.67463,0 10.29906,4.29628 10.29906,9.56825"
     fill="#f9f9f9"
     opacity="0.5"
     id="path12"
     style="stroke-width:7.61093" />
  <path
     d="m 288.66979,245.84954 c 0,7.9228 -6.92121,14.35274 -15.44899,14.35274 -8.52778,0 -15.44899,-6.46838 -15.44899,-14.35274 0,-7.9228 6.92121,-14.35274 15.44899,-14.35274 8.52778,0 15.44899,6.43009 15.44899,14.35274"
     fill="#f9f9f9"
     opacity="0.5"
     id="path14"
     style="stroke-width:7.61093" />
  <path
     d="m 262.92016,286.51992 c 0,6.61186 -5.75739,11.96049 -12.87402,11.96049 -7.11689,0 -12.87404,-5.38714 -12.87404,-11.96049 0,-6.61188 5.75739,-11.9605 12.87404,-11.9605 7.11687,0 12.87402,5.38714 12.87402,11.9605"
     fill="#f9f9f9"
     opacity="0.5"
     id="path16"
     style="stroke-width:7.61093" />
</svg>
