<?xml version="1.0" encoding="UTF-8" standalone="no"?>
<!-- Created with Inkscape (http://www.inkscape.org/) -->

<svg
   version="1.1"
   width="100%"
   height="100%"
   viewBox="0 0 512 512"
   id="svg2"
   sodipodi:docname="google-earth.svg"
   inkscape:version="1.1 (c68e22c387, 2021-05-23)"
   xmlns:inkscape="http://www.inkscape.org/namespaces/inkscape"
   xmlns:sodipodi="http://sodipodi.sourceforge.net/DTD/sodipodi-0.dtd"
   xmlns:xlink="http://www.w3.org/1999/xlink"
   xmlns="http://www.w3.org/2000/svg"
   xmlns:svg="http://www.w3.org/2000/svg"
   xmlns:rdf="http://www.w3.org/1999/02/22-rdf-syntax-ns#"
   xmlns:cc="http://creativecommons.org/ns#"
   xmlns:dc="http://purl.org/dc/elements/1.1/">
  <sodipodi:namedview
     id="namedview58"
     pagecolor="#ffffff"
     bordercolor="#666666"
     borderopacity="1.0"
     inkscape:pageshadow="2"
     inkscape:pageopacity="0.0"
     inkscape:pagecheckerboard="0"
     showgrid="false"
     inkscape:zoom="0.42773438"
     inkscape:cx="64.292237"
     inkscape:cy="292.23744"
     inkscape:window-width="1366"
     inkscape:window-height="706"
     inkscape:window-x="0"
     inkscape:window-y="0"
     inkscape:window-maximized="1"
     inkscape:current-layer="svg2" />
  <metadata
     id="metadata105">
    <rdf:RDF>
      <cc:Work
         rdf:about="">
        <dc:format>image/svg+xml</dc:format>
        <dc:type
           rdf:resource="http://purl.org/dc/dcmitype/StillImage" />
      </cc:Work>
    </rdf:RDF>
  </metadata>
  <defs
     id="defs4">
    <filter
       color-interpolation-filters="sRGB"
       id="7"
       x="-0.018107638"
       y="-0.017892786"
       width="1.0362153"
       height="1.0357856">
      <feGaussianBlur
         id="feGaussianBlur7"
         stdDeviation="3.7725" />
    </filter>
    <linearGradient
       y1="19.563999"
       x2="0"
       y2="504.01999"
       id="8"
       gradientUnits="userSpaceOnUse">
      <stop
         id="stop10"
         style="stop-color:#f3f3f3;stop-opacity:1"
         offset="0" />
      <stop
         id="stop12"
         style="stop-color:#eeeeee;stop-opacity:1"
         offset="0.5" />
      <stop
         id="stop14"
         style="stop-color:#ebebeb;stop-opacity:1"
         offset="1" />
    </linearGradient>
    <linearGradient
       x1="257"
       x2="362"
       id="5"
       xlink:href="#0"
       gradientUnits="userSpaceOnUse"
       gradientTransform="matrix(1.02835,0,0,1.46193,-393.93068,-118.24)" />
    <linearGradient
       x1="257"
       x2="362"
       id="6"
       xlink:href="#0"
       gradientUnits="userSpaceOnUse"
       gradientTransform="matrix(1.0381,0,0,1.46193,-505.44068,-118.25)" />
    <linearGradient
       x1="257"
       x2="362"
       id="4"
       xlink:href="#0"
       gradientUnits="userSpaceOnUse"
       gradientTransform="matrix(1.02835,0,0,1.46193,-462.78068,-118.24)" />
    <linearGradient
       x1="257"
       x2="362"
       id="3"
       xlink:href="#0"
       gradientUnits="userSpaceOnUse"
       gradientTransform="matrix(1.0381,0,0,1.46193,-465.27968,-118.24)" />
    <linearGradient
       id="0">
      <stop
         id="stop21"
         style="stop-color:#000000;stop-opacity:1"
         offset="0" />
      <stop
         id="stop23"
         style="stop-color:#ffffff;stop-opacity:1"
         offset="1" />
    </linearGradient>
    <linearGradient
       x1="257"
       x2="362"
       id="2"
       xlink:href="#0"
       gradientUnits="userSpaceOnUse"
       gradientTransform="matrix(1.0381,0,0,1.46193,-465.28068,-118.24)" />
    <linearGradient
       x1="257"
       x2="362"
       id="1"
       xlink:href="#0"
       gradientUnits="userSpaceOnUse"
       gradientTransform="matrix(1.0381,0,0,1.46193,-533.8973,-83.034521)" />
    <linearGradient
       id="0-3"
       y1="547.32001"
       x2="0"
       y2="500.66"
       gradientUnits="userSpaceOnUse"
       gradientTransform="matrix(9.7029468,0,0,8.9700761,-4785.8382,-4557.9403)">
      <stop
         stop-color="#0d5ec2"
         id="stop7" />
      <stop
         offset="1"
         stop-color="#38b2fa"
         id="stop9" />
    </linearGradient>
    <linearGradient
       inkscape:collect="always"
       xlink:href="#0-3"
       id="linearGradient889"
       x1="38.5"
       y1="256"
       x2="473.5"
       y2="256"
       gradientUnits="userSpaceOnUse"
       gradientTransform="matrix(1.102616,0,0,1.1026162,-538.55976,-25.979724)" />
  </defs>
  <rect
     width="479.638"
     height="479.638"
     rx="239.819"
     x="-496.10901"
     y="16.471001"
     id="rect45"
     style="fill:url(#linearGradient889);fill-opacity:1;stroke-width:1.10261"
     transform="rotate(-90)"
     ry="239.819" />
  <text
     x="166.40471"
     y="217.70952"
     id="text51"
     style="font-size:142.49px;line-height:125%;font-family:'Gentium Book Basic';letter-spacing:0;word-spacing:0;stroke-width:1.10261"><tspan
       x="166.40471"
       y="217.70952"
       id="tspan53"
       style="stroke-width:1.10261" /></text>
  <text
     x="258.76981"
     y="488.62183"
     transform="scale(4.0128206,0.24920127)"
     id="text55"
     style="font-size:51.772px;font-family:Arial;text-anchor:middle;stroke-width:1.10261" />
  <text
     x="807.32245"
     y="129.50024"
     id="text57"
     style="font-size:142.49px;line-height:125%;font-family:'Gentium Book Basic';letter-spacing:0;word-spacing:0;stroke-width:1.10261"><tspan
       x="807.32245"
       y="129.50024"
       id="tspan59"
       style="stroke-width:1.10261" /></text>
  <text
     x="418.48294"
     y="134.66193"
     transform="scale(4.0128206,0.24920127)"
     id="text61"
     style="font-size:51.772px;font-family:Arial;text-anchor:middle;stroke-width:1.10261" />
  <text
     x="-374.21893"
     y="-70.359962"
     id="text63"
     style="font-size:142.49px;line-height:125%;font-family:'Gentium Book Basic';letter-spacing:0;word-spacing:0;stroke-width:1.10261"><tspan
       x="-374.21893"
       y="-70.359962"
       id="tspan65"
       style="stroke-width:1.10261" /></text>
  <text
     x="124.04184"
     y="-667.33282"
     transform="scale(4.0128206,0.24920127)"
     id="text67"
     style="font-size:51.772px;font-family:Arial;text-anchor:middle;stroke-width:1.10261" />
  <text
     x="836.50854"
     y="-309.04333"
     id="text69"
     style="font-size:142.49px;line-height:125%;font-family:'Gentium Book Basic';letter-spacing:0;word-spacing:0;stroke-width:1.10261"><tspan
       x="836.50854"
       y="-309.04333"
       id="tspan71"
       style="stroke-width:1.10261" /></text>
  <text
     x="425.76019"
     y="-1625.1377"
     transform="scale(4.0128206,0.24920127)"
     id="text73"
     style="font-size:51.772px;font-family:Arial;text-anchor:middle;stroke-width:1.10261" />
  <text
     x="1477.4261"
     y="-397.26358"
     id="text75"
     style="font-size:142.49px;line-height:125%;font-family:'Gentium Book Basic';letter-spacing:0;word-spacing:0;stroke-width:1.10261"><tspan
       x="1477.4261"
       y="-397.26358"
       id="tspan77"
       style="stroke-width:1.10261" /></text>
  <text
     x="585.47327"
     y="-1979.1085"
     transform="scale(4.0128206,0.24920127)"
     id="text79"
     style="font-size:51.772px;font-family:Arial;text-anchor:middle;stroke-width:1.10261" />
  <text
     x="1048.3763"
     y="-918.13953"
     id="text81"
     style="font-size:142.49px;line-height:125%;font-family:'Gentium Book Basic';letter-spacing:0;word-spacing:0;stroke-width:1.10261"><tspan
       x="1048.3763"
       y="-918.13953"
       id="tspan83"
       style="stroke-width:1.10261" /></text>
  <text
     x="478.5531"
     y="-4069.272"
     transform="scale(4.0128206,0.24920127)"
     id="text85"
     style="font-size:51.772px;font-family:Arial;text-anchor:middle;stroke-width:1.10261" />
  <text
     x="1689.2828"
     y="-1006.3486"
     id="text87"
     style="font-size:142.49px;line-height:125%;font-family:'Gentium Book Basic';letter-spacing:0;word-spacing:0;stroke-width:1.10261"><tspan
       x="1689.2828"
       y="-1006.3486"
       id="tspan89"
       style="stroke-width:1.10261" /></text>
  <text
     x="638.2663"
     y="-4423.2441"
     transform="scale(4.0128206,0.24920127)"
     id="text91"
     style="font-size:51.772px;font-family:Arial;text-anchor:middle;stroke-width:1.10261" />
  <text
     x="-331.59186"
     y="553.54431"
     id="text93"
     style="font-size:229.708px;line-height:125%;font-family:'Gentium Book Basic';letter-spacing:0;word-spacing:0;stroke-width:1.10261"><tspan
       x="-331.59186"
       y="553.54431"
       id="tspan95"
       style="stroke-width:1.10261" /></text>
  <g
     transform="matrix(1.0634835,0,0,1.0103178,569.98629,0.42730765)"
     id="g97"
     style="color:#000000;fill:#ffffff;fill-rule:evenodd">
    <path
       d="m -300.14792,109.16486 c -20.01,0 -39.1,3.707 -56.774,10.303 48.638,0.84 76.09,5.813 100.99,19.232 2.075,1.118 4.142,2.282 6.192,3.52 6.15,3.714 12.266,7.998 18.576,12.878 27.2,21.04 29.575,46.635 52.675,66.19 14.06,11.908 12.16,10.904 18.663,10.904 7.117,0 10.741,-6.333 12.471,-13.222 -20.71,-63.66 -81.28,-109.81 -152.79,-109.81 m -64.36,29.02 c -3.401,0 -6.79,0.361 -10.116,1.03 -1.109,0.223 -2.216,0.483 -3.314,0.773 -30.75,8.11 -57.06,41.505 -65.67,56.836 -0.547,0.975 -1.168,2.121 -1.744,3.177 -4.57,9.554 -8.25,19.567 -10.814,30.05 2.462,-3.101 4.858,-6.01 7.238,-8.757 16.662,-19.217 31.909,-29.62 53.808,-29.62 39.07,0 44.04,17.14 115.64,63.1 35.24,22.622 88.71,53.819 132.82,58.47 1.809,-5.84 3.243,-11.839 4.361,-17.944 -16.502,-1.173 -31.367,-7.366 -47.44,-17.858 -2.296,-1.499 -4.623,-3.048 -6.977,-4.722 -18.828,-13.391 -39.754,-32.32 -66.977,-55.806 -20.728,-17.88 -72.862,-78.73 -100.81,-78.73 m -55.989,180.38 c -12.389,0 -21.634,6.182 -22.675,20.09 17.369,33.569 46.539,60.2 82.15,74.61 -0.472,-0.65 -0.92,-1.335 -1.395,-2.061 -3.326,-5.077 -6.541,-11.944 -6.541,-19.833 0,-9.177 6.03,-12.792 12.82,-12.792 9.04,0 38.899,13.994 88.87,13.994 24.993,0 56.17,-3.604 79.01,-12.277 9.02,-8.646 16.957,-18.327 23.721,-28.847 -14.598,5.826 -41.592,14.252 -76.74,14.252 -67.91,0 -129.84,-28.536 -147.73,-37.691 -4.746,-2.428 -16.912,-9.444 -31.483,-9.444"
       inkscape:connector-curvature="0"
       id="path99"
       style="opacity:0.2;fill:#ffffff" />
    <path
       d="m -292.56492,90.452857 c -20.01,0 -39.1,3.707 -56.774,10.303003 48.638,0.84 76.09,5.813 100.99,19.232 2.075,1.118 4.142,2.282 6.192,3.52 6.15,3.714 12.266,7.998 18.576,12.878 27.2,21.04 29.575,46.635 52.675,66.19 14.06,11.908 12.16,10.904 18.663,10.904 7.117,0 10.741,-6.333 12.471,-13.222 -20.71,-63.66 -81.28,-109.810003 -152.79,-109.810003 m -64.36,29.020003 c -3.401,0 -6.79,0.361 -10.116,1.03 -1.109,0.223 -2.216,0.483 -3.314,0.773 -30.75,8.11 -57.06,41.505 -65.67,56.836 -0.547,0.975 -1.168,2.121 -1.744,3.177 -4.57,9.554 -8.25,19.567 -10.814,30.05 2.462,-3.101 4.858,-6.01 7.238,-8.757 16.662,-19.217 31.909,-29.62 53.808,-29.62 39.07,0 44.04,17.14 115.64,63.1 35.24,22.622 88.71,53.819 132.82,58.47 1.809,-5.84 3.243,-11.839 4.361,-17.944 -16.502,-1.173 -31.367,-7.366 -47.44,-17.858 -2.296,-1.499 -4.623,-3.048 -6.977,-4.722 -18.828,-13.391 -39.754,-32.32 -66.977,-55.806 -20.728,-17.88 -72.862,-78.73 -100.81,-78.73 m -55.989,180.38 c -12.389,0 -21.634,6.182 -22.675,20.09 17.369,33.569 46.539,60.2 82.15,74.61 -0.472,-0.65 -0.92,-1.335 -1.395,-2.061 -3.326,-5.077 -6.541,-11.944 -6.541,-19.833 0,-9.177 6.03,-12.792 12.82,-12.792 9.04,0 38.899,13.994 88.87,13.994 24.993,0 56.17,-3.604 79.01,-12.277 9.02,-8.646 16.957,-18.327 23.721,-28.847 -14.598,5.826 -41.592,14.252 -76.74,14.252 -67.91,0 -129.84,-28.536 -147.73,-37.691 -4.746,-2.428 -16.912,-9.444 -31.483,-9.444"
       inkscape:connector-curvature="0"
       id="path101"
       style="fill:#ffffff" />
  </g>
</svg>
