<?xml version="1.0" encoding="UTF-8" standalone="no"?>
<!-- Created with Inkscape (http://www.inkscape.org/) -->

<svg
   version="1.1"
   width="100%"
   height="100%"
   viewBox="0 0 512 512"
   id="svg2"
   sodipodi:docname="distributor-logo-manjaro (copy).svg"
   inkscape:version="1.1 (c68e22c387, 2021-05-23)"
   xmlns:inkscape="http://www.inkscape.org/namespaces/inkscape"
   xmlns:sodipodi="http://sodipodi.sourceforge.net/DTD/sodipodi-0.dtd"
   xmlns:xlink="http://www.w3.org/1999/xlink"
   xmlns="http://www.w3.org/2000/svg"
   xmlns:svg="http://www.w3.org/2000/svg"
   xmlns:rdf="http://www.w3.org/1999/02/22-rdf-syntax-ns#"
   xmlns:cc="http://creativecommons.org/ns#"
   xmlns:dc="http://purl.org/dc/elements/1.1/">
  <sodipodi:namedview
     id="namedview39"
     pagecolor="#ffffff"
     bordercolor="#666666"
     borderopacity="1.0"
     inkscape:pageshadow="2"
     inkscape:pageopacity="0.0"
     inkscape:pagecheckerboard="0"
     showgrid="false"
     inkscape:zoom="0.60490776"
     inkscape:cx="114.89355"
     inkscape:cy="352.1198"
     inkscape:window-width="1366"
     inkscape:window-height="706"
     inkscape:window-x="0"
     inkscape:window-y="0"
     inkscape:window-maximized="1"
     inkscape:current-layer="svg2" />
  <metadata
     id="metadata65">
    <rdf:RDF>
      <cc:Work
         rdf:about="">
        <dc:format>image/svg+xml</dc:format>
        <dc:type
           rdf:resource="http://purl.org/dc/dcmitype/StillImage" />
      </cc:Work>
    </rdf:RDF>
  </metadata>
  <defs
     id="defs4">
    <filter
       color-interpolation-filters="sRGB"
       id="7"
       x="-0.018107638"
       y="-0.017892786"
       width="1.0362153"
       height="1.0357856">
      <feGaussianBlur
         id="feGaussianBlur7"
         stdDeviation="3.7725" />
    </filter>
    <linearGradient
       y1="19.563999"
       x2="0"
       y2="504.01999"
       id="8"
       gradientUnits="userSpaceOnUse">
      <stop
         id="stop10"
         style="stop-color:#f3f3f3;stop-opacity:1"
         offset="0" />
      <stop
         id="stop12"
         style="stop-color:#eeeeee;stop-opacity:1"
         offset="0.5" />
      <stop
         id="stop14"
         style="stop-color:#ebebeb;stop-opacity:1"
         offset="1" />
    </linearGradient>
    <linearGradient
       x1="257"
       x2="362"
       id="5"
       xlink:href="#0"
       gradientUnits="userSpaceOnUse"
       gradientTransform="matrix(1.02835,0,0,1.46193,-383.73694,-115.70205)" />
    <linearGradient
       x1="257"
       x2="362"
       id="6"
       xlink:href="#0"
       gradientUnits="userSpaceOnUse"
       gradientTransform="matrix(1.0381,0,0,1.46193,-467.2489,-124.14041)" />
    <linearGradient
       x1="257"
       x2="362"
       id="4"
       xlink:href="#0"
       gradientUnits="userSpaceOnUse"
       gradientTransform="matrix(1.02835,0,0,1.46193,-610.00374,-127.97146)" />
    <linearGradient
       x1="257"
       x2="362"
       id="3"
       xlink:href="#0"
       gradientUnits="userSpaceOnUse"
       gradientTransform="matrix(1.0381,0,0,1.46193,-427.0919,-112.11041)" />
    <linearGradient
       id="0">
      <stop
         id="stop21"
         style="stop-color:#000000;stop-opacity:1"
         offset="0" />
      <stop
         id="stop23"
         style="stop-color:#ffffff;stop-opacity:1"
         offset="1" />
    </linearGradient>
    <linearGradient
       x1="257"
       x2="362"
       id="2"
       xlink:href="#0"
       gradientUnits="userSpaceOnUse"
       gradientTransform="matrix(1.0381,0,0,1.46193,-467.2489,-112.11041)" />
    <linearGradient
       x1="257"
       x2="362"
       id="1"
       xlink:href="#0"
       gradientUnits="userSpaceOnUse"
       gradientTransform="matrix(1.0381,0,0,1.46193,-467.2529,-112.11041)" />
    <linearGradient
       id="f"
       x1="86"
       x2="63"
       y1="19.458"
       y2="39"
       gradientTransform="matrix(9.9216009,0,0,9.0103275,-1163.4657,-121.67081)"
       gradientUnits="userSpaceOnUse">
      <stop
         stop-color="#007abb"
         offset="0"
         id="stop7" />
      <stop
         stop-color="#006caf"
         offset="1"
         id="stop9" />
    </linearGradient>
    <linearGradient
       id="d"
       x1="87"
       x2="63"
       y1="46"
       y2="24"
       gradientTransform="matrix(1.146,0,0,1.146,-57.378,-5.1691)"
       gradientUnits="userSpaceOnUse">
      <stop
         stop-color="#0080ce"
         offset="0"
         id="stop13" />
      <stop
         stop-color="#008fd5"
         offset="1"
         id="stop15" />
    </linearGradient>
    <linearGradient
       id="c"
       x1="86"
       x2="83"
       y1="44"
       y2="44"
       gradientTransform="matrix(1.146,0,0,1.146,-57.378,-5.1691)"
       gradientUnits="userSpaceOnUse"
       xlink:href="#a" />
    <linearGradient
       id="a">
      <stop
         offset="0"
         id="stop2" />
      <stop
         stop-opacity="0"
         offset="1"
         id="stop4" />
    </linearGradient>
    <linearGradient
       id="e"
       x1="86"
       x2="83"
       y1="20"
       y2="20"
       gradientTransform="matrix(1.146,0,0,1.146,-57.378,-5.1691)"
       gradientUnits="userSpaceOnUse"
       xlink:href="#a" />
    <linearGradient
       inkscape:collect="always"
       xlink:href="#c-3"
       id="linearGradient1386"
       x1="38.5"
       y1="256"
       x2="473.5"
       y2="256"
       gradientUnits="userSpaceOnUse"
       gradientTransform="matrix(1.1026161,0,0,1.1026163,-25.979702,-538.55976)" />
    <linearGradient
       gradientUnits="userSpaceOnUse"
       y2="533.06"
       x2="0"
       y1="541.15997"
       id="1-9"
       gradientTransform="matrix(1.49857,0,0,1.49857,100.4386,-473.61451)">
      <stop
         stop-color="#0976da"
         id="stop52" />
      <stop
         offset="1"
         stop-color="#5de5f0"
         id="stop54" />
    </linearGradient>
    <linearGradient
       id="c-3"
       x1="24.535"
       x2="24.535"
       y1="7.0931001"
       y2="44.483002"
       gradientTransform="matrix(1.4364,0,0,1.4364,1113.3157,-663.27108)"
       gradientUnits="userSpaceOnUse">
      <stop
         stop-color="#76dd38"
         offset="0"
         id="stop4-3" />
      <stop
         stop-color="#42c440"
         offset=".48433"
         id="stop6" />
      <stop
         stop-color="#14ab4b"
         offset="1"
         id="stop8" />
    </linearGradient>
    <linearGradient
       gradientUnits="userSpaceOnUse"
       y2="533.06"
       x2="0"
       y1="541.15997"
       id="1-9-6"
       gradientTransform="matrix(1.49857,0,0,1.49857,100.4386,-473.61451)">
      <stop
         stop-color="#0976da"
         id="stop52-7" />
      <stop
         offset="1"
         stop-color="#5de5f0"
         id="stop54-5" />
    </linearGradient>
    <linearGradient
       id="linearGradient964"
       x1="30"
       x2="30"
       y1="10"
       y2="70"
       gradientUnits="userSpaceOnUse"
       gradientTransform="matrix(6.5487011,0,0,7.3564859,50.990854,22.335002)">
      <stop
         offset="0"
         id="stop20" />
      <stop
         stop-opacity=".35"
         offset="1"
         id="stop22" />
    </linearGradient>
    <linearGradient
       id="0-3"
       x1="-22.705"
       x2="3.8789999"
       gradientUnits="userSpaceOnUse"
       gradientTransform="matrix(8.0230451,0,0,8.7063858,-178.1145,739.47176)">
      <stop
         stop-color="#d3d3d3"
         id="stop2-6" />
      <stop
         offset="1"
         stop-color="#fcf9f9"
         id="stop4-7" />
    </linearGradient>
    <linearGradient
       id="c-5"
       x1="32"
       x2="32"
       y1="11"
       y2="53"
       gradientTransform="matrix(7.7114267,0,0,7.3672598,6.861371,11.092257)"
       gradientUnits="userSpaceOnUse">
      <stop
         stop-color="#dcdede"
         offset="0"
         id="stop2-3" />
      <stop
         stop-color="#939493"
         offset="1"
         id="stop4-5" />
    </linearGradient>
    <linearGradient
       id="1-7"
       x1="115.93"
       y1="31.566999"
       x2="114.08"
       y2="-12.741"
       gradientUnits="userSpaceOnUse"
       gradientTransform="matrix(0.99999,0,0,0.99999,805.06954,-227.62799)">
      <stop
         stop-color="#4da70e"
         id="stop7-9" />
      <stop
         offset="1"
         stop-color="#9ded46"
         id="stop9-2" />
    </linearGradient>
  </defs>
  <rect
     width="479.638"
     height="479.638"
     rx="239.819"
     x="16.471001"
     y="-496.10901"
     id="rect33"
     style="fill:url(#linearGradient1386);fill-opacity:1;stroke-width:1.1026"
     ry="239.819"
     transform="rotate(90)" />
  <path
     d="m 162.31876,51.760948 v 45.403493 l 26.1948,29.425949 -0.561,-100.390159 c -9.33478,2.637654 -17.45967,5.934494 -25.73309,9.150414 z m 39.2922,0 V 141.3041 l 22.92046,25.7477 4.39994,-4.94267 h -7.67443 l -0.084,-143.116373 -19.58233,3.545221 z m 32.74351,0 V 156.01707 l 20.77183,-23.33404 h -1.12559 L 254.86764,16.497958 234.4664,17.32897 Z m 33.31743,-35.0034 -0.57392,102.476362 19.6461,-22.069469 0.55051,-78.780789 z m 32.16958,35.0034 v 51.495402 l -66.0502,74.19752 7.11124,7.98841 78.58441,-88.277839 0.28898,-72.167 c -6.62606,-2.032837 -13.25212,-3.406356 -19.87817,-4.604266 z m 32.74351,0 v 51.495402 l -87.98835,98.84175 -3.69641,-4.15237 -3.69642,4.15237 -12.67501,-14.23849 -12.67501,14.23849 -3.69642,-4.15237 -3.69641,4.15237 -87.98835,-98.84175 -4.1625,-38.668948 c -3.5017,1.020623 -25.824153,21.926203 -25.824153,21.926203 -7.788053,8.64749 -17.55981,19.214365 -24.771187,29.318355 -5.65324,7.7467 -20.313772,29.76398 -18.541006,32.12265 l 34.006638,30.56154 21.155579,23.76512 h 62.788289 l -48.91028,-54.94412 c -5.0177,-0.56803 -8.83732,-5.31215 -8.83813,-10.97734 -1e-5,-6.09432 4.39793,-11.03474 9.82305,-11.03474 5.42512,0 9.82306,4.94042 9.82305,11.03474 9.4e-4,0.70886 -0.0589,1.41616 -0.17878,2.11212 l 56.80213,63.80868 H 366.33568 L 415.6939,138.90302 442.95477,105.27909 426.51212,87.302081 359.27566,170.59917 H 338.12008 L 394.53845,99.289801 V 60.395322 C 386.37379,54.186567 374.57228,47.25779 365.07956,42.308286 l 0.24579,60.946664 -87.98835,98.84175 -9.26052,-10.4028 84.15081,-94.53086 0.41409,-60.752393 -20.02218,-7.610068 z M 144.98595,43.642595 c -8.69895,4.28075 -11.16075,6.395683 -15.72139,9.000244 l 0.31069,44.521751 78.58441,88.27784 7.11124,-7.98841 -13.65994,-15.34489 h -13.0974 v -14.71298 l -39.29221,-44.13892 0.30553,-61.954721 z m 2.72612,253.710525 -95.696153,84.84816 c 1.283559,2.04664 2.353874,4.0662 4.013678,6.1606 0.08623,0.1088 2.758089,4.55145 5.828551,8.81564 l 57.635244,-44.36349 v 15.83336 l -38.205119,28.62116 c 0.297966,1.04344 0.66895,2.04753 0.997629,3.07478 h 23.11233 l -1.25742,41.32803 c 12.65071,9.9938 28.53226,21.18496 39.97488,26.87246 l 3.59304,-91.96341 42.31051,-39.6132 h 21.15558 l -42.31051,39.6132 -3.02654,101.97704 c 9.11171,3.66646 18.32015,6.83687 27.67968,9.2323 l 1.54167,-61.80023 87.98835,-98.84175 3.69641,4.15236 3.69642,-4.15236 12.67501,14.23848 12.67501,-14.23848 3.69642,4.15236 3.69641,-4.15236 87.98835,98.84175 -0.78541,14.2862 c 5.34075,-5.01976 10.13707,-8.40592 14.97732,-14.01734 l -78.69662,-88.70854 9.26052,-10.40281 79.37306,88.69667 c 8.42597,-9.08953 15.54806,-18.48754 19.84667,-24.92386 l -60.60859,-77.72733 h -14.09477 l -14.10786,-15.84807 h -84.83843 l 1.54766,1.73855 -81.61647,91.68389 c 0.11985,0.69596 0.17972,1.40326 0.17878,2.11212 0,6.09431 -4.39793,11.03473 -9.82305,11.03473 -5.42512,0 -9.82305,-4.94042 -9.82305,-11.03473 8.1e-4,-5.66519 3.82042,-10.40932 8.83812,-10.97735 L 266.07016,297.3462 H 147.70893 Z m 139.02893,46.45253 -78.58441,88.27783 -0.54966,59.06592 c 6.28463,1.11694 12.51345,2.36403 18.9566,3.11131 l 1.23916,-68.26913 39.29221,-44.13892 v -14.71297 h 13.0974 l 13.65994,-15.3449 -7.11124,-7.9884 z m 32.74351,0 -7.11124,7.98841 66.0502,74.19752 0.44557,36.54009 c 14.62353,-8.64605 14.26521,-9.16515 18.86959,-12.44091 l 0.33095,-18.00728 -78.58442,-88.27783 z m -16.37175,18.39121 -22.92046,25.7477 -0.13924,106.95289 c 6.58196,-0.66464 13.00556,-1.5232 19.16623,-2.70371 l 0.61912,-125.06068 h 7.67442 l -4.39994,-4.94267 z m 9.82305,11.03473 0.36889,116.12968 19.7692,-5.84291 -0.49199,-86.95641 h 1.12559 l -20.77182,-23.33404 z m -45.84091,29.42594 -26.1948,29.42595 0.19332,63.51708 c 8.33699,0.58879 16.62324,0.63953 24.89562,0.54324 z m 78.58441,7.35649 0.43266,68.88195 12.4464,-5.55797 c 0.28066,0.007 5.22323,-3.05931 7.07701,-3.27457 l -0.30996,-37.97995 z"
     fill="url(#linearGradient964)"
     opacity="0.1"
     stroke-width="7.4746"
     id="path31"
     style="fill:url(#linearGradient964)"
     sodipodi:nodetypes="cccccccccccccccccccccccccccccccccccccccccccccccccccccsccccccccccccccccccccccccccccccccsccccccccccccccccccccccccccccccccccccscccccccccccccccccccccccccccccccccccccccccccccccccc" />
  <path
     d="m 161.09002,107.11 -3.85577,14.7345 h -3.85568 v 29.22425 h -30.84573 v 3.92842 l -15.42284,3.68361 15.42284,3.68369 v 3.43887 h 30.84573 v 14.73449 h -30.84573 v 3.92841 l -15.42284,3.6836 15.42284,3.68361 v 3.43886 h 30.84573 v 14.73457 h -30.84573 v 3.92835 l -15.42284,3.68368 15.42284,3.6836 v 3.43888 h 30.84573 v 14.73449 h -30.84573 v 3.92841 l -15.42284,3.68361 15.42284,3.68368 v 3.43888 h 30.84573 v 14.7345 h -30.84573 v 3.92842 l -15.42284,3.68359 15.42284,3.68361 v 3.43887 h 30.84573 v 14.73456 h -30.84573 v 3.92836 l -15.42284,3.6836 15.42284,3.68366 v 3.43889 h 30.84573 V 327.883 h -30.84573 v 3.92841 l -15.42284,3.68362 15.42284,3.6836 v 3.43894 h 30.84573 v 29.71374 h 3.85568 l 3.85577,14.73457 3.85568,-14.73457 h 3.85569 v -29.71374 h 15.42291 v 29.71374 h 3.8557 l 3.85568,14.73457 3.85576,-14.73457 h 3.85569 v -29.71374 h 15.42281 v 29.71374 h 3.85578 l 3.8557,14.73457 3.85569,-14.73457 h 3.85576 v -29.71374 h 15.42282 v 29.71374 h 3.8557 l 3.85567,14.73457 3.85576,-14.73457 h 3.85571 v -29.71374 h 15.4228 v 29.71374 h 3.85579 l 3.85569,14.73457 3.8557,-14.73457 h 3.85576 v -29.71374 h 15.4228 v 29.71374 h 3.8557 l 3.85578,14.73457 3.85567,-14.73457 h 3.8557 v -29.71374 h 15.4229 v 29.71374 h 3.8557 l 3.85567,14.73457 3.85577,-14.73457 h 3.8557 v -29.71374 h 30.84573 v -3.43894 l 15.42281,-3.6836 -15.42281,-3.68362 V 327.883 h -30.84573 v -14.73448 h 30.84573 v -3.43889 l 15.42281,-3.68366 -15.42281,-3.6836 v -3.92836 h -30.84573 v -14.73456 h 30.84573 v -3.43887 l 15.42281,-3.68361 -15.42281,-3.68359 v -3.92842 h -30.84573 v -14.7345 h 30.84573 v -3.43888 l 15.42281,-3.68368 -15.42281,-3.68361 v -3.92841 h -30.84573 v -14.73449 h 30.84573 v -3.43888 l 15.42281,-3.6836 -15.42281,-3.68368 v -3.92835 h -30.84573 v -14.73457 h 30.84573 v -3.43886 l 15.42281,-3.68361 -15.42281,-3.6836 v -3.92841 h -30.84573 v -14.73449 h 30.84573 v -3.43887 l 15.42281,-3.68369 -15.42281,-3.68361 v -3.92842 H 353.87566 V 121.8445 h -3.8557 l -3.85577,-14.7345 -3.85567,14.7345 h -3.8557 v 29.22425 h -15.4229 V 121.8445 h -3.8557 l -3.85567,-14.7345 -3.85578,14.7345 h -3.8557 v 29.22425 h -15.4228 V 121.8445 h -3.85576 l -3.8557,-14.7345 -3.85569,14.7345 h -3.85579 v 29.22425 h -15.4228 V 121.8445 h -3.85571 l -3.85576,-14.7345 -3.85567,14.7345 h -3.8557 v 29.22425 H 230.49287 V 121.8445 h -3.85576 l -3.85569,-14.7345 -3.8557,14.7345 h -3.85578 v 29.22425 H 199.64713 V 121.8445 h -3.85569 L 191.93568,107.11 188.08,121.8445 h -3.8557 v 29.22425 H 168.80139 V 121.8445 h -3.85569 z m 7.71137,58.69334 h 15.42291 v 14.73449 h -15.42291 z m 30.84574,0 h 15.42281 v 14.73449 h -15.42281 z m 30.84574,0 h 15.42282 v 14.73449 h -15.42282 z m 30.84566,0 h 15.4228 v 14.73449 h -15.4228 z m 30.84574,0 h 15.4228 v 14.73449 h -15.4228 z m 30.84565,0 h 15.4229 v 14.73449 h -15.4229 z m -154.22853,29.46897 h 15.42291 v 14.73457 h -15.42291 z m 30.84574,0 h 15.42281 v 14.73457 h -15.42281 z m 30.84574,0 h 15.42282 v 14.73457 h -15.42282 z m 30.84566,0 h 15.4228 v 14.73457 h -15.4228 z m 30.84574,0 h 15.4228 v 14.73457 h -15.4228 z m 30.84565,0 h 15.4229 v 14.73457 h -15.4229 z m -154.22853,29.46908 h 15.42291 v 14.73449 h -15.42291 z m 30.84574,0 h 15.42281 v 14.73449 h -15.42281 z m 30.84574,0 h 15.42282 v 14.73449 h -15.42282 z m 30.84566,0 h 15.4228 v 14.73449 h -15.4228 z m 30.84574,0 h 15.4228 v 14.73449 h -15.4228 z m 30.84565,0 h 15.4229 v 14.73449 h -15.4229 z m -154.22853,29.46907 h 15.42291 v 14.7345 h -15.42291 z m 30.84574,0 h 15.42281 v 14.7345 h -15.42281 z m 30.84574,0 h 15.42282 v 14.7345 h -15.42282 z m 30.84566,0 h 15.4228 v 14.7345 h -15.4228 z m 30.84574,0 h 15.4228 v 14.7345 h -15.4228 z m 30.84565,0 h 15.4229 v 14.7345 h -15.4229 z m -154.22853,29.46899 h 15.42291 v 14.73456 h -15.42291 z m 30.84574,0 h 15.42281 v 14.73456 h -15.42281 z m 30.84574,0 h 15.42282 v 14.73456 h -15.42282 z m 30.84566,0 h 15.4228 v 14.73456 h -15.4228 z m 30.84574,0 h 15.4228 v 14.73456 h -15.4228 z m 30.84565,0 h 15.4229 v 14.73456 h -15.4229 z M 168.80139,313.14852 H 184.2243 V 327.883 h -15.42291 z m 30.84574,0 h 15.42281 V 327.883 h -15.42281 z m 30.84574,0 h 15.42282 V 327.883 h -15.42282 z m 30.84566,0 h 15.4228 V 327.883 h -15.4228 z m 30.84574,0 h 15.4228 V 327.883 h -15.4228 z m 30.84565,0 h 15.4229 V 327.883 h -15.4229 z"
     fill="url(#c)"
     id="path33"
     style="fill:url(#c-5);stroke-width:7.53739" />
  <rect
     x="-360.27798"
     y="-369.46078"
     width="213.29266"
     height="231.45926"
     transform="matrix(0,-1,-1,0,0,0)"
     rx="10.662628"
     ry="14.470015"
     fill="url(#0)"
     id="rect16"
     style="fill:url(#0-3);stroke-width:8.35773" />
  <path
     d="m 323.8393,235.71999 c -6.66037,-28.77863 -69.48567,-30.59988 -109.97042,-8.67284 v 2.4229 c 40.44122,-18.50108 97.82497,-18.38884 103.04885,8.12735 1.75863,8.78524 -3.77859,17.91547 -13.72131,23.17055 v 6.87574 c 11.96261,-3.89114 24.18632,-16.47934 20.64288,-31.91567 m -73.63866,50.39278 c -27.94752,2.2946 -57.06162,-1.3158 -61.11883,-20.74757 -2.02851,-9.57151 2.89925,-19.72871 9.4029,-26.02679 v -3.37772 c -11.71873,9.14628 -18.09188,20.71555 -14.40904,34.37877 4.69272,17.53036 29.68002,27.45489 67.83144,24.14936 15.10556,-1.29172 34.91261,-5.6161 48.59031,-12.33138 v -9.53943 c -12.46749,6.61901 -33.08426,12.08269 -50.27065,13.49476 z"
     id="path18"
     style="fill:#6bc123;fill-opacity:1;stroke-width:8.35773" />
  <path
     d="m 303.72752,231.0105 h -7.73126 v 29.95 c 0,3.51415 1.94154,6.57888 7.73126,7.06027"
     id="path20"
     style="fill:#6bc123;fill-opacity:1;stroke-width:8.35773" />
  <path
     d="m 211.614,241.95397 h -7.73128 v 19.56013 c 0,3.52215 1.94147,6.57888 7.73128,7.06028"
     id="path22"
     style="fill:#6bc123;fill-opacity:1;stroke-width:8.35773" />
  <path
     d="m 203.86531,231.92513 h 7.73126 v 6.37027 h -7.73126 z"
     id="path24"
     style="fill:#6bc123;fill-opacity:1;stroke-width:8.35773" />
  <path
     d="m 257.93191,268.26147 c -6.26858,0 -8.91534,-3.78682 -8.91534,-7.52561 V 234.7573 h 7.64427 v 7.19667 h 5.78973 v 5.38343 h -5.78973 v 12.9973 c 0,1.53243 0.84453,2.36683 2.67281,2.36683 h 3.11692 v 5.55994 h -4.52736"
     id="path26"
     style="fill:#6bc123;fill-opacity:1;stroke-width:8.35773" />
  <path
     d="m 278.21782,247.01648 c -2.61195,0 -4.64048,1.17941 -5.48499,2.76798 -0.50499,0.95475 -0.67913,1.68478 -0.75747,2.86418 h 11.84063 c -0.16542,-2.88023 -1.66287,-5.63216 -5.59817,-5.63216 m -6.24246,10.16522 c 0,3.40977 2.47253,5.92099 6.79965,5.92099 3.40423,0 5.09322,-0.82639 7.06086,-2.51122 l 4.72763,3.93934 c -3.03858,2.59941 -6.21642,4.17194 -11.8407,4.17194 -7.33949,0 -14.36553,-3.48195 -14.36553,-13.63113 0,-8.67291 6.12926,-13.57495 14.20009,-13.57495 8.18398,0 12.87679,5.73643 12.87679,13.27811 v 2.3989 h -19.4588"
     id="path28"
     style="fill:#6bc123;fill-opacity:1;stroke-width:8.35773" />
  <path
     d="m 232.4222,247.34542 c 2.24628,0 3.17786,0.96278 3.17786,2.52728 v 18.42889 h 7.67903 v -18.45295 c 0,-3.7468 -2.30722,-7.88666 -9.02853,-7.88666 h -15.82819 v 26.33961 h 7.64418 v -20.95617"
     id="path30"
     style="fill:#6bc123;fill-opacity:1;stroke-width:8.35773" />
</svg>
