<?xml version="1.0" encoding="UTF-8" standalone="no"?>
<!-- Created with Inkscape (http://www.inkscape.org/) -->

<svg
   version="1.1"
   width="100%"
   height="100%"
   viewBox="0 0 512 512"
   id="svg2"
   sodipodi:docname="wps-office-wpsmain (5th copy).svg"
   inkscape:version="1.1 (c68e22c387, 2021-05-23)"
   xmlns:inkscape="http://www.inkscape.org/namespaces/inkscape"
   xmlns:sodipodi="http://sodipodi.sourceforge.net/DTD/sodipodi-0.dtd"
   xmlns:xlink="http://www.w3.org/1999/xlink"
   xmlns="http://www.w3.org/2000/svg"
   xmlns:svg="http://www.w3.org/2000/svg"
   xmlns:rdf="http://www.w3.org/1999/02/22-rdf-syntax-ns#"
   xmlns:cc="http://creativecommons.org/ns#"
   xmlns:dc="http://purl.org/dc/elements/1.1/">
  <sodipodi:namedview
     id="namedview39"
     pagecolor="#ffffff"
     bordercolor="#666666"
     borderopacity="1.0"
     inkscape:pageshadow="2"
     inkscape:pageopacity="0.0"
     inkscape:pagecheckerboard="0"
     showgrid="false"
     inkscape:zoom="0.60490773"
     inkscape:cx="200.85708"
     inkscape:cy="130.59843"
     inkscape:window-width="1366"
     inkscape:window-height="706"
     inkscape:window-x="0"
     inkscape:window-y="0"
     inkscape:window-maximized="1"
     inkscape:current-layer="svg2" />
  <metadata
     id="metadata65">
    <rdf:RDF>
      <cc:Work
         rdf:about="">
        <dc:format>image/svg+xml</dc:format>
        <dc:type
           rdf:resource="http://purl.org/dc/dcmitype/StillImage" />
      </cc:Work>
    </rdf:RDF>
  </metadata>
  <defs
     id="defs4">
    <filter
       color-interpolation-filters="sRGB"
       id="7"
       x="-0.018107638"
       y="-0.017892786"
       width="1.0362153"
       height="1.0357856">
      <feGaussianBlur
         id="feGaussianBlur7"
         stdDeviation="3.7725" />
    </filter>
    <linearGradient
       y1="19.563999"
       x2="0"
       y2="504.01999"
       id="8"
       gradientUnits="userSpaceOnUse">
      <stop
         id="stop10"
         style="stop-color:#f3f3f3;stop-opacity:1"
         offset="0" />
      <stop
         id="stop12"
         style="stop-color:#eeeeee;stop-opacity:1"
         offset="0.5" />
      <stop
         id="stop14"
         style="stop-color:#ebebeb;stop-opacity:1"
         offset="1" />
    </linearGradient>
    <linearGradient
       x1="257"
       x2="362"
       id="5"
       xlink:href="#0"
       gradientUnits="userSpaceOnUse"
       gradientTransform="matrix(1.02835,0,0,1.46193,-383.73694,-115.70205)" />
    <linearGradient
       x1="257"
       x2="362"
       id="6"
       xlink:href="#0"
       gradientUnits="userSpaceOnUse"
       gradientTransform="matrix(1.0381,0,0,1.46193,-467.2489,-124.14041)" />
    <linearGradient
       x1="257"
       x2="362"
       id="4"
       xlink:href="#0"
       gradientUnits="userSpaceOnUse"
       gradientTransform="matrix(1.02835,0,0,1.46193,-610.00374,-127.97146)" />
    <linearGradient
       x1="257"
       x2="362"
       id="3"
       xlink:href="#0"
       gradientUnits="userSpaceOnUse"
       gradientTransform="matrix(1.0381,0,0,1.46193,-427.0919,-112.11041)" />
    <linearGradient
       id="0">
      <stop
         id="stop21"
         style="stop-color:#000000;stop-opacity:1"
         offset="0" />
      <stop
         id="stop23"
         style="stop-color:#ffffff;stop-opacity:1"
         offset="1" />
    </linearGradient>
    <linearGradient
       x1="257"
       x2="362"
       id="2"
       xlink:href="#0"
       gradientUnits="userSpaceOnUse"
       gradientTransform="matrix(1.0381,0,0,1.46193,-467.2489,-112.11041)" />
    <linearGradient
       x1="257"
       x2="362"
       id="1"
       xlink:href="#0"
       gradientUnits="userSpaceOnUse"
       gradientTransform="matrix(1.0381,0,0,1.46193,-467.2529,-112.11041)" />
    <linearGradient
       id="f"
       x1="86"
       x2="63"
       y1="19.458"
       y2="39"
       gradientTransform="matrix(9.9216009,0,0,9.0103275,-1163.4657,-121.67081)"
       gradientUnits="userSpaceOnUse">
      <stop
         stop-color="#007abb"
         offset="0"
         id="stop7" />
      <stop
         stop-color="#006caf"
         offset="1"
         id="stop9" />
    </linearGradient>
    <linearGradient
       id="d"
       x1="87"
       x2="63"
       y1="46"
       y2="24"
       gradientTransform="matrix(1.146,0,0,1.146,-57.378,-5.1691)"
       gradientUnits="userSpaceOnUse">
      <stop
         stop-color="#0080ce"
         offset="0"
         id="stop13" />
      <stop
         stop-color="#008fd5"
         offset="1"
         id="stop15" />
    </linearGradient>
    <linearGradient
       id="c"
       x1="86"
       x2="83"
       y1="44"
       y2="44"
       gradientTransform="matrix(1.146,0,0,1.146,-57.378,-5.1691)"
       gradientUnits="userSpaceOnUse"
       xlink:href="#a" />
    <linearGradient
       id="a">
      <stop
         offset="0"
         id="stop2" />
      <stop
         stop-opacity="0"
         offset="1"
         id="stop4" />
    </linearGradient>
    <linearGradient
       id="e"
       x1="86"
       x2="83"
       y1="20"
       y2="20"
       gradientTransform="matrix(1.146,0,0,1.146,-57.378,-5.1691)"
       gradientUnits="userSpaceOnUse"
       xlink:href="#a" />
    <linearGradient
       inkscape:collect="always"
       xlink:href="#a-5"
       id="linearGradient1386"
       x1="38.5"
       y1="256"
       x2="473.5"
       y2="256"
       gradientUnits="userSpaceOnUse"
       gradientTransform="matrix(1.1007902,0,0,1.1039575,-539.1613,-538.50601)" />
    <linearGradient
       gradientUnits="userSpaceOnUse"
       y2="533.06"
       x2="0"
       y1="541.15997"
       id="1-9"
       gradientTransform="matrix(1.49857,0,0,1.49857,100.4386,-473.61451)">
      <stop
         stop-color="#0976da"
         id="stop52" />
      <stop
         offset="1"
         stop-color="#5de5f0"
         id="stop54" />
    </linearGradient>
    <linearGradient
       id="c-3"
       x1="24.535"
       x2="24.535"
       y1="7.0931001"
       y2="44.483002"
       gradientTransform="matrix(1.4364,0,0,1.4364,1113.3157,-663.27108)"
       gradientUnits="userSpaceOnUse">
      <stop
         stop-color="#76dd38"
         offset="0"
         id="stop4-3" />
      <stop
         stop-color="#42c440"
         offset=".48433"
         id="stop6" />
      <stop
         stop-color="#14ab4b"
         offset="1"
         id="stop8" />
    </linearGradient>
    <linearGradient
       gradientUnits="userSpaceOnUse"
       y2="533.06"
       x2="0"
       y1="541.15997"
       id="1-9-6"
       gradientTransform="matrix(1.49857,0,0,1.49857,100.4386,-473.61451)">
      <stop
         stop-color="#0976da"
         id="stop52-7" />
      <stop
         offset="1"
         stop-color="#5de5f0"
         id="stop54-5" />
    </linearGradient>
    <linearGradient
       id="2-3"
       gradientUnits="userSpaceOnUse"
       y1="542.20001"
       x2="0"
       y2="526.20001"
       gradientTransform="matrix(16.218891,-6.4141578,7.1895904,14.331381,-10274.105,-4767.1645)">
      <stop
         stop-color="#e3e3e3"
         id="stop2-6" />
      <stop
         offset="1"
         stop-color="#fffcff"
         id="stop4-7" />
    </linearGradient>
    <linearGradient
       id="linearGradient1005"
       x1="2.9667001"
       x2="16.101"
       y1="14.069"
       y2="0.93425"
       gradientTransform="matrix(0.91665,0,0,0.91665,0.038973,1.3667)"
       gradientUnits="userSpaceOnUse">
      <stop
         stop-color="#ff7d50"
         offset="0"
         id="stop2-3" />
      <stop
         stop-color="#fa4b5a"
         offset=".51596"
         id="stop4-6" />
      <stop
         stop-color="#ff509b"
         offset="1"
         id="stop6-7" />
    </linearGradient>
    <linearGradient
       gradientTransform="translate(-15.075379,-16.895235)"
       gradientUnits="userSpaceOnUse"
       y2="34.944"
       x2="27.879"
       y1="8.1289997"
       x1="14.023"
       id="linearGradient4150"
       xlink:href="#linearGradient4144" />
    <linearGradient
       id="linearGradient4144">
      <stop
         id="stop7-3"
         offset="0"
         style="stop-color:#ffffff;stop-opacity:1;" />
      <stop
         id="stop9-1"
         offset="1"
         style="stop-color:#eea9a9;stop-opacity:1" />
    </linearGradient>
    <linearGradient
       id="0-3"
       gradientUnits="userSpaceOnUse"
       x1="24.610001"
       y1="47.592999"
       x2="23.593"
       y2="-0.20299999"
       gradientTransform="matrix(0.07862563,0,0,0.08113553,57.574478,15.575742)">
      <stop
         stop-color="#c52828"
         id="stop14-6" />
      <stop
         offset="1"
         stop-color="#ff5454"
         id="stop16" />
    </linearGradient>
    <linearGradient
       id="a-5"
       x2="0"
       y1="47"
       y2="1"
       gradientTransform="matrix(0.26458,0,0,0.26458,0,284.3)"
       gradientUnits="userSpaceOnUse">
      <stop
         stop-color="#fb5164"
         offset="0"
         id="stop2-35" />
      <stop
         stop-color="#ee4e8a"
         offset="1"
         id="stop4-62" />
    </linearGradient>
  </defs>
  <rect
     width="478.84375"
     height="480.22144"
     rx="239.42188"
     x="-496.78088"
     y="-496.0036"
     id="rect33"
     style="fill:url(#linearGradient1386);fill-opacity:1;stroke-width:1.10236"
     ry="240.11072"
     transform="scale(-1)" />
  <rect
     x="67.05117"
     y="68.639755"
     width="380.98926"
     height="382.4989"
     rx="190.49463"
     ry="191.24945"
     fill="#f9f9f9"
     opacity="0.25"
     stroke-linecap="round"
     stroke-linejoin="round"
     stroke-width="3.71585"
     id="rect4" />
  <path
     d="m 141.59256,143.47653 v 45.73355 a 4.1411877,4.1575968 0 0 0 4.14118,4.15759 4.1411877,4.1575968 0 0 0 4.1412,-4.15759 v -37.41837 h 37.27067 a 4.1411877,4.1575968 0 0 0 4.14121,-4.15759 4.1411877,4.1575968 0 0 0 -4.14121,-4.15759 z"
     color="#000000"
     fill="#ffffff"
     stroke-linecap="round"
     style="stroke-width:8.29877;-inkscape-stroke:none"
     id="path6" />
  <path
     d="m 327.94601,143.47653 a 4.1411877,4.1575968 0 0 0 -4.1412,4.15759 4.1411877,4.1575968 0 0 0 4.1412,4.15759 h 37.27069 v 37.41837 a 4.1411877,4.1575968 0 0 0 4.14118,4.15759 4.1411877,4.1575968 0 0 0 4.1412,-4.15759 v -45.73355 z"
     color="#000000"
     fill="#ffffff"
     stroke-linecap="round"
     style="stroke-width:8.29877;-inkscape-stroke:none"
     id="path8" />
  <path
     d="m 369.35788,326.41077 a 4.1411877,4.1575968 0 0 0 -4.14118,4.15759 v 37.41838 h -37.27069 a 4.1411877,4.1575968 0 0 0 -4.1412,4.15759 4.1411877,4.1575968 0 0 0 4.1412,4.15761 h 45.55307 v -45.73358 a 4.1411877,4.1575968 0 0 0 -4.1412,-4.15759 z"
     color="#000000"
     fill="#ffffff"
     stroke-linecap="round"
     style="stroke-width:8.29877;-inkscape-stroke:none"
     id="path10" />
  <path
     d="m 145.73374,326.41077 a 4.1411877,4.1575968 0 0 0 -4.14118,4.15759 v 45.73358 h 45.55305 a 4.1411877,4.1575968 0 0 0 4.14121,-4.15761 4.1411877,4.1575968 0 0 0 -4.14121,-4.15759 h -37.27067 v -37.41838 a 4.1411877,4.1575968 0 0 0 -4.1412,-4.15759 z"
     color="#000000"
     fill="#ffffff"
     stroke-linecap="round"
     style="stroke-width:8.29877;-inkscape-stroke:none"
     id="path12" />
  <path
     d="m 240.98106,218.31326 c -9.17687,0 -16.56476,7.41715 -16.56476,16.63038 v 49.89117 c 0,9.21323 7.38789,16.63039 16.56476,16.63039 h 66.259 c 9.17689,0 16.56475,-7.41716 16.56475,-16.63039 v -49.89117 c 0,-9.21323 -7.38786,-16.63038 -16.56475,-16.63038 z m -16.56476,41.57596 -24.84711,-33.26076 h -8.28237 V 293.15 h 8.28237 z m 49.19235,-33.26076 a 33.129501,33.260774 0 0 1 0.50192,0 33.129501,33.260774 0 0 1 33.12949,33.26076 33.129501,33.260774 0 0 1 -33.12949,33.26078 33.129501,33.260774 0 0 1 -33.12951,-33.26078 33.129501,33.260774 0 0 1 32.62759,-33.26076 z m 0.0969,16.63038 a 16.564751,16.630387 0 0 0 -16.16056,16.63038 16.564751,16.630387 0 0 0 16.56473,16.63038 16.564751,16.630387 0 0 0 16.56476,-16.63038 16.564751,16.630387 0 0 0 -16.56476,-16.63038 16.564751,16.630387 0 0 0 -0.40417,0 z"
     fill="#ffffff"
     id="path14"
     style="stroke-width:8.29877" />
</svg>
