<?xml version="1.0" encoding="UTF-8" standalone="no"?>
<!-- Created with Inkscape (http://www.inkscape.org/) -->

<svg
   version="1.1"
   width="100%"
   height="100%"
   viewBox="0 0 512 512"
   id="svg2"
   sodipodi:docname="web-twitter.svg"
   inkscape:version="1.1 (c68e22c387, 2021-05-23)"
   xmlns:inkscape="http://www.inkscape.org/namespaces/inkscape"
   xmlns:sodipodi="http://sodipodi.sourceforge.net/DTD/sodipodi-0.dtd"
   xmlns:xlink="http://www.w3.org/1999/xlink"
   xmlns="http://www.w3.org/2000/svg"
   xmlns:svg="http://www.w3.org/2000/svg"
   xmlns:rdf="http://www.w3.org/1999/02/22-rdf-syntax-ns#"
   xmlns:cc="http://creativecommons.org/ns#"
   xmlns:dc="http://purl.org/dc/elements/1.1/">
  <sodipodi:namedview
     id="namedview58"
     pagecolor="#ffffff"
     bordercolor="#666666"
     borderopacity="1.0"
     inkscape:pageshadow="2"
     inkscape:pageopacity="0.0"
     inkscape:pagecheckerboard="0"
     showgrid="false"
     inkscape:zoom="0.60490776"
     inkscape:cx="255.41084"
     inkscape:cy="249.62484"
     inkscape:window-width="1366"
     inkscape:window-height="706"
     inkscape:window-x="0"
     inkscape:window-y="0"
     inkscape:window-maximized="1"
     inkscape:current-layer="svg2" />
  <metadata
     id="metadata105">
    <rdf:RDF>
      <cc:Work
         rdf:about="">
        <dc:format>image/svg+xml</dc:format>
        <dc:type
           rdf:resource="http://purl.org/dc/dcmitype/StillImage" />
      </cc:Work>
    </rdf:RDF>
  </metadata>
  <defs
     id="defs4">
    <filter
       color-interpolation-filters="sRGB"
       id="7"
       x="-0.018107638"
       y="-0.017892786"
       width="1.0362153"
       height="1.0357856">
      <feGaussianBlur
         id="feGaussianBlur7"
         stdDeviation="3.7725" />
    </filter>
    <linearGradient
       y1="19.563999"
       x2="0"
       y2="504.01999"
       id="8"
       gradientUnits="userSpaceOnUse">
      <stop
         id="stop10"
         style="stop-color:#f3f3f3;stop-opacity:1"
         offset="0" />
      <stop
         id="stop12"
         style="stop-color:#eeeeee;stop-opacity:1"
         offset="0.5" />
      <stop
         id="stop14"
         style="stop-color:#ebebeb;stop-opacity:1"
         offset="1" />
    </linearGradient>
    <linearGradient
       x1="257"
       x2="362"
       id="5"
       xlink:href="#0"
       gradientUnits="userSpaceOnUse"
       gradientTransform="matrix(1.02835,0,0,1.46193,-475.30173,-105.6259)" />
    <linearGradient
       x1="257"
       x2="362"
       id="6"
       xlink:href="#0"
       gradientUnits="userSpaceOnUse"
       gradientTransform="matrix(1.0381,0,0,1.46193,-546.65173,-117.6559)" />
    <linearGradient
       x1="257"
       x2="362"
       id="4"
       xlink:href="#0"
       gradientUnits="userSpaceOnUse"
       gradientTransform="matrix(1.02835,0,0,1.46193,-525.92237,-72.007154)" />
    <linearGradient
       x1="257"
       x2="362"
       id="3"
       xlink:href="#0"
       gradientUnits="userSpaceOnUse"
       gradientTransform="matrix(1.0381,0,0,1.46193,-563.13027,-65.013577)" />
    <linearGradient
       id="0">
      <stop
         id="stop21"
         style="stop-color:#000000;stop-opacity:1"
         offset="0" />
      <stop
         id="stop23"
         style="stop-color:#ffffff;stop-opacity:1"
         offset="1" />
    </linearGradient>
    <linearGradient
       x1="257"
       x2="362"
       id="2"
       xlink:href="#0"
       gradientUnits="userSpaceOnUse"
       gradientTransform="matrix(1.0381,0,0,1.46193,-477.81173,-93.585901)" />
    <linearGradient
       x1="257"
       x2="362"
       id="1"
       xlink:href="#0"
       gradientUnits="userSpaceOnUse"
       gradientTransform="matrix(1.0381,0,0,1.46193,-477.81173,-105.6159)" />
    <linearGradient
       id="0-3"
       y1="546.28998"
       x2="0"
       y2="501.51001"
       gradientUnits="userSpaceOnUse"
       gradientTransform="matrix(1.07197,0,0,1.07197,362.95118,-323.55229)">
      <stop
         stop-color="#0a80fd"
         id="stop2" />
      <stop
         offset="1"
         stop-color="#56c5fa"
         id="stop4" />
    </linearGradient>
    <linearGradient
       inkscape:collect="always"
       xlink:href="#0-3"
       id="linearGradient1025"
       x1="38.5"
       y1="256"
       x2="473.5"
       y2="256"
       gradientUnits="userSpaceOnUse"
       gradientTransform="matrix(1.1026161,0,0,1.1026162,-538.55975,-25.979715)" />
  </defs>
  <rect
     width="479.638"
     height="479.638"
     rx="239.819"
     x="-496.10901"
     y="16.471001"
     id="rect33"
     style="fill:url(#linearGradient1025);fill-opacity:1;stroke-width:1.10261"
     transform="rotate(-90)"
     ry="239.819" />
  <text
     x="-375.858"
     y="220.18678"
     id="text39"
     style="font-size:124.66px;line-height:125%;font-family:'Gentium Book Basic';letter-spacing:0;word-spacing:0;stroke-width:0.964634"
     transform="scale(1.0284727,0.97231551)"><tspan
       x="-375.858"
       y="220.18678"
       id="tspan41"
       style="stroke-width:0.964634" /></text>
  <text
     x="96.448914"
     y="546.76282"
     transform="scale(4.1270767,0.24230226)"
     id="text43"
     style="font-size:45.2932px;font-family:Arial;text-anchor:middle;stroke-width:0.964627" />
  <text
     x="184.85387"
     y="143.01617"
     id="text45"
     style="font-size:124.66px;line-height:125%;font-family:'Gentium Book Basic';letter-spacing:0;word-spacing:0;stroke-width:0.964634"
     transform="scale(1.0284727,0.97231551)"><tspan
       x="184.85387"
       y="143.01617"
       id="tspan47"
       style="stroke-width:0.964634" /></text>
  <text
     x="236.17522"
     y="237.08862"
     transform="scale(4.1270767,0.24230226)"
     id="text49"
     style="font-size:45.2932px;font-family:Arial;text-anchor:middle;stroke-width:0.964627" />
  <text
     x="-848.82703"
     y="-31.833084"
     id="text51"
     style="font-size:124.66px;line-height:125%;font-family:'Gentium Book Basic';letter-spacing:0;word-spacing:0;stroke-width:0.964634"
     transform="scale(1.0284727,0.97231551)"><tspan
       x="-848.82703"
       y="-31.833084"
       id="tspan53"
       style="stroke-width:0.964634" /></text>
  <text
     x="-21.418913"
     y="-464.54297"
     transform="scale(4.1270767,0.24230226)"
     id="text55"
     style="font-size:45.2932px;font-family:Arial;text-anchor:middle;stroke-width:0.964627" />
  <text
     x="210.3877"
     y="-240.64709"
     id="text57"
     style="font-size:124.66px;line-height:125%;font-family:'Gentium Book Basic';letter-spacing:0;word-spacing:0;stroke-width:0.964634"
     transform="scale(1.0284727,0.97231551)"><tspan
       x="210.3877"
       y="-240.64709"
       id="tspan59"
       style="stroke-width:0.964634" /></text>
  <text
     x="242.54178"
     y="-1302.4761"
     transform="scale(4.1270767,0.24230226)"
     id="text61"
     style="font-size:45.2932px;font-family:Arial;text-anchor:middle;stroke-width:0.964627" />
  <text
     x="771.09967"
     y="-317.8273"
     id="text63"
     style="font-size:124.66px;line-height:125%;font-family:'Gentium Book Basic';letter-spacing:0;word-spacing:0;stroke-width:0.964634"
     transform="scale(1.0284727,0.97231551)"><tspan
       x="771.09967"
       y="-317.8273"
       id="tspan65"
       style="stroke-width:0.964634" /></text>
  <text
     x="382.26807"
     y="-1612.1599"
     transform="scale(4.1270767,0.24230226)"
     id="text67"
     style="font-size:45.2932px;font-family:Arial;text-anchor:middle;stroke-width:0.964627" />
  <text
     x="395.74179"
     y="-773.51971"
     id="text69"
     style="font-size:124.66px;line-height:125%;font-family:'Gentium Book Basic';letter-spacing:0;word-spacing:0;stroke-width:0.964634"
     transform="scale(1.0284727,0.97231551)"><tspan
       x="395.74179"
       y="-773.51971"
       id="tspan71"
       style="stroke-width:0.964634" /></text>
  <text
     x="288.72812"
     y="-3440.7568"
     transform="scale(4.1270767,0.24230226)"
     id="text73"
     style="font-size:45.2932px;font-family:Arial;text-anchor:middle;stroke-width:0.964627" />
  <text
     x="956.44403"
     y="-850.69037"
     id="text75"
     style="font-size:124.66px;line-height:125%;font-family:'Gentium Book Basic';letter-spacing:0;word-spacing:0;stroke-width:0.964634"
     transform="scale(1.0284727,0.97231551)"><tspan
       x="956.44403"
       y="-850.69037"
       id="tspan77"
       style="stroke-width:0.964634" /></text>
  <text
     x="428.45447"
     y="-3750.4302"
     transform="scale(4.1270767,0.24230226)"
     id="text79"
     style="font-size:45.2932px;font-family:Arial;text-anchor:middle;stroke-width:0.964627" />
  <text
     x="-811.53424"
     y="513.99457"
     id="text81"
     style="font-size:200.962px;line-height:125%;font-family:'Gentium Book Basic';letter-spacing:0;word-spacing:0;stroke-width:0.964634"
     transform="scale(1.0284727,0.97231551)"><tspan
       x="-811.53424"
       y="513.99457"
       id="tspan83"
       style="stroke-width:0.964634" /></text>
  <g
     transform="matrix(0.99209823,0,0,0.93792708,4.6047262,19.508674)"
     id="g85"
     style="fill:#ffffff">
    <path
       d="m 313.37,132.6 c -30.26,11.271 -49.38,40.29 -47.22,72.06 l 0.734,12.28 -12.11,-1.513 c -44.04,-5.762 -82.53,-25.28 -115.19,-58.05 l -15.983,-16.277 -4.117,12.03 c -8.724,26.75 -3.141,55.06 15.01,74.07 9.666,10.479 7.503,11.991 -9.212,5.726 -5.793,-1.98 -10.888,-3.493 -11.376,-2.736 -1.676,1.765 4.117,24.523 8.724,33.528 6.281,12.532 19.12,24.775 33.15,32.05 l 11.865,5.726 -14.03,0.251 c -13.575,0 -14.03,0.251 -12.597,5.51 4.851,16.277 23.974,33.528 45.26,41.05 l 15.01,5.258 -13.05,7.994 c -19.368,11.523 -42.12,18.01 -64.874,18.509 -10.888,0.249 -19.856,1.261 -19.856,2.02 0,2.484 29.525,16.493 46.722,22 51.54,16.277 112.79,9.255 158.78,-18.509 32.663,-19.77 65.36,-59.06 80.61,-97.09 8.236,-20.274 16.472,-57.29 16.472,-75.09 0,-11.487 0.698,-13 14.273,-26.75 7.992,-7.994 15.494,-16.781 16.925,-19.265 2.443,-4.754 2.199,-4.754 -10.154,-0.504 -20.589,7.49 -23.485,6.517 -13.296,-4.754 7.503,-7.994 16.437,-22.506 16.437,-26.75 0,-0.756 -3.629,0.468 -7.747,2.736 -4.363,2.484 -14.03,6.267 -21.287,8.499 l -13.09,4.249 -11.865,-8.246 c -6.525,-4.501 -15.703,-9.507 -20.554,-11.02 -12.353,-3.493 -31.23,-2.989 -42.37,1.01"
       inkscape:connector-curvature="0"
       id="path87"
       style="opacity:0.2;fill:#ffffff" />
    <path
       d="m 298.37,117.6 c -30.26,11.271 -49.38,40.29 -47.22,72.06 l 0.734,12.28 -12.11,-1.513 c -44.04,-5.762 -82.53,-25.28 -115.19,-58.05 l -15.983,-16.277 -4.117,12.03 c -8.724,26.75 -3.141,55.06 15.01,74.07 9.666,10.479 7.503,11.991 -9.212,5.726 -5.793,-1.98 -10.888,-3.493 -11.376,-2.736 -1.676,1.765 4.117,24.523 8.724,33.528 6.281,12.532 19.12,24.775 33.15,32.05 l 11.865,5.726 -14.03,0.251 c -13.575,0 -14.03,0.251 -12.597,5.51 4.851,16.277 23.974,33.528 45.26,41.05 l 15.01,5.258 -13.05,7.994 c -19.368,11.523 -42.12,18.01 -64.874,18.509 -10.888,0.249 -19.856,1.261 -19.856,2.02 0,2.484 29.525,16.493 46.722,22 51.54,16.277 112.79,9.255 158.78,-18.509 32.663,-19.77 65.36,-59.06 80.61,-97.09 8.236,-20.274 16.472,-57.29 16.472,-75.09 0,-11.487 0.698,-13 14.273,-26.75 7.992,-7.994 15.494,-16.781 16.925,-19.265 2.443,-4.754 2.199,-4.754 -10.154,-0.504 -20.589,7.49 -23.485,6.517 -13.296,-4.754 7.503,-7.994 16.437,-22.506 16.437,-26.75 0,-0.756 -3.629,0.468 -7.747,2.736 -4.363,2.484 -14.03,6.267 -21.287,8.499 l -13.09,4.249 -11.865,-8.246 c -6.525,-4.501 -15.703,-9.507 -20.554,-11.02 -12.353,-3.493 -31.23,-2.989 -42.37,1.01"
       inkscape:connector-curvature="0"
       id="path89"
       style="fill:#ffffff" />
  </g>
</svg>
