<?xml version="1.0" encoding="UTF-8" standalone="no"?>
<!-- Created with Inkscape (http://www.inkscape.org/) -->

<svg
   version="1.1"
   width="100%"
   height="100%"
   viewBox="0 0 512 512"
   id="svg2"
   sodipodi:docname="xmind.svg"
   inkscape:version="1.1 (c68e22c387, 2021-05-23)"
   xmlns:inkscape="http://www.inkscape.org/namespaces/inkscape"
   xmlns:sodipodi="http://sodipodi.sourceforge.net/DTD/sodipodi-0.dtd"
   xmlns:xlink="http://www.w3.org/1999/xlink"
   xmlns="http://www.w3.org/2000/svg"
   xmlns:svg="http://www.w3.org/2000/svg"
   xmlns:rdf="http://www.w3.org/1999/02/22-rdf-syntax-ns#"
   xmlns:cc="http://creativecommons.org/ns#"
   xmlns:dc="http://purl.org/dc/elements/1.1/">
  <sodipodi:namedview
     id="namedview39"
     pagecolor="#ffffff"
     bordercolor="#666666"
     borderopacity="1.0"
     inkscape:pageshadow="2"
     inkscape:pageopacity="0.0"
     inkscape:pagecheckerboard="0"
     showgrid="false"
     inkscape:zoom="0.21386719"
     inkscape:cx="-334.31963"
     inkscape:cy="577.46118"
     inkscape:window-width="1366"
     inkscape:window-height="708"
     inkscape:window-x="0"
     inkscape:window-y="0"
     inkscape:window-maximized="1"
     inkscape:current-layer="svg2" />
  <metadata
     id="metadata65">
    <rdf:RDF>
      <cc:Work
         rdf:about="">
        <dc:format>image/svg+xml</dc:format>
        <dc:type
           rdf:resource="http://purl.org/dc/dcmitype/StillImage" />
      </cc:Work>
    </rdf:RDF>
  </metadata>
  <defs
     id="defs4">
    <filter
       color-interpolation-filters="sRGB"
       id="7"
       x="-0.018107638"
       y="-0.017892786"
       width="1.0362153"
       height="1.0357856">
      <feGaussianBlur
         id="feGaussianBlur7"
         stdDeviation="3.7725" />
    </filter>
    <linearGradient
       y1="19.563999"
       x2="0"
       y2="504.01999"
       id="8"
       gradientUnits="userSpaceOnUse">
      <stop
         id="stop10"
         style="stop-color:#f3f3f3;stop-opacity:1"
         offset="0" />
      <stop
         id="stop12"
         style="stop-color:#eeeeee;stop-opacity:1"
         offset="0.5" />
      <stop
         id="stop14"
         style="stop-color:#ebebeb;stop-opacity:1"
         offset="1" />
    </linearGradient>
    <linearGradient
       x1="257"
       x2="362"
       id="5"
       xlink:href="#0"
       gradientUnits="userSpaceOnUse"
       gradientTransform="matrix(1.02835,0,0,1.46193,-383.73694,-115.70205)" />
    <linearGradient
       x1="257"
       x2="362"
       id="6"
       xlink:href="#0"
       gradientUnits="userSpaceOnUse"
       gradientTransform="matrix(1.0381,0,0,1.46193,-467.2489,-124.14041)" />
    <linearGradient
       x1="257"
       x2="362"
       id="4"
       xlink:href="#0"
       gradientUnits="userSpaceOnUse"
       gradientTransform="matrix(1.02835,0,0,1.46193,-610.00374,-127.97146)" />
    <linearGradient
       x1="257"
       x2="362"
       id="3"
       xlink:href="#0"
       gradientUnits="userSpaceOnUse"
       gradientTransform="matrix(1.0381,0,0,1.46193,-427.0919,-112.11041)" />
    <linearGradient
       id="0">
      <stop
         id="stop21"
         style="stop-color:#000000;stop-opacity:1"
         offset="0" />
      <stop
         id="stop23"
         style="stop-color:#ffffff;stop-opacity:1"
         offset="1" />
    </linearGradient>
    <linearGradient
       x1="257"
       x2="362"
       id="2"
       xlink:href="#0"
       gradientUnits="userSpaceOnUse"
       gradientTransform="matrix(1.0381,0,0,1.46193,-467.2489,-112.11041)" />
    <linearGradient
       x1="257"
       x2="362"
       id="1"
       xlink:href="#0"
       gradientUnits="userSpaceOnUse"
       gradientTransform="matrix(1.0381,0,0,1.46193,-467.2529,-112.11041)" />
    <linearGradient
       id="SVGID_3_"
       gradientUnits="userSpaceOnUse"
       x1="212.132"
       x2="284.116"
       y1="189.196"
       y2="261.17999">
      <stop
         offset="0"
         stop-color="#ebeff0"
         id="stop12-3" />
      <stop
         offset="1"
         stop-color="#e3e5e4"
         id="stop14-6" />
    </linearGradient>
    <linearGradient
       gradientTransform="matrix(0.69204,0,0,0.67579,117.88,177.07)"
       gradientUnits="userSpaceOnUse"
       y2="516.46002"
       x2="409.48999"
       y1="542.79999"
       x1="409.57001"
       id="0-7">
      <stop
         stop-color="#e54141"
         id="stop2" />
      <stop
         offset="1"
         stop-color="#ffbd00"
         id="stop4" />
    </linearGradient>
    <linearGradient
       inkscape:collect="always"
       xlink:href="#linearGradient1114"
       id="linearGradient920"
       x1="38.5"
       y1="256"
       x2="473.5"
       y2="256"
       gradientUnits="userSpaceOnUse"
       gradientTransform="matrix(1.102616,0,0,1.1026162,-538.55973,-25.979728)" />
    <linearGradient
       id="0-3"
       gradientUnits="userSpaceOnUse"
       y1="545.14001"
       x2="0"
       y2="518.14001">
      <stop
         stop-color="#a150c9"
         id="stop8" />
      <stop
         offset="1"
         stop-color="#e39aff"
         id="stop10-5" />
    </linearGradient>
    <linearGradient
       id="e"
       x1="17.197001"
       x2="27.308001"
       y1="11.627"
       y2="31.452999"
       gradientTransform="matrix(10.675128,0,0,12.431672,13.838155,-39.773361)"
       gradientUnits="userSpaceOnUse">
      <stop
         stop-color="#fcfcfc"
         offset="0"
         id="stop7" />
      <stop
         stop-color="#fbc2bb"
         offset="1"
         id="stop9" />
    </linearGradient>
    <linearGradient
       id="linearGradient1114"
       x1="7.9373002"
       x2="7.9373002"
       y1="15.081"
       y2="1.852"
       gradientTransform="matrix(3.7796,0,0,3.7796,525.10874,-17.091298)"
       gradientUnits="userSpaceOnUse">
      <stop
         stop-color="#b81e31"
         offset="0"
         id="stop25" />
      <stop
         stop-color="#ff5c5c"
         offset="1"
         id="stop27" />
    </linearGradient>
  </defs>
  <rect
     width="479.638"
     height="479.638"
     rx="239.819"
     x="-496.10901"
     y="16.471001"
     id="rect33"
     style="fill:url(#linearGradient920);fill-opacity:1;stroke-width:1.10261"
     transform="rotate(-90)" />
  <path
     d="m 182.25635,136.96833 c -0.78708,0.009 -1.67458,0.0912 -2.69397,0.16318 -3.86354,0.28261 -76.77012,15.93548 -81.411534,17.47979 -4.905524,1.63149 -9.09519,5.0784 -10.116807,8.34836 -1.742881,5.55699 3.308373,23.61696 9.976093,35.74267 26.601058,36.22313 56.135798,45.42523 85.076638,64.94527 3.32197,4.46531 4.63394,6.62088 -20.84819,19.55834 -39.82646,20.222 -52.71794,37.42192 -60.3455,62.86672 -2.252652,7.51857 -3.299314,27.40117 -1.71108,32.40516 2.06137,6.4856 3.30385,7.79124 41.78463,-0.57889 38.65537,-8.40852 35.45934,-8.9007 38.6832,-12.40287 2.62576,-2.85251 2.77595,-3.54044 3.9227,-17.03673 0.66067,-7.734 2.02512,-22.83477 3.02605,-26.83687 2.32096,-9.29053 8.15866,-18.99312 14.51575,-24.12474 24.11101,-19.45896 69.49238,-9.75546 94.05259,20.1044 9.25339,11.25055 15.06431,27.3091 19.70095,44.75791 2.67576,10.06815 5.39295,14.43855 9.61276,15.40124 3.88184,0.8843 3.9774,-0.50778 53.16157,-11.21682 27.35952,-5.95685 38.74601,-8.85386 40.35595,-10.2906 3.4584,-3.08863 3.472,-10.64704 0.0238,-23.1356 -5.91244,-21.46002 -16.16942,-35.72354 -35.16915,-52.22879 -9.39969,-8.16502 -21.26797,-15.88443 -41.36405,-26.91892 -19.11423,-10.4948 -28.21737,-13.33457 -28.21737,-16.59368 0,-2.69499 7.50703,-3.8958 22.66961,-9.09771 33.22211,-11.40098 49.23092,-27.39298 49.23092,-57.00488 0,-12.99543 -2.13872,-23.48204 -5.46475,-26.88428 -4.42324,-4.52546 -12.19025,-4.66878 -30.76465,-0.81682 -59.53537,12.34452 -55.43696,11.86317 -58.20607,17.003 -1.46524,2.71778 -1.40149,3.35575 1.29241,15.70757 1.54269,7.08162 2.78509,15.94094 2.77595,17.99578 -0.0238,4.37113 -4.97629,11.67355 -7.39859,14.27628 -5.92714,6.36726 -19.36228,10.69901 -33.12433,10.69901 -16.64563,0 -29.1865,-6.56107 -41.6439,-21.7727 -9.00138,-10.99165 -13.59747,-21.62957 -19.72957,-41.20067 -5.38525,-17.18899 -6.12376,-19.43071 -11.65839,-19.31949 z"
     enable-background="new"
     fill="url(#e)"
     stroke-width="8.70159"
     id="path46"
     style="fill:#ececec" />
</svg>
