<?xml version="1.0" encoding="UTF-8" standalone="no"?>
<!-- Created with Inkscape (http://www.inkscape.org/) -->

<svg
   version="1.1"
   width="100%"
   height="100%"
   viewBox="0 0 512 512"
   id="svg2"
   sodipodi:docname="youtube.svg"
   inkscape:version="1.1 (c68e22c387, 2021-05-23)"
   xmlns:inkscape="http://www.inkscape.org/namespaces/inkscape"
   xmlns:sodipodi="http://sodipodi.sourceforge.net/DTD/sodipodi-0.dtd"
   xmlns:xlink="http://www.w3.org/1999/xlink"
   xmlns="http://www.w3.org/2000/svg"
   xmlns:svg="http://www.w3.org/2000/svg"
   xmlns:rdf="http://www.w3.org/1999/02/22-rdf-syntax-ns#"
   xmlns:cc="http://creativecommons.org/ns#"
   xmlns:dc="http://purl.org/dc/elements/1.1/">
  <sodipodi:namedview
     id="namedview35"
     pagecolor="#ffffff"
     bordercolor="#666666"
     borderopacity="1.0"
     inkscape:pageshadow="2"
     inkscape:pageopacity="0.0"
     inkscape:pagecheckerboard="0"
     showgrid="false"
     inkscape:zoom="0.30245388"
     inkscape:cx="-271.11572"
     inkscape:cy="340.54779"
     inkscape:window-width="1366"
     inkscape:window-height="699"
     inkscape:window-x="0"
     inkscape:window-y="0"
     inkscape:window-maximized="1"
     inkscape:current-layer="svg2" />
  <metadata
     id="metadata59">
    <rdf:RDF>
      <cc:Work
         rdf:about="">
        <dc:format>image/svg+xml</dc:format>
        <dc:type
           rdf:resource="http://purl.org/dc/dcmitype/StillImage" />
      </cc:Work>
    </rdf:RDF>
  </metadata>
  <defs
     id="defs4">
    <filter
       color-interpolation-filters="sRGB"
       id="7"
       x="-0.018107638"
       y="-0.017892786"
       width="1.0362153"
       height="1.0357856">
      <feGaussianBlur
         id="feGaussianBlur7"
         stdDeviation="3.7725" />
    </filter>
    <linearGradient
       y1="19.563999"
       x2="0"
       y2="504.01999"
       id="8"
       gradientUnits="userSpaceOnUse">
      <stop
         id="stop10"
         style="stop-color:#f3f3f3;stop-opacity:1"
         offset="0" />
      <stop
         id="stop12"
         style="stop-color:#eeeeee;stop-opacity:1"
         offset="0.5" />
      <stop
         id="stop14"
         style="stop-color:#ebebeb;stop-opacity:1"
         offset="1" />
    </linearGradient>
    <linearGradient
       x1="257"
       x2="362"
       id="5"
       xlink:href="#0"
       gradientUnits="userSpaceOnUse"
       gradientTransform="matrix(1.02835,0,0,1.46193,-434.10952,-123.8847)" />
    <linearGradient
       x1="257"
       x2="362"
       id="6"
       xlink:href="#0"
       gradientUnits="userSpaceOnUse"
       gradientTransform="matrix(1.0381,0,0,1.46193,-614.46352,-123.8847)" />
    <linearGradient
       x1="257"
       x2="362"
       id="4"
       xlink:href="#0"
       gradientUnits="userSpaceOnUse"
       gradientTransform="matrix(1.02835,0,0,1.46193,-542.08352,-123.8847)" />
    <linearGradient
       x1="257"
       x2="362"
       id="3"
       xlink:href="#0"
       gradientUnits="userSpaceOnUse"
       gradientTransform="matrix(1.0381,0,0,1.46193,-588.98306,-122.61073)" />
    <linearGradient
       id="0">
      <stop
         id="stop21"
         style="stop-color:#000000;stop-opacity:1"
         offset="0" />
      <stop
         id="stop23"
         style="stop-color:#ffffff;stop-opacity:1"
         offset="1" />
    </linearGradient>
    <linearGradient
       x1="257"
       x2="362"
       id="2"
       xlink:href="#0"
       gradientUnits="userSpaceOnUse"
       gradientTransform="matrix(1.0381,0,0,1.46193,-545.61952,-111.8547)" />
    <linearGradient
       x1="257"
       x2="362"
       id="1"
       xlink:href="#0"
       gradientUnits="userSpaceOnUse"
       gradientTransform="matrix(1.0381,0,0,1.46193,-545.62352,-111.8547)" />
    <linearGradient
       gradientUnits="userSpaceOnUse"
       y2="-7.855"
       x2="0"
       y1="19.445"
       id="1-3">
      <stop
         stop-color="#c52828"
         id="stop7" />
      <stop
         offset="1"
         stop-color="#ff5454"
         id="stop9" />
    </linearGradient>
    <linearGradient
       id="0-6"
       gradientUnits="userSpaceOnUse"
       x1="-1.15"
       y1="10.227"
       x2="-0.51200002"
       y2="1.823">
      <stop
         stop-color="#ececec"
         id="stop2" />
      <stop
         offset="1"
         stop-color="#fefefe"
         id="stop4" />
    </linearGradient>
    <linearGradient
       inkscape:collect="always"
       xlink:href="#1-3"
       id="linearGradient877"
       x1="38.5"
       y1="256"
       x2="473.5"
       y2="256"
       gradientUnits="userSpaceOnUse"
       gradientTransform="matrix(1.102616,0,0,1.1026162,-538.55976,-25.979724)" />
  </defs>
  <rect
     width="479.638"
     height="479.638"
     rx="239.819"
     x="-496.10901"
     y="16.471001"
     id="rect33"
     style="fill:url(#linearGradient877);fill-opacity:1;stroke-width:1.10261"
     transform="rotate(-90)"
     ry="239.819" />
  <g
     transform="matrix(0.71205115,0,0,0.77634707,61.858677,51.537393)"
     id="g39"
     style="fill:#ffffff">
    <path
       d="m 161.57,387.35 c -31.419,-2.156 -41.36,-6.391 -51.71,-22.03 -9.621,-14.539 -12.687,-47.41 -10.853,-116.37 1.819,-68.42 6.174,-80.07 33.931,-90.79 11.26,-4.346 24.19,-4.795 138.03,-4.795 113.84,0 126.77,0.449 138.03,4.795 14.599,5.635 22.15,12.964 28.15,27.344 5.506,13.177 8.431,103.7 4.614,142.74 -3.168,32.398 -10.333,45.4 -29.751,53.991 -11.837,5.236 -18.366,5.582 -117.98,6.251 -58,0.39 -117.61,-0.125 -132.47,-1.145 m 127.64,-83.958 c 24.14,-16.841 43.896,-31.454 43.896,-32.472 0,-1.018 -17.93,-14.465 -39.844,-29.881 -21.914,-15.416 -45.618,-32.14 -52.675,-37.17 l -12.831,-9.139 v 76.21 76.21 l 8.779,-6.569 c 4.829,-3.613 28.532,-20.348 52.675,-37.19"
       inkscape:connector-curvature="0"
       id="path41"
       style="opacity:0.2;fill:#ffffff" />
    <path
       d="m 146.57,372.35 c -31.419,-2.156 -41.36,-6.391 -51.71,-22.03 -9.621,-14.539 -12.687,-47.41 -10.853,-116.37 1.819,-68.42 6.174,-80.07 33.931,-90.79 11.26,-4.346 24.19,-4.795 138.03,-4.795 113.84,0 126.77,0.449 138.03,4.795 14.599,5.635 22.15,12.964 28.15,27.344 5.506,13.177 8.431,103.7 4.614,142.74 -3.168,32.398 -10.333,45.4 -29.751,53.991 -11.837,5.236 -18.366,5.582 -117.98,6.251 -58,0.39 -117.61,-0.125 -132.47,-1.145 m 127.64,-83.958 c 24.14,-16.841 43.896,-31.454 43.896,-32.472 0,-1.018 -17.93,-14.465 -39.844,-29.881 -21.914,-15.416 -45.618,-32.14 -52.675,-37.17 l -12.831,-9.139 v 76.21 76.21 l 8.779,-6.569 c 4.829,-3.613 28.532,-20.348 52.675,-37.19"
       inkscape:connector-curvature="0"
       id="path43"
       style="fill:#ffffff" />
  </g>
  <path
     style="opacity:0.284981;fill:#f5f5f5;stroke-width:0.434561"
     d="m 213.69301,250.20178 c 0,-46.56427 0.10512,-58.2882 0.52021,-58.01702 0.69181,0.45196 40.83497,31.32243 50.87752,39.12529 7.32914,5.69459 19.22836,15.3547 21.99719,17.85788 0.97834,0.88447 1.08715,1.166 0.6156,1.5927 -0.45195,0.40894 -1.47552,-0.19732 -4.85041,-2.87286 -10.18839,-8.07709 -58.45394,-45.09917 -58.79564,-45.09917 -0.2219,0 -0.37626,20.08756 -0.37626,48.96578 v 48.96579 l -4.44473,3.5564 c -2.4446,1.95601 -4.69193,3.71967 -4.9941,3.91924 -0.45395,0.29985 -0.54938,-9.7755 -0.54938,-57.99403 z"
     id="path1771" />
  <path
     style="opacity:0.284981;fill:#f5f5f5;stroke-width:0.434561"
     d="m 189.55479,352.50325 c -28.21141,-0.75056 -37.69602,-3.21882 -45.05609,-11.72539 -1.51566,-1.75177 -2.97571,-3.63312 -3.24453,-4.1808 -0.43581,-0.88782 -0.4046,-0.95749 0.28794,-0.64275 7.38931,3.35824 15.50189,4.5298 36.56785,5.2807 17.44943,0.62203 132.88018,0.23972 145.22323,-0.48096 13.86512,-0.80957 18.97987,-2.05831 25.61701,-6.25434 3.59908,-2.27533 8.63729,-7.76711 10.51898,-11.46595 3.74543,-7.36231 5.91509,-18.42067 6.94416,-35.39293 1.79354,-29.58056 0.007,-87.8883 -3.10493,-101.29391 -0.33215,-1.43117 -1.07671,-3.61943 -1.65459,-4.86279 -1.28485,-2.76447 -1.29267,-2.91713 -0.1143,-2.23231 1.87712,1.09094 6.24191,6.12445 8.04324,9.27554 4.33251,7.57891 5.32926,13.14269 6.86324,38.31026 0.71332,11.70325 0.99335,58.3419 0.41642,69.35372 -1.00476,19.17804 -3.25033,31.26346 -7.15948,38.53171 -3.97045,7.38219 -12.73051,13.79972 -21.52887,15.77177 -5.07528,1.13758 -14.03071,1.59624 -39.70344,2.03346 -28.64507,0.48787 -100.20404,0.47279 -118.91584,-0.0251 z"
     id="path1810" />
  <ellipse
     cx="376.4682"
     cy="378.87683"
     fill="#33a5ff"
     stroke-width="7.13222"
     id="circle6"
     rx="99.637436"
     ry="100.06364" />
  <path
     d="m 326.65075,386.00859 49.81742,57.17848 49.81735,-57.17848 h -28.46743 v -71.4744 h -42.70254 v 71.4744 z"
     fill="#ffffff"
     stroke-width="7.13222"
     id="path8" />
</svg>
