<?xml version="1.0" encoding="UTF-8" standalone="no"?>
<!-- Created with Inkscape (http://www.inkscape.org/) -->

<svg
   version="1.1"
   width="100%"
   height="100%"
   viewBox="0 0 512 512"
   id="svg2"
   sodipodi:docname="browser-tor.svg"
   inkscape:version="1.1 (c68e22c387, 2021-05-23)"
   xmlns:inkscape="http://www.inkscape.org/namespaces/inkscape"
   xmlns:sodipodi="http://sodipodi.sourceforge.net/DTD/sodipodi-0.dtd"
   xmlns:xlink="http://www.w3.org/1999/xlink"
   xmlns="http://www.w3.org/2000/svg"
   xmlns:svg="http://www.w3.org/2000/svg"
   xmlns:rdf="http://www.w3.org/1999/02/22-rdf-syntax-ns#"
   xmlns:cc="http://creativecommons.org/ns#"
   xmlns:dc="http://purl.org/dc/elements/1.1/">
  <sodipodi:namedview
     id="namedview35"
     pagecolor="#ffffff"
     bordercolor="#666666"
     borderopacity="1.0"
     inkscape:pageshadow="2"
     inkscape:pageopacity="0.0"
     inkscape:pagecheckerboard="0"
     showgrid="false"
     inkscape:zoom="0.60490776"
     inkscape:cx="72.738362"
     inkscape:cy="310.79119"
     inkscape:window-width="1366"
     inkscape:window-height="699"
     inkscape:window-x="0"
     inkscape:window-y="0"
     inkscape:window-maximized="1"
     inkscape:current-layer="svg2" />
  <metadata
     id="metadata59">
    <rdf:RDF>
      <cc:Work
         rdf:about="">
        <dc:format>image/svg+xml</dc:format>
        <dc:type
           rdf:resource="http://purl.org/dc/dcmitype/StillImage" />
      </cc:Work>
    </rdf:RDF>
  </metadata>
  <defs
     id="defs4">
    <filter
       color-interpolation-filters="sRGB"
       id="7"
       x="-0.018107638"
       y="-0.017892786"
       width="1.0362153"
       height="1.0357856">
      <feGaussianBlur
         id="feGaussianBlur7"
         stdDeviation="3.7725" />
    </filter>
    <linearGradient
       y1="19.563999"
       x2="0"
       y2="504.01999"
       id="8"
       gradientUnits="userSpaceOnUse">
      <stop
         id="stop10"
         style="stop-color:#f3f3f3;stop-opacity:1"
         offset="0" />
      <stop
         id="stop12"
         style="stop-color:#eeeeee;stop-opacity:1"
         offset="0.5" />
      <stop
         id="stop14"
         style="stop-color:#ebebeb;stop-opacity:1"
         offset="1" />
    </linearGradient>
    <linearGradient
       x1="257"
       x2="362"
       id="5"
       xlink:href="#0"
       gradientUnits="userSpaceOnUse"
       gradientTransform="matrix(1.02835,0,0,1.46193,-462.74151,-42.373288)" />
    <linearGradient
       x1="257"
       x2="362"
       id="6"
       xlink:href="#0"
       gradientUnits="userSpaceOnUse"
       gradientTransform="matrix(1.0381,0,0,1.46193,-559.70096,-87.496575)" />
    <linearGradient
       x1="257"
       x2="362"
       id="4"
       xlink:href="#0"
       gradientUnits="userSpaceOnUse"
       gradientTransform="matrix(1.02835,0,0,1.46193,-488.35096,-63.436575)" />
    <linearGradient
       x1="257"
       x2="362"
       id="3"
       xlink:href="#0"
       gradientUnits="userSpaceOnUse"
       gradientTransform="matrix(1.0381,0,0,1.46193,-490.85996,-63.436575)" />
    <linearGradient
       id="0">
      <stop
         id="stop21"
         style="stop-color:#000000;stop-opacity:1"
         offset="0" />
      <stop
         id="stop23"
         style="stop-color:#ffffff;stop-opacity:1"
         offset="1" />
    </linearGradient>
    <linearGradient
       x1="257"
       x2="362"
       id="2"
       xlink:href="#0"
       gradientUnits="userSpaceOnUse"
       gradientTransform="matrix(1.0381,0,0,1.46193,-500.02973,-122.90753)" />
    <linearGradient
       x1="257"
       x2="362"
       id="1"
       xlink:href="#0"
       gradientUnits="userSpaceOnUse"
       gradientTransform="matrix(1.0381,0,0,1.46193,-490.86096,-75.466575)" />
    <linearGradient
       id="1-3"
       gradientUnits="userSpaceOnUse"
       x1="62.599998"
       y1="11.846"
       x2="62.150002"
       y2="-35.476002">
      <stop
         stop-color="#197dec"
         id="stop7" />
      <stop
         offset="1"
         stop-color="#3fcffb"
         id="stop9" />
    </linearGradient>
    <linearGradient
       id="0-6"
       x1="64.459999"
       y1="13.252"
       x2="60.549999"
       y2="-36.791"
       gradientUnits="userSpaceOnUse">
      <stop
         stop-color="#0164c2"
         id="stop2" />
      <stop
         offset="1"
         stop-color="#00a9f3"
         id="stop4" />
    </linearGradient>
    <linearGradient
       inkscape:collect="always"
       xlink:href="#1-3"
       id="linearGradient965"
       x1="38.5"
       y1="256"
       x2="473.5"
       y2="256"
       gradientUnits="userSpaceOnUse"
       gradientTransform="matrix(1.102616,0,0,1.1026162,-538.55976,-25.979724)" />
  </defs>
  <rect
     width="479.638"
     height="479.638"
     rx="239.819"
     x="-496.10901"
     y="16.471001"
     id="rect33"
     style="fill:url(#linearGradient965);fill-opacity:1;stroke-width:1.10261"
     transform="rotate(-90)"
     ry="239.819" />
  <g
     transform="matrix(1.1026162,0,0,1.1026161,590.22836,-21.346473)"
     id="g39"
     style="fill:#ffffff">
    <path
       d="m -128.55426,257.29723 c -5.40591,-81.03084 -71.16044,-145.80125 -153.42987,-151.12126 v -0.36824 h -10.98795 -10.98795 v 0.36824 c -82.27926,5.32389 -148.04757,70.10011 -153.44955,151.12126 h -0.37391 v 10.82123 10.82124 h 0.37391 c 5.40591,81.03084 71.18013,145.78187 153.44955,151.10188 v 0.38955 h 10.98795 10.98795 v -0.38955 c 82.27927,-5.32389 148.02789,-70.08073 153.42987,-151.10188 h 0.39555 v -10.82124 -10.82123 h -0.39555 M -354.61068,141.18726 c -10.61405,13.89405 -19.42645,31.31927 -25.83896,51.18258 h -32.91859 c 14.32753,-22.00973 34.67497,-39.81772 58.76148,-51.18258 m -70.25519,72.8231 h 38.63052 c -2.94501,13.67311 -4.81258,28.19897 -5.40591,43.28396 h -43.75699 c 1.16502,-15.23616 4.81258,-29.80078 10.52648,-43.28396 m -10.52648,64.92546 h 43.75699 c 0.59333,15.08402 2.4609,29.60601 5.40591,43.28396 h -38.63052 c -5.71389,-13.48318 -9.36146,-28.0478 -10.52647,-43.28396 m 22.0192,64.92545 h 32.89694 c 6.41645,19.86719 15.22885,37.28853 25.86454,51.18258 -24.08454,-11.36195 -44.43592,-29.14862 -58.76148,-51.18258 m 109.41705,63.53974 c -22.59088,-5.95183 -42.03898,-29.84439 -53.83968,-63.53974 h 53.83968 v 63.53974 m 0,-85.17832 h -60.01407 c -3.09851,-13.48318 -5.05464,-28.0478 -5.69126,-43.28396 h 65.70631 v 43.28396 m 0,-64.92546 h -65.70631 c 0.63761,-15.23616 2.59275,-29.80078 5.69126,-43.28396 h 60.01407 v 43.28396 m 0,-64.92545 h -53.83968 c 11.8007,-33.69631 31.2488,-57.58985 53.83968,-63.52035 v 63.52035 m 131.38902,0 h -32.8753 c -6.43907,-19.86719 -15.22884,-37.28853 -25.88717,-51.18258 24.0629,11.36195 44.43592,29.17769 58.76149,51.18258 m -109.41706,-63.52035 c 22.56826,5.92953 42.03898,29.8221 53.83969,63.52035 h -53.83969 v -63.52035 m 0,85.15893 h 59.99243 c 3.12016,13.48318 5.032,28.0478 5.71389,43.28396 h -65.70632 v -43.28396 m 0,64.92546 h 65.70632 c -0.63761,15.23616 -2.59275,29.80078 -5.71389,43.28396 h -59.99243 v -43.28396 m 0,128.46519 v -63.53974 h 53.83969 c -11.80071,33.69631 -31.27045,57.58985 -53.83969,63.53974 m 50.65459,-12.35716 c 10.61404,-13.91537 19.44809,-31.31926 25.88717,-51.18258 h 32.8753 c -14.32754,22.03105 -34.69465,39.81772 -58.76149,51.18258 m 70.2552,-72.8231 h -38.63052 c 2.94501,-13.67311 4.81258,-28.19897 5.40591,-43.28396 h 43.72747 c -1.14239,15.23616 -4.79094,29.80078 -10.50385,43.28396 m -33.22657,-64.92546 c -0.59333,-15.08402 -2.4609,-29.606 -5.40591,-43.28396 h 38.63052 c 5.71389,13.48318 9.36145,28.0478 10.52647,43.28396 h -43.75698"
       inkscape:connector-curvature="0"
       id="path41"
       style="opacity:0.2;fill:#ffffff;stroke-width:0.976473" />
    <path
       d="M -143.31376,242.76168 C -148.71967,161.73084 -214.4742,96.960428 -296.74362,91.640416 v -0.368234 h -10.98795 -10.98796 v 0.368234 c -82.27926,5.323888 -148.04757,70.100114 -153.44954,151.121264 h -0.37391 v 10.82123 10.82124 h 0.37391 c 5.40591,81.03084 71.18012,145.78187 153.44954,151.10188 v 0.38955 h 10.98796 10.98795 v -0.38955 c 82.27926,-5.32389 148.02789,-70.08073 153.42986,-151.10188 h 0.39556 v -10.82124 -10.82123 h -0.39556 M -369.37018,126.65171 c -10.61404,13.89405 -19.42644,31.31927 -25.83895,51.18258 h -32.91859 c 14.32753,-22.00973 34.67497,-39.81772 58.76148,-51.18258 m -70.2552,72.8231 h 38.63052 c -2.94501,13.67311 -4.81258,28.19897 -5.40591,43.28396 h -43.75698 c 1.16502,-15.23616 4.81258,-29.80078 10.52647,-43.28396 m -10.52647,64.92546 h 43.75698 c 0.59333,15.08402 2.4609,29.60601 5.40591,43.28396 h -38.63052 c -5.71389,-13.48318 -9.36145,-28.0478 -10.52647,-43.28396 m 22.0192,64.92545 h 32.89695 c 6.41644,19.86719 15.22884,37.28853 25.86454,51.18258 -24.08455,-11.36195 -44.43592,-29.14862 -58.76149,-51.18258 m 109.41706,63.53974 c -22.59089,-5.95183 -42.03898,-29.84439 -53.83969,-63.53974 h 53.83969 v 63.53974 m 0,-85.17832 h -60.01408 c -3.09851,-13.48318 -5.05463,-28.0478 -5.69126,-43.28396 h 65.70632 v 43.28396 m 0,-64.92546 h -65.70632 c 0.63761,-15.23616 2.59275,-29.80078 5.69126,-43.28396 h 60.01408 v 43.28396 m 0,-64.92545 h -53.83969 c 11.80071,-33.69631 31.2488,-57.58985 53.83969,-63.52035 v 63.52035 m 131.38902,0 h -32.8753 c -6.43908,-19.86719 -15.22885,-37.28853 -25.88717,-51.18258 24.0629,11.36195 44.43592,29.17769 58.76148,51.18258 m -109.41705,-63.52035 c 22.56825,5.92953 42.03898,29.8221 53.83968,63.52035 h -53.83968 v -63.52035 m 0,85.15893 h 59.99243 c 3.12015,13.48318 5.032,28.0478 5.71389,43.28396 h -65.70632 v -43.28396 m 0,64.92546 h 65.70632 c -0.63761,15.23616 -2.59275,29.80078 -5.71389,43.28396 h -59.99243 v -43.28396 m 0,128.46519 v -63.53974 h 53.83968 c -11.8007,33.69631 -31.27045,57.58985 -53.83968,63.53974 m 50.65459,-12.35716 c 10.61404,-13.91537 19.44809,-31.31926 25.88717,-51.18258 h 32.87529 c -14.32753,22.03105 -34.69465,39.81772 -58.76148,51.18258 m 70.25519,-72.8231 h -38.63051 c 2.94501,-13.67311 4.81258,-28.19897 5.40591,-43.28396 h 43.72746 c -1.14238,15.23616 -4.79093,29.80078 -10.50384,43.28396 m -33.22657,-64.92546 c -0.59334,-15.08402 -2.4609,-29.606 -5.40592,-43.28396 h 38.63052 c 5.71389,13.48318 9.36146,28.0478 10.52647,43.28396 h -43.75698"
       inkscape:connector-curvature="0"
       id="path43"
       style="fill:#ffffff;stroke-width:0.976473" />
  </g>
</svg>
