<?xml version="1.0" encoding="UTF-8" standalone="no"?>
<!-- Created with Inkscape (http://www.inkscape.org/) -->

<svg
   version="1.1"
   width="100%"
   height="100%"
   viewBox="0 0 512 512"
   id="svg2"
   sodipodi:docname="desktop-environment-gnome.svg"
   inkscape:version="1.1 (c68e22c387, 2021-05-23)"
   xmlns:inkscape="http://www.inkscape.org/namespaces/inkscape"
   xmlns:sodipodi="http://sodipodi.sourceforge.net/DTD/sodipodi-0.dtd"
   xmlns:xlink="http://www.w3.org/1999/xlink"
   xmlns="http://www.w3.org/2000/svg"
   xmlns:svg="http://www.w3.org/2000/svg"
   xmlns:rdf="http://www.w3.org/1999/02/22-rdf-syntax-ns#"
   xmlns:cc="http://creativecommons.org/ns#"
   xmlns:dc="http://purl.org/dc/elements/1.1/">
  <sodipodi:namedview
     id="namedview51"
     pagecolor="#ffffff"
     bordercolor="#666666"
     borderopacity="1.0"
     inkscape:pageshadow="2"
     inkscape:pageopacity="0.0"
     inkscape:pagecheckerboard="0"
     showgrid="false"
     inkscape:zoom="0.42773438"
     inkscape:cx="312.10959"
     inkscape:cy="184.69406"
     inkscape:window-width="1366"
     inkscape:window-height="708"
     inkscape:window-x="0"
     inkscape:window-y="0"
     inkscape:window-maximized="1"
     inkscape:current-layer="svg2" />
  <metadata
     id="metadata74">
    <rdf:RDF>
      <cc:Work
         rdf:about="">
        <dc:format>image/svg+xml</dc:format>
        <dc:type
           rdf:resource="http://purl.org/dc/dcmitype/StillImage" />
      </cc:Work>
    </rdf:RDF>
  </metadata>
  <defs
     id="defs72">
    <linearGradient
       x1="257"
       y1="256"
       x2="362"
       y2="256"
       id="linearGradient3153"
       xlink:href="#linearGradient4996-6"
       gradientUnits="userSpaceOnUse"
       gradientTransform="matrix(1.0380952,0,0,1.4619252,-337.28943,-118.25286)" />
    <linearGradient
       x1="257"
       y1="256"
       x2="362"
       y2="256"
       id="linearGradient3149"
       xlink:href="#linearGradient4996-6"
       gradientUnits="userSpaceOnUse"
       gradientTransform="matrix(1.0283468,0,0,1.4619252,209.19233,-118.25286)" />
    <linearGradient
       x1="257"
       y1="256"
       x2="362"
       y2="256"
       id="linearGradient3145"
       xlink:href="#linearGradient4996-6"
       gradientUnits="userSpaceOnUse"
       gradientTransform="matrix(1.0283468,0,0,1.4619252,101.21591,-118.25286)" />
    <linearGradient
       x1="257"
       y1="256"
       x2="362"
       y2="256"
       id="linearGradient3141"
       xlink:href="#linearGradient4996-6"
       gradientUnits="userSpaceOnUse"
       gradientTransform="matrix(1.0380952,0,0,1.4619252,-10.28943,-118.25286)" />
    <linearGradient
       x1="257"
       y1="256"
       x2="362"
       y2="256"
       id="linearGradient3137"
       xlink:href="#linearGradient4996-6"
       gradientUnits="userSpaceOnUse"
       gradientTransform="matrix(1.0380952,0,0,1.4619252,-119.28943,-118.25286)" />
    <linearGradient
       x1="257"
       y1="256"
       x2="362"
       y2="256"
       id="linearGradient3108"
       xlink:href="#linearGradient4996-6"
       gradientUnits="userSpaceOnUse"
       gradientTransform="matrix(1.0380952,0,0,1.4619252,-228.28943,-118.25286)" />
    <linearGradient
       id="linearGradient4996-6">
      <stop
         id="stop4998-2"
         style="stop-color:#000000;stop-opacity:1"
         offset="0" />
      <stop
         id="stop5000-2"
         style="stop-color:#ffffff;stop-opacity:1"
         offset="1" />
    </linearGradient>
    <linearGradient
       id="3"
       x1="238.07001"
       y1="372.35999"
       x2="205.13"
       y2="7.441"
       gradientUnits="userSpaceOnUse">
      <stop
         stop-color="#e8e8e8"
         stop-opacity=".925"
         id="stop7" />
      <stop
         offset="1"
         stop-color="#fffcff"
         id="stop9" />
    </linearGradient>
    <linearGradient
       id="0"
       gradientUnits="userSpaceOnUse"
       x1="400.51001"
       y1="546.07001"
       x2="400.70001"
       y2="517.77002">
      <stop
         stop-color="#2fae61"
         id="stop23" />
      <stop
         offset="1"
         stop-color="#4bdf88"
         id="stop25" />
    </linearGradient>
    <linearGradient
       inkscape:collect="always"
       xlink:href="#0"
       id="linearGradient1172"
       x1="38.500011"
       y1="253"
       x2="473.49997"
       y2="253"
       gradientUnits="userSpaceOnUse"
       gradientTransform="matrix(1.1026161,0,0,1.1026161,-538.55974,-22.671889)" />
  </defs>
  <text
     x="716.38849"
     y="236.87967"
     id="text20"
     style="font-size:126.843px;line-height:125%;font-family:'Gentium Book Basic';letter-spacing:0;word-spacing:0;stroke-width:0.981536"
     transform="scale(1.0044456,0.99557409)"><tspan
       x="716.38849"
       y="236.87967"
       id="tspan22"
       style="stroke-width:0.981536" /></text>
  <text
     x="371.96667"
     y="607.84369"
     transform="scale(4.0306595,0.24809836)"
     id="text24"
     style="font-size:46.087px;font-family:Arial;text-anchor:middle;stroke-width:0.981531" />
  <text
     x="1286.9252"
     y="158.35683"
     id="text26"
     style="font-size:126.843px;line-height:125%;font-family:'Gentium Book Basic';letter-spacing:0;word-spacing:0;stroke-width:0.981536"
     transform="scale(1.0044456,0.99557409)"><tspan
       x="1286.9252"
       y="158.35683"
       id="tspan28"
       style="stroke-width:0.981536" /></text>
  <text
     x="514.1413"
     y="292.74298"
     transform="scale(4.0306595,0.24809836)"
     id="text30"
     style="font-size:46.087px;font-family:Arial;text-anchor:middle;stroke-width:0.981531" />
  <text
     x="235.13193"
     y="-19.55719"
     id="text32"
     style="font-size:126.843px;line-height:125%;font-family:'Gentium Book Basic';letter-spacing:0;word-spacing:0;stroke-width:0.981536"
     transform="scale(1.0044456,0.99557409)"><tspan
       x="235.13193"
       y="-19.55719"
       id="tspan34"
       style="stroke-width:0.981536" /></text>
  <text
     x="252.03351"
     y="-421.18274"
     transform="scale(4.0306595,0.24809836)"
     id="text36"
     style="font-size:46.087px;font-family:Arial;text-anchor:middle;stroke-width:0.981531" />
  <text
     x="1312.9062"
     y="-232.0291"
     id="text38"
     style="font-size:126.843px;line-height:125%;font-family:'Gentium Book Basic';letter-spacing:0;word-spacing:0;stroke-width:0.981536"
     transform="scale(1.0044456,0.99557409)"><tspan
       x="1312.9062"
       y="-232.0291"
       id="tspan40"
       style="stroke-width:0.981536" /></text>
  <text
     x="520.61951"
     y="-1273.8085"
     transform="scale(4.0306595,0.24809836)"
     id="text42"
     style="font-size:46.087px;font-family:Arial;text-anchor:middle;stroke-width:0.981531" />
  <text
     x="1883.4434"
     y="-310.5618"
     id="text44"
     style="font-size:126.843px;line-height:125%;font-family:'Gentium Book Basic';letter-spacing:0;word-spacing:0;stroke-width:0.981536"
     transform="scale(1.0044456,0.99557409)"><tspan
       x="1883.4434"
       y="-310.5618"
       id="tspan46"
       style="stroke-width:0.981536" /></text>
  <text
     x="662.79413"
     y="-1588.9189"
     transform="scale(4.0306595,0.24809836)"
     id="text48"
     style="font-size:46.087px;font-family:Arial;text-anchor:middle;stroke-width:0.981531" />
  <text
     x="1501.5085"
     y="-774.23901"
     id="text50"
     style="font-size:126.843px;line-height:125%;font-family:'Gentium Book Basic';letter-spacing:0;word-spacing:0;stroke-width:0.981536"
     transform="scale(1.0044456,0.99557409)"><tspan
       x="1501.5085"
       y="-774.23901"
       id="tspan52"
       style="stroke-width:0.981536" /></text>
  <text
     x="567.61511"
     y="-3449.5659"
     transform="scale(4.0306595,0.24809836)"
     id="text54"
     style="font-size:46.087px;font-family:Arial;text-anchor:middle;stroke-width:0.981531" />
  <text
     x="2072.0356"
     y="-852.76178"
     id="text56"
     style="font-size:126.843px;line-height:125%;font-family:'Gentium Book Basic';letter-spacing:0;word-spacing:0;stroke-width:0.981536"
     transform="scale(1.0044456,0.99557409)"><tspan
       x="2072.0356"
       y="-852.76178"
       id="tspan58"
       style="stroke-width:0.981536" /></text>
  <text
     x="709.78979"
     y="-3764.6672"
     transform="scale(4.0306595,0.24809836)"
     id="text60"
     style="font-size:46.087px;font-family:Arial;text-anchor:middle;stroke-width:0.981531" />
  <text
     x="273.07806"
     y="535.83569"
     id="text62"
     style="font-size:204.483px;line-height:125%;font-family:'Gentium Book Basic';letter-spacing:0;word-spacing:0;stroke-width:0.981536"
     transform="scale(1.0044456,0.99557409)"><tspan
       x="273.07806"
       y="535.83569"
       id="tspan64"
       style="stroke-width:0.981536" /></text>
  <rect
     width="479.638"
     height="479.638"
     rx="239.819"
     ry="239.819"
     x="-496.10901"
     y="16.471001"
     id="rect4981-4"
     style="fill:url(#linearGradient1172);fill-opacity:1;stroke:none;stroke-width:1.10261"
     transform="rotate(-90)" />
  <g
     transform="matrix(0.98589858,0,0,0.97719098,-7.1721281,2.419422)"
     id="g3253">
    <path
       d="m 378.55687,103.5 c -69.69229,0 -82.79101,99.28449 -43.58419,99.28449 39.19569,0 113.27659,-99.28449 43.58419,-99.28449 m -107.69309,12.14395 c -1.10664,-0.003 -2.26352,0.0849 -3.48964,0.24455 -39.21799,5.09098 -25.42023,73.29923 -4.53709,74.57336 20.22316,1.23506 42.33242,-74.69954 8.02673,-74.81791 m -67.9436,27.01261 c -2.07368,0.0457 -4.34279,0.51927 -6.80508,1.53546 -31.52402,13.00826 -4.78276,66.70184 12.87649,63.09271 16.29357,-3.32214 18.39293,-65.16976 -6.07252,-64.62817 m -51.26256,42.08565 c -2.44665,0.14182 -5.09097,1.09435 -7.8503,3.00164 -25.23485,17.43592 8.49909,59.54167 23.34542,53.00905 13.22267,-5.82016 4.42766,-57.16311 -15.494,-56.01293 m 141.04851,32.20967 c -53.5417,0.47459 -121.68519,27.61005 -133.54439,80.74752 C 145.98039,356.67823 213.41033,438.5 283.77266,438.5 c 34.61613,0 74.53651,-31.24261 82.00941,-70.84252 5.7051,-30.19516 -67.14633,-18.09476 -64.52323,1.88498 3.13565,23.94842 -17.55095,35.74509 -37.82771,20.3125 -64.55112,-49.14532 106.87794,-73.66438 95.57704,-140.80285 -3.6638,-21.7709 -31.98182,-32.40621 -66.29756,-32.10471"
       inkscape:connector-curvature="0"
       id="path3251"
       style="opacity:0.199758;fill:#ffffff;fill-opacity:1" />
    <path
       d="m 363.55687,88.5 c -69.69229,0 -82.79101,99.28449 -43.58419,99.28449 39.19569,0 113.27659,-99.28449 43.58419,-99.28449 m -107.69309,12.14395 c -1.10664,-0.003 -2.26352,0.0849 -3.48964,0.24455 -39.21799,5.09098 -25.42023,73.29923 -4.53709,74.57336 20.22316,1.23506 42.33242,-74.69954 8.02673,-74.81791 m -67.9436,27.01261 c -2.07368,0.0457 -4.34279,0.51927 -6.80508,1.53546 -31.52402,13.00826 -4.78276,66.70184 12.87649,63.09271 16.29357,-3.32214 18.39293,-65.16976 -6.07252,-64.62817 m -51.26256,42.08565 c -2.44665,0.14182 -5.09097,1.09435 -7.8503,3.00164 -25.23485,17.43592 8.49909,59.54167 23.34542,53.00905 13.22267,-5.82016 4.42766,-57.16311 -15.494,-56.01293 m 141.04851,32.20967 c -53.5417,0.47459 -121.68519,27.61005 -133.54439,80.74752 C 130.98039,341.67823 198.41033,423.5 268.77266,423.5 c 34.61613,0 74.53651,-31.24261 82.00941,-70.84252 5.7051,-30.19516 -67.14633,-18.09476 -64.52323,1.88498 3.13565,23.94842 -17.55095,35.74509 -37.82771,20.3125 -64.55112,-49.14532 106.87794,-73.66438 95.57704,-140.80285 -3.6638,-21.7709 -31.98182,-32.40621 -66.29756,-32.10471"
       inkscape:connector-curvature="0"
       id="path68"
       style="fill:#ffffff;fill-opacity:1" />
  </g>
</svg>
