<?xml version="1.0" encoding="UTF-8" standalone="no"?>
<!-- Created with Inkscape (http://www.inkscape.org/) -->

<svg
   version="1.1"
   width="100%"
   height="100%"
   viewBox="0 0 512 512"
   id="svg2"
   sodipodi:docname="distributor-logo-ubuntu.svg"
   inkscape:version="1.1 (c68e22c387, 2021-05-23)"
   xmlns:inkscape="http://www.inkscape.org/namespaces/inkscape"
   xmlns:sodipodi="http://sodipodi.sourceforge.net/DTD/sodipodi-0.dtd"
   xmlns:xlink="http://www.w3.org/1999/xlink"
   xmlns="http://www.w3.org/2000/svg"
   xmlns:svg="http://www.w3.org/2000/svg"
   xmlns:rdf="http://www.w3.org/1999/02/22-rdf-syntax-ns#"
   xmlns:cc="http://creativecommons.org/ns#"
   xmlns:dc="http://purl.org/dc/elements/1.1/">
  <sodipodi:namedview
     id="namedview51"
     pagecolor="#ffffff"
     bordercolor="#666666"
     borderopacity="1.0"
     inkscape:pageshadow="2"
     inkscape:pageopacity="0.0"
     inkscape:pagecheckerboard="0"
     showgrid="false"
     inkscape:zoom="0.42773438"
     inkscape:cx="120.40183"
     inkscape:cy="336.65753"
     inkscape:window-width="1366"
     inkscape:window-height="708"
     inkscape:window-x="0"
     inkscape:window-y="0"
     inkscape:window-maximized="1"
     inkscape:current-layer="svg2" />
  <metadata
     id="metadata72">
    <rdf:RDF>
      <cc:Work
         rdf:about="">
        <dc:format>image/svg+xml</dc:format>
        <dc:type
           rdf:resource="http://purl.org/dc/dcmitype/StillImage" />
      </cc:Work>
    </rdf:RDF>
  </metadata>
  <defs
     id="defs70">
    <linearGradient
       x1="257"
       y1="256"
       x2="362"
       y2="256"
       id="linearGradient3153"
       xlink:href="#linearGradient4996-6"
       gradientUnits="userSpaceOnUse"
       gradientTransform="matrix(1.0380952,0,0,1.4619252,-337.28943,-118.25286)" />
    <linearGradient
       x1="257"
       y1="256"
       x2="362"
       y2="256"
       id="linearGradient3149"
       xlink:href="#linearGradient4996-6"
       gradientUnits="userSpaceOnUse"
       gradientTransform="matrix(1.0283468,0,0,1.4619252,209.19233,-118.25286)" />
    <linearGradient
       x1="257"
       y1="256"
       x2="362"
       y2="256"
       id="linearGradient3145"
       xlink:href="#linearGradient4996-6"
       gradientUnits="userSpaceOnUse"
       gradientTransform="matrix(1.0283468,0,0,1.4619252,101.21591,-118.25286)" />
    <linearGradient
       x1="257"
       y1="256"
       x2="362"
       y2="256"
       id="linearGradient3141"
       xlink:href="#linearGradient4996-6"
       gradientUnits="userSpaceOnUse"
       gradientTransform="matrix(1.0380952,0,0,1.4619252,-10.28943,-118.25286)" />
    <linearGradient
       x1="257"
       y1="256"
       x2="362"
       y2="256"
       id="linearGradient3137"
       xlink:href="#linearGradient4996-6"
       gradientUnits="userSpaceOnUse"
       gradientTransform="matrix(1.0380952,0,0,1.4619252,-119.28943,-118.25286)" />
    <linearGradient
       x1="257"
       y1="256"
       x2="362"
       y2="256"
       id="linearGradient3108"
       xlink:href="#linearGradient4996-6"
       gradientUnits="userSpaceOnUse"
       gradientTransform="matrix(1.0380952,0,0,1.4619252,-228.28943,-118.25286)" />
    <linearGradient
       id="linearGradient4996-6">
      <stop
         id="stop4998-9"
         style="stop-color:#000000;stop-opacity:1"
         offset="0" />
      <stop
         id="stop5000-7"
         style="stop-color:#ffffff;stop-opacity:1"
         offset="1" />
    </linearGradient>
    <linearGradient
       inkscape:collect="always"
       xlink:href="#linearGradient862"
       id="linearGradient962"
       x1="38.500011"
       y1="253"
       x2="473.49997"
       y2="253"
       gradientUnits="userSpaceOnUse"
       gradientTransform="matrix(1.1026161,0,0,1.1026161,-25.979759,-22.67189)" />
    <linearGradient
       id="linearGradient862"
       x1="7.9373002"
       x2="7.9373002"
       y1="15.081"
       y2="1.852"
       gradientTransform="matrix(3.7796,0,0,3.7796,536.10859,277.80209)"
       gradientUnits="userSpaceOnUse">
      <stop
         stop-color="#ff540d"
         offset="0"
         id="stop2" />
      <stop
         stop-color="#ff9f00"
         offset="1"
         id="stop4" />
    </linearGradient>
  </defs>
  <text
     x="722.61389"
     y="238.51553"
     id="text20"
     style="font-size:134.216px;line-height:125%;font-family:'Gentium Book Basic';letter-spacing:0;word-spacing:0;stroke-width:1.03858"
     transform="scale(1.0154702,0.98476552)"><tspan
       x="722.61389"
       y="238.51553"
       id="tspan22"
       style="stroke-width:1.03858" /></text>
  <text
     x="384.75992"
     y="594.49152"
     transform="scale(4.0748993,0.24540484)"
     id="text24"
     style="font-size:48.7651px;font-family:Arial;text-anchor:middle;stroke-width:1.03857" />
  <text
     x="1326.3075"
     y="155.4294"
     id="text26"
     style="font-size:134.216px;line-height:125%;font-family:'Gentium Book Basic';letter-spacing:0;word-spacing:0;stroke-width:1.03858"
     transform="scale(1.0154702,0.98476552)"><tspan
       x="1326.3075"
       y="155.4294"
       id="tspan28"
       style="stroke-width:1.03858" /></text>
  <text
     x="535.19696"
     y="261.07901"
     transform="scale(4.0748993,0.24540484)"
     id="text30"
     style="font-size:48.7651px;font-family:Arial;text-anchor:middle;stroke-width:1.03857" />
  <text
     x="213.38924"
     y="-32.824036"
     id="text32"
     style="font-size:134.216px;line-height:125%;font-family:'Gentium Book Basic';letter-spacing:0;word-spacing:0;stroke-width:1.03858"
     transform="scale(1.0154702,0.98476552)"><tspan
       x="213.38924"
       y="-32.824036"
       id="tspan34"
       style="stroke-width:1.03858" /></text>
  <text
     x="257.85681"
     y="-494.33624"
     transform="scale(4.0748993,0.24540484)"
     id="text36"
     style="font-size:48.7651px;font-family:Arial;text-anchor:middle;stroke-width:1.03857" />
  <text
     x="1353.7985"
     y="-257.64368"
     id="text38"
     style="font-size:134.216px;line-height:125%;font-family:'Gentium Book Basic';letter-spacing:0;word-spacing:0;stroke-width:1.03858"
     transform="scale(1.0154702,0.98476552)"><tspan
       x="1353.7985"
       y="-257.64368"
       id="tspan40"
       style="stroke-width:1.03858" /></text>
  <text
     x="542.05151"
     y="-1396.512"
     transform="scale(4.0748993,0.24540484)"
     id="text42"
     style="font-size:48.7651px;font-family:Arial;text-anchor:middle;stroke-width:1.03857" />
  <text
     x="1957.4917"
     y="-340.74026"
     id="text44"
     style="font-size:134.216px;line-height:125%;font-family:'Gentium Book Basic';letter-spacing:0;word-spacing:0;stroke-width:1.03858"
     transform="scale(1.0154702,0.98476552)"><tspan
       x="1957.4917"
       y="-340.74026"
       id="tspan46"
       style="stroke-width:1.03858" /></text>
  <text
     x="692.48865"
     y="-1729.9348"
     transform="scale(4.0748993,0.24540484)"
     id="text48"
     style="font-size:48.7651px;font-family:Arial;text-anchor:middle;stroke-width:1.03857" />
  <text
     x="1553.361"
     y="-831.36377"
     id="text50"
     style="font-size:134.216px;line-height:125%;font-family:'Gentium Book Basic';letter-spacing:0;word-spacing:0;stroke-width:1.03858"
     transform="scale(1.0154702,0.98476552)"><tspan
       x="1553.361"
       y="-831.36377"
       id="tspan52"
       style="stroke-width:1.03858" /></text>
  <text
     x="591.77826"
     y="-3698.7136"
     transform="scale(4.0748993,0.24540484)"
     id="text54"
     style="font-size:48.7651px;font-family:Arial;text-anchor:middle;stroke-width:1.03857" />
  <text
     x="2157.0439"
     y="-914.44995"
     id="text56"
     style="font-size:134.216px;line-height:125%;font-family:'Gentium Book Basic';letter-spacing:0;word-spacing:0;stroke-width:1.03858"
     transform="scale(1.0154702,0.98476552)"><tspan
       x="2157.0439"
       y="-914.44995"
       id="tspan58"
       style="stroke-width:1.03858" /></text>
  <text
     x="742.21539"
     y="-4032.1262"
     transform="scale(4.0748993,0.24540484)"
     id="text60"
     style="font-size:48.7651px;font-family:Arial;text-anchor:middle;stroke-width:1.03857" />
  <text
     x="253.54062"
     y="554.84528"
     id="text62"
     style="font-size:216.368px;line-height:125%;font-family:'Gentium Book Basic';letter-spacing:0;word-spacing:0;stroke-width:1.03858"
     transform="scale(1.0154702,0.98476552)"><tspan
       x="253.54062"
       y="554.84528"
       id="tspan64"
       style="stroke-width:1.03858" /></text>
  <rect
     width="479.638"
     height="479.638"
     rx="239.819"
     ry="239.819"
     x="16.471001"
     y="16.471001"
     id="rect4981-0"
     style="fill:url(#linearGradient962);fill-opacity:1;stroke:none;stroke-width:1.10261" />
  <g
     transform="matrix(1.0546436,0,0,1.0227546,-43.627278,-9.4132577)"
     id="g3330">
    <path
       d="m 376.21734,103.5 c -18.4013,0 -33.3277,14.89544 -33.3277,33.29667 0,18.40123 14.9264,33.32769 33.3277,33.32769 18.4012,0 33.3277,-14.92646 33.3277,-33.32769 0,-18.40123 -14.9265,-33.29667 -33.3277,-33.29667 m -77.9078,34.8312 c -21.5264,0 -41.8476,5.03435 -59.86581,13.95873 l 24.56561,42.55158 c 10.7298,-4.99856 22.6839,-7.80868 35.2953,-7.80868 43.4108,0 79.0893,33.05086 83.2883,75.35424 h 50.3316 c -2.1383,-33.95058 -17.2366,-64.41803 -40.43,-86.66633 -11.4385,4.48784 -24.7207,3.91508 -36.1915,-2.70511 -11.3563,-6.55695 -18.4669,-17.62562 -20.3809,-29.63814 -11.6378,-3.26595 -23.9247,-5.04271 -36.6175,-5.04271 m -73.54043,21.76741 c -27.20746,17.72227 -47.5036,44.99059 -55.98647,76.98899 9.95178,7.64402 16.38702,19.65536 16.38702,33.17378 0,13.61387 -6.49849,25.69322 -16.57197,33.32768 8.36474,32.39696 28.80525,60.00895 56.29791,77.87202 l 24.65744,-42.70431 c -21.14807,-15.19496 -34.96241,-39.98011 -34.96241,-68.00854 0,-27.98071 13.74513,-52.74201 34.83119,-67.9465 l -24.65748,-42.70432 m -81.41599,76.83389 c -18.40123,0 -33.32769,14.92645 -33.32769,33.32769 0,18.40123 14.92646,33.32769 33.32769,33.32769 18.40123,0 33.3277,-14.92646 33.3277,-33.32769 0,-18.40124 -14.92647,-33.32769 -33.3277,-33.32769 m 238.34139,41.19841 c -3.7397,42.77353 -39.64,76.33987 -83.3802,76.33987 -12.5709,0 -24.4737,-2.78387 -35.1724,-7.74782 l -24.56561,42.55158 c 17.98241,8.88738 38.26781,13.89668 59.73451,13.89668 12.4003,0 24.3926,-1.67653 35.787,-4.7969 1.976,-11.91349 9.0794,-22.88668 20.357,-29.39233 11.5483,-6.66792 24.9402,-7.17148 36.4325,-2.58221 23.7673,-22.51558 39.1818,-53.62262 41.1066,-88.26887 h -50.2959 m -6.3338,93.74235 c -18.4012,0 -33.3276,14.92646 -33.3276,33.32769 0,18.40123 14.9264,33.29667 33.3276,33.29667 18.4013,0 33.3277,-14.89544 33.3277,-33.29667 0,-18.40123 -14.9264,-33.32769 -33.3277,-33.32769"
       inkscape:connector-curvature="0"
       id="path3328"
       style="opacity:0.2;fill:#ffffff;fill-opacity:1" />
    <path
       d="m 361.21734,88.5 c -18.4013,0 -33.3277,14.89544 -33.3277,33.29667 0,18.40123 14.9264,33.32769 33.3277,33.32769 18.4012,0 33.3277,-14.92646 33.3277,-33.32769 0,-18.40123 -14.9265,-33.29667 -33.3277,-33.29667 m -77.9078,34.8312 c -21.5264,0 -41.8476,5.03435 -59.86581,13.95873 l 24.56561,42.55158 c 10.7298,-4.99856 22.6839,-7.80868 35.2953,-7.80868 43.4108,0 79.0893,33.05086 83.2883,75.35424 h 50.3316 c -2.1383,-33.95058 -17.2366,-64.41803 -40.43,-86.66633 -11.4385,4.48784 -24.7207,3.91508 -36.1915,-2.70511 -11.3563,-6.55695 -18.4669,-17.62562 -20.3809,-29.63814 -11.6378,-3.26595 -23.9247,-5.04271 -36.6175,-5.04271 m -73.54043,21.76741 c -27.20746,17.72227 -47.5036,44.99059 -55.98647,76.98899 9.95178,7.64402 16.38702,19.65536 16.38702,33.17378 0,13.61387 -6.49849,25.69322 -16.57197,33.32768 8.36474,32.39696 28.80525,60.00895 56.29791,77.87202 l 24.65744,-42.70431 c -21.14807,-15.19496 -34.96241,-39.98011 -34.96241,-68.00854 0,-27.98071 13.74513,-52.74201 34.83119,-67.9465 l -24.65748,-42.70432 m -81.41599,76.83389 c -18.40123,0 -33.32769,14.92645 -33.32769,33.32769 0,18.40123 14.92646,33.32769 33.32769,33.32769 18.40123,0 33.3277,-14.92646 33.3277,-33.32769 0,-18.40124 -14.92647,-33.32769 -33.3277,-33.32769 m 238.34139,41.19841 c -3.7397,42.77353 -39.64,76.33987 -83.3802,76.33987 -12.5709,0 -24.4737,-2.78387 -35.1724,-7.74782 l -24.56561,42.55158 c 17.98241,8.88738 38.26781,13.89668 59.73451,13.89668 12.4003,0 24.3926,-1.67653 35.787,-4.7969 1.976,-11.91349 9.0794,-22.88668 20.357,-29.39233 11.5483,-6.66792 24.9402,-7.17148 36.4325,-2.58221 23.7673,-22.51558 39.1818,-53.62262 41.1066,-88.26887 h -50.2959 m -6.3338,93.74235 c -18.4012,0 -33.3276,14.92646 -33.3276,33.32769 0,18.40123 14.9264,33.29667 33.3276,33.29667 18.4013,0 33.3277,-14.89544 33.3277,-33.29667 0,-18.40123 -14.9264,-33.32769 -33.3277,-33.32769"
       inkscape:connector-curvature="0"
       id="path66"
       style="fill:#ffffff;fill-opacity:1" />
  </g>
</svg>
