<?xml version="1.0" encoding="UTF-8" standalone="no"?>
<!-- Created with Inkscape (http://www.inkscape.org/) -->

<svg
   version="1.1"
   width="100%"
   height="100%"
   viewBox="0 0 512 512"
   id="svg2"
   sodipodi:docname="firefox.svg"
   inkscape:version="1.1 (c68e22c387, 2021-05-23)"
   xmlns:inkscape="http://www.inkscape.org/namespaces/inkscape"
   xmlns:sodipodi="http://sodipodi.sourceforge.net/DTD/sodipodi-0.dtd"
   xmlns:xlink="http://www.w3.org/1999/xlink"
   xmlns="http://www.w3.org/2000/svg"
   xmlns:svg="http://www.w3.org/2000/svg"
   xmlns:rdf="http://www.w3.org/1999/02/22-rdf-syntax-ns#"
   xmlns:cc="http://creativecommons.org/ns#"
   xmlns:dc="http://purl.org/dc/elements/1.1/">
  <sodipodi:namedview
     id="namedview61"
     pagecolor="#ffffff"
     bordercolor="#666666"
     borderopacity="1.0"
     inkscape:pageshadow="2"
     inkscape:pageopacity="0.0"
     inkscape:pagecheckerboard="0"
     showgrid="false"
     inkscape:zoom="0.42773438"
     inkscape:cx="36.237442"
     inkscape:cy="320.29223"
     inkscape:window-width="1366"
     inkscape:window-height="708"
     inkscape:window-x="0"
     inkscape:window-y="0"
     inkscape:window-maximized="1"
     inkscape:current-layer="svg2" />
  <metadata
     id="metadata111">
    <rdf:RDF>
      <cc:Work
         rdf:about="">
        <dc:format>image/svg+xml</dc:format>
        <dc:type
           rdf:resource="http://purl.org/dc/dcmitype/StillImage" />
      </cc:Work>
    </rdf:RDF>
  </metadata>
  <defs
     id="defs4">
    <filter
       color-interpolation-filters="sRGB"
       id="7"
       x="-0.018107638"
       y="-0.017892786"
       width="1.0362153"
       height="1.0357856">
      <feGaussianBlur
         id="feGaussianBlur7"
         stdDeviation="3.7725" />
    </filter>
    <linearGradient
       y1="19.563999"
       x2="0"
       y2="504.01999"
       id="8"
       gradientUnits="userSpaceOnUse">
      <stop
         id="stop10"
         style="stop-color:#f3f3f3;stop-opacity:1"
         offset="0" />
      <stop
         id="stop12"
         style="stop-color:#eeeeee;stop-opacity:1"
         offset="0.5" />
      <stop
         id="stop14"
         style="stop-color:#ebebeb;stop-opacity:1"
         offset="1" />
    </linearGradient>
    <linearGradient
       x1="257"
       x2="362"
       id="5"
       xlink:href="#0"
       gradientUnits="userSpaceOnUse"
       gradientTransform="matrix(1.02835,0,0,1.46193,-399.97691,-130.28)" />
    <linearGradient
       x1="257"
       x2="362"
       id="6"
       xlink:href="#0"
       gradientUnits="userSpaceOnUse"
       gradientTransform="matrix(1.0381,0,0,1.46193,-550.48635,-116.629)" />
    <linearGradient
       x1="257"
       x2="362"
       id="4"
       xlink:href="#0"
       gradientUnits="userSpaceOnUse"
       gradientTransform="matrix(1.02835,0,0,1.46193,-546.95035,-116.629)" />
    <linearGradient
       x1="257"
       x2="362"
       id="3"
       xlink:href="#0"
       gradientUnits="userSpaceOnUse"
       gradientTransform="matrix(1.0381,0,0,1.46193,-527.01046,-86.359589)" />
    <linearGradient
       id="0">
      <stop
         id="stop21"
         style="stop-color:#000000;stop-opacity:1"
         offset="0" />
      <stop
         id="stop23"
         style="stop-color:#ffffff;stop-opacity:1"
         offset="1" />
    </linearGradient>
    <linearGradient
       x1="257"
       x2="362"
       id="2"
       xlink:href="#0"
       gradientUnits="userSpaceOnUse"
       gradientTransform="matrix(1.0381,0,0,1.46193,-511.48691,-118.25)" />
    <linearGradient
       x1="257"
       x2="362"
       id="1"
       xlink:href="#0"
       gradientUnits="userSpaceOnUse"
       gradientTransform="matrix(1.0381,0,0,1.46193,-511.49091,-118.25)" />
    <linearGradient
       id="0-3"
       gradientUnits="userSpaceOnUse"
       y1="42.369999"
       x2="0"
       y2="-6.4289999">
      <stop
         stop-color="#ff6835"
         id="stop2" />
      <stop
         offset="1"
         stop-color="#ff956f"
         id="stop4" />
    </linearGradient>
    <linearGradient
       inkscape:collect="always"
       xlink:href="#3-3"
       id="linearGradient898"
       x1="38.5"
       y1="256"
       x2="473.5"
       y2="256"
       gradientUnits="userSpaceOnUse"
       gradientTransform="matrix(1.102616,0,0,1.1026162,-538.5598,-25.979724)" />
    <linearGradient
       id="3-3"
       gradientUnits="userSpaceOnUse"
       x1="276.07001"
       y1="521.29999"
       x2="263.67999"
       y2="24.896"
       gradientTransform="matrix(0.09000258,0,0,0.08986572,-193.49954,235.54252)">
      <stop
         stop-color="#fc5500"
         id="stop17" />
      <stop
         offset="1"
         stop-color="#ffc200"
         id="stop19" />
    </linearGradient>
  </defs>
  <rect
     width="479.638"
     height="479.638"
     rx="239.819"
     x="-496.10901"
     y="16.471001"
     id="rect33"
     style="fill:url(#linearGradient898);fill-opacity:1;stroke-width:1.10261"
     transform="rotate(-90)"
     ry="239.819" />
  <text
     x="-2027.261"
     y="558.93616"
     id="text39"
     style="font-size:229.708px;line-height:125%;font-family:'Gentium Book Basic';letter-spacing:0;word-spacing:0;stroke-width:1.10261"><tspan
       x="-2027.261"
       y="558.93616"
       id="tspan41"
       style="stroke-width:1.10261" /></text>
  <text
     x="-154.86351"
     y="1622.2598"
     transform="scale(4.0128206,0.24920127)"
     id="text43"
     style="font-size:83.4677px;font-family:Arial;text-anchor:middle;stroke-width:1.10261" />
  <text
     x="56.815712"
     y="208.12784"
     id="text45"
     style="font-size:142.49px;line-height:125%;font-family:'Gentium Book Basic';letter-spacing:0;word-spacing:0;stroke-width:1.10261"><tspan
       x="56.815712"
       y="208.12784"
       id="tspan47"
       style="stroke-width:1.10261" /></text>
  <text
     x="231.45811"
     y="450.20697"
     transform="scale(4.0128206,0.24920127)"
     id="text49"
     style="font-size:51.772px;font-family:Arial;text-anchor:middle;stroke-width:1.10261" />
  <text
     x="697.73334"
     y="119.91859"
     id="text51"
     style="font-size:142.49px;line-height:125%;font-family:'Gentium Book Basic';letter-spacing:0;word-spacing:0;stroke-width:1.10261"><tspan
       x="697.73334"
       y="119.91859"
       id="tspan53"
       style="stroke-width:1.10261" /></text>
  <text
     x="391.17133"
     y="96.225029"
     transform="scale(4.0128206,0.24920127)"
     id="text55"
     style="font-size:51.772px;font-family:Arial;text-anchor:middle;stroke-width:1.10261" />
  <text
     x="-483.80804"
     y="-79.939453"
     id="text57"
     style="font-size:142.49px;line-height:125%;font-family:'Gentium Book Basic';letter-spacing:0;word-spacing:0;stroke-width:1.10261"><tspan
       x="-483.80804"
       y="-79.939453"
       id="tspan59"
       style="stroke-width:1.10261" /></text>
  <text
     x="96.730164"
     y="-705.74774"
     transform="scale(4.0128206,0.24920127)"
     id="text61"
     style="font-size:51.772px;font-family:Arial;text-anchor:middle;stroke-width:1.10261" />
  <text
     x="726.91968"
     y="-318.62497"
     id="text63"
     style="font-size:142.49px;line-height:125%;font-family:'Gentium Book Basic';letter-spacing:0;word-spacing:0;stroke-width:1.10261"><tspan
       x="726.91968"
       y="-318.62497"
       id="tspan65"
       style="stroke-width:1.10261" /></text>
  <text
     x="398.44861"
     y="-1663.5522"
     transform="scale(4.0128206,0.24920127)"
     id="text67"
     style="font-size:51.772px;font-family:Arial;text-anchor:middle;stroke-width:1.10261" />
  <text
     x="1367.8369"
     y="-406.83426"
     id="text69"
     style="font-size:142.49px;line-height:125%;font-family:'Gentium Book Basic';letter-spacing:0;word-spacing:0;stroke-width:1.10261"><tspan
       x="1367.8369"
       y="-406.83426"
       id="tspan71"
       style="stroke-width:1.10261" /></text>
  <text
     x="558.16156"
     y="-2017.5232"
     transform="scale(4.0128206,0.24920127)"
     id="text73"
     style="font-size:51.772px;font-family:Arial;text-anchor:middle;stroke-width:1.10261" />
  <text
     x="938.78741"
     y="-927.71021"
     id="text75"
     style="font-size:142.49px;line-height:125%;font-family:'Gentium Book Basic';letter-spacing:0;word-spacing:0;stroke-width:1.10261"><tspan
       x="938.78741"
       y="-927.71021"
       id="tspan77"
       style="stroke-width:1.10261" /></text>
  <text
     x="451.24142"
     y="-4107.6768"
     transform="scale(4.0128206,0.24920127)"
     id="text79"
     style="font-size:51.772px;font-family:Arial;text-anchor:middle;stroke-width:1.10261" />
  <text
     x="1579.6937"
     y="-1015.9304"
     id="text81"
     style="font-size:142.49px;line-height:125%;font-family:'Gentium Book Basic';letter-spacing:0;word-spacing:0;stroke-width:1.10261"><tspan
       x="1579.6937"
       y="-1015.9304"
       id="tspan83"
       style="stroke-width:1.10261" /></text>
  <text
     x="610.95459"
     y="-4461.6577"
     transform="scale(4.0128206,0.24920127)"
     id="text85"
     style="font-size:51.772px;font-family:Arial;text-anchor:middle;stroke-width:1.10261" />
  <text
     x="-441.18088"
     y="543.96265"
     id="text87"
     style="font-size:229.708px;line-height:125%;font-family:'Gentium Book Basic';letter-spacing:0;word-spacing:0;stroke-width:1.10261"><tspan
       x="-441.18088"
       y="543.96265"
       id="tspan89"
       style="stroke-width:1.10261" /></text>
  <g
     transform="matrix(1.1026162,0,0,1.1026161,685.51644,-11.336883)"
     id="g91"
     style="fill:#ffffff">
    <path
       d="m -382.86472,112.20747 c -41.63196,0 -79.277,17.21413 -106.31793,44.92096 1.25883,1.53917 2.76501,3.01424 4.57666,4.40107 h 0.0295 c 0.28148,-0.28796 0.53251,-0.59449 0.81584,-0.88059 13.10701,-13.19205 28.37267,-23.52127 45.36047,-30.74615 17.58122,-7.48682 36.26992,-11.29619 55.53081,-11.29619 18.18387,0 35.84723,3.38858 52.56092,10.06356 9.76335,1.698 22.79745,4.97512 33.64151,11.17451 -24.32854,-17.39155 -54.08186,-27.63903 -86.19874,-27.63903 m 53.89728,20.42158 c 31.07308,17.86713 46.2926,45.97989 46.2926,45.97989 -15.8554,-15.31734 -28.53972,-14.05406 -28.53972,-14.05406 9.5114,7.02053 13.945,14.68292 22.82605,28.7249 8.87829,14.04476 8.2498,47.20973 8.2498,47.20973 -4.43822,-10.85032 -13.32205,-15.31548 -13.32205,-15.31548 0,0 1.90856,19.16572 3.17754,30.01233 1.26899,10.85033 -4.43083,31.27747 -4.43083,31.27747 0,-7.65867 -4.43084,-9.59447 -4.43084,-9.59447 0,0 1.26899,4.48652 -5.07225,24.90996 -6.34124,20.42343 -18.38783,27.42631 -20.28993,26.78816 -1.90209,-0.63814 0,-3.81401 0,-3.81401 0,0 -3.17015,-2.56001 -7.60837,4.45959 -3.74051,5.92072 -10.19803,9.12074 -12.12689,9.97624 2.06821,-1.18154 2.59427,-5.51573 2.59427,-5.51573 0,0 -4.42807,2.55908 -24.72077,5.75074 -20.29177,3.19165 -29.79117,-5.75074 -29.79117,-5.75074 1.9021,-1.91443 10.75731,0 10.75731,0 0,-1.91443 -10.14358,-5.0903 -20.28993,-6.36659 -8.24979,-1.03756 -12.25424,-4.89244 -14.16741,-7.98099 -3.80419,-2.57209 -6.9725,-5.39498 -9.6203,-8.38785 -3.03357,-3.43224 -5.3565,-7.09855 -7.08417,-10.79738 -3.45718,-7.41066 -4.57573,-15.00152 -4.57665,-21.7118 9.2e-4,-6.33686 1.00411,-11.91297 1.98238,-15.9304 0.9792,-4.01837 1.93809,-6.48735 1.98239,-6.6016 l 0.14582,0.0585 c 1.19146,-3.68768 3.53009,-6.65455 6.29694,-7.86303 -0.86845,-0.59634 -1.76182,-1.1546 -2.68195,-1.6432 -4.14104,-2.22933 -8.82291,-3.14614 -13.43925,-2.37702 -4.62372,0.73661 -9.06748,3.04675 -13.00364,6.07399 -3.77558,2.89813 -6.77408,7.0326 -8.74539,11.58972 -1.98515,4.57105 -2.9745,9.60283 -2.97358,14.67084 -0.005,5.07358 0.99766,10.16295 2.82776,14.96436 1.82273,4.80699 4.47053,9.32602 7.66652,13.40848 3.20246,4.08896 6.92543,7.75899 10.98988,11.03239 -4.23887,-3.04211 -8.18888,-6.5115 -11.66082,-10.47506 -3.4701,-3.95427 -6.43261,-8.41571 -8.59957,-13.29144 -2.16974,-4.87015 -3.52179,-10.14344 -3.81896,-15.55049 -0.29809,-5.40055 0.45591,-10.92092 2.3617,-16.07903 1.90855,-5.14417 4.92089,-9.9428 9.23821,-13.67321 2.08668,-1.75838 4.38377,-3.37279 6.85068,-4.69088 2.46229,-1.32273 5.14055,-2.35287 7.95816,-2.93435 2.81761,-0.58241 5.75519,-0.6976 8.6291,-0.29353 2.8776,0.39478 5.66567,1.28744 8.24979,2.52286 2.58596,1.23449 4.98365,2.79595 7.17092,4.57755 1.09364,0.89266 2.12175,1.84012 3.1194,2.84611 0.49929,0.5016 0.98289,1.02177 1.45726,1.55496 0.39592,0.44772 0.76969,0.87408 1.16562,1.37939 2.25925,-5.89564 0.66264,-15.74091 0.29163,-17.80676 -1.19607,-1.7045 -2.8979,-3.85673 -4.81014,-6.92485 -1.44157,-2.31571 -2.98189,-5.15903 -4.57666,-8.77333 -2.49644,-5.65228 -3.35289,-11.35378 -3.35289,-16.4896 0.002,-5.99968 1.14993,-11.27854 2.30263,-15.0814 0.35624,-1.17226 0.72448,-2.2089 1.04934,-3.08112 3.58269,-15.68797 20.72646,-31.10099 20.72646,-31.10099 -24.09689,-3.19165 -40.57893,19.13043 -40.57893,19.13043 -0.0665,-0.0409 -0.13659,-0.0771 -0.20396,-0.11704 -1.70921,1.90607 -7.50502,8.73803 -8.04584,14.17202 0,0 0.19751,-9.78025 2.62381,-16.60664 -9.19392,-2.94828 -20.01398,-1.39333 -25.56614,-0.235 l 0.0581,0.17649 c -5.6869,1.02734 -10.89482,3.24367 -15.50839,6.01454 -4.61265,2.77087 -8.64571,6.09721 -11.95246,9.32602 -6.60426,6.45205 -10.31155,12.48981 -10.34846,12.55762 l -0.20396,-0.11704 c -11.67098,17.02278 -19.0071,53.34596 -19.0071,53.34596 1.26899,-5.74423 6.99649,-12.7629 6.99649,-12.7629 -6.34123,9.57311 -5.07225,53.60605 -5.07225,53.60605 0,-7.02052 3.78943,-15.31548 3.78943,-15.31548 1.26898,14.67919 7.61299,61.9103 48.82872,97.64457 41.21388,35.74449 76.08376,38.93521 76.08376,38.93521 -8.24333,-2.55258 -10.1445,-6.39631 -10.1445,-6.39631 26.63301,10.85033 43.11506,8.94889 43.11506,8.94889 -4.43822,-2.55258 -5.07226,-4.4893 -5.07226,-4.4893 28.53511,1.27721 66.59637,-8.93404 75.47466,-15.31549 8.87828,-6.38238 16.47097,-19.13042 16.47097,-19.13042 22.8279,-10.85033 38.6796,-33.20027 43.11505,-44.68874 4.43822,-11.48847 0,-23.61973 0,-23.61973 0,0 0.006,-0.62793 10.78592,-24.88116 10.70101,-24.07582 0.18366,-58.12973 0.0295,-58.62204 -0.0508,5.18226 -4.67171,12.38113 -5.56507,13.73173 0.18734,-0.48209 0.49559,-2.01383 0.49559,-6.80688 0,-7.02053 1.88087,-24.87187 -6.99649,-44.66087 -8.87829,-19.7825 -22.18649,-29.37047 -22.18649,-29.37047 v 4.45958 c -1.16008,-3.89296 -8.19718,-9.88428 -13.526,-13.99832 -3.40826,-2.62968 -6.12159,-4.51811 -6.12159,-4.51811 v 6.39632 c 31.70157,29.35932 34.86527,49.79111 34.86527,49.79111 -5.70721,-18.50899 -22.19571,-32.57605 -36.14994,-45.97989 -13.95423,-13.40291 -43.11506,-20.42157 -43.11506,-20.42157 m 98.29794,91.36529 c 0,-0.0288 0,-0.0594 0,-0.0882 h -0.0295 c 0,0 0.0277,0.0845 0.0295,0.0882 m -268.89575,-82.42012 c -12.21087,11.87118 -15.1743,31.89797 -15.80003,44.01066 0.17259,-0.20343 0.34424,-0.40871 0.52513,-0.61585 4.13274,-4.78377 10.1445,-10.7175 17.8987,-15.40373 2.67456,-1.61534 5.57431,-3.08019 8.65771,-4.28403 -12.21087,-10.22704 -11.28151,-23.70705 -11.28151,-23.70705 m 77.08049,48.5622 c -0.8463,3.17679 -1.60492,7.1803 -1.60307,11.56 9.2e-4,4.43172 0.7577,9.21827 2.82776,13.90729 1.66122,3.76478 3.20892,6.49942 4.63295,8.71389 1.00319,1.55588 1.95655,2.85261 2.82776,4.04901 1.78581,-1.65342 3.86141,-3.31519 5.56508,-4.45958 3.80511,-2.55258 18.38783,-9.55732 20.28993,-11.47268 1.90209,-1.91444 5.7072,-12.12197 2.53612,-15.31549 -3.17108,-3.19165 -23.45085,-1.27629 -29.79117,-2.55258 -2.65887,-0.53504 -5.22545,-2.42532 -7.28813,-4.43079 m 4.16874,62.34688 -0.0877,0.0585 c 0.0194,0.0511 0.0295,0.0882 0.0295,0.0882 0.024,-0.0492 0.0342,-0.0966 0.0582,-0.14676 m -16.06213,19.0719 c -0.25472,2.14201 -0.40884,4.44565 -0.40792,6.8654 -9.2e-4,4.50603 0.56943,9.38176 2.09867,14.20082 1.53293,4.8265 4.00538,9.60562 7.92954,14.05406 2.61827,2.96222 5.88994,5.77303 9.97008,8.33304 l -0.23349,0.38177 c 7.66651,0.14027 20.12103,-0.0223 26.44012,-2.14201 9.51139,-3.19165 24.74937,-15.31548 24.74937,-15.31548 3.80511,-3.8298 8.23503,-1.90701 12.04383,-1.90701 3.80511,0 5.07317,-5.72844 0,-11.47268 -5.07317,-5.74423 -22.83159,-11.51726 -36.14994,-2.5823 -13.31651,8.93589 -32.3476,1.91536 -43.75463,-7.65774 -1.03733,-0.87037 -1.92608,-1.78811 -2.68194,-2.75787"
       inkscape:connector-curvature="0"
       id="path93"
       style="opacity:0.2;fill:#ffffff;stroke-width:0.925888" />
    <path
       d="m -396.7082,98.274169 c -41.63196,0 -79.277,17.214131 -106.31793,44.920961 1.25883,1.53917 2.76501,3.01424 4.57666,4.40107 h 0.0295 c 0.28148,-0.28796 0.53251,-0.59449 0.81584,-0.88059 13.10701,-13.19205 28.37267,-23.52127 45.36047,-30.74615 17.58122,-7.48683 36.26992,-11.29619 55.53081,-11.29619 18.18387,0 35.84723,3.38858 52.56092,10.06356 9.76335,1.698 22.79745,4.97512 33.64151,11.17451 -24.32853,-17.39155 -54.08186,-27.639029 -86.19874,-27.639029 m 53.89728,20.421579 c 31.07308,17.86713 46.2926,45.97989 46.2926,45.97989 -15.8554,-15.31734 -28.53972,-14.05406 -28.53972,-14.05406 9.5114,7.02053 13.945,14.68291 22.82605,28.7249 8.87829,14.04476 8.2498,47.20973 8.2498,47.20973 -4.43822,-10.85032 -13.32205,-15.31548 -13.32205,-15.31548 0,0 1.90856,19.16572 3.17754,30.01233 1.26899,10.85032 -4.43083,31.27747 -4.43083,31.27747 0,-7.65867 -4.43084,-9.59447 -4.43084,-9.59447 0,0 1.26899,4.48652 -5.07225,24.90996 -6.34124,20.42343 -18.38783,27.42631 -20.28993,26.78816 -1.90209,-0.63814 0,-3.81401 0,-3.81401 0,0 -3.17015,-2.56001 -7.60837,4.45959 -3.74051,5.92072 -10.19803,9.12074 -12.12689,9.97624 2.06821,-1.18154 2.59427,-5.51573 2.59427,-5.51573 0,0 -4.42807,2.55908 -24.72077,5.75074 -20.29177,3.19165 -29.79117,-5.75074 -29.79117,-5.75074 1.9021,-1.91443 10.75731,0 10.75731,0 0,-1.91443 -10.14358,-5.0903 -20.28993,-6.36659 -8.24979,-1.03757 -12.25424,-4.89245 -14.16741,-7.98099 -3.80419,-2.57209 -6.9725,-5.39498 -9.6203,-8.38785 -3.03357,-3.43224 -5.3565,-7.09855 -7.08417,-10.79738 -3.45718,-7.41066 -4.57573,-15.00152 -4.57665,-21.7118 9.2e-4,-6.33686 1.00411,-11.91297 1.98238,-15.9304 0.9792,-4.01837 1.93809,-6.48735 1.98239,-6.6016 l 0.14582,0.0585 c 1.19146,-3.68768 3.53009,-6.65455 6.29694,-7.86303 -0.86845,-0.59634 -1.76182,-1.15461 -2.68195,-1.6432 -4.14104,-2.22933 -8.82291,-3.14614 -13.43925,-2.37702 -4.62372,0.73661 -9.06748,3.04675 -13.00364,6.07399 -3.77558,2.89813 -6.77408,7.0326 -8.74539,11.58972 -1.98515,4.57105 -2.9745,9.60283 -2.97358,14.67084 -0.005,5.07358 0.99766,10.16295 2.82776,14.96436 1.82273,4.80699 4.47053,9.32602 7.66652,13.40848 3.20246,4.08896 6.92543,7.75899 10.98988,11.03239 -4.23887,-3.04211 -8.18888,-6.5115 -11.66082,-10.47506 -3.4701,-3.95427 -6.43261,-8.41571 -8.59957,-13.29144 -2.16974,-4.87015 -3.52178,-10.14344 -3.81896,-15.55049 -0.29809,-5.40055 0.45591,-10.92092 2.3617,-16.07903 1.90855,-5.14417 4.9209,-9.9428 9.23821,-13.67321 2.08668,-1.75838 4.38377,-3.37279 6.85068,-4.69088 2.4623,-1.32273 5.14055,-2.35287 7.95816,-2.93435 2.81761,-0.58241 5.75519,-0.6976 8.6291,-0.29353 2.8776,0.39478 5.66567,1.28744 8.24979,2.52286 2.58596,1.23449 4.98365,2.79594 7.17092,4.57755 1.09364,0.89266 2.12175,1.84012 3.1194,2.84611 0.49929,0.5016 0.98289,1.02177 1.45726,1.55495 0.39592,0.44773 0.76969,0.87409 1.16562,1.3794 2.25925,-5.89564 0.66264,-15.74091 0.29163,-17.80676 -1.19607,-1.7045 -2.8979,-3.85673 -4.81014,-6.92485 -1.44157,-2.31571 -2.98189,-5.15903 -4.57666,-8.77333 -2.49644,-5.65228 -3.35289,-11.35378 -3.35289,-16.4896 0.002,-5.99968 1.14993,-11.27854 2.30263,-15.0814 0.35624,-1.17226 0.72448,-2.2089 1.04934,-3.08112 3.58269,-15.68797 20.72646,-31.10099 20.72646,-31.10099 -24.09689,-3.19165 -40.57893,19.13043 -40.57893,19.13043 -0.0665,-0.0409 -0.13659,-0.0771 -0.20396,-0.11704 -1.70921,1.90607 -7.50502,8.73803 -8.04583,14.17202 0,0 0.1975,-9.78025 2.6238,-16.60664 -9.19392,-2.94828 -20.01398,-1.39333 -25.56614,-0.235 l 0.0581,0.17648 c -5.6869,1.02735 -10.89482,3.24368 -15.50839,6.01455 -4.61265,2.77086 -8.64571,6.09721 -11.95246,9.32602 -6.60426,6.45205 -10.31155,12.49074 -10.34846,12.55762 l -0.20396,-0.11704 c -11.67098,17.02278 -19.0071,53.34596 -19.0071,53.34596 1.26899,-5.74423 6.99649,-12.7629 6.99649,-12.7629 -6.34123,9.57311 -5.07225,53.60605 -5.07225,53.60605 0,-7.02053 3.78943,-15.31548 3.78943,-15.31548 1.26898,14.67919 7.61299,61.9103 48.82872,97.64457 41.21388,35.74449 76.08376,38.93521 76.08376,38.93521 -8.24333,-2.55258 -10.1445,-6.39631 -10.1445,-6.39631 26.63301,10.85032 43.11506,8.94889 43.11506,8.94889 -4.43822,-2.55258 -5.07225,-4.48931 -5.07225,-4.48931 28.5351,1.27722 66.59636,-8.93403 75.47465,-15.31548 8.87828,-6.38238 16.47097,-19.13042 16.47097,-19.13042 22.8279,-10.85033 38.6796,-33.20027 43.11505,-44.68874 4.43822,-11.48847 0,-23.61973 0,-23.61973 0,0 0.006,-0.62793 10.78592,-24.88116 10.70101,-24.07582 0.18366,-58.12973 0.0295,-58.62204 -0.0508,5.18226 -4.67171,12.38113 -5.56507,13.73173 0.18734,-0.48209 0.49559,-2.01383 0.49559,-6.80688 0,-7.02053 1.88087,-24.87187 -6.99649,-44.66088 -8.87829,-19.7825 -22.18649,-29.37046 -22.18649,-29.37046 v 4.45958 c -1.16008,-3.89296 -8.19718,-9.88428 -13.526,-13.99832 -3.40826,-2.62968 -6.12159,-4.51811 -6.12159,-4.51811 v 6.39632 c 31.70157,29.35932 34.86527,49.79111 34.86527,49.79111 -5.70721,-18.50899 -22.19571,-32.57606 -36.14994,-45.97989 -13.95423,-13.40291 -43.11506,-20.42157 -43.11506,-20.42157 m 98.29794,91.36529 c 0,-0.0288 0,-0.0595 0,-0.0882 h -0.0295 c 0,0 0.0277,0.0845 0.0295,0.0882 m -268.89575,-82.42012 c -12.21087,11.87118 -15.1743,31.89797 -15.80003,44.01066 0.17259,-0.20343 0.34424,-0.40871 0.52513,-0.61586 4.13274,-4.78376 10.1445,-10.71749 17.8987,-15.40372 2.67456,-1.61534 5.57431,-3.08019 8.65771,-4.28403 -12.21087,-10.22704 -11.28151,-23.70705 -11.28151,-23.70705 m 77.08049,48.5622 c -0.84629,3.17679 -1.60492,7.1803 -1.60307,11.56 9.2e-4,4.43172 0.7577,9.21827 2.82776,13.90729 1.66122,3.76478 3.20892,6.49942 4.63295,8.71388 1.00319,1.55589 1.95655,2.85262 2.82776,4.04902 1.78581,-1.65342 3.86141,-3.31519 5.56508,-4.45958 3.80511,-2.55258 18.38783,-9.55732 20.28993,-11.47268 1.90209,-1.91444 5.7072,-12.12197 2.53612,-15.31549 -3.17108,-3.19165 -23.45085,-1.27629 -29.79116,-2.55258 -2.65888,-0.53504 -5.22546,-2.42532 -7.28814,-4.43079 m 4.16874,62.34688 -0.0877,0.0585 c 0.0194,0.0511 0.0295,0.0882 0.0295,0.0882 0.024,-0.0492 0.0341,-0.0966 0.0581,-0.14676 m -16.06213,19.0719 c -0.25472,2.14201 -0.40884,4.44565 -0.40792,6.8654 -9.2e-4,4.50603 0.56943,9.38176 2.09867,14.20082 1.53293,4.8265 4.00538,9.60562 7.92955,14.05406 2.61826,2.96222 5.88993,5.77303 9.97007,8.33304 l -0.23349,0.38177 c 7.66652,0.14027 20.12103,-0.0223 26.44012,-2.14201 9.51139,-3.19165 24.74937,-15.31548 24.74937,-15.31548 3.80511,-3.8298 8.23503,-1.90701 12.04383,-1.90701 3.80511,0 5.07317,-5.72844 0,-11.47268 -5.07317,-5.74423 -22.83159,-11.51726 -36.14994,-2.5823 -13.3165,8.93589 -32.3476,1.91536 -43.75463,-7.65774 -1.03733,-0.87037 -1.92608,-1.78811 -2.68194,-2.75787"
       inkscape:connector-curvature="0"
       id="path95"
       style="fill:#ffffff;stroke-width:0.925888" />
  </g>
</svg>
