<?xml version="1.0" encoding="UTF-8" standalone="no"?>
<!-- Created with Inkscape (http://www.inkscape.org/) -->

<svg
   version="1.1"
   width="100%"
   height="100%"
   viewBox="0 0 512 512"
   id="svg2"
   sodipodi:docname="microsoft-edge.svg"
   inkscape:version="1.1 (c68e22c387, 2021-05-23)"
   xmlns:inkscape="http://www.inkscape.org/namespaces/inkscape"
   xmlns:sodipodi="http://sodipodi.sourceforge.net/DTD/sodipodi-0.dtd"
   xmlns:xlink="http://www.w3.org/1999/xlink"
   xmlns="http://www.w3.org/2000/svg"
   xmlns:svg="http://www.w3.org/2000/svg"
   xmlns:rdf="http://www.w3.org/1999/02/22-rdf-syntax-ns#"
   xmlns:cc="http://creativecommons.org/ns#"
   xmlns:dc="http://purl.org/dc/elements/1.1/">
  <sodipodi:namedview
     id="namedview39"
     pagecolor="#ffffff"
     bordercolor="#666666"
     borderopacity="1.0"
     inkscape:pageshadow="2"
     inkscape:pageopacity="0.0"
     inkscape:pagecheckerboard="0"
     showgrid="false"
     inkscape:zoom="0.30245387"
     inkscape:cx="166.96761"
     inkscape:cy="366.99811"
     inkscape:window-width="1366"
     inkscape:window-height="706"
     inkscape:window-x="0"
     inkscape:window-y="0"
     inkscape:window-maximized="1"
     inkscape:current-layer="svg2" />
  <metadata
     id="metadata65">
    <rdf:RDF>
      <cc:Work
         rdf:about="">
        <dc:format>image/svg+xml</dc:format>
        <dc:type
           rdf:resource="http://purl.org/dc/dcmitype/StillImage" />
      </cc:Work>
    </rdf:RDF>
  </metadata>
  <defs
     id="defs4">
    <linearGradient
       inkscape:collect="always"
       id="linearGradient1019">
      <stop
         style="stop-color:#000000;stop-opacity:1;"
         offset="0"
         id="stop1015" />
      <stop
         style="stop-color:#000000;stop-opacity:0;"
         offset="1"
         id="stop1017" />
    </linearGradient>
    <filter
       color-interpolation-filters="sRGB"
       id="7"
       x="-0.018107638"
       y="-0.017892786"
       width="1.0362153"
       height="1.0357856">
      <feGaussianBlur
         id="feGaussianBlur7"
         stdDeviation="3.7725" />
    </filter>
    <linearGradient
       y1="19.563999"
       x2="0"
       y2="504.01999"
       id="8"
       gradientUnits="userSpaceOnUse">
      <stop
         id="stop10"
         style="stop-color:#f3f3f3;stop-opacity:1"
         offset="0" />
      <stop
         id="stop12"
         style="stop-color:#eeeeee;stop-opacity:1"
         offset="0.5" />
      <stop
         id="stop14"
         style="stop-color:#ebebeb;stop-opacity:1"
         offset="1" />
    </linearGradient>
    <linearGradient
       x1="257"
       x2="362"
       id="5"
       xlink:href="#0"
       gradientUnits="userSpaceOnUse"
       gradientTransform="matrix(1.02835,0,0,1.46193,-383.73694,-115.70205)" />
    <linearGradient
       x1="257"
       x2="362"
       id="6"
       xlink:href="#0"
       gradientUnits="userSpaceOnUse"
       gradientTransform="matrix(1.0381,0,0,1.46193,-467.2489,-124.14041)" />
    <linearGradient
       x1="257"
       x2="362"
       id="4"
       xlink:href="#0"
       gradientUnits="userSpaceOnUse"
       gradientTransform="matrix(1.02835,0,0,1.46193,-610.00374,-127.97146)" />
    <linearGradient
       x1="257"
       x2="362"
       id="3"
       xlink:href="#0"
       gradientUnits="userSpaceOnUse"
       gradientTransform="matrix(1.0381,0,0,1.46193,-427.0919,-112.11041)" />
    <linearGradient
       id="0">
      <stop
         id="stop21"
         style="stop-color:#000000;stop-opacity:1"
         offset="0" />
      <stop
         id="stop23"
         style="stop-color:#ffffff;stop-opacity:1"
         offset="1" />
    </linearGradient>
    <linearGradient
       x1="257"
       x2="362"
       id="2"
       xlink:href="#0"
       gradientUnits="userSpaceOnUse"
       gradientTransform="matrix(1.0381,0,0,1.46193,-467.2489,-112.11041)" />
    <linearGradient
       x1="257"
       x2="362"
       id="1"
       xlink:href="#0"
       gradientUnits="userSpaceOnUse"
       gradientTransform="matrix(1.0381,0,0,1.46193,-467.2529,-112.11041)" />
    <linearGradient
       id="linearGradient932"
       x1="11.788"
       x2="52.749001"
       y1="25.106001"
       y2="25.106001"
       gradientTransform="matrix(9.4007305,0,0,9.0545801,-42.925626,-42.590327)"
       gradientUnits="userSpaceOnUse">
      <stop
         stop-color="#40bfff"
         offset="0"
         id="stop5" />
      <stop
         stop-color="#5fde56"
         offset="1"
         id="stop7" />
    </linearGradient>
    <filter
       id="filter980"
       x="-0.15716941"
       y="-0.082264264"
       width="1.3143388"
       height="1.1645285"
       color-interpolation-filters="sRGB">
      <feGaussianBlur
         stdDeviation="1.1515148"
         id="feGaussianBlur23" />
    </filter>
    <linearGradient
       id="linearGradient940"
       x1="11.804"
       x2="30.743"
       y1="36.254002"
       y2="36.254002"
       gradientTransform="matrix(9.4007305,0,0,9.0545801,-42.925626,-42.590327)"
       gradientUnits="userSpaceOnUse">
      <stop
         stop-color="#0078d4"
         offset="0"
         id="stop10-3" />
      <stop
         stop-color="#108ddc"
         offset="1"
         id="stop12-6" />
    </linearGradient>
    <linearGradient
       id="linearGradient948"
       x1="21.181999"
       x2="49.712002"
       y1="40.243"
       y2="40.243"
       gradientTransform="matrix(9.4007305,0,0,9.0545801,-42.925626,-42.590327)"
       gradientUnits="userSpaceOnUse">
      <stop
         stop-color="#0b4e90"
         offset="0"
         id="stop15" />
      <stop
         stop-color="#0d559d"
         offset="1"
         id="stop17" />
    </linearGradient>
    <linearGradient
       id="linearGradient862"
       x1="7.9373002"
       x2="7.9373002"
       y1="15.081"
       y2="1.852"
       gradientTransform="matrix(3.7796,0,0,3.7796,834.24679,220.96153)"
       gradientUnits="userSpaceOnUse">
      <stop
         stop-color="#f3f1ee"
         offset="0"
         id="stop26" />
      <stop
         stop-color="#fff"
         offset="1"
         id="stop28" />
    </linearGradient>
    <linearGradient
       inkscape:collect="always"
       xlink:href="#linearGradient1019"
       id="linearGradient1023"
       gradientUnits="userSpaceOnUse"
       x1="238.16872"
       y1="192.57468"
       x2="261.2798"
       y2="192.57468" />
    <linearGradient
       inkscape:collect="always"
       xlink:href="#linearGradient862"
       id="linearGradient1063"
       x1="-471.38998"
       y1="-256.77002"
       x2="-42.041992"
       y2="-256.77002"
       gradientUnits="userSpaceOnUse"
       gradientTransform="matrix(1.1171311,0,0,1.0999812,30.495379,26.152198)" />
  </defs>
  <rect
     width="479.638"
     height="479.638"
     rx="239.819"
     x="-496.10898"
     y="-496.10901"
     id="rect33"
     style="fill:url(#linearGradient1063);fill-opacity:1;stroke-width:1.10261"
     transform="scale(-1)"
     ry="239.819" />
  <path
     class="cls-1"
     d="m 415.44946,341.37775 c -18.45128,17.48523 -47.07274,21.63532 -69.85214,21.7436 -71.17539,0 -133.17854,-52.71307 -133.17854,-113.2222 0.18519,-16.52492 9.64032,-31.65997 24.71263,-39.55986 -64.37685,2.60737 -80.92257,67.21264 -80.92257,105.06577 0,107.01837 102.42021,117.87287 124.47995,117.87287 11.89789,0 29.84239,-3.3317 40.61148,-6.60537 l 1.97046,-0.63724 c 41.44265,-13.79755 76.77233,-40.77223 100.17183,-76.48378 3.34243,-5.07142 -2.54984,-11.08702 -8.00195,-8.16981 z"
     fill="url(#linearGradient948)"
     stroke-width="6.74888"
     id="path39"
     style="fill:url(#linearGradient948);fill-opacity:1" />
  <path
     class="cls-3"
     d="m 221.15053,415.07823 c -13.41554,-8.01919 -25.04251,-18.52718 -34.20365,-30.91178 -44.45397,-58.65419 -17.44875,-141.73852 50.19189,-173.82274 4.69289,-2.12935 12.7097,-5.98247 23.37467,-5.79415 15.2308,0.10747 29.53091,7.07575 38.6414,18.83073 6.07409,7.81034 9.42285,17.27311 9.5666,27.02972 0,-0.30443 36.79113,-115.3079 -120.33339,-115.3079 -66.03181,0 -120.333422,60.34672 -120.333422,113.29321 -0.260772,28.00689 5.961942,55.71824 18.215427,81.11845 41.450015,85.17181 142.559005,126.96116 235.211755,97.21116 -31.72032,9.63147 -72.00561,5.39671 -100.20873,-11.58848 z"
     fill="url(#linearGradient940)"
     stroke-width="6.74888"
     id="path41"
     style="fill:url(#linearGradient940);fill-opacity:1" />
  <path
     d="m 244.07296,175.77738 c -1.0829,0 -2.1318,0.17086 -3.1406,0.45508 0.81882,-0.18428 1.6634,-0.28906 2.5273,-0.28906 13.111,0 13.776,7.6429 13.385,11.199 0.1801,0.5206 0.27922,1.0693 0.28711,1.627 0,-0.0343 3.9928,-12.992 -13.059,-12.992 z m 6.1797,8.1035 c -0.64425,0.13964 -1.1603,0.38005 -1.502,0.54102 -7.3406,3.6155 -10.272,12.975 -5.4473,19.584 0.99423,1.3955 2.255,2.5808 3.7109,3.4844 l 0.0156,0.006 c 3.0602,1.9137 7.4326,2.3899 10.875,1.3047 -0.44828,0.14941 -0.90029,0.2632 -1.3516,0.38086 0.65667,-0.15028 1.3119,-0.3299 1.9629,-0.54688 -3.4424,1.0852 -7.8128,0.60906 -10.873,-1.3047 l -0.0156,-0.008 c -1.4559,-0.90354 -2.7167,-2.0869 -3.7109,-3.4824 -4.8243,-6.6087 -1.8953,-15.97 5.4453,-19.586 0.22489,-0.10594 0.53137,-0.24729 0.89062,-0.37305 z"
     filter="url(#filter980)"
     opacity="0.35"
     stroke-width="0.74628"
     id="path45"
     transform="matrix(9.1010035,0,0,8.2969316,-2031.4356,-1315.7968)"
     style="fill:url(#linearGradient1023);fill-opacity:1" />
  <path
     class="cls-5"
     d="m 297.01428,272.7983 c -1.21834,1.52096 -4.96362,3.62139 -4.96362,8.19883 0,3.78072 2.55705,7.41655 7.09948,10.47286 21.62942,14.48538 62.40677,12.57363 62.51182,12.57363 16.02696,-0.0355 31.74981,-4.21398 45.53024,-12.09525 28.28603,-15.90632 45.70345,-36.84581 45.77071,-68.39041 0.39071,-32.46229 -12.03333,-54.04523 -17.05713,-63.60571 C 404.03343,99.909957 335.23634,65.377068 260.42303,65.377068 155.13709,65.367768 69.376832,146.8026 67.893281,248.1816 68.615706,195.25197 123.24535,146.1423 188.2267,146.1423 c 5.26447,0 35.28728,0.49258 63.1734,14.58653 24.57717,12.42899 37.45273,33.79626 46.40286,48.67304 13.00824,23.63759 13.56758,45.34747 -0.78231,63.39271 z"
     fill="url(#linearGradient932)"
     stroke-width="6.74888"
     id="path47"
     style="fill:url(#linearGradient932);fill-opacity:1" />
</svg>
