<?xml version="1.0" encoding="UTF-8" standalone="no"?>
<!-- Created with Inkscape (http://www.inkscape.org/) -->

<svg
   version="1.1"
   width="100%"
   height="100%"
   viewBox="0 0 512 512"
   id="svg2"
   sodipodi:docname="applications-utilities (copy).svg"
   inkscape:version="1.1 (c68e22c387, 2021-05-23)"
   xmlns:inkscape="http://www.inkscape.org/namespaces/inkscape"
   xmlns:sodipodi="http://sodipodi.sourceforge.net/DTD/sodipodi-0.dtd"
   xmlns:xlink="http://www.w3.org/1999/xlink"
   xmlns="http://www.w3.org/2000/svg"
   xmlns:svg="http://www.w3.org/2000/svg"
   xmlns:rdf="http://www.w3.org/1999/02/22-rdf-syntax-ns#"
   xmlns:cc="http://creativecommons.org/ns#"
   xmlns:dc="http://purl.org/dc/elements/1.1/">
  <sodipodi:namedview
     id="namedview39"
     pagecolor="#ffffff"
     bordercolor="#666666"
     borderopacity="1.0"
     inkscape:pageshadow="2"
     inkscape:pageopacity="0.0"
     inkscape:pagecheckerboard="0"
     showgrid="false"
     inkscape:zoom="0.60490775"
     inkscape:cx="215.73538"
     inkscape:cy="327.32264"
     inkscape:window-width="1366"
     inkscape:window-height="706"
     inkscape:window-x="0"
     inkscape:window-y="0"
     inkscape:window-maximized="1"
     inkscape:current-layer="svg2" />
  <metadata
     id="metadata65">
    <rdf:RDF>
      <cc:Work
         rdf:about="">
        <dc:format>image/svg+xml</dc:format>
        <dc:type
           rdf:resource="http://purl.org/dc/dcmitype/StillImage" />
      </cc:Work>
    </rdf:RDF>
  </metadata>
  <defs
     id="defs4">
    <filter
       color-interpolation-filters="sRGB"
       id="7"
       x="-0.018107638"
       y="-0.017892786"
       width="1.0362153"
       height="1.0357856">
      <feGaussianBlur
         id="feGaussianBlur7"
         stdDeviation="3.7725" />
    </filter>
    <linearGradient
       y1="19.563999"
       x2="0"
       y2="504.01999"
       id="8"
       gradientUnits="userSpaceOnUse">
      <stop
         id="stop10"
         style="stop-color:#f3f3f3;stop-opacity:1"
         offset="0" />
      <stop
         id="stop12"
         style="stop-color:#eeeeee;stop-opacity:1"
         offset="0.5" />
      <stop
         id="stop14"
         style="stop-color:#ebebeb;stop-opacity:1"
         offset="1" />
    </linearGradient>
    <linearGradient
       x1="257"
       x2="362"
       id="5"
       xlink:href="#0"
       gradientUnits="userSpaceOnUse"
       gradientTransform="matrix(1.02835,0,0,1.46193,-383.73694,-115.70205)" />
    <linearGradient
       x1="257"
       x2="362"
       id="6"
       xlink:href="#0"
       gradientUnits="userSpaceOnUse"
       gradientTransform="matrix(1.0381,0,0,1.46193,-467.2489,-124.14041)" />
    <linearGradient
       x1="257"
       x2="362"
       id="4"
       xlink:href="#0"
       gradientUnits="userSpaceOnUse"
       gradientTransform="matrix(1.02835,0,0,1.46193,-610.00374,-127.97146)" />
    <linearGradient
       x1="257"
       x2="362"
       id="3"
       xlink:href="#0"
       gradientUnits="userSpaceOnUse"
       gradientTransform="matrix(1.0381,0,0,1.46193,-427.0919,-112.11041)" />
    <linearGradient
       id="0">
      <stop
         id="stop21"
         style="stop-color:#000000;stop-opacity:1"
         offset="0" />
      <stop
         id="stop23"
         style="stop-color:#ffffff;stop-opacity:1"
         offset="1" />
    </linearGradient>
    <linearGradient
       x1="257"
       x2="362"
       id="2"
       xlink:href="#0"
       gradientUnits="userSpaceOnUse"
       gradientTransform="matrix(1.0381,0,0,1.46193,-467.2489,-112.11041)" />
    <linearGradient
       x1="257"
       x2="362"
       id="1"
       xlink:href="#0"
       gradientUnits="userSpaceOnUse"
       gradientTransform="matrix(1.0381,0,0,1.46193,-467.2529,-112.11041)" />
    <linearGradient
       id="f"
       x1="86"
       x2="63"
       y1="19.458"
       y2="39"
       gradientTransform="matrix(9.9216009,0,0,9.0103275,-1163.4657,-121.67081)"
       gradientUnits="userSpaceOnUse">
      <stop
         stop-color="#007abb"
         offset="0"
         id="stop7" />
      <stop
         stop-color="#006caf"
         offset="1"
         id="stop9" />
    </linearGradient>
    <linearGradient
       id="d"
       x1="87"
       x2="63"
       y1="46"
       y2="24"
       gradientTransform="matrix(1.146,0,0,1.146,-57.378,-5.1691)"
       gradientUnits="userSpaceOnUse">
      <stop
         stop-color="#0080ce"
         offset="0"
         id="stop13" />
      <stop
         stop-color="#008fd5"
         offset="1"
         id="stop15" />
    </linearGradient>
    <linearGradient
       id="c"
       x1="86"
       x2="83"
       y1="44"
       y2="44"
       gradientTransform="matrix(1.146,0,0,1.146,-57.378,-5.1691)"
       gradientUnits="userSpaceOnUse"
       xlink:href="#a" />
    <linearGradient
       id="a">
      <stop
         offset="0"
         id="stop2" />
      <stop
         stop-opacity="0"
         offset="1"
         id="stop4" />
    </linearGradient>
    <linearGradient
       id="e"
       x1="86"
       x2="83"
       y1="20"
       y2="20"
       gradientTransform="matrix(1.146,0,0,1.146,-57.378,-5.1691)"
       gradientUnits="userSpaceOnUse"
       xlink:href="#a" />
    <linearGradient
       inkscape:collect="always"
       xlink:href="#1-9-6"
       id="linearGradient1386"
       x1="38.5"
       y1="256"
       x2="473.5"
       y2="256"
       gradientUnits="userSpaceOnUse"
       gradientTransform="matrix(1.1007902,0,0,1.1039575,-537.69515,-25.254093)" />
    <linearGradient
       gradientUnits="userSpaceOnUse"
       y2="533.06"
       x2="0"
       y1="541.15997"
       id="1-9"
       gradientTransform="matrix(1.49857,0,0,1.49857,100.4386,-473.61451)">
      <stop
         stop-color="#0976da"
         id="stop52" />
      <stop
         offset="1"
         stop-color="#5de5f0"
         id="stop54" />
    </linearGradient>
    <linearGradient
       id="c-3"
       x1="24.535"
       x2="24.535"
       y1="7.0931001"
       y2="44.483002"
       gradientTransform="matrix(1.4364,0,0,1.4364,1113.3157,-663.27108)"
       gradientUnits="userSpaceOnUse">
      <stop
         stop-color="#76dd38"
         offset="0"
         id="stop4-3" />
      <stop
         stop-color="#42c440"
         offset=".48433"
         id="stop6" />
      <stop
         stop-color="#14ab4b"
         offset="1"
         id="stop8" />
    </linearGradient>
    <linearGradient
       gradientUnits="userSpaceOnUse"
       y2="533.06"
       x2="0"
       y1="541.15997"
       id="1-9-6"
       gradientTransform="matrix(1.49857,0,0,1.49857,100.4386,-473.61451)">
      <stop
         stop-color="#0976da"
         id="stop52-7" />
      <stop
         offset="1"
         stop-color="#5de5f0"
         id="stop54-5" />
    </linearGradient>
    <linearGradient
       id="2-3"
       gradientUnits="userSpaceOnUse"
       y1="542.20001"
       x2="0"
       y2="526.20001"
       gradientTransform="matrix(16.218891,-6.4141578,7.1895904,14.331381,-10274.105,-4767.1645)">
      <stop
         stop-color="#e3e3e3"
         id="stop2-6" />
      <stop
         offset="1"
         stop-color="#fffcff"
         id="stop4-7" />
    </linearGradient>
  </defs>
  <rect
     width="478.84375"
     height="480.22144"
     rx="239.42188"
     x="-495.31476"
     y="17.248291"
     id="rect33"
     style="fill:url(#linearGradient1386);fill-opacity:1;stroke-width:1.10236"
     ry="240.11072"
     transform="rotate(-90)" />
  <ellipse
     cx="255.74384"
     cy="258.97556"
     fill="#ffffff"
     opacity="0.1"
     style="stroke-width:32.9636;paint-order:stroke markers fill;opacity:0.20127378"
     id="circle8"
     rx="200.70776"
     ry="200.47946" />
  <path
     d="M 256.32453,98.962536 A 157.76313,162.06399 0 0 0 98.524172,261.02648 157.76313,162.06399 0 0 0 256.32453,423.12881 157.76313,162.06399 0 0 0 414.0877,261.02648 157.76313,162.06399 0 0 0 256.32453,98.962536 Z m 14.05072,17.305214 c 15.3552,1.45481 30.18857,5.01546 43.71746,11.10285 a 13.230785,13.591476 0 0 0 -2.57159,4.74743 c -4.13699,12.78751 -10.32374,6.66173 -3.05615,22.70357 7.26769,16.00345 13.34262,20.13835 15.42975,12.67264 2.08713,-7.46582 -5.21783,-17.99442 3.09342,-13.70636 8.31116,4.24967 14.46064,-1.18689 8.19934,8.42286 -6.22413,9.60975 -6.07503,14.85495 -13.34262,12.71092 -7.30487,-2.14403 -7.15577,12.63434 -14.42346,14.77838 -7.26759,2.14392 -9.80191,-3.21605 -9.80191,2.10563 0,5.36008 4.17417,0.3829 3.1307,8.99721 -0.33527,2.60341 -0.26131,3.06289 -0.55911,4.21149 -6.8204,-1.99087 -9.83918,-3.06289 -14.90791,-1.07202 -5.18046,2.14393 -11.33004,15.85029 -11.33004,15.85029 6.52222,6.70002 9.54109,11.48575 11.85187,13.78294 -1.45358,0.68881 -3.20525,1.03372 -4.62155,2.06745 -10.39819,7.504 -18.4858,8.88234 -21.6164,19.52571 -3.09343,10.72005 -2.04986,0.91875 -2.04986,13.78294 0,12.7875 -3.16797,4.1349 3.09332,15.85039 6.22413,11.75367 21.50468,17.38178 28.80965,23.81377 7.26759,6.3937 14.75882,-13.9361 29.33127,5.28339 14.53528,19.2195 15.46703,11.48575 10.28647,22.2058 -5.21773,10.64348 -10.28647,14.16584 -12.33623,18.4538 -2.08713,4.28806 4.02508,18.98976 11.29267,22.2058 h 0.52163 c -0.37274,0.91876 -0.63405,1.72284 -1.04356,2.6417 -9.42928,4.36464 -20.94568,10.45202 -23.10726,11.10295 -5.18056,1.53139 -23.33089,4.67086 -36.52442,8.42286 -1.67712,0.49737 -2.9816,0.49737 -3.65243,0.57435 1.63985,-1.83771 14.68428,-8.80566 21.13194,-12.67253 8.79572,-5.32179 -0.5591,-4.78573 -0.5591,-4.78573 0,0 -14.01345,-1.56978 -42.674,-1.56978 -14.34881,0 -20.53566,0.65133 -23.66636,1.56978 a 7.8266613,8.040028 0 0 0 -3.09333,1.60797 c -0.74547,0.68881 -1.30448,1.37824 -2.60886,2.10574 -5.10601,3.06289 3.05605,6.20225 -3.57798,8.46115 -4.95682,1.68456 -5.51593,0 -9.76464,-3.17775 3.01888,-3.06289 7.19304,-6.81489 12.33633,-13.20859 9.35472,-11.63891 12.29905,-9.53317 15.42965,-20.10006 3.1307,-10.56689 -26.20068,-7.38914 -26.20068,-13.74465 0,-6.35541 -5.06864,-10.56689 -14.42336,-14.77827 -9.35472,-4.21148 -2.9816,-6.35551 -13.37989,-9.53327 -10.39829,-3.13937 -22.10106,15.88868 -25.23166,9.53327 -3.09343,-6.35551 9.80191,-6.35551 9.80191,-13.74465 0,-7.19779 -14.83337,5.43655 -17.51679,-3.71371 -0.0789,-0.34441 -0.44768,-0.34441 -0.48416,-0.53586 -0.26131,-1.33994 -0.11143,-2.10574 0,-3.17765 0.63306,-7.58069 9.20563,-10.567 12.85806,-17.99442 4.13689,-8.42287 2.01258,6.3938 7.19304,13.78293 5.21783,7.42743 3.1307,-9.49487 0,-18.98975 -3.09342,-9.57146 1.97531,-9.57146 9.2429,-22.2058 7.26769,-12.71092 7.23042,-20.10006 7.23042,-29.63323 0,-9.49497 5.03136,-10.56689 15.42965,-20.06187 4.77055,-4.36454 8.49753,-8.15483 11.33003,-11.6389 0.67054,-0.34441 1.34176,-0.34441 2.04986,-0.53586 10.99457,-4.55599 15.6533,-11.33259 25.19439,-31.70068 9.54109,-20.40638 -3.72698,-1.37833 -6.67131,-2.14403 -2.94433,-0.7658 -7.19304,-6.12567 -17.51678,-12.13657 a 16.547798,16.998916 0 0 0 -5.62775,-2.10574 l 19.00754,-32.23664 c 6.1123,-1.68465 12.67179,-2.83325 19.00763,-3.71381 2.38533,13.66807 1.08084,26.41728 1.08084,26.41728 0,0 -3.61515,4.40283 -3.61515,7.42743 0,3.02459 19.67846,-24.88579 22.62279,-26.41718 2.9815,-1.5315 10.39829,7.96338 11.85177,-6.35552 0.0789,-0.84177 -0.0789,-0.84177 0,-1.53139 z m 26.08885,57.00765 c -0.63404,0.19145 -1.26711,0.34441 -1.90076,0.61284 0,3.71371 -1.4162,6.43199 -2.08713,7.92519 -0.37274,-0.68881 -1.49075,-1.60807 -1.49075,-1.60807 -1.60258,2.94802 -4.95692,5.55153 -1.5653,4.74744 3.35424,-0.7658 5.9631,1.34004 3.61515,-1.56968 -0.44767,-0.57435 -0.26131,-0.3829 -0.5591,-0.57435 0.44768,0.3829 1.30448,0.57435 3.1307,0.57435 h 4.58417 c -2.49704,1.91429 -5.21773,2.71827 -1.49075,3.71371 4.91964,1.30175 7.19304,1.60807 7.19304,0.53586 a 23.815413,24.464657 0 0 0 -1.5653,-4.78573 c 0.96932,-0.3829 1.86349,-0.88026 1.0063,-2.60351 -1.52813,-3.21595 -3.9879,-6.3937 -7.15587,-6.89137 a 5.2177742,5.3600186 0 0 0 -1.7144,-0.081 z m 80.39098,8.99711 c 2.60897,4.1349 5.06874,8.34638 7.23042,12.71092 -1.45358,8.53773 -5.06874,14.28061 1.00629,14.28061 1.71439,0 3.24242,-0.3829 4.62145,-0.53586 0.22384,0.53586 0.37274,1.07202 0.52164,1.53139 -10.39829,0 -15.39248,3.21605 -20.57294,2.14403 -5.21773,-1.1103 -19.64119,-2.02916 -10.28647,-11.6389 5.47865,-5.58972 12.29906,-14.54864 17.51679,-18.49209 z m -64.81213,19.52581 v 0.081 c 0.96931,0.3444 1.78894,1.33994 2.60887,3.13946 3.09332,7.46572 8.23661,13.70626 4.09961,14.77828 -4.17416,1.07201 -6.18675,2.14403 -6.18675,2.14403 0,0 14.38619,9.60974 15.42966,-1.07202 1.04356,-10.68176 -4.09962,-16.9223 -4.09962,-16.9223 0,0 7.15577,7.38913 9.2429,11.63891 2.08713,4.28796 2.01258,0 7.19304,5.28339 5.21783,5.36008 4.06245,-21.21036 11.33004,-13.70636 7.26759,7.46582 11.85186,7.27437 9.76473,12.63435 -2.08713,5.36007 13.37979,-6.43199 13.37979,4.24977 0,10.29886 6.4105,14.47205 -6.14947,19.52581 -4.77055,-0.30591 -8.57208,-1.1486 -9.31745,-2.60351 -2.04986,-4.28796 -13.86435,-1.03372 -13.86435,-1.03372 -31.08305,-8.00168 -44.57476,-10.52861 -53.4822,-8.99711 0.1489,-0.34441 0.29779,-0.34441 0.48416,-0.53586 4.547,-8.42286 13.11898,-20.10006 10.28647,-24.31154 3.9879,-2.33538 7.08132,-4.93879 9.31745,-4.21138 z m 87.4722,53.447 c 0.0789,2.14403 0,4.21148 0,6.35551 0,6.0109 -0.37274,12.09829 -1.00629,17.91774 -9.35473,-8.53773 -22.66007,-8.42286 -22.66007,-8.42286 0,0 8.08761,-9.45659 19.52947,-13.74465 a 18.113131,18.606922 0 0 0 4.09962,-2.10574 z"
     fill="#ffffff"
     id="path4"
     style="stroke-width:37.7744;opacity:1" />
</svg>
