<?xml version="1.0" encoding="UTF-8" standalone="no"?>
<!-- Created with Inkscape (http://www.inkscape.org/) -->

<svg
   version="1.1"
   width="100%"
   height="100%"
   viewBox="0 0 512 512"
   id="svg2"
   sodipodi:docname="office-calendar.svg"
   inkscape:version="1.1 (c68e22c387, 2021-05-23)"
   xmlns:inkscape="http://www.inkscape.org/namespaces/inkscape"
   xmlns:sodipodi="http://sodipodi.sourceforge.net/DTD/sodipodi-0.dtd"
   xmlns:xlink="http://www.w3.org/1999/xlink"
   xmlns="http://www.w3.org/2000/svg"
   xmlns:svg="http://www.w3.org/2000/svg"
   xmlns:rdf="http://www.w3.org/1999/02/22-rdf-syntax-ns#"
   xmlns:cc="http://creativecommons.org/ns#"
   xmlns:dc="http://purl.org/dc/elements/1.1/">
  <sodipodi:namedview
     id="namedview58"
     pagecolor="#ffffff"
     bordercolor="#666666"
     borderopacity="1.0"
     inkscape:pageshadow="2"
     inkscape:pageopacity="0.0"
     inkscape:pagecheckerboard="0"
     showgrid="false"
     inkscape:zoom="0.42773437"
     inkscape:cx="153.13242"
     inkscape:cy="254.83105"
     inkscape:window-width="1366"
     inkscape:window-height="706"
     inkscape:window-x="0"
     inkscape:window-y="0"
     inkscape:window-maximized="1"
     inkscape:current-layer="svg2" />
  <metadata
     id="metadata105">
    <rdf:RDF>
      <cc:Work
         rdf:about="">
        <dc:format>image/svg+xml</dc:format>
        <dc:type
           rdf:resource="http://purl.org/dc/dcmitype/StillImage" />
      </cc:Work>
    </rdf:RDF>
  </metadata>
  <defs
     id="defs4">
    <filter
       color-interpolation-filters="sRGB"
       id="7"
       x="-0.018107638"
       y="-0.017892786"
       width="1.0362153"
       height="1.0357856">
      <feGaussianBlur
         id="feGaussianBlur7"
         stdDeviation="3.7725" />
    </filter>
    <linearGradient
       y1="19.563999"
       x2="0"
       y2="504.01999"
       id="8"
       gradientUnits="userSpaceOnUse">
      <stop
         id="stop10"
         style="stop-color:#f3f3f3;stop-opacity:1"
         offset="0" />
      <stop
         id="stop12"
         style="stop-color:#eeeeee;stop-opacity:1"
         offset="0.5" />
      <stop
         id="stop14"
         style="stop-color:#ebebeb;stop-opacity:1"
         offset="1" />
    </linearGradient>
    <linearGradient
       x1="257"
       x2="362"
       id="5"
       xlink:href="#0"
       gradientUnits="userSpaceOnUse"
       gradientTransform="matrix(1.02835,0,0,1.46193,-443.33968,-52.656393)" />
    <linearGradient
       x1="257"
       x2="362"
       id="6"
       xlink:href="#0"
       gradientUnits="userSpaceOnUse"
       gradientTransform="matrix(1.0381,0,0,1.46193,-523.44525,-118.25)" />
    <linearGradient
       x1="257"
       x2="362"
       id="4"
       xlink:href="#0"
       gradientUnits="userSpaceOnUse"
       gradientTransform="matrix(1.02835,0,0,1.46193,-501.12333,-70.991689)" />
    <linearGradient
       x1="257"
       x2="362"
       id="3"
       xlink:href="#0"
       gradientUnits="userSpaceOnUse"
       gradientTransform="matrix(1.0381,0,0,1.46193,-476.00133,-46.875571)" />
    <linearGradient
       id="0">
      <stop
         id="stop21"
         style="stop-color:#000000;stop-opacity:1"
         offset="0" />
      <stop
         id="stop23"
         style="stop-color:#ffffff;stop-opacity:1"
         offset="1" />
    </linearGradient>
    <linearGradient
       x1="257"
       x2="362"
       id="2"
       xlink:href="#0"
       gradientUnits="userSpaceOnUse"
       gradientTransform="matrix(1.0381,0,0,1.46193,-503.61933,-83.021689)" />
    <linearGradient
       x1="257"
       x2="362"
       id="1"
       xlink:href="#0"
       gradientUnits="userSpaceOnUse"
       gradientTransform="matrix(1.0381,0,0,1.46193,-503.62333,-83.021689)" />
    <linearGradient
       gradientTransform="matrix(2.44033,0,0,2.44351,-838.36,-1011.07)"
       xlink:href="#1-6"
       id="0-3"
       y1="651.25"
       x2="0"
       y2="630.42999"
       gradientUnits="userSpaceOnUse" />
    <linearGradient
       id="1-6">
      <stop
         stop-color="#981fe7"
         id="stop5" />
      <stop
         offset="1"
         stop-color="#db50c8"
         id="stop7" />
    </linearGradient>
    <linearGradient
       gradientTransform="matrix(2.44033,0,0,2.44351,-838.36,-1011.07)"
       xlink:href="#1-6"
       id="linearGradient1039"
       y1="651.25"
       x2="0"
       y2="630.42999"
       gradientUnits="userSpaceOnUse" />
    <linearGradient
       xlink:href="#1-6"
       id="2-7"
       x1="375.73001"
       y1="576.15997"
       x2="376.76001"
       y2="536.29999"
       gradientUnits="userSpaceOnUse" />
    <linearGradient
       gradientTransform="matrix(2.73113,0,0,2.73291,-1074.8,-1262.93)"
       xlink:href="#1-6"
       id="3-5"
       y1="666.34998"
       x2="0"
       y2="647.5"
       gradientUnits="userSpaceOnUse" />
    <linearGradient
       inkscape:collect="always"
       xlink:href="#1-6"
       id="linearGradient933"
       x1="38.5"
       y1="256"
       x2="473.5"
       y2="256"
       gradientUnits="userSpaceOnUse"
       gradientTransform="matrix(1.1026161,0,0,1.1026162,-538.55975,-25.979715)" />
  </defs>
  <rect
     width="479.638"
     height="479.638"
     rx="239.819"
     x="-496.10901"
     y="16.471001"
     id="rect33"
     style="fill:url(#linearGradient933);fill-opacity:1;stroke-width:1.10261"
     transform="rotate(-90)"
     ry="239.819" />
  <text
     x="1399.6584"
     y="120.87775"
     id="text39"
     style="font-size:142.492px;line-height:125%;font-family:'Gentium Book Basic';letter-spacing:0;word-spacing:0;stroke-width:1.10261"><tspan
       x="1399.6584"
       y="120.87775"
       id="tspan41"
       style="stroke-width:1.10261" /></text>
  <text
     x="566.10034"
     y="100.07282"
     transform="scale(4.0128206,0.24920127)"
     id="text43"
     style="font-size:51.772px;font-family:Arial;text-anchor:middle;stroke-width:1.10261" />
  <text
     x="2040.5763"
     y="32.668457"
     id="text45"
     style="font-size:142.492px;line-height:125%;font-family:'Gentium Book Basic';letter-spacing:0;word-spacing:0;stroke-width:1.10261"><tspan
       x="2040.5763"
       y="32.668457"
       id="tspan47"
       style="stroke-width:1.10261" /></text>
  <text
     x="725.81348"
     y="-253.89818"
     transform="scale(4.0128206,0.24920127)"
     id="text49"
     style="font-size:51.772px;font-family:Arial;text-anchor:middle;stroke-width:1.10261" />
  <text
     x="859.03516"
     y="-167.19174"
     id="text51"
     style="font-size:142.492px;line-height:125%;font-family:'Gentium Book Basic';letter-spacing:0;word-spacing:0;stroke-width:1.10261"><tspan
       x="859.03516"
       y="-167.19174"
       id="tspan53"
       style="stroke-width:1.10261" /></text>
  <text
     x="431.37244"
     y="-1055.8821"
     transform="scale(4.0128206,0.24920127)"
     id="text55"
     style="font-size:51.772px;font-family:Arial;text-anchor:middle;stroke-width:1.10261" />
  <text
     x="2069.7625"
     y="-405.87509"
     id="text57"
     style="font-size:142.492px;line-height:125%;font-family:'Gentium Book Basic';letter-spacing:0;word-spacing:0;stroke-width:1.10261"><tspan
       x="2069.7625"
       y="-405.87509"
       id="tspan59"
       style="stroke-width:1.10261" /></text>
  <text
     x="733.09076"
     y="-2013.6976"
     transform="scale(4.0128206,0.24920127)"
     id="text61"
     style="font-size:51.772px;font-family:Arial;text-anchor:middle;stroke-width:1.10261" />
  <text
     x="2710.6804"
     y="-494.08432"
     id="text63"
     style="font-size:142.492px;line-height:125%;font-family:'Gentium Book Basic';letter-spacing:0;word-spacing:0;stroke-width:1.10261"><tspan
       x="2710.6804"
       y="-494.08432"
       id="tspan65"
       style="stroke-width:1.10261" /></text>
  <text
     x="892.80383"
     y="-2367.6685"
     transform="scale(4.0128206,0.24920127)"
     id="text67"
     style="font-size:51.772px;font-family:Arial;text-anchor:middle;stroke-width:1.10261" />
  <text
     x="2281.6306"
     y="-1014.9603"
     id="text69"
     style="font-size:142.492px;line-height:125%;font-family:'Gentium Book Basic';letter-spacing:0;word-spacing:0;stroke-width:1.10261"><tspan
       x="2281.6306"
       y="-1014.9603"
       id="tspan71"
       style="stroke-width:1.10261" /></text>
  <text
     x="785.88379"
     y="-4457.8315"
     transform="scale(4.0128206,0.24920127)"
     id="text73"
     style="font-size:51.772px;font-family:Arial;text-anchor:middle;stroke-width:1.10261" />
  <text
     x="2922.5378"
     y="-1103.1807"
     id="text75"
     style="font-size:142.492px;line-height:125%;font-family:'Gentium Book Basic';letter-spacing:0;word-spacing:0;stroke-width:1.10261"><tspan
       x="2922.5378"
       y="-1103.1807"
       id="tspan77"
       style="stroke-width:1.10261" /></text>
  <text
     x="945.59686"
     y="-4811.8027"
     transform="scale(4.0128206,0.24920127)"
     id="text79"
     style="font-size:51.772px;font-family:Arial;text-anchor:middle;stroke-width:1.10261" />
  <text
     x="901.66229"
     y="456.71265"
     id="text81"
     style="font-size:229.708px;line-height:125%;font-family:'Gentium Book Basic';letter-spacing:0;word-spacing:0;stroke-width:1.10261"><tspan
       x="901.66229"
       y="456.71265"
       id="tspan83"
       style="stroke-width:1.10261" /></text>
  <g
     transform="matrix(1.1026162,0,0,1.1026161,841.13968,-77.52921)"
     id="g85"
     style="fill:#ffffff">
    <path
       d="m -582.31359,169.98671 c -2.29356,-0.0299 -4.61557,0.79859 -6.59232,2.56903 -3.58927,3.2137 -3.54819,3.1178 -3.72832,21.45557 -0.10508,10.63392 0.03,17.50373 0.39503,19.23952 0.71185,3.38454 2.63408,6.01723 5.38273,7.32512 4.84864,2.31277 10.97402,0.20146 13.20912,-4.50789 1.08793,-2.29344 1.10768,-2.79789 0.96309,-21.02446 l -0.14853,-18.6875 -1.48137,-1.98964 c -2.1316,-2.84543 -5.05011,-4.34269 -7.99943,-4.38216 m 121.86781,0 c -2.94932,0.0387 -5.86782,1.5319 -7.99943,4.38216 l -1.48137,1.98964 v 19.34023 19.31527 l 1.35812,2.14032 c 0.80824,1.24503 2.31806,2.58596 3.62957,3.24755 4.25372,2.14757 9.80157,0.96379 12.51782,-2.66977 2.21772,-2.9663 2.49819,-5.794 2.32122,-23.72241 -0.18093,-18.33777 -0.16592,-18.21609 -3.75282,-21.4306 -1.97675,-1.77044 -4.29796,-2.59884 -6.59232,-2.56903 z m -154.92421,20.95193 c -9.42154,0 -13.03373,0.20709 -15.38181,0.83081 -9.98407,2.65203 -18.15099,10.50821 -21.60359,20.80124 l -1.1606,3.42484 -0.14854,97.43452 c -0.15485,108.63575 -0.37765,101.40733 3.48104,109.39325 3.89661,8.06649 11.91421,14.33514 20.73925,16.26997 5.16309,1.1314 210.59232,1.15477 215.88577,0.025 9.04073,-1.92919 17.0133,-8.1229 20.96126,-16.29415 3.85869,-7.98349 3.63589,-0.75991 3.48104,-109.39324 l -0.12325,-97.43453 -1.16061,-3.42484 c -3.4518,-10.29223 -11.61951,-18.14517 -21.60359,-20.80123 -2.3465,-0.62372 -5.96026,-0.83082 -15.38181,-0.83082 h -12.29581 v 10.17377 c -0.002,5.58449 -0.22359,11.50664 -0.49379,13.19569 -1.31151,8.16721 -6.74717,14.67037 -14.26861,16.99524 -3.36094,1.03953 -8.71444,0.97989 -11.87471,-0.10074 -6.33633,-2.1653 -11.21104,-7.07611 -13.35687,-13.57362 -0.70157,-2.12179 -0.83984,-4.80203 -0.83984,-14.63413 V 190.9306 h -40.86146 -40.86147 v 12.0627 c 0,9.82887 -0.16197,12.5083 -0.86433,14.63412 -5.02957,15.20868 -23.70201,19.51752 -34.2178,7.88195 -2.66806,-2.95261 -4.59266,-7.05435 -5.25868,-11.20606 -0.27179,-1.68904 -0.51592,-7.61038 -0.51829,-13.19568 v -10.1738 z m -18.21894,72.25191 h 112.2132 112.21319 v 73.20282 c -0.002,51.98496 -0.18487,73.79108 -0.59255,75.298 -0.74898,2.75276 -4.21501,6.28639 -6.91308,7.05113 -1.48375,0.41985 -31.12864,0.61888 -104.97619,0.60438 -87.36559,-0.0169 -103.20643,-0.14666 -104.95248,-0.78086 -2.6167,-0.94444 -5.72008,-4.26855 -6.44378,-6.92541 -0.38556,-1.41426 -0.5412,-24.62013 -0.54357,-75.2416 v -73.17864 z m 72.78886,24.55324 c -15.26646,0.20469 -30.04624,12.71621 -31.08123,28.58246 3.71331,8.97065 20.93914,6.22918 21.50562,0.8816 0.65418,-11.78144 20.51172,-14.60995 23.92322,-2.87123 2.20587,10.90871 -7.31206,19.01388 -14.76477,24.9054 -12.28316,10.58878 -26.22231,21.40884 -30.96271,37.79889 -0.17777,4.54979 -1.17325,11.86041 4.7159,13.045 21.62176,-0.74702 43.25695,-0.10557 64.88819,-0.35296 -3.90846,-18.79146 0.0822,0.29816 -3.95033,-19.08882 -13.26996,-0.9098 -26.60471,-0.3167 -39.87467,-0.3022 12.64897,-15.23285 33.45933,-24.32841 40.12038,-44.36973 5.20101,-15.25059 -4.23318,-34.45142 -20.36871,-36.99305 -4.13284,-1.01294 -8.40789,-1.36107 -12.66477,-1.20876 -0.49301,-0.0193 -0.98917,-0.0314 -1.48138,-0.0249 m 74.04507,0 c -1.00497,-0.004 -2.01783,0.005 -3.01253,0.0249 -15.27041,0.38438 -30.13315,12.99825 -30.36859,29.11511 3.58849,8.16481 19.58418,4.94064 20.96127,1.0323 -0.12879,-8.68539 10.30247,-12.84354 17.53158,-10.60168 8.96647,1.81959 10.28667,16.93077 1.30835,19.96961 -5.50203,3.2556 -12.70428,-0.8816 -17.82628,2.94615 -5.71139,7.54511 -1.9009,20.88505 8.22144,18.30796 6.86963,-0.43355 16.70991,1.26437 18.02379,9.54441 1.3044,7.01083 -4.61557,14.22395 -11.62899,13.69934 -6.98893,1.10481 -16.47606,-2.78177 -16.44366,-11.05537 -2.75181,-6.77553 -21.63835,-5.31453 -21.48982,1.19588 0.094,2.60529 0.56648,5.13564 1.35812,7.54511 3.95034,12.03285 15.87245,21.04057 28.49771,21.22672 14.73238,2.25475 32.70087,-2.84866 38.73698,-17.88166 5.32584,-12.08443 1.59989,-28.70173 -9.9501,-35.15493 14.60202,-10.83295 12.5747,-36.91891 -3.60508,-45.35286 -6.08746,-3.74717 -13.28497,-4.53045 -20.31972,-4.55786"
       inkscape:connector-curvature="0"
       id="path87"
       style="opacity:0.289777;fill:#ffffff;stroke-width:0.797917" />
    <path
       d="m -594.16459,157.89906 c -2.29357,-0.0299 -4.61557,0.79859 -6.59232,2.56902 -3.58927,3.2137 -3.54819,3.11781 -3.72833,21.45559 -0.10508,10.63391 0.03,17.50372 0.39504,19.23951 0.71185,3.38454 2.63408,6.01723 5.38272,7.32512 4.84864,2.31277 10.97403,0.20145 13.20913,-4.50789 1.08792,-2.29343 1.10767,-2.79789 0.96309,-21.02446 l -0.14853,-18.68751 -1.48138,-1.98963 c -2.1316,-2.84543 -5.0501,-4.34269 -7.99942,-4.38217 m 121.86781,0 c -2.94932,0.0387 -5.86783,1.53191 -7.99943,4.38217 l -1.48137,1.98963 v 19.34025 19.31526 l 1.35812,2.14031 c 0.80824,1.24504 2.31806,2.58596 3.62957,3.24756 4.25372,2.14757 9.80157,0.96378 12.51782,-2.66977 2.21772,-2.9663 2.49819,-5.79401 2.32121,-23.72242 -0.18092,-18.33777 -0.16591,-18.21608 -3.75281,-21.43059 -1.97675,-1.77044 -4.29797,-2.59885 -6.59232,-2.56903 z m -154.92421,20.95193 c -9.42155,0 -13.03373,0.2071 -15.38181,0.83082 -9.98408,2.65203 -18.151,10.5082 -21.60359,20.80124 l -1.16061,3.42483 -0.14853,97.43453 c -0.15485,108.63575 -0.37765,101.40733 3.48103,109.39325 3.89661,8.06649 11.91421,14.33514 20.73926,16.26997 5.16309,1.13141 210.59232,1.15478 215.88577,0.0249 9.04073,-1.92918 17.0133,-8.1229 20.96126,-16.29415 3.85869,-7.9835 3.63589,-0.75991 3.48103,-109.39324 l -0.12325,-97.43453 -1.1606,-3.42483 c -3.45181,-10.29223 -11.61952,-18.14518 -21.60359,-20.80124 -2.3465,-0.62372 -5.96027,-0.83082 -15.38181,-0.83082 h -12.29581 v 10.17377 c -0.002,5.5845 -0.22359,11.50664 -0.4938,13.19568 -1.31151,8.16723 -6.74717,14.67039 -14.2686,16.99524 -3.36095,1.03954 -8.71444,0.97991 -11.87471,-0.10072 -6.33633,-2.16531 -11.21105,-7.07611 -13.35687,-13.57363 -0.70158,-2.12178 -0.83984,-4.80203 -0.83984,-14.63412 v -12.06267 h -40.86147 -40.86146 v 12.06267 c 0,9.82887 -0.16197,12.5083 -0.86434,14.63412 -5.02956,15.20868 -23.702,19.51752 -34.21779,7.88195 -2.66806,-2.95261 -4.59266,-7.05436 -5.25869,-11.20605 -0.27178,-1.68905 -0.51591,-7.61039 -0.51828,-13.1957 v -10.17377 z m -18.21894,72.25192 h 112.21319 112.2132 v 73.20281 c -0.002,51.98496 -0.18488,73.79109 -0.59255,75.29801 -0.74899,2.75277 -4.21501,6.28639 -6.91309,7.05113 -1.48374,0.41985 -31.12863,0.61889 -104.97618,0.60438 -87.36559,-0.0169 -103.20643,-0.14666 -104.95248,-0.78086 -2.6167,-0.94445 -5.72008,-4.26855 -6.44379,-6.92542 -0.38555,-1.41425 -0.54119,-24.62013 -0.54356,-75.24159 V 251.1303 Z m 72.78886,24.55324 c -15.26646,0.20469 -30.04624,12.71621 -31.08123,28.58246 3.71331,8.97064 20.93914,6.22917 21.50562,0.88159 0.65417,-11.78143 20.51171,-14.60994 23.92322,-2.87121 2.20587,10.90869 -7.31207,19.01387 -14.76477,24.90539 -12.28317,10.58878 -26.22232,21.40884 -30.96272,37.7989 -0.17776,4.54978 -1.17325,11.86039 4.71591,13.04499 21.62176,-0.74702 43.25695,-0.10557 64.88819,-0.35296 -3.90846,-18.79147 0.0822,0.29816 -3.95033,-19.08883 -13.26997,-0.90979 -26.60471,-0.31669 -39.87468,-0.30218 12.64897,-15.23286 33.45933,-24.32842 40.12039,-44.36975 5.20101,-15.25058 -4.23318,-34.45141 -20.36872,-36.99304 -4.13283,-1.01294 -8.40789,-1.36107 -12.66477,-1.20876 -0.493,-0.0193 -0.98916,-0.0314 -1.48137,-0.025 m 74.04506,0 c -1.00496,-0.004 -2.01783,0.005 -3.01252,0.025 -15.27041,0.38438 -30.13315,12.99825 -30.36859,29.11511 3.58848,8.16482 19.58418,4.94063 20.96126,1.03229 -0.12878,-8.68537 10.30247,-12.84353 17.53159,-10.60167 8.96646,1.81959 10.28667,16.93077 1.30835,19.9696 -5.50203,3.25561 -12.70428,-0.88159 -17.82628,2.94617 -5.7114,7.54511 -1.9009,20.88504 8.22143,18.30795 6.86963,-0.43354 16.70992,1.26437 18.0238,9.54441 1.3044,7.01084 -4.61557,14.22395 -11.629,13.69934 -6.98893,1.10481 -16.47605,-2.78178 -16.44366,-11.05536 -2.7518,-6.77554 -21.63835,-5.31454 -21.48981,1.19587 0.094,2.60529 0.56647,5.13563 1.35812,7.54511 3.95033,12.03285 15.87244,21.04057 28.49771,21.22672 14.73238,2.25475 32.70087,-2.84866 38.73698,-17.88166 5.32584,-12.08443 1.59988,-28.70173 -9.9501,-35.15493 14.60201,-10.83295 12.5747,-36.91891 -3.60508,-45.35286 -6.08746,-3.74718 -13.28497,-4.53045 -20.31973,-4.55785"
       inkscape:connector-curvature="0"
       id="path89"
       style="fill:#ffffff;stroke-width:0.797917" />
  </g>
</svg>
