<?xml version="1.0" encoding="UTF-8" standalone="no"?>
<!-- Created with Inkscape (http://www.inkscape.org/) -->

<svg
   version="1.1"
   width="100%"
   height="100%"
   viewBox="0 0 512 512"
   id="svg2"
   sodipodi:docname="postman.svg"
   inkscape:version="1.1 (c68e22c387, 2021-05-23)"
   xmlns:inkscape="http://www.inkscape.org/namespaces/inkscape"
   xmlns:sodipodi="http://sodipodi.sourceforge.net/DTD/sodipodi-0.dtd"
   xmlns:xlink="http://www.w3.org/1999/xlink"
   xmlns="http://www.w3.org/2000/svg"
   xmlns:svg="http://www.w3.org/2000/svg"
   xmlns:rdf="http://www.w3.org/1999/02/22-rdf-syntax-ns#"
   xmlns:cc="http://creativecommons.org/ns#"
   xmlns:dc="http://purl.org/dc/elements/1.1/">
  <sodipodi:namedview
     id="namedview39"
     pagecolor="#ffffff"
     bordercolor="#666666"
     borderopacity="1.0"
     inkscape:pageshadow="2"
     inkscape:pageopacity="0.0"
     inkscape:pagecheckerboard="0"
     showgrid="false"
     inkscape:zoom="0.30245387"
     inkscape:cx="-332.28207"
     inkscape:cy="419.89874"
     inkscape:window-width="1366"
     inkscape:window-height="706"
     inkscape:window-x="0"
     inkscape:window-y="0"
     inkscape:window-maximized="1"
     inkscape:current-layer="svg2" />
  <metadata
     id="metadata65">
    <rdf:RDF>
      <cc:Work
         rdf:about="">
        <dc:format>image/svg+xml</dc:format>
        <dc:type
           rdf:resource="http://purl.org/dc/dcmitype/StillImage" />
      </cc:Work>
    </rdf:RDF>
  </metadata>
  <defs
     id="defs4">
    <filter
       color-interpolation-filters="sRGB"
       id="7"
       x="-0.018107638"
       y="-0.017892786"
       width="1.0362153"
       height="1.0357856">
      <feGaussianBlur
         id="feGaussianBlur7"
         stdDeviation="3.7725" />
    </filter>
    <linearGradient
       y1="19.563999"
       x2="0"
       y2="504.01999"
       id="8"
       gradientUnits="userSpaceOnUse">
      <stop
         id="stop10"
         style="stop-color:#f3f3f3;stop-opacity:1"
         offset="0" />
      <stop
         id="stop12"
         style="stop-color:#eeeeee;stop-opacity:1"
         offset="0.5" />
      <stop
         id="stop14"
         style="stop-color:#ebebeb;stop-opacity:1"
         offset="1" />
    </linearGradient>
    <linearGradient
       x1="257"
       x2="362"
       id="5"
       xlink:href="#0"
       gradientUnits="userSpaceOnUse"
       gradientTransform="matrix(1.02835,0,0,1.46193,-383.73694,-115.70205)" />
    <linearGradient
       x1="257"
       x2="362"
       id="6"
       xlink:href="#0"
       gradientUnits="userSpaceOnUse"
       gradientTransform="matrix(1.0381,0,0,1.46193,-467.2489,-124.14041)" />
    <linearGradient
       x1="257"
       x2="362"
       id="4"
       xlink:href="#0"
       gradientUnits="userSpaceOnUse"
       gradientTransform="matrix(1.02835,0,0,1.46193,-610.00374,-127.97146)" />
    <linearGradient
       x1="257"
       x2="362"
       id="3"
       xlink:href="#0"
       gradientUnits="userSpaceOnUse"
       gradientTransform="matrix(1.0381,0,0,1.46193,-427.0919,-112.11041)" />
    <linearGradient
       id="0">
      <stop
         id="stop21"
         style="stop-color:#000000;stop-opacity:1"
         offset="0" />
      <stop
         id="stop23"
         style="stop-color:#ffffff;stop-opacity:1"
         offset="1" />
    </linearGradient>
    <linearGradient
       x1="257"
       x2="362"
       id="2"
       xlink:href="#0"
       gradientUnits="userSpaceOnUse"
       gradientTransform="matrix(1.0381,0,0,1.46193,-467.2489,-112.11041)" />
    <linearGradient
       x1="257"
       x2="362"
       id="1"
       xlink:href="#0"
       gradientUnits="userSpaceOnUse"
       gradientTransform="matrix(1.0381,0,0,1.46193,-467.2529,-112.11041)" />
    <filter
       id="filter887"
       x="-0.04799797"
       y="-0.048057042"
       width="1.0959959"
       height="1.0961141"
       color-interpolation-filters="sRGB">
      <feGaussianBlur
         stdDeviation="0.95991938"
         id="feGaussianBlur16" />
    </filter>
    <linearGradient
       id="linearGradient875"
       x1="7.9373002"
       x2="7.9373002"
       y1="15.081"
       y2="1.852"
       gradientTransform="matrix(20.646084,0,0,19.294646,87.207826,95.323294)"
       gradientUnits="userSpaceOnUse">
      <stop
         stop-color="#fee0d5"
         offset="0"
         id="stop11" />
      <stop
         stop-color="#fbfabb"
         offset="1"
         id="stop13" />
    </linearGradient>
    <linearGradient
       id="linearGradient862"
       x1="7.9373002"
       x2="7.9373002"
       y1="15.081"
       y2="1.852"
       gradientTransform="matrix(3.7796,0,0,3.7796,591.23453,366.43826)"
       gradientUnits="userSpaceOnUse">
      <stop
         stop-color="#ff5222"
         offset="0"
         id="stop6" />
      <stop
         stop-color="#ffad25"
         offset="1"
         id="stop8" />
    </linearGradient>
    <linearGradient
       inkscape:collect="always"
       xlink:href="#linearGradient862"
       id="linearGradient902"
       x1="38.5"
       y1="256"
       x2="473.5"
       y2="256"
       gradientUnits="userSpaceOnUse"
       gradientTransform="matrix(1.1026162,0,0,1.1026162,-538.55975,-25.979729)" />
    <filter
       inkscape:collect="always"
       style="color-interpolation-filters:sRGB"
       id="filter3697"
       x="-0.047485013"
       y="-0.04852628"
       width="1.09497"
       height="1.0970526">
      <feGaussianBlur
         inkscape:collect="always"
         stdDeviation="7.2849212"
         id="feGaussianBlur3699" />
    </filter>
  </defs>
  <rect
     width="479.638"
     height="479.638"
     rx="239.819"
     x="-496.10901"
     y="16.471001"
     id="rect33"
     style="fill:url(#linearGradient902);fill-opacity:1;stroke-width:1.10261"
     transform="rotate(-90)"
     ry="239.819" />
  <path
     d="m 154.81595,105.43128 c -35.93106,22.52804 -63.751382,65.03061 -70.855802,88.85936 -10.85946,36.4234 -13.78717,67.15255 -4.95223,104.49493 18.52025,78.27899 65.345152,110.82468 120.852452,126.97706 37.18747,10.82139 76.24206,11.8908 126.08843,-4.65606 44.41526,-14.74397 81.96951,-55.1449 97.35924,-85.47486 22.95383,-45.23721 23.62118,-89.84165 8.26431,-141.47742 -9.41979,-31.67307 -44.62205,-71.78768 -73.56287,-89.8426 -65.22372,-40.69023 -134.43513,-41.99051 -203.19353,1.11959 z m 177.47958,54.02896 c 5.9379,-0.23767 11.96334,1.53247 16.91356,5.33857 l -22.40224,21.21251 c -0.60022,0.66609 -0.60022,1.61628 0,2.28242 l 17.40138,16.46678 c -9.8005,4.56744 -21.60494,2.66377 -29.20582,-4.75826 l 0.0949,0.19344 c -9.70056,-9.61095 -9.30085,-24.83848 0.79965,-34.0692 4.6003,-4.18683 10.46041,-6.42869 16.39872,-6.66698 z m 19.31232,7.51803 c 9.20029,9.42016 8.90124,24.08387 -0.79956,33.21752 -1.2001,1.04669 -2.40814,2.09659 -3.80827,2.953 l -16.69638,-15.89967 21.30449,-20.27103 z m -0.8402,12.23738 c -0.41218,-0.0715 -0.86036,-0.007 -1.2604,0.2324 -0.90004,0.38095 -1.40287,1.42601 -1.00286,2.28242 0,0.0951 0.0949,0.0982 0.0949,0.19344 1.00005,1.9031 0.80894,4.27544 -0.69113,5.89307 -0.70006,0.66611 -0.80837,1.80976 -0.10827,2.47586 l 0.10827,0.103 c 0.39971,0.0951 0.90104,0.0951 1.30107,0 0.50029,0 1.09586,-0.28982 1.3959,-0.67051 2.50014,-2.75951 2.99265,-6.65513 1.19264,-9.89024 -0.24982,-0.33277 -0.61755,-0.54733 -1.03,-0.61865 z m -50.27996,16.62193 c 3.57992,0.2753 6.39073,1.88627 9.21556,4.07486 -3.10024,0.0952 -5.99943,1.2335 -8.199,3.32696 l -61.81307,58.8014 -13.19988,-12.55955 c 45.60313,-43.31966 63.25776,-54.46896 73.99639,-53.64367 z m 9.41885,7.7115 c 2.20021,0 4.39852,0.77681 6.09868,2.34692 1.70011,1.61761 2.59362,3.80764 2.49371,5.9962 -0.0999,2.28372 -1.1001,4.38344 -2.90024,5.90592 l -65.10631,54.62347 -8.29404,-8.27864 61.59658,-58.24744 c 1.7001,-1.57003 3.91199,-2.3469 6.11217,-2.3469 z m 9.59515,14.72641 c -2.10014,17.69877 -28.29754,42.82185 -55.19962,67.27079 l -11.60115,-11.03837 65.0931,-54.52044 c 0.60021,-0.47603 1.20755,-1.049 1.70758,-1.71509 z m -95.40984,33.11446 12.30542,11.99243 -27.90473,5.69961 c -0.60023,0.0951 -1.20108,-0.27994 -1.30108,-0.85109 -0.0998,-0.38095 -9e-4,-0.66876 0.29838,-0.95423 l 0.2984,-0.37368 16.30361,-15.51278 z m 15.80195,15.51277 6.89824,6.08651 -15.30097,3.71381 c -0.29975,0.19013 -0.59466,0.19013 -0.8945,0 -0.19984,-0.28524 -0.19984,-0.66883 0,-0.95423 l 9.29672,-8.84577 z m 9.79839,9.0392 12.10212,11.50252 c -21.60142,17.12765 -45.39769,31.69763 -70.79752,43.21137 v 0.18026 h -0.10827 c -1.30011,0.66602 -1.9941,2.00767 -1.69408,3.33983 l 2.79182,11.41206 c 0.19985,0.76123 -0.19988,1.52783 -0.79964,1.90847 -0.60021,0.47601 -1.49222,0.47601 -1.99224,0 l -17.0086,-16.66021 52.20405,-49.76221 25.3027,-5.13222 z m -80.20668,57.28022 17.00864,16.07989 -29.20581,-1.80534 c -0.39966,-0.095 -0.80805,-0.38491 -0.90805,-0.67053 -0.0999,-0.38028 -0.0999,-0.75897 0,-1.04448 l 13.10549,-12.55954 z"
     fill="url(#linearGradient875)"
     stroke-width="21.9125"
     id="path39"
     style="fill:#ffffff"
     sodipodi:nodetypes="ssssssssscccccccccccccccccccccscccccccccccccccccccccccccccccccccccccccccccccccccccccccccccccc" />
  <path
     d="m 152.02416,107.04301 c -35.93106,22.52804 -63.751376,65.03061 -70.855796,88.85936 -10.85946,36.4234 -13.78717,67.15255 -4.95223,104.49493 18.52025,78.27899 65.345146,110.82468 120.852446,126.97706 37.18747,10.82139 76.24206,11.8908 126.08843,-4.65606 44.41526,-14.74397 81.96951,-55.1449 97.35924,-85.47486 22.95383,-45.23721 23.62118,-89.84165 8.26431,-141.47741 -9.41979,-31.67307 -44.62205,-71.78768 -73.56287,-89.84261 -65.22372,-40.690234 -134.43513,-41.990514 -203.19353,1.11959 z m 177.47958,54.02896 c 5.9379,-0.23767 11.96334,1.53247 16.91356,5.33858 l -22.40224,21.21251 c -0.60022,0.66609 -0.60022,1.61627 0,2.28242 l 17.40138,16.46678 c -9.8005,4.56743 -21.60494,2.66377 -29.20582,-4.75826 l 0.0949,0.19344 c -9.70056,-9.61095 -9.30085,-24.83848 0.79965,-34.0692 4.6003,-4.18683 10.46041,-6.42869 16.39872,-6.66698 z m 19.31232,7.51804 c 9.20029,9.42016 8.90124,24.08386 -0.79956,33.21752 -1.2001,1.04669 -2.40814,2.09659 -3.80827,2.95299 l -16.69638,-15.89966 21.30449,-20.27103 z m -0.8402,12.23738 c -0.41218,-0.0715 -0.86036,-0.007 -1.2604,0.2324 -0.90004,0.38095 -1.40287,1.42601 -1.00286,2.28242 0,0.0951 0.0949,0.0982 0.0949,0.19344 1.00005,1.9031 0.80894,4.27544 -0.69113,5.89307 -0.70006,0.66611 -0.80837,1.80976 -0.10827,2.47586 l 0.10827,0.103 c 0.39971,0.0951 0.90104,0.0951 1.30107,0 0.50029,0 1.09586,-0.28982 1.3959,-0.67051 2.50014,-2.75951 2.99265,-6.65513 1.19264,-9.89024 -0.24982,-0.33277 -0.61755,-0.54733 -1.03,-0.61865 z m -50.27996,16.62193 c 3.57992,0.27529 6.39073,1.88626 9.21556,4.07486 -3.10024,0.0952 -5.99943,1.23349 -8.199,3.32696 l -61.81307,58.80139 -13.19988,-12.55955 c 45.60313,-43.31966 63.25776,-54.46896 73.99639,-53.64366 z m 9.41885,7.71149 c 2.20021,0 4.39852,0.77681 6.09868,2.34692 1.70011,1.61761 2.59362,3.80764 2.49371,5.9962 -0.0999,2.28372 -1.1001,4.38344 -2.90024,5.90592 l -65.10631,54.62347 -8.29404,-8.27864 61.59658,-58.24744 c 1.7001,-1.57003 3.91199,-2.3469 6.11217,-2.3469 z m 9.59515,14.72641 c -2.10014,17.69877 -28.29754,42.82185 -55.19962,67.27079 l -11.60115,-11.03836 65.0931,-54.52044 c 0.60021,-0.47603 1.20755,-1.049 1.70758,-1.71509 z m -95.40984,33.11446 12.30542,11.99243 -27.90473,5.69961 c -0.60023,0.0951 -1.20108,-0.27994 -1.30108,-0.85109 -0.0998,-0.38094 -9e-4,-0.66876 0.29838,-0.95423 l 0.2984,-0.37367 16.30361,-15.51279 z m 15.80195,15.51277 6.89824,6.08651 -15.30097,3.71381 c -0.29975,0.19013 -0.59466,0.19013 -0.8945,0 -0.19984,-0.28524 -0.19984,-0.66883 0,-0.95423 l 9.29672,-8.84577 z m 9.79839,9.0392 12.10212,11.50252 C 237.4011,306.18382 213.60483,320.7538 188.205,332.26754 v 0.18026 h -0.10827 c -1.30011,0.66602 -1.9941,2.00767 -1.69408,3.33983 l 2.79182,11.41206 c 0.19985,0.76123 -0.19988,1.52783 -0.79964,1.90847 -0.60021,0.47601 -1.49222,0.47601 -1.99224,0 l -17.0086,-16.66021 52.20405,-49.76221 25.3027,-5.13222 z m -80.20668,57.28022 17.00864,16.07989 -29.20581,-1.80534 c -0.39966,-0.095 -0.80805,-0.38491 -0.90805,-0.67053 -0.0999,-0.38028 -0.0999,-0.75897 0,-1.04448 l 13.10549,-12.55954 z"
     fill="url(#linearGradient875)"
     stroke-width="21.9125"
     id="path39-3"
     style="opacity:0.15;fill:#ffffff;filter:url(#filter3697)"
     sodipodi:nodetypes="ssssssssscccccccccccccccccccccscccccccccccccccccccccccccccccccccccccccccccccccccccccccccccccc" />
</svg>
