<?xml version="1.0" encoding="UTF-8" standalone="no"?>
<!-- Created with Inkscape (http://www.inkscape.org/) -->

<svg
   version="1.1"
   width="100%"
   height="100%"
   viewBox="0 0 512 512"
   id="svg2"
   sodipodi:docname="applications-utilities (another copy).svg"
   inkscape:version="1.1 (c68e22c387, 2021-05-23)"
   xmlns:inkscape="http://www.inkscape.org/namespaces/inkscape"
   xmlns:sodipodi="http://sodipodi.sourceforge.net/DTD/sodipodi-0.dtd"
   xmlns:xlink="http://www.w3.org/1999/xlink"
   xmlns="http://www.w3.org/2000/svg"
   xmlns:svg="http://www.w3.org/2000/svg"
   xmlns:rdf="http://www.w3.org/1999/02/22-rdf-syntax-ns#"
   xmlns:cc="http://creativecommons.org/ns#"
   xmlns:dc="http://purl.org/dc/elements/1.1/">
  <sodipodi:namedview
     id="namedview39"
     pagecolor="#ffffff"
     bordercolor="#666666"
     borderopacity="1.0"
     inkscape:pageshadow="2"
     inkscape:pageopacity="0.0"
     inkscape:pagecheckerboard="0"
     showgrid="false"
     inkscape:zoom="0.30245387"
     inkscape:cx="-47.941195"
     inkscape:cy="251.27799"
     inkscape:window-width="1366"
     inkscape:window-height="706"
     inkscape:window-x="0"
     inkscape:window-y="0"
     inkscape:window-maximized="1"
     inkscape:current-layer="svg2" />
  <metadata
     id="metadata65">
    <rdf:RDF>
      <cc:Work
         rdf:about="">
        <dc:format>image/svg+xml</dc:format>
        <dc:type
           rdf:resource="http://purl.org/dc/dcmitype/StillImage" />
      </cc:Work>
    </rdf:RDF>
  </metadata>
  <defs
     id="defs4">
    <filter
       color-interpolation-filters="sRGB"
       id="7"
       x="-0.018107638"
       y="-0.017892786"
       width="1.0362153"
       height="1.0357856">
      <feGaussianBlur
         id="feGaussianBlur7"
         stdDeviation="3.7725" />
    </filter>
    <linearGradient
       y1="19.563999"
       x2="0"
       y2="504.01999"
       id="8"
       gradientUnits="userSpaceOnUse">
      <stop
         id="stop10"
         style="stop-color:#f3f3f3;stop-opacity:1"
         offset="0" />
      <stop
         id="stop12"
         style="stop-color:#eeeeee;stop-opacity:1"
         offset="0.5" />
      <stop
         id="stop14"
         style="stop-color:#ebebeb;stop-opacity:1"
         offset="1" />
    </linearGradient>
    <linearGradient
       x1="257"
       x2="362"
       id="5"
       xlink:href="#0"
       gradientUnits="userSpaceOnUse"
       gradientTransform="matrix(1.02835,0,0,1.46193,-383.73694,-115.70205)" />
    <linearGradient
       x1="257"
       x2="362"
       id="6"
       xlink:href="#0"
       gradientUnits="userSpaceOnUse"
       gradientTransform="matrix(1.0381,0,0,1.46193,-467.2489,-124.14041)" />
    <linearGradient
       x1="257"
       x2="362"
       id="4"
       xlink:href="#0"
       gradientUnits="userSpaceOnUse"
       gradientTransform="matrix(1.02835,0,0,1.46193,-610.00374,-127.97146)" />
    <linearGradient
       x1="257"
       x2="362"
       id="3"
       xlink:href="#0"
       gradientUnits="userSpaceOnUse"
       gradientTransform="matrix(1.0381,0,0,1.46193,-427.0919,-112.11041)" />
    <linearGradient
       id="0">
      <stop
         id="stop21"
         style="stop-color:#000000;stop-opacity:1"
         offset="0" />
      <stop
         id="stop23"
         style="stop-color:#ffffff;stop-opacity:1"
         offset="1" />
    </linearGradient>
    <linearGradient
       x1="257"
       x2="362"
       id="2"
       xlink:href="#0"
       gradientUnits="userSpaceOnUse"
       gradientTransform="matrix(1.0381,0,0,1.46193,-467.2489,-112.11041)" />
    <linearGradient
       x1="257"
       x2="362"
       id="1"
       xlink:href="#0"
       gradientUnits="userSpaceOnUse"
       gradientTransform="matrix(1.0381,0,0,1.46193,-467.2529,-112.11041)" />
    <linearGradient
       id="f"
       x1="86"
       x2="63"
       y1="19.458"
       y2="39"
       gradientTransform="matrix(9.9216009,0,0,9.0103275,-1163.4657,-121.67081)"
       gradientUnits="userSpaceOnUse">
      <stop
         stop-color="#007abb"
         offset="0"
         id="stop7" />
      <stop
         stop-color="#006caf"
         offset="1"
         id="stop9" />
    </linearGradient>
    <linearGradient
       id="d"
       x1="87"
       x2="63"
       y1="46"
       y2="24"
       gradientTransform="matrix(1.146,0,0,1.146,-57.378,-5.1691)"
       gradientUnits="userSpaceOnUse">
      <stop
         stop-color="#0080ce"
         offset="0"
         id="stop13" />
      <stop
         stop-color="#008fd5"
         offset="1"
         id="stop15" />
    </linearGradient>
    <linearGradient
       id="c"
       x1="86"
       x2="83"
       y1="44"
       y2="44"
       gradientTransform="matrix(1.146,0,0,1.146,-57.378,-5.1691)"
       gradientUnits="userSpaceOnUse"
       xlink:href="#a" />
    <linearGradient
       id="a">
      <stop
         offset="0"
         id="stop2" />
      <stop
         stop-opacity="0"
         offset="1"
         id="stop4" />
    </linearGradient>
    <linearGradient
       id="e"
       x1="86"
       x2="83"
       y1="20"
       y2="20"
       gradientTransform="matrix(1.146,0,0,1.146,-57.378,-5.1691)"
       gradientUnits="userSpaceOnUse"
       xlink:href="#a" />
    <linearGradient
       inkscape:collect="always"
       xlink:href="#1-9-6"
       id="linearGradient1386"
       x1="38.5"
       y1="256"
       x2="473.5"
       y2="256"
       gradientUnits="userSpaceOnUse"
       gradientTransform="matrix(1.1007902,0,0,1.1039575,-537.69515,-25.254093)" />
    <linearGradient
       gradientUnits="userSpaceOnUse"
       y2="533.06"
       x2="0"
       y1="541.15997"
       id="1-9"
       gradientTransform="matrix(1.49857,0,0,1.49857,100.4386,-473.61451)">
      <stop
         stop-color="#0976da"
         id="stop52" />
      <stop
         offset="1"
         stop-color="#5de5f0"
         id="stop54" />
    </linearGradient>
    <linearGradient
       id="c-3"
       x1="24.535"
       x2="24.535"
       y1="7.0931001"
       y2="44.483002"
       gradientTransform="matrix(1.4364,0,0,1.4364,1113.3157,-663.27108)"
       gradientUnits="userSpaceOnUse">
      <stop
         stop-color="#76dd38"
         offset="0"
         id="stop4-3" />
      <stop
         stop-color="#42c440"
         offset=".48433"
         id="stop6" />
      <stop
         stop-color="#14ab4b"
         offset="1"
         id="stop8" />
    </linearGradient>
    <linearGradient
       gradientUnits="userSpaceOnUse"
       y2="533.06"
       x2="0"
       y1="541.15997"
       id="1-9-6"
       gradientTransform="matrix(1.49857,0,0,1.49857,100.4386,-473.61451)">
      <stop
         stop-color="#0976da"
         id="stop52-7" />
      <stop
         offset="1"
         stop-color="#5de5f0"
         id="stop54-5" />
    </linearGradient>
    <linearGradient
       id="2-3"
       gradientUnits="userSpaceOnUse"
       y1="542.20001"
       x2="0"
       y2="526.20001"
       gradientTransform="matrix(16.218891,-6.4141578,7.1895904,14.331381,-10274.105,-4767.1645)">
      <stop
         stop-color="#e3e3e3"
         id="stop2-6" />
      <stop
         offset="1"
         stop-color="#fffcff"
         id="stop4-7" />
    </linearGradient>
  </defs>
  <rect
     width="478.84375"
     height="480.22144"
     rx="239.42188"
     x="-495.31476"
     y="17.248291"
     id="rect33"
     style="fill:url(#linearGradient1386);fill-opacity:1;stroke-width:1.10236"
     ry="240.11072"
     transform="rotate(-90)" />
  <path
     d="m 263.17476,122.92248 a 131.37961,118.72177 0 0 0 -131.37963,118.71413 131.37961,118.72177 0 0 0 38.75149,84.08252 l 3.3071,56.41118 a 5.4630464,5.3313964 0 0 0 8.19387,4.30921 l 51.44778,-29.27751 a 131.37961,118.72177 0 0 0 29.68131,3.18518 A 131.37961,118.72177 0 0 0 394.55621,241.63691 131.37961,118.72177 0 0 0 263.17668,122.92288 Z"
     fill="#f9f9f9"
     stroke-width="13.1748"
     id="path4" />
  <path
     d="m 254.925,83.628058 0.4865,10.997311 c 16.81139,-1.21539 33.54925,1.01736 49.89459,4.81311 l 2.46654,-10.712172 c -17.75397,-4.573765 -43.67391,-6.213456 -52.84501,-5.098249 z m -65.46143,15.035151 4.34195,10.091151 c 14.32831,-6.33511 26.72392,-9.127981 40.36178,-11.980421 l -1.46434,-10.919722 c -15.39248,2.14159 -30.94259,7.718332 -43.2399,12.808992 z m 136.13455,6.907091 c 13.15247,6.00217 26.43123,12.86956 37.25302,20.10707 l 6.08892,-9.13447 c -12.83377,-8.69893 -27.01442,-15.82765 -39.77174,-21.347881 -0.93674,3.54608 -2.37902,6.930901 -3.5709,10.375281 z m -191.43504,31.41382 7.68177,7.8412 c 10.0307,-10.59579 21.83657,-18.96533 32.88569,-26.39315 l -5.24113,-9.65137 c -13.46389,7.96417 -25.82667,18.79505 -35.32674,28.20332 z m 244.78642,1.96585 c 10.96864,10.33972 19.11829,21.88916 26.23128,32.91331 l 9.63444,-5.20156 c -7.58469,-13.7362 -18.75175,-26.10266 -28.18515,-35.55143 z m -279.787917,56.46092 10.508017,3.02705 c 4.1279,-13.64392 10.76889,-25.38358 18.90979,-37.54411 l -9.04359,-6.15947 c -9.5316,13.29518 -15.00871,26.44876 -20.373112,40.67653 z M 414.3812,191.16752 c 5.50874,13.05594 7.66083,27.02875 8.65831,41.06316 l 10.91918,-0.62092 c 0.0504,-15.47232 -4.49988,-30.16105 -9.45615,-44.58147 z m -319.71568,71.88158 10.79055,-1.83761 c -3.01862,-13.88014 -2.10877,-27.97855 -0.59125,-41.94367 l -10.765067,-1.8367 c -2.838832,15.14353 -1.864927,30.52064 0.565059,45.619 z m 316.46831,30.97229 10.12245,4.16568 c 6.52898,-14.70363 9.95222,-30.39656 12.20524,-43.96128 -3.64443,-0.50139 -7.22228,-0.76575 -10.84193,-1.18894 -1.42878,14.36521 -6.12438,27.75915 -11.48576,41.01342 z m -310.7426,-8.56521 c 5.76609,14.5371 13.62404,28.50991 21.40332,40.15963 2.60022,-2.59597 5.72269,-4.53001 8.58137,-6.77886 -8.68683,-11.38981 -14.574,-24.23709 -19.83456,-37.46714 z m 272.50893,58.14153 6.91124,8.53888 c 11.94627,-9.47025 21.56087,-21.29997 30.11101,-33.84479 l -9.04349,-6.15795 c -7.46401,12.40737 -18.90556,22.93844 -27.97876,31.46386 z m -236.31203,-1.08341 4.70163,4.65683 1.92697,33.12086 10.91888,-0.64725 -2.18351,-37.33778 -7.68179,-7.60731 z m 181.00388,31.74909 3.3917,10.45338 c 16.28975,-5.05075 27.56871,-11.54559 40.82623,-19.25208 l -6.08933,-9.13457 c -12.21088,7.90987 -26.38246,13.81551 -38.12709,17.93367 z m -126.19825,23.51964 5.39523,9.57479 30.16217,-17.1818 5.16417,0.83261 1.72159,-10.89328 -8.94074,-1.42263 z m 63.58834,-15.31775 -0.61643,10.99741 c 16.49079,1.10954 30.68252,-0.88528 45.03673,-3.0294 l -2.46656,-10.73861 c -13.82661,2.86825 -27.91026,3.30967 -41.95313,2.7706 z m -110.47539,19.79388 0.82192,13.99925 c -0.10576,5.3295 1.91166,8.82129 6.44871,10.24584 4.53715,1.42576 15.65669,-2.40728 26.00033,-8.30491 l -5.39533,-9.57469 c -4.49224,4.16142 -13.68308,8.87568 -15.36347,7.84121 -1.6801,-1.03054 -1.38719,-10.50575 -1.59287,-14.85253 z"
     fill="#b4dcf3"
     stroke-width="13.1748"
     id="path6" />
</svg>
