<?xml version="1.0" encoding="UTF-8" standalone="no"?>
<!-- Created with Inkscape (http://www.inkscape.org/) -->

<svg
   version="1.1"
   width="100%"
   height="100%"
   viewBox="0 0 512 512"
   id="svg2"
   sodipodi:docname="tomboy.svg"
   inkscape:version="1.1 (c68e22c387, 2021-05-23)"
   xmlns:inkscape="http://www.inkscape.org/namespaces/inkscape"
   xmlns:sodipodi="http://sodipodi.sourceforge.net/DTD/sodipodi-0.dtd"
   xmlns:xlink="http://www.w3.org/1999/xlink"
   xmlns="http://www.w3.org/2000/svg"
   xmlns:svg="http://www.w3.org/2000/svg"
   xmlns:rdf="http://www.w3.org/1999/02/22-rdf-syntax-ns#"
   xmlns:cc="http://creativecommons.org/ns#"
   xmlns:dc="http://purl.org/dc/elements/1.1/">
  <sodipodi:namedview
     id="namedview58"
     pagecolor="#ffffff"
     bordercolor="#666666"
     borderopacity="1.0"
     inkscape:pageshadow="2"
     inkscape:pageopacity="0.0"
     inkscape:pagecheckerboard="0"
     showgrid="false"
     inkscape:zoom="0.42773437"
     inkscape:cx="-22.210046"
     inkscape:cy="144.94977"
     inkscape:window-width="1366"
     inkscape:window-height="706"
     inkscape:window-x="0"
     inkscape:window-y="0"
     inkscape:window-maximized="1"
     inkscape:current-layer="svg2" />
  <metadata
     id="metadata105">
    <rdf:RDF>
      <cc:Work
         rdf:about="">
        <dc:format>image/svg+xml</dc:format>
        <dc:type
           rdf:resource="http://purl.org/dc/dcmitype/StillImage" />
      </cc:Work>
    </rdf:RDF>
  </metadata>
  <defs
     id="defs4">
    <filter
       color-interpolation-filters="sRGB"
       id="7"
       x="-0.018107638"
       y="-0.017892786"
       width="1.0362153"
       height="1.0357856">
      <feGaussianBlur
         id="feGaussianBlur7"
         stdDeviation="3.7725" />
    </filter>
    <linearGradient
       y1="19.563999"
       x2="0"
       y2="504.01999"
       id="8"
       gradientUnits="userSpaceOnUse">
      <stop
         id="stop10"
         style="stop-color:#f3f3f3;stop-opacity:1"
         offset="0" />
      <stop
         id="stop12"
         style="stop-color:#eeeeee;stop-opacity:1"
         offset="0.5" />
      <stop
         id="stop14"
         style="stop-color:#ebebeb;stop-opacity:1"
         offset="1" />
    </linearGradient>
    <linearGradient
       x1="257"
       x2="362"
       id="5"
       xlink:href="#0"
       gradientUnits="userSpaceOnUse"
       gradientTransform="matrix(1.02835,0,0,1.46193,-461.38616,-70.657516)" />
    <linearGradient
       x1="257"
       x2="362"
       id="6"
       xlink:href="#0"
       gradientUnits="userSpaceOnUse"
       gradientTransform="matrix(1.0381,0,0,1.46193,-511.96798,-128.20761)" />
    <linearGradient
       x1="257"
       x2="362"
       id="4"
       xlink:href="#0"
       gradientUnits="userSpaceOnUse"
       gradientTransform="matrix(1.02835,0,0,1.46193,-469.30198,-116.16761)" />
    <linearGradient
       x1="257"
       x2="362"
       id="3"
       xlink:href="#0"
       gradientUnits="userSpaceOnUse"
       gradientTransform="matrix(1.0381,0,0,1.46193,-511.97098,-104.13761)" />
    <linearGradient
       id="0">
      <stop
         id="stop21"
         style="stop-color:#000000;stop-opacity:1"
         offset="0" />
      <stop
         id="stop23"
         style="stop-color:#ffffff;stop-opacity:1"
         offset="1" />
    </linearGradient>
    <linearGradient
       x1="257"
       x2="362"
       id="2"
       xlink:href="#0"
       gradientUnits="userSpaceOnUse"
       gradientTransform="matrix(1.0381,0,0,1.46193,-511.97198,-104.13761)" />
    <linearGradient
       x1="257"
       x2="362"
       id="1"
       xlink:href="#0"
       gradientUnits="userSpaceOnUse"
       gradientTransform="matrix(1.0381,0,0,1.46193,-511.97198,-116.16761)" />
    <linearGradient
       gradientUnits="userSpaceOnUse"
       y2="504.79999"
       x2="0"
       y1="558.79999"
       id="0-3">
      <stop
         stop-color="#ff9300"
         id="stop14-6" />
      <stop
         stop-color="#ffd702"
         offset="1"
         id="stop16" />
    </linearGradient>
    <linearGradient
       inkscape:collect="always"
       xlink:href="#0-3"
       id="linearGradient890"
       x1="38.5"
       y1="256"
       x2="473.5"
       y2="256"
       gradientUnits="userSpaceOnUse"
       gradientTransform="matrix(1.102616,0,0,1.1026162,-538.5598,-25.979724)" />
  </defs>
  <rect
     width="479.638"
     height="479.638"
     rx="239.819"
     x="-496.10901"
     y="16.471001"
     id="rect45"
     style="fill:url(#linearGradient890);fill-opacity:1;stroke-width:1.10261"
     transform="rotate(-90)"
     ry="239.819" />
  <text
     x="68.63205"
     y="154.7787"
     id="text51"
     style="font-size:135.019px;line-height:125%;font-family:'Gentium Book Basic';letter-spacing:0;word-spacing:0;stroke-width:1.04481"
     transform="scale(1.013644,0.98653966)"><tspan
       x="68.63205"
       y="154.7787"
       id="tspan53"
       style="stroke-width:1.04481" /></text>
  <text
     x="223.01112"
     y="256.30975"
     transform="scale(4.0675717,0.24584693)"
     id="text55"
     style="font-size:49.0578px;font-family:Arial;text-anchor:middle;stroke-width:1.04481" />
  <text
     x="675.94519"
     y="71.19384"
     id="text57"
     style="font-size:135.019px;line-height:125%;font-family:'Gentium Book Basic';letter-spacing:0;word-spacing:0;stroke-width:1.04481"
     transform="scale(1.013644,0.98653966)"><tspan
       x="675.94519"
       y="71.19384"
       id="tspan59"
       style="stroke-width:1.04481" /></text>
  <text
     x="374.35123"
     y="-79.104202"
     transform="scale(4.0675717,0.24584693)"
     id="text61"
     style="font-size:49.0578px;font-family:Arial;text-anchor:middle;stroke-width:1.04481" />
  <text
     x="-443.65353"
     y="-118.18864"
     id="text63"
     style="font-size:135.019px;line-height:125%;font-family:'Gentium Book Basic';letter-spacing:0;word-spacing:0;stroke-width:1.04481"
     transform="scale(1.013644,0.98653966)"><tspan
       x="-443.65353"
       y="-118.18864"
       id="tspan65"
       style="stroke-width:1.04481" /></text>
  <text
     x="95.356766"
     y="-839.0437"
     transform="scale(4.0675717,0.24584693)"
     id="text67"
     style="font-size:49.0578px;font-family:Arial;text-anchor:middle;stroke-width:1.04481" />
  <text
     x="703.60132"
     y="-344.35895"
     id="text69"
     style="font-size:135.019px;line-height:125%;font-family:'Gentium Book Basic';letter-spacing:0;word-spacing:0;stroke-width:1.04481"
     transform="scale(1.013644,0.98653966)"><tspan
       x="703.60132"
       y="-344.35895"
       id="tspan71"
       style="stroke-width:1.04481" /></text>
  <text
     x="381.24698"
     y="-1746.6456"
     transform="scale(4.0675717,0.24584693)"
     id="text73"
     style="font-size:49.0578px;font-family:Arial;text-anchor:middle;stroke-width:1.04481" />
  <text
     x="1310.9187"
     y="-427.94379"
     id="text75"
     style="font-size:135.019px;line-height:125%;font-family:'Gentium Book Basic';letter-spacing:0;word-spacing:0;stroke-width:1.04481"
     transform="scale(1.013644,0.98653966)"><tspan
       x="1310.9187"
       y="-427.94379"
       id="tspan77"
       style="stroke-width:1.04481" /></text>
  <text
     x="532.58704"
     y="-2082.0598"
     transform="scale(4.0675717,0.24584693)"
     id="text79"
     style="font-size:49.0578px;font-family:Arial;text-anchor:middle;stroke-width:1.04481" />
  <text
     x="904.36182"
     y="-921.51245"
     id="text81"
     style="font-size:135.019px;line-height:125%;font-family:'Gentium Book Basic';letter-spacing:0;word-spacing:0;stroke-width:1.04481"
     transform="scale(1.013644,0.98653966)"><tspan
       x="904.36182"
       y="-921.51245"
       id="tspan83"
       style="stroke-width:1.04481" /></text>
  <text
     x="431.27228"
     y="-4062.6663"
     transform="scale(4.0675717,0.24584693)"
     id="text85"
     style="font-size:49.0578px;font-family:Arial;text-anchor:middle;stroke-width:1.04481" />
  <text
     x="1511.6791"
     y="-1005.0972"
     id="text87"
     style="font-size:135.019px;line-height:125%;font-family:'Gentium Book Basic';letter-spacing:0;word-spacing:0;stroke-width:1.04481"
     transform="scale(1.013644,0.98653966)"><tspan
       x="1511.6791"
       y="-1005.0972"
       id="tspan89"
       style="stroke-width:1.04481" /></text>
  <text
     x="582.62274"
     y="-4398.0806"
     transform="scale(4.0675717,0.24584693)"
     id="text91"
     style="font-size:49.0578px;font-family:Arial;text-anchor:middle;stroke-width:1.04481" />
  <text
     x="-403.26114"
     y="473.00732"
     id="text93"
     style="font-size:217.665px;line-height:125%;font-family:'Gentium Book Basic';letter-spacing:0;word-spacing:0;stroke-width:1.04481"
     transform="scale(1.013644,0.98653966)"><tspan
       x="-403.26114"
       y="473.00732"
       id="tspan95"
       style="stroke-width:1.04481" /></text>
  <g
     transform="matrix(1.0590666,0,0,1.0307475,644.88098,108.20829)"
     id="g97"
     style="fill:#ffffff">
    <path
       d="m -313.97,182.81 c 4.063,-15.181 24.353,-21.515 30.656,-37.04 22.349,-34.611 15.731,-84.59 -15.246,-111.92 -26.16,-26.652 -70.07,-30.976 -102.62,-14.219 -34.36,18.533 -54.981,60.4 -45.605,98.8 4.754,23.19 20.16,43.05 39.22,56.53 6.07,3.907 -2.058,17.12 8.263,14.05 28.442,0 56.883,0 85.33,0 0,-2.068 0,-4.136 0,-6.204 m -0.296,39.26 c -1.136,-4.03 2.389,-12.899 -4.439,-11.02 -28.504,0 -57.01,0 -85.51,0 -0.277,7.345 -0.553,14.69 -0.83,22.03 30.399,0 60.798,0 91.2,0 -0.138,-3.672 -0.277,-7.345 -0.415,-11.02 m 0.296,45.13 c -1.224,-3.639 2.991,-12.72 -3.219,-11.373 -29.25,0 -58.49,0 -87.74,0 0,7.582 0,15.16 0,22.745 30.32,0 60.64,0 90.96,0 0,-3.791 0,-7.582 0,-11.373 m -89.42,32.577 h -22.859 c 0,-36.874 0,-73.75 0,-110.62 -37.562,-27.998 -55.09,-80.51 -39.34,-125.07 14.778,-45.692 61.6,-79.67 109.99,-76.2 56.859,-0.33 108.19,51.34 107.51,108.25 2.262,34.29 -14.794,67.47 -40.33,89.6 -5.166,2.725 -4.395,7.966 -4.228,12.951 0,33.696 0,67.39 0,101.09 h -22.859 v 22.864 h -87.88 z"
       inkscape:connector-curvature="0"
       id="path99"
       style="opacity:0.302432;fill:#ffffff" />
    <path
       d="m -328.97,167.81 c 4.063,-15.181 24.353,-21.515 30.656,-37.04 22.349,-34.611 15.731,-84.59 -15.246,-111.92 -26.16,-26.652 -70.07,-30.976 -102.62,-14.219 -34.36,18.533 -54.981,60.4 -45.605,98.8 4.754,23.19 20.16,43.05 39.22,56.53 6.07,3.907 -2.058,17.12 8.263,14.05 28.442,0 56.883,0 85.33,0 0,-2.068 0,-4.136 0,-6.204 m -0.296,39.26 c -1.136,-4.03 2.389,-12.899 -4.439,-11.02 -28.504,0 -57.01,0 -85.51,0 -0.277,7.345 -0.553,14.69 -0.83,22.03 30.399,0 60.798,0 91.2,0 -0.138,-3.672 -0.277,-7.345 -0.415,-11.02 m 0.296,45.13 c -1.224,-3.639 2.991,-12.72 -3.219,-11.373 -29.25,0 -58.49,0 -87.74,0 0,7.582 0,15.16 0,22.745 30.32,0 60.64,0 90.96,0 0,-3.791 0,-7.582 0,-11.373 m -89.42,32.577 h -22.859 c 0,-36.874 0,-73.75 0,-110.62 -37.562,-27.998 -55.09,-80.51 -39.34,-125.07 14.778,-45.692 61.6,-79.67 109.99,-76.2 56.859,-0.33 108.19,51.34 107.51,108.25 2.262,34.29 -14.794,67.47 -40.33,89.6 -5.166,2.725 -4.395,7.966 -4.228,12.951 0,33.696 0,67.39 0,101.09 h -22.859 v 22.864 h -87.88 z"
       inkscape:connector-curvature="0"
       id="path101"
       style="fill:#ffffff" />
  </g>
</svg>
