<?xml version="1.0" encoding="UTF-8" standalone="no"?>
<!-- Created with Inkscape (http://www.inkscape.org/) -->

<svg
   version="1.1"
   width="100%"
   height="100%"
   viewBox="0 0 512 512"
   id="svg2"
   sodipodi:docname="usb-creator.svg"
   inkscape:version="1.1 (c68e22c387, 2021-05-23)"
   xmlns:inkscape="http://www.inkscape.org/namespaces/inkscape"
   xmlns:sodipodi="http://sodipodi.sourceforge.net/DTD/sodipodi-0.dtd"
   xmlns:xlink="http://www.w3.org/1999/xlink"
   xmlns="http://www.w3.org/2000/svg"
   xmlns:svg="http://www.w3.org/2000/svg"
   xmlns:rdf="http://www.w3.org/1999/02/22-rdf-syntax-ns#"
   xmlns:cc="http://creativecommons.org/ns#"
   xmlns:dc="http://purl.org/dc/elements/1.1/">
  <sodipodi:namedview
     id="namedview39"
     pagecolor="#ffffff"
     bordercolor="#666666"
     borderopacity="1.0"
     inkscape:pageshadow="2"
     inkscape:pageopacity="0.0"
     inkscape:pagecheckerboard="0"
     showgrid="false"
     inkscape:zoom="0.60490775"
     inkscape:cx="328.14921"
     inkscape:cy="285.99402"
     inkscape:window-width="1366"
     inkscape:window-height="706"
     inkscape:window-x="0"
     inkscape:window-y="0"
     inkscape:window-maximized="1"
     inkscape:current-layer="svg2" />
  <metadata
     id="metadata65">
    <rdf:RDF>
      <cc:Work
         rdf:about="">
        <dc:format>image/svg+xml</dc:format>
        <dc:type
           rdf:resource="http://purl.org/dc/dcmitype/StillImage" />
      </cc:Work>
    </rdf:RDF>
  </metadata>
  <defs
     id="defs4">
    <filter
       color-interpolation-filters="sRGB"
       id="7"
       x="-0.018107638"
       y="-0.017892785"
       width="1.0362153"
       height="1.0357856">
      <feGaussianBlur
         id="feGaussianBlur7"
         stdDeviation="3.7725" />
    </filter>
    <linearGradient
       y1="19.563999"
       x2="0"
       y2="504.01999"
       id="8"
       gradientUnits="userSpaceOnUse">
      <stop
         id="stop10"
         style="stop-color:#f3f3f3;stop-opacity:1"
         offset="0" />
      <stop
         id="stop12"
         style="stop-color:#eeeeee;stop-opacity:1"
         offset="0.5" />
      <stop
         id="stop14"
         style="stop-color:#ebebeb;stop-opacity:1"
         offset="1" />
    </linearGradient>
    <linearGradient
       x1="257"
       x2="362"
       id="5"
       xlink:href="#0"
       gradientUnits="userSpaceOnUse"
       gradientTransform="matrix(1.02835,0,0,1.46193,-383.73694,-115.70205)" />
    <linearGradient
       x1="257"
       x2="362"
       id="6"
       xlink:href="#0"
       gradientUnits="userSpaceOnUse"
       gradientTransform="matrix(1.0381,0,0,1.46193,-467.2489,-124.14041)" />
    <linearGradient
       x1="257"
       x2="362"
       id="4"
       xlink:href="#0"
       gradientUnits="userSpaceOnUse"
       gradientTransform="matrix(1.02835,0,0,1.46193,-610.00374,-127.97146)" />
    <linearGradient
       x1="257"
       x2="362"
       id="3"
       xlink:href="#0"
       gradientUnits="userSpaceOnUse"
       gradientTransform="matrix(1.0381,0,0,1.46193,-427.0919,-112.11041)" />
    <linearGradient
       id="0">
      <stop
         id="stop21"
         style="stop-color:#000000;stop-opacity:1"
         offset="0" />
      <stop
         id="stop23"
         style="stop-color:#ffffff;stop-opacity:1"
         offset="1" />
    </linearGradient>
    <linearGradient
       x1="257"
       x2="362"
       id="2"
       xlink:href="#0"
       gradientUnits="userSpaceOnUse"
       gradientTransform="matrix(1.0381,0,0,1.46193,-467.2489,-112.11041)" />
    <linearGradient
       x1="257"
       x2="362"
       id="1"
       xlink:href="#0"
       gradientUnits="userSpaceOnUse"
       gradientTransform="matrix(1.0381,0,0,1.46193,-467.2529,-112.11041)" />
    <linearGradient
       id="paint0_linear"
       x1="64.076897"
       y1="120"
       x2="64.076897"
       y2="24"
       gradientUnits="userSpaceOnUse"
       gradientTransform="matrix(3.4852345,0,0,3.3644918,37.108597,10.515631)">
      <stop
         stop-color="#5570FF"
         id="stop6" />
      <stop
         offset="1"
         stop-color="#4DD3FF"
         id="stop8" />
    </linearGradient>
    <linearGradient
       inkscape:collect="always"
       xlink:href="#paint0_linear"
       id="linearGradient863"
       x1="38.5"
       y1="256"
       x2="473.5"
       y2="256"
       gradientUnits="userSpaceOnUse"
       gradientTransform="matrix(1.1026162,0,0,1.1026162,-538.55982,-25.979715)" />
  </defs>
  <rect
     width="479.638"
     height="479.638"
     rx="239.819"
     x="-496.10901"
     y="16.471001"
     id="rect33"
     style="fill:url(#linearGradient863);fill-opacity:1;stroke-width:1.10261"
     transform="rotate(-90)"
     ry="239.819" />
  <path
     d="m 260.06011,98.970888 c -2.98554,-4.80301 -10.19591,-4.80301 -13.18105,0 l -32.48501,52.265462 c -1.53676,2.47289 0.30821,5.61839 3.29528,5.61839 h 17.74828 c 2.12207,0 3.84289,1.66121 3.84289,3.70974 v 161.52331 c -11.08168,-4.50622 -22.56073,-6.21863 -33.25931,-7.71142 -12.41556,-1.71243 -23.72401,-3.42447 -29.71195,-6.42416 -5.95954,-2.98599 -7.97434,-4.43798 -7.97434,-14.12227 v -31.24382 c 8.48506,-4.76702 14.18903,-13.4237 14.18903,-23.54611 0,-7.26554 -2.98974,-14.23354 -8.31174,-19.37118 -5.32203,-5.13761 -12.54008,-8.02378 -20.06635,-8.02378 -7.52628,0 -14.74436,2.88617 -20.06636,8.02378 -5.32199,5.13764 -8.31176,12.10564 -8.31176,19.37118 0,10.10868 5.70401,18.77909 14.18907,23.54611 v 31.24382 c 0,17.71106 10.41494,31.68235 23.05725,38.09279 12.62847,6.42414 26.1646,8.13656 38.58015,9.8486 12.41559,1.71206 23.724,3.42448 29.71197,6.42416 5.97337,2.98596 7.97434,4.43797 7.97434,14.12227 v 2.56121 c -16.4594,5.6848 -28.37846,20.70926 -28.37846,38.53087 0,10.89924 4.48501,21.34959 12.46782,29.05842 7.98281,7.70513 18.81011,12.03441 30.09972,12.03441 11.28959,0 22.1165,-4.32928 30.09931,-12.03441 7.98319,-7.70883 12.46782,-18.15918 12.46782,-29.05842 0,-17.80675 -11.91868,-32.84607 -28.3781,-38.53087 0.11015,-0.8503 0.11015,-1.71096 0,-2.56121 v -25.25854 c 0.0565,-0.68481 0.0565,-1.43827 0,-2.13682 0,-9.14971 2.71001,-11.82072 10.64172,-16.27243 7.93167,-4.43794 21.28374,-8.12285 35.4728,-11.54693 14.18907,-3.42448 29.21509,-6.57479 42.56716,-14.13599 13.35207,-7.53374 24.83074,-21.98467 24.83074,-40.22956 v -20.54641 c 0,-3.78245 3.17652,-6.84856 7.09471,-6.84856 v 0 c 3.9182,0 7.09434,-3.06647 7.09434,-6.84892 v -40.5219 c 0,-4.0974 -3.44091,-7.41947 -7.68575,-7.41947 h -41.38469 c -4.24485,0 -7.68576,3.32207 -7.68576,7.41947 v 40.5219 c 0,3.78245 3.17652,6.84892 7.09471,6.84892 v 0 c 3.91821,0 7.09435,3.06611 7.09435,6.84856 v 20.54641 c 0,9.15007 -2.70999,11.8211 -10.6417,16.2728 -7.9317,4.43798 -21.28377,8.1225 -35.47284,11.54692 -12.96855,3.10915 -26.60458,6.20494 -39.01979,12.42357 v -132.4163 c 0,-2.04853 1.72046,-3.70974 3.84289,-3.70974 h 17.74794 c 2.98706,0 4.83202,-3.1455 3.29528,-5.61839 z"
     fill="url(#paint0_linear)"
     id="path2"
     style="opacity:0.31218;fill:#ffffff;stroke-width:3.77571" />
  <path
     d="m 240.25258,83.999458 c -2.98555,-4.80302 -10.19592,-4.80302 -13.18106,0 l -32.48501,52.265452 c -1.53675,2.4729 0.30823,5.6184 3.29528,5.6184 h 17.7483 c 2.12205,0 3.84288,1.6612 3.84288,3.70973 v 161.52331 c -11.08168,-4.50622 -22.56074,-6.21862 -33.25932,-7.71142 -12.41556,-1.71243 -23.72401,-3.42446 -29.71194,-6.42415 -5.95955,-2.986 -7.97435,-4.43799 -7.97435,-14.12228 v -31.24382 c 8.48507,-4.76702 14.18903,-13.4237 14.18903,-23.5461 0,-7.26554 -2.98974,-14.23355 -8.31174,-19.37118 -5.32203,-5.13762 -12.54008,-8.02377 -20.06634,-8.02377 -7.52628,0 -14.74437,2.88615 -20.06636,8.02377 -5.322,5.13763 -8.31175,12.10564 -8.31175,19.37118 0,10.10867 5.70399,18.77908 14.18905,23.5461 v 31.24382 c 0,17.71108 10.41495,31.68235 23.05725,38.09278 12.62847,6.42414 26.16462,8.13657 38.58015,9.84863 12.41559,1.71204 23.724,3.42446 29.71197,6.42414 5.97338,2.98597 7.97435,4.43797 7.97435,14.12227 v 2.56122 c -16.45941,5.68481 -28.37847,20.70925 -28.37847,38.53086 0,10.89925 4.48503,21.34959 12.46783,29.05842 7.98281,7.70514 18.8101,12.03441 30.09971,12.03441 11.28959,0 22.11651,-4.32927 30.09933,-12.03441 7.98318,-7.70883 12.46781,-18.15917 12.46781,-29.05842 0,-17.80675 -11.91869,-32.84605 -28.3781,-38.53086 0.11015,-0.8503 0.11015,-1.71096 0,-2.56122 v -25.25853 c 0.0565,-0.68483 0.0565,-1.43828 0,-2.13684 0,-9.14971 2.71001,-11.8207 10.64171,-16.27241 7.93167,-4.43795 21.28375,-8.12285 35.47281,-11.54693 14.18905,-3.42449 29.21509,-6.57479 42.56715,-14.136 13.35207,-7.53374 24.83075,-21.98466 24.83075,-40.22956 v -20.5464 c 0,-3.78245 3.17651,-6.84855 7.09471,-6.84855 v 0 c 3.9182,0 7.09433,-3.06647 7.09433,-6.84894 v -40.52188 c 0,-4.09741 -3.4409,-7.41948 -7.68575,-7.41948 h -41.38468 c -4.24486,0 -7.68576,3.32207 -7.68576,7.41948 v 40.52188 c 0,3.78247 3.17651,6.84894 7.09471,6.84894 v 0 c 3.9182,0 7.09434,3.0661 7.09434,6.84855 v 20.5464 c 0,9.15008 -2.70999,11.82111 -10.64169,16.27281 -7.93171,4.43797 -21.28379,8.12249 -35.47283,11.54692 -12.96857,3.10915 -26.60459,6.20494 -39.0198,12.42357 V 145.59304 c 0,-2.04853 1.72045,-3.70973 3.84289,-3.70973 h 17.74794 c 2.98706,0 4.83202,-3.1455 3.29527,-5.6184 z"
     fill="url(#paint0_linear)"
     id="path2-3"
     style="fill:#ffffff;stroke-width:3.77571" />
</svg>
