<?xml version="1.0" encoding="UTF-8" standalone="no"?>
<!-- Created with Inkscape (http://www.inkscape.org/) -->

<svg
   version="1.1"
   width="100%"
   height="100%"
   viewBox="0 0 512 512"
   id="svg2"
   sodipodi:docname="wps-office-wpsmain (copy).svg"
   inkscape:version="1.1 (c68e22c387, 2021-05-23)"
   xmlns:inkscape="http://www.inkscape.org/namespaces/inkscape"
   xmlns:sodipodi="http://sodipodi.sourceforge.net/DTD/sodipodi-0.dtd"
   xmlns:xlink="http://www.w3.org/1999/xlink"
   xmlns="http://www.w3.org/2000/svg"
   xmlns:svg="http://www.w3.org/2000/svg"
   xmlns:rdf="http://www.w3.org/1999/02/22-rdf-syntax-ns#"
   xmlns:cc="http://creativecommons.org/ns#"
   xmlns:dc="http://purl.org/dc/elements/1.1/">
  <sodipodi:namedview
     id="namedview39"
     pagecolor="#ffffff"
     bordercolor="#666666"
     borderopacity="1.0"
     inkscape:pageshadow="2"
     inkscape:pageopacity="0.0"
     inkscape:pagecheckerboard="0"
     showgrid="false"
     inkscape:zoom="0.42773437"
     inkscape:cx="389.26028"
     inkscape:cy="184.69407"
     inkscape:window-width="1366"
     inkscape:window-height="706"
     inkscape:window-x="0"
     inkscape:window-y="0"
     inkscape:window-maximized="1"
     inkscape:current-layer="svg2" />
  <metadata
     id="metadata65">
    <rdf:RDF>
      <cc:Work
         rdf:about="">
        <dc:format>image/svg+xml</dc:format>
        <dc:type
           rdf:resource="http://purl.org/dc/dcmitype/StillImage" />
      </cc:Work>
    </rdf:RDF>
  </metadata>
  <defs
     id="defs4">
    <filter
       color-interpolation-filters="sRGB"
       id="7"
       x="-0.018107638"
       y="-0.017892786"
       width="1.0362153"
       height="1.0357856">
      <feGaussianBlur
         id="feGaussianBlur7"
         stdDeviation="3.7725" />
    </filter>
    <linearGradient
       y1="19.563999"
       x2="0"
       y2="504.01999"
       id="8"
       gradientUnits="userSpaceOnUse">
      <stop
         id="stop10"
         style="stop-color:#f3f3f3;stop-opacity:1"
         offset="0" />
      <stop
         id="stop12"
         style="stop-color:#eeeeee;stop-opacity:1"
         offset="0.5" />
      <stop
         id="stop14"
         style="stop-color:#ebebeb;stop-opacity:1"
         offset="1" />
    </linearGradient>
    <linearGradient
       x1="257"
       x2="362"
       id="5"
       xlink:href="#0"
       gradientUnits="userSpaceOnUse"
       gradientTransform="matrix(1.02835,0,0,1.46193,-383.73694,-115.70205)" />
    <linearGradient
       x1="257"
       x2="362"
       id="6"
       xlink:href="#0"
       gradientUnits="userSpaceOnUse"
       gradientTransform="matrix(1.0381,0,0,1.46193,-467.2489,-124.14041)" />
    <linearGradient
       x1="257"
       x2="362"
       id="4"
       xlink:href="#0"
       gradientUnits="userSpaceOnUse"
       gradientTransform="matrix(1.02835,0,0,1.46193,-610.00374,-127.97146)" />
    <linearGradient
       x1="257"
       x2="362"
       id="3"
       xlink:href="#0"
       gradientUnits="userSpaceOnUse"
       gradientTransform="matrix(1.0381,0,0,1.46193,-427.0919,-112.11041)" />
    <linearGradient
       id="0">
      <stop
         id="stop21"
         style="stop-color:#000000;stop-opacity:1"
         offset="0" />
      <stop
         id="stop23"
         style="stop-color:#ffffff;stop-opacity:1"
         offset="1" />
    </linearGradient>
    <linearGradient
       x1="257"
       x2="362"
       id="2"
       xlink:href="#0"
       gradientUnits="userSpaceOnUse"
       gradientTransform="matrix(1.0381,0,0,1.46193,-467.2489,-112.11041)" />
    <linearGradient
       x1="257"
       x2="362"
       id="1"
       xlink:href="#0"
       gradientUnits="userSpaceOnUse"
       gradientTransform="matrix(1.0381,0,0,1.46193,-467.2529,-112.11041)" />
    <linearGradient
       id="f"
       x1="86"
       x2="63"
       y1="19.458"
       y2="39"
       gradientTransform="matrix(9.9216009,0,0,9.0103275,-1163.4657,-121.67081)"
       gradientUnits="userSpaceOnUse">
      <stop
         stop-color="#007abb"
         offset="0"
         id="stop7" />
      <stop
         stop-color="#006caf"
         offset="1"
         id="stop9" />
    </linearGradient>
    <linearGradient
       id="d"
       x1="87"
       x2="63"
       y1="46"
       y2="24"
       gradientTransform="matrix(1.146,0,0,1.146,-57.378,-5.1691)"
       gradientUnits="userSpaceOnUse">
      <stop
         stop-color="#0080ce"
         offset="0"
         id="stop13" />
      <stop
         stop-color="#008fd5"
         offset="1"
         id="stop15" />
    </linearGradient>
    <linearGradient
       id="c"
       x1="86"
       x2="83"
       y1="44"
       y2="44"
       gradientTransform="matrix(1.146,0,0,1.146,-57.378,-5.1691)"
       gradientUnits="userSpaceOnUse"
       xlink:href="#a" />
    <linearGradient
       id="a">
      <stop
         offset="0"
         id="stop2" />
      <stop
         stop-opacity="0"
         offset="1"
         id="stop4" />
    </linearGradient>
    <linearGradient
       id="e"
       x1="86"
       x2="83"
       y1="20"
       y2="20"
       gradientTransform="matrix(1.146,0,0,1.146,-57.378,-5.1691)"
       gradientUnits="userSpaceOnUse"
       xlink:href="#a" />
    <linearGradient
       inkscape:collect="always"
       xlink:href="#0-3"
       id="linearGradient1386"
       x1="38.5"
       y1="256"
       x2="473.5"
       y2="256"
       gradientUnits="userSpaceOnUse"
       gradientTransform="matrix(1.1007902,0,0,1.1039575,-25.909398,-539.97213)" />
    <linearGradient
       gradientUnits="userSpaceOnUse"
       y2="533.06"
       x2="0"
       y1="541.15997"
       id="1-9"
       gradientTransform="matrix(1.49857,0,0,1.49857,100.4386,-473.61451)">
      <stop
         stop-color="#0976da"
         id="stop52" />
      <stop
         offset="1"
         stop-color="#5de5f0"
         id="stop54" />
    </linearGradient>
    <linearGradient
       id="c-3"
       x1="24.535"
       x2="24.535"
       y1="7.0931001"
       y2="44.483002"
       gradientTransform="matrix(1.4364,0,0,1.4364,1113.3157,-663.27108)"
       gradientUnits="userSpaceOnUse">
      <stop
         stop-color="#76dd38"
         offset="0"
         id="stop4-3" />
      <stop
         stop-color="#42c440"
         offset=".48433"
         id="stop6" />
      <stop
         stop-color="#14ab4b"
         offset="1"
         id="stop8" />
    </linearGradient>
    <linearGradient
       gradientUnits="userSpaceOnUse"
       y2="533.06"
       x2="0"
       y1="541.15997"
       id="1-9-6"
       gradientTransform="matrix(1.49857,0,0,1.49857,100.4386,-473.61451)">
      <stop
         stop-color="#0976da"
         id="stop52-7" />
      <stop
         offset="1"
         stop-color="#5de5f0"
         id="stop54-5" />
    </linearGradient>
    <linearGradient
       id="2-3"
       gradientUnits="userSpaceOnUse"
       y1="542.20001"
       x2="0"
       y2="526.20001"
       gradientTransform="matrix(16.218891,-6.4141578,7.1895904,14.331381,-10274.105,-4767.1645)">
      <stop
         stop-color="#e3e3e3"
         id="stop2-6" />
      <stop
         offset="1"
         stop-color="#fffcff"
         id="stop4-7" />
    </linearGradient>
    <linearGradient
       id="0-3"
       gradientUnits="userSpaceOnUse"
       y1="545.14001"
       x2="0"
       y2="518.14001">
      <stop
         stop-color="#a150c9"
         id="stop2-67" />
      <stop
         offset="1"
         stop-color="#e39aff"
         id="stop4-5" />
    </linearGradient>
  </defs>
  <rect
     width="478.84375"
     height="480.22144"
     rx="239.42188"
     x="16.471008"
     y="-497.46973"
     id="rect33"
     style="fill:url(#linearGradient1386);fill-opacity:1;stroke-width:1.10236"
     ry="240.11072"
     transform="rotate(90)" />
  <g
     transform="matrix(10.792712,0,0,10.921863,-89.354721,-92.980051)"
     fill="#f9f9f9"
     id="g12">
    <path
       d="m 30.824,24.957 v 11.584 a 4.6961,4.6961 0 0 1 -3.519,-4.5381 v -2.9366 c 0,-0.32444 -0.26205,-0.5865 -0.58649,-0.5865 -0.32444,0 -0.58649,0.26205 -0.58649,0.5865 v 2.9366 a 5.8691,5.8691 0 0 0 4.692,5.7443 v 1.2978 h -3.519 v 1.173 h 9.3922 v -1.173 h -3.5273 v -1.2895 a 5.8691,5.8691 0 0 0 4.7003,-5.7526 v -2.9366 c 0,-0.32444 -0.26205,-0.5865 -0.58649,-0.5865 -0.32444,0 -0.58649,0.26205 -0.58649,0.5865 v 2.9366 a 4.6961,4.6961 0 0 1 -3.5273,4.5464 v -11.588 h -2.346 z"
       id="path4" />
    <path
       d="m 32.001,14.391 c -9.725,0 -17.607,7.8823 -17.607,17.607 0,9.7247 7.8823,17.607 17.607,17.607 9.7247,0 17.607,-7.8823 17.607,-17.607 0,-9.7247 -7.8823,-17.607 -17.607,-17.607 z m -0.0042,1.173 c 9.0761,0 16.438,7.3582 16.438,16.434 0,9.0761 -7.3624,16.434 -16.438,16.434 -9.0756,0 -16.434,-7.3582 -16.434,-16.434 0,-9.0761 7.3582,-16.434 16.434,-16.434 z"
       id="path6" />
    <path
       d="m 31.997,17.914 c -7.7783,0 -14.088,6.3059 -14.088,14.088 0,7.7783 6.3059,14.088 14.088,14.088 7.7783,0 14.088,-6.3059 14.088,-14.088 0,-7.7783 -6.3059,-14.088 -14.088,-14.088 z m 0,1.173 c 7.1336,0 12.911,5.7818 12.911,12.911 0,7.1336 -5.7818,12.911 -12.911,12.911 -7.1336,0 -12.911,-5.7818 -12.911,-12.911 0,-7.1336 5.7818,-12.911 12.911,-12.911 z"
       id="path8" />
    <path
       d="m 32,22.609 c -1.9452,0 -3.5217,1.1739 -3.5217,2.9348 v 0.58696 h 7.0435 V 25.5438 c 0,-1.7609 -1.5766,-2.9348 -3.5217,-2.9348 z m -3.5217,4.6957 v 1.1739 h 7.0435 v -1.1739 z m 0,2.3478 v 1.1739 h 7.0435 v -1.1739 z m 0,2.3478 v 0.58696 c 0,1.7609 1.5766,2.9348 3.5217,2.9348 1.9451,0 3.5217,-1.1739 3.5217,-2.9348 V 32.0003 Z"
       id="path10" />
  </g>
</svg>
