<?xml version="1.0" encoding="UTF-8" standalone="no"?>
<!-- Created with Inkscape (http://www.inkscape.org/) -->

<svg
   version="1.1"
   width="100%"
   height="100%"
   viewBox="0 0 512 512"
   id="svg2"
   sodipodi:docname="wxcas (copy).svg"
   inkscape:version="1.1 (c68e22c387, 2021-05-23)"
   xmlns:inkscape="http://www.inkscape.org/namespaces/inkscape"
   xmlns:sodipodi="http://sodipodi.sourceforge.net/DTD/sodipodi-0.dtd"
   xmlns:xlink="http://www.w3.org/1999/xlink"
   xmlns="http://www.w3.org/2000/svg"
   xmlns:svg="http://www.w3.org/2000/svg"
   xmlns:rdf="http://www.w3.org/1999/02/22-rdf-syntax-ns#"
   xmlns:cc="http://creativecommons.org/ns#"
   xmlns:dc="http://purl.org/dc/elements/1.1/">
  <sodipodi:namedview
     id="namedview39"
     pagecolor="#ffffff"
     bordercolor="#666666"
     borderopacity="1.0"
     inkscape:pageshadow="2"
     inkscape:pageopacity="0.0"
     inkscape:pagecheckerboard="0"
     showgrid="false"
     inkscape:zoom="0.30245387"
     inkscape:cx="-102.49497"
     inkscape:cy="383.52956"
     inkscape:window-width="1366"
     inkscape:window-height="699"
     inkscape:window-x="0"
     inkscape:window-y="0"
     inkscape:window-maximized="1"
     inkscape:current-layer="svg2"
     inkscape:lockguides="false" />
  <metadata
     id="metadata65">
    <rdf:RDF>
      <cc:Work
         rdf:about="">
        <dc:format>image/svg+xml</dc:format>
        <dc:type
           rdf:resource="http://purl.org/dc/dcmitype/StillImage" />
      </cc:Work>
    </rdf:RDF>
  </metadata>
  <defs
     id="defs4">
    <filter
       color-interpolation-filters="sRGB"
       id="7"
       x="-0.018107638"
       y="-0.017892786"
       width="1.0362153"
       height="1.0357856">
      <feGaussianBlur
         id="feGaussianBlur7"
         stdDeviation="3.7725" />
    </filter>
    <linearGradient
       y1="19.563999"
       x2="0"
       y2="504.01999"
       id="8"
       gradientUnits="userSpaceOnUse">
      <stop
         id="stop10"
         style="stop-color:#f3f3f3;stop-opacity:1"
         offset="0" />
      <stop
         id="stop12"
         style="stop-color:#eeeeee;stop-opacity:1"
         offset="0.5" />
      <stop
         id="stop14"
         style="stop-color:#ebebeb;stop-opacity:1"
         offset="1" />
    </linearGradient>
    <linearGradient
       x1="257"
       x2="362"
       id="5"
       xlink:href="#0"
       gradientUnits="userSpaceOnUse"
       gradientTransform="matrix(1.02835,0,0,1.46193,-383.73694,-115.70205)" />
    <linearGradient
       x1="257"
       x2="362"
       id="6"
       xlink:href="#0"
       gradientUnits="userSpaceOnUse"
       gradientTransform="matrix(1.0381,0,0,1.46193,-467.2489,-124.14041)" />
    <linearGradient
       x1="257"
       x2="362"
       id="4"
       xlink:href="#0"
       gradientUnits="userSpaceOnUse"
       gradientTransform="matrix(1.02835,0,0,1.46193,-610.00374,-127.97146)" />
    <linearGradient
       x1="257"
       x2="362"
       id="3"
       xlink:href="#0"
       gradientUnits="userSpaceOnUse"
       gradientTransform="matrix(1.0381,0,0,1.46193,-427.0919,-112.11041)" />
    <linearGradient
       id="0">
      <stop
         id="stop21"
         style="stop-color:#000000;stop-opacity:1"
         offset="0" />
      <stop
         id="stop23"
         style="stop-color:#ffffff;stop-opacity:1"
         offset="1" />
    </linearGradient>
    <linearGradient
       x1="257"
       x2="362"
       id="2"
       xlink:href="#0"
       gradientUnits="userSpaceOnUse"
       gradientTransform="matrix(1.0381,0,0,1.46193,-467.2489,-112.11041)" />
    <linearGradient
       x1="257"
       x2="362"
       id="1"
       xlink:href="#0"
       gradientUnits="userSpaceOnUse"
       gradientTransform="matrix(1.0381,0,0,1.46193,-467.2529,-112.11041)" />
    <linearGradient
       id="SVGID_3_"
       gradientUnits="userSpaceOnUse"
       x1="212.132"
       x2="284.116"
       y1="189.196"
       y2="261.17999">
      <stop
         offset="0"
         stop-color="#ebeff0"
         id="stop12-3" />
      <stop
         offset="1"
         stop-color="#e3e5e4"
         id="stop14-6" />
    </linearGradient>
    <linearGradient
       gradientTransform="matrix(0.69204,0,0,0.67579,117.88,177.07)"
       gradientUnits="userSpaceOnUse"
       y2="516.46002"
       x2="409.48999"
       y1="542.79999"
       x1="409.57001"
       id="0-7">
      <stop
         stop-color="#e54141"
         id="stop2" />
      <stop
         offset="1"
         stop-color="#ffbd00"
         id="stop4" />
    </linearGradient>
    <linearGradient
       inkscape:collect="always"
       xlink:href="#0-36"
       id="linearGradient920"
       x1="38.5"
       y1="256"
       x2="473.5"
       y2="256"
       gradientUnits="userSpaceOnUse"
       gradientTransform="matrix(1.102616,0,0,1.1026162,-538.55974,-25.979713)" />
    <linearGradient
       id="0-3"
       gradientUnits="userSpaceOnUse"
       y1="545.14001"
       x2="0"
       y2="518.14001">
      <stop
         stop-color="#a150c9"
         id="stop8" />
      <stop
         offset="1"
         stop-color="#e39aff"
         id="stop10-5" />
    </linearGradient>
    <linearGradient
       gradientUnits="userSpaceOnUse"
       gradientTransform="translate(484.92854,-250.94928)"
       y2="62"
       y1="2"
       x2="32"
       x1="32"
       id="a-3-5">
      <stop
         id="stop870"
         offset="0"
         stop-color="#f5faff" />
      <stop
         id="stop872"
         offset="1"
         stop-color="#cfdef0" />
    </linearGradient>
    <linearGradient
       gradientUnits="userSpaceOnUse"
       y2="533.06"
       x2="0"
       y1="541.15997"
       id="1-9-6-36"
       gradientTransform="matrix(1.49857,0,0,1.49857,100.4386,-473.61451)">
      <stop
         stop-color="#0976da"
         id="stop52-7-7" />
      <stop
         offset="1"
         stop-color="#5de5f0"
         id="stop54-5-5" />
    </linearGradient>
    <linearGradient
       id="linearGradient-1"
       x1="93.544998"
       x2="18.601999"
       y1="104.29"
       y2="21.722"
       gradientTransform="scale(1.0497,0.95269)"
       gradientUnits="userSpaceOnUse">
      <stop
         stop-color="#130036"
         offset="0"
         id="stop9" />
      <stop
         stop-color="#18023B"
         offset=".2297"
         id="stop11" />
      <stop
         stop-color="#26094A"
         offset=".5122"
         id="stop13" />
      <stop
         stop-color="#3D1563"
         offset=".8211"
         id="stop15" />
      <stop
         stop-color="#4E1D75"
         offset="1"
         id="stop17" />
    </linearGradient>
    <linearGradient
       id="linearGradient-2"
       x1="6.1662998"
       x2="34.738998"
       y1="38.339001"
       y2="38.339001"
       gradientTransform="scale(0.81742,1.2234)"
       gradientUnits="userSpaceOnUse">
      <stop
         stop-color="#3156A8"
         offset="0"
         id="stop20" />
      <stop
         stop-color="#3351A4"
         offset=".2474"
         id="stop22" />
      <stop
         stop-color="#3B4397"
         offset=".5365"
         id="stop24" />
      <stop
         stop-color="#472C82"
         offset=".8453"
         id="stop26" />
      <stop
         stop-color="#4E1D75"
         offset="1"
         id="stop28" />
    </linearGradient>
    <radialGradient
       id="radialGradient-3"
       cx="38.772999"
       cy="42.032001"
       r="55.952"
       gradientTransform="scale(0.74974,1.3338)"
       gradientUnits="userSpaceOnUse">
      <stop
         stop-color="#14CDDA"
         offset=".1654"
         id="stop31" />
      <stop
         stop-color="#2061BD"
         offset=".5478"
         id="stop33" />
      <stop
         stop-color="#2658AC"
         offset=".6546"
         id="stop35" />
      <stop
         stop-color="#373F81"
         offset=".864"
         id="stop37" />
      <stop
         stop-color="#432D62"
         offset="1"
         id="stop39" />
    </radialGradient>
    <linearGradient
       id="linearGradient1008"
       x1="0.19829001"
       x2="58.432999"
       y1="29.618"
       y2="29.618"
       gradientTransform="scale(1.242,0.80516)"
       gradientUnits="userSpaceOnUse"
       xlink:href="#linearGradient-4" />
    <linearGradient
       id="linearGradient-4"
       x1="1.1634e-05"
       y1="0.49998999"
       y2="0.49998999">
      <stop
         stop-color="#2061BD"
         offset="0"
         id="stop43" />
      <stop
         stop-color="#2B51AC"
         offset=".1846"
         id="stop45" />
      <stop
         stop-color="#442C84"
         offset=".6826"
         id="stop47" />
      <stop
         stop-color="#4E1D75"
         offset=".9409"
         id="stop49" />
    </linearGradient>
    <linearGradient
       id="linearGradient1138"
       x1="1.1634e-05"
       y1="0.49998999"
       y2="0.49998999">
      <stop
         stop-color="#2061BD"
         offset="0"
         id="stop1130" />
      <stop
         stop-color="#2B51AC"
         offset=".1846"
         id="stop1132" />
      <stop
         stop-color="#442C84"
         offset=".6826"
         id="stop1134" />
      <stop
         stop-color="#4E1D75"
         offset=".9409"
         id="stop1136" />
    </linearGradient>
    <linearGradient
       id="linearGradient-5"
       x1="27.301001"
       x2="69.007004"
       y1="13.621"
       y2="65.202003"
       gradientTransform="scale(1.1928,0.83838)"
       gradientUnits="userSpaceOnUse">
      <stop
         stop-color="#48A8E0"
         offset=".0202"
         id="stop52" />
      <stop
         stop-color="#2061BD"
         offset=".3883"
         id="stop54" />
      <stop
         stop-color="#2B51AC"
         offset=".4968"
         id="stop56" />
      <stop
         stop-color="#442C84"
         offset=".7892"
         id="stop58" />
      <stop
         stop-color="#4E1D75"
         offset=".9409"
         id="stop60" />
    </linearGradient>
    <linearGradient
       id="linearGradient-6"
       x1="12.234"
       x2="135.44"
       y1="131.42"
       y2="16.993999"
       gradientTransform="scale(0.79148,1.2635)"
       gradientUnits="userSpaceOnUse">
      <stop
         stop-color="#3156A8"
         offset=".3787"
         id="stop63" />
      <stop
         stop-color="#4E1D75"
         offset="1"
         id="stop65" />
    </linearGradient>
    <linearGradient
       id="linearGradient-7"
       x1="55.195999"
       x2="117.71"
       y1="118.27"
       y2="13.812"
       gradientTransform="scale(0.86253,1.1594)"
       gradientUnits="userSpaceOnUse">
      <stop
         stop-color="#29ABE2"
         offset="0"
         id="stop68" />
      <stop
         stop-color="#385AA6"
         offset=".7733"
         id="stop70" />
      <stop
         stop-color="#414293"
         offset=".8575"
         id="stop72" />
      <stop
         stop-color="#4E1D75"
         offset="1"
         id="stop74" />
    </linearGradient>
    <linearGradient
       id="linearGradient-8"
       x1="26.261"
       x2="29.51"
       y1="40.964001"
       y2="42.493"
       gradientTransform="scale(0.9045,1.1056)"
       gradientUnits="userSpaceOnUse">
      <stop
         stop-color="#B0DCD6"
         offset="0"
         id="stop77" />
      <stop
         stop-color="#53ACE0"
         offset="1"
         id="stop79" />
    </linearGradient>
    <linearGradient
       id="linearGradient1016"
       x1="4.6623001"
       x2="0.73539001"
       y1="4.2711"
       y2="2.4033"
       gradientTransform="scale(1.5005,0.66645)"
       gradientUnits="userSpaceOnUse"
       xlink:href="#linearGradient-9" />
    <linearGradient
       id="linearGradient-9"
       x1="0.90678"
       x2="0.10458"
       y1="0.71357"
       y2="0.33201">
      <stop
         stop-color="#3092B9"
         offset="0"
         id="stop83" />
      <stop
         stop-color="#258DB6"
         offset=".2199"
         id="stop85" />
      <stop
         stop-color="#1685B1"
         offset=".6564"
         id="stop87" />
      <stop
         stop-color="#1082AF"
         offset="1"
         id="stop89" />
    </linearGradient>
    <linearGradient
       id="linearGradient-10"
       x1="40.854"
       x2="45.837002"
       y1="18.208"
       y2="37.132"
       gradientTransform="scale(0.97306,1.0277)"
       gradientUnits="userSpaceOnUse">
      <stop
         stop-color="#1398D1"
         stop-opacity="0"
         offset=".0074"
         id="stop92" />
      <stop
         stop-color="#1187C2"
         stop-opacity=".6197"
         offset=".2482"
         id="stop94" />
      <stop
         stop-color="#3F6499"
         stop-opacity=".71"
         offset=".6422"
         id="stop96" />
      <stop
         stop-color="#2F4282"
         stop-opacity=".5"
         offset="1"
         id="stop98" />
    </linearGradient>
    <linearGradient
       id="linearGradient-11"
       x1="37.583"
       x2="34.780998"
       y1="34.328999"
       y2="32.799"
       gradientTransform="scale(0.95318,1.0491)"
       gradientUnits="userSpaceOnUse">
      <stop
         stop-color="#F9C21B"
         offset="0"
         id="stop101" />
      <stop
         stop-color="#F3BA1B"
         offset=".1479"
         id="stop103" />
      <stop
         stop-color="#E3A41B"
         offset=".3787"
         id="stop105" />
      <stop
         stop-color="#C9801C"
         offset=".6634"
         id="stop107" />
      <stop
         stop-color="#A44E1C"
         offset=".9884"
         id="stop109" />
      <stop
         stop-color="#A34C1C"
         offset="1"
         id="stop111" />
    </linearGradient>
    <linearGradient
       id="linearGradient-12"
       x1="130.82001"
       x2="107.49"
       y1="49.676998"
       y2="18.142"
       gradientTransform="scale(0.7757,1.2892)"
       gradientUnits="userSpaceOnUse">
      <stop
         stop-color="#409EC3"
         offset="0"
         id="stop114" />
      <stop
         stop-color="#2061BD"
         offset=".62"
         id="stop116" />
    </linearGradient>
    <linearGradient
       id="linearGradient-13"
       x1="81.893997"
       x2="69.683998"
       y1="53.868"
       y2="11.475"
       gradientTransform="scale(1.0622,0.94149)"
       gradientUnits="userSpaceOnUse">
      <stop
         stop-color="#14B2DA"
         offset="0"
         id="stop119" />
      <stop
         stop-color="#297CCC"
         offset=".4028"
         id="stop121" />
      <stop
         stop-color="#256FC5"
         offset=".5077"
         id="stop123" />
      <stop
         stop-color="#2164BF"
         offset=".6492"
         id="stop125" />
      <stop
         stop-color="#2061BD"
         offset=".8162"
         id="stop127" />
      <stop
         stop-color="#2061BD"
         offset=".9835"
         id="stop129" />
    </linearGradient>
    <linearGradient
       gradientUnits="userSpaceOnUse"
       y2="49.062"
       y1="19.232"
       x2="32.389999"
       x1="32.389999"
       id="linearGradient997"
       gradientTransform="matrix(9.1032592,0,0,8.6988118,-547.33891,-373.12666)">
      <stop
         id="stop12-36"
         offset="0"
         stop-color="#f5fdff" />
      <stop
         id="stop14-7"
         offset="1"
         stop-color="#c9e5ff" />
    </linearGradient>
    <linearGradient
       y2="517.77002"
       x2="400.70001"
       y1="546.07001"
       x1="400.51001"
       gradientUnits="userSpaceOnUse"
       id="0-36"
       gradientTransform="matrix(1.7142811,0,0,1.7142811,-949.53959,-777.74995)">
      <stop
         stop-color="#ff9300"
         id="stop5" />
      <stop
         offset="1"
         stop-color="#ffd702"
         id="stop7" />
    </linearGradient>
  </defs>
  <rect
     width="479.638"
     height="479.638"
     rx="239.819"
     x="-496.10901"
     y="16.471008"
     id="rect33"
     style="fill:url(#linearGradient920);fill-opacity:1;stroke-width:1.10261"
     transform="rotate(-90)" />
  <ellipse
     cx="256.32785"
     cy="259.42426"
     fill="#ffffff"
     opacity="0.15"
     stroke-width="29.219"
     style="paint-order:stroke markers fill"
     id="circle6"
     rx="206.45512"
     ry="211.03035" />
  <path
     d="m 254.92631,83.574042 c -29.41318,0 -57.1137,7.648207 -81.35459,21.023638 h 34.25214 v 2.40714 c -4.54016,0.23766 -7.63206,1.48214 -9.29864,3.71139 -3.45972,-2.50191 -6.87346,-3.71139 -10.14917,-3.71139 h -11.26421 l -6.28723,1.01975 -1.12641,-1.01975 h -0.35673 c -4.49419,2.6442 -8.85044,5.51383 -13.06873,8.5731 9.65498,14.31224 15.4939,26.63231 17.50535,37.00786 h 9.3447 v 2.40712 h -7.18382 v 2.69164 c 2.73564,10.37554 4.75856,15.56918 6.05741,15.56918 h 2.19529 l 4.98846,-1.33996 1.08044,1.33996 1.12641,-1.33996 1.08043,1.33996 v 0.97271 c -3.67815,2.72724 -6.14928,6.43873 -7.41363,11.20558 h -0.80486 v 2.35959 h 1.93097 c 2.5631,37.56523 7.32168,66.04733 14.27554,85.45845 l 4.08038,3.33203 h 2.19537 c 2.60917,0 8.52859,-13.1502 17.28703,-39.50987 5.655,-11.85768 9.79283,-22.37551 12.34456,-31.36357 l -1.2069,-3.74708 c 5.70108,-8.75099 11.67793,-13.1501 17.59733,-13.1501 h 1.93097 c 3.81608,0 6.55161,2.50189 8.17232,7.45847 5.16081,7.41103 9.34461,18.61649 12.39054,33.4861 l 15.40194,35.11056 c 1.97693,2.502 2.96542,5.27668 2.96542,8.4309 5.6551,13.29241 10.8159,22.09082 15.49401,26.35957 h 3.32177 c 3.81598,0 8.85034,-16.44653 15.30999,-49.32796 1.12642,0 4.08039,-8.75097 9.11473,-26.35966 v -1.33994 l -17.37889,-2.31218 -4.04588,1.29241 h -5.25277 v -2.69162 l 10.45955,-1.06719 h 20.29836 c 7.90792,-29.03946 15.12618,-51.55728 21.68926,-67.57701 0.72419,-10.18571 1.52865,-18.6166 2.33332,-25.70745 -11.94232,-10.18581 -25.22938,-18.80631 -39.55099,-25.434786 -1.20679,2.774676 -3.41374,4.173896 -6.91933,4.173896 v -2.31217 l 6.37918,-2.181912 C 303.54525,89.040732 279.87914,83.62177 255.00602,83.62177 m -32.90731,20.98815 h 27.7465 v 2.40713 l -6.28723,1.01976 -6.1033,-1.01976 -5.20679,2.35971 -1.83902,-2.35971 h -8.26419 v -2.40713 m 57.33211,19.31616 h 3.01142 v 1.01983 c 0,1.57702 -1.03446,2.31218 -3.01142,2.31218 l -1.17239,1.33996 v 1.33994 l -3.01141,-1.33994 v -2.31228 m -143.27292,10.42297 c -30.62007,32.09872 -49.6082,76.19744 -49.6082,124.82593 0,98.19349 77.27432,177.81792 172.41023,177.81792 95.182,0 172.41024,-79.62443 172.41024,-177.81792 0,-39.74702 -12.57444,-76.42287 -33.76943,-105.9841 -4.66652,5.65614 -9.1607,16.39919 -13.65488,32.24103 -1.97695,16.39919 -5.39069,31.63633 -10.14917,45.58096 -4.2183,14.40712 -6.33319,27.69962 -6.33319,39.87749 l -7.94243,23.98804 c 0,1.99216 3.10346,4.03168 9.06883,6.02377 -1.1264,4.76672 -2.68967,7.09084 -4.98847,7.09084 v 1.33994 h 1.93107 v 1.01975 c 0,2.502 -3.13786,3.71149 -9.3447,3.71149 l 1.12643,1.33995 v 4.76675 h -1.88501 c 1.25287,4.7194 3.95391,7.04351 8.17221,7.04351 v 2.40703 h -8.17221 v 1.33995 c 2.68967,0 4.08038,1.99207 4.08038,6.02375 l -11.49402,4.71931 1.12642,1.33995 v 1.06718 c 0,1.57712 -1.39082,2.31228 -4.12636,2.31228 v 1.33985 c 3.45972,0 5.2068,0.78319 5.2068,2.35971 -4.89643,2.03951 -11.40206,12.09483 -19.48234,30.10665 -8.21818,15.98423 -15.35605,23.95252 -21.28691,23.95252 h -2.19537 c -4.57458,-3.61652 -8.31017,-15.56907 -11.26412,-35.81022 -11.7239,-30.88922 -17.55135,-49.00784 -17.55135,-54.37937 0,-13.99205 -3.81608,-28.81414 -11.31009,-44.60854 -1.97706,-6.99607 -3.32179,-15.7945 -4.04597,-26.4071 l -4.98837,-1.29252 c -12.48248,23.20555 -18.94215,41.31222 -19.4823,54.37939 -3.45975,7.6838 -6.19539,16.90901 -8.21831,27.74696 7.49412,2.40713 11.22969,4.76682 11.22969,7.09094 v 1.24508 c -5.83899,-0.83032 -9.91938,-2.59688 -12.29866,-5.09888 -2.60907,6.16606 -5.97684,23.01582 -10.19515,50.66791 -3.32179,12.8301 -7.36766,19.2688 -12.34455,19.2688 -13.87329,-5.60867 -25.55122,-14.86961 -34.82692,-27.65217 -1.48266,0 -3.90793,-6.43871 -7.18375,-19.31615 -2.02293,0 -3.36774,-6.39131 -4.12634,-19.22128 -6.91934,-18.24899 -11.67793,-39.14225 -14.22956,-62.52571 v -35.11053 h -1.1264 l -4.94249,1.33994 v -1.33994 c 0,-1.62456 1.66666,-2.35972 4.94249,-2.35972 l -1.08044,-20.24104 v -15.88937 l -7.98842,-50.63229 v -9.81818 m 132.04333,0.50943 v 1.33984 c 0,1.75492 -4.35625,3.71149 -13.1607,5.69172 v -2.40713 l 6.05735,-3.28459 1.08043,0.97272 h 0.85054 m -24.47078,9.81818 v 0.97273 c -3.81608,3.66405 -10.1033,6.90121 -18.67776,9.86561 v -2.3597 c 1.48267,0 2.19527,-1.24499 2.19527,-3.74699 l 16.48249,-4.6838 m 155.26111,1.29251 -0.4938,4.35177 h 1.93098 l 1.17239,-0.97272 c -0.85055,-1.16204 -1.74706,-2.31227 -2.64368,-3.42689 m -103.04384,10.51773 1.12642,1.33995 v 0.97273 l -1.93098,2.72723 h -1.08044 l -2.19538,-2.72723 v -0.97273 m 41.93017,0 h 1.08044 v 0.97273 l -1.83903,2.72723 h -1.12642 v -1.33985 l 1.88501,-2.31227 m -17.28695,16.81415 4.12636,3.42689 c -0.72418,2.45457 -2.78163,3.71149 -6.05734,3.71149 l -2.19537,-3.71149 c 0,-1.16206 1.39071,-2.26473 4.08038,-3.42689 m 24.73508,15.56917 0.80486,1.29251 v 1.0672 l -0.80486,1.33994 h -2.19539 v -1.33994 m -36.72337,9.77073 v 1.0672 l -5.20677,5.05133 h -3.01142 v -1.33985 c 0,-1.99207 2.73564,-3.61662 8.21819,-4.7194 m -170.21485,46.92089 h 1.12641 v 1.11464 c -2.73554,7.41102 -5.11483,11.85768 -7.09179,13.48222 h -2.16086 v -5.1463 m 142.42237,47.01577 h 1.08043 v 2.31228 l -8.21829,5.1462 -1.08043,-1.33996 v -2.35959 l 8.21829,-3.71149 m -112.79079,15.84182 h 1.88501 l 3.27581,13.10278 h -2.19537 l -2.96545,-12.13045 v -1.01974 m 109.7793,15.56917 h 0.80484 l 3.27572,3.74708 -1.08044,1.01974 H 255.949 l -1.88501,-3.37946"
     fill="#f9f9f9"
     fill-opacity="0.855"
     id="path24"
     style="stroke-width:11.6745" />
</svg>
